<svg xmlns="http://www.w3.org/2000/svg" width="50mm" height="50mm" viewBox="0 0 177.165 177.165"><path d="M141.797 18.77c-51.836 0-93.856 41.964-93.859 93.726a93.68 93.68 0 0 0 27.492 66.281 93.92 93.92 0 0 0 66.367 27.453 93.93 93.93 0 0 0 66.363-27.457 93.66 93.66 0 0 0 27.488-66.277 93.66 93.66 0 0 0-24.433-62.914l-61.246 68.184a9.57 9.57 0 0 1-6.809 2.816 9.58 9.58 0 0 1-6.812-2.816c-3.766-3.758-3.766-9.852 0-13.614l68.269-61.148a93.94 93.94 0 0 0-62.82-24.234m-15.738 34.312c2.691 6.012 8.718 10.199 15.742 10.199 7.011 0 13.043-4.187 15.734-10.199a61.7 61.7 0 0 1 15.199 6.313c-.609 1.566-.945 3.207-1.074 4.843l-20.578 17.891a31.4 31.4 0 0 0-9.281-1.387C124.266 80.742 110 94.98 110 112.508c0 17.5 14.266 31.75 31.801 31.75 17.527 0 31.797-14.25 31.797-31.75 0-3.383-.543-6.629-1.516-9.68l17.547-20.156a17.4 17.4 0 0 0 5.344-1.059 61 61 0 0 1 6.316 15.157c-6.012 2.703-10.203 8.722-10.203 15.738 0 7.004 4.191 13.019 10.203 15.707a61 61 0 0 1-6.316 15.168c-6.153-2.321-13.368-1.035-18.325 3.91-4.96 4.961-6.253 12.152-3.914 18.309a61.4 61.4 0 0 1-15.199 6.308c-2.691-6.004-8.723-10.195-15.734-10.195-7.024 0-13.051 4.191-15.742 10.195a61 61 0 0 1-15.188-6.308c2.336-6.157 1.035-13.348-3.93-18.309-4.937-4.945-12.16-6.231-18.312-3.91a61 61 0 0 1-6.328-15.168c6.015-2.688 10.211-8.703 10.211-15.707 0-7.016-4.196-13.035-10.211-15.723a61.2 61.2 0 0 1 6.328-15.172c6.152 2.321 13.375 1.035 18.312-3.929 4.965-4.946 6.266-12.145 3.93-18.289a61.3 61.3 0 0 1 15.188-6.313" style="fill:#13beb7;fill-opacity:1;fill-rule:nonzero;stroke:none" transform="translate(-24.19 -.892)scale(.79533)"/></svg>