<svg xmlns="http://www.w3.org/2000/svg" xml:space="preserve" width="1300" height="300"><path d="M141.797 18.77c-51.836 0-93.856 41.964-93.859 93.726a93.68 93.68 0 0 0 27.492 66.281 93.92 93.92 0 0 0 66.367 27.453 93.93 93.93 0 0 0 66.363-27.457 93.66 93.66 0 0 0 27.488-66.277 93.66 93.66 0 0 0-24.433-62.914l-61.246 68.184a9.57 9.57 0 0 1-6.809 2.816 9.58 9.58 0 0 1-6.812-2.816c-3.766-3.758-3.766-9.852 0-13.614l68.269-61.148a93.94 93.94 0 0 0-62.82-24.234m-15.738 34.312c2.691 6.012 8.718 10.199 15.742 10.199 7.011 0 13.043-4.187 15.734-10.199a61.7 61.7 0 0 1 15.199 6.313c-.609 1.566-.945 3.207-1.074 4.843l-20.578 17.891a31.4 31.4 0 0 0-9.281-1.387C124.266 80.742 110 94.98 110 112.508c0 17.5 14.266 31.75 31.801 31.75 17.527 0 31.797-14.25 31.797-31.75 0-3.383-.543-6.629-1.516-9.68l17.547-20.156a17.4 17.4 0 0 0 5.344-1.059 61 61 0 0 1 6.316 15.157c-6.012 2.703-10.203 8.722-10.203 15.738 0 7.004 4.191 13.019 10.203 15.707a61 61 0 0 1-6.316 15.168c-6.153-2.321-13.368-1.035-18.325 3.91-4.96 4.961-6.253 12.152-3.914 18.309a61.4 61.4 0 0 1-15.199 6.308c-2.691-6.004-8.723-10.195-15.734-10.195-7.024 0-13.051 4.191-15.742 10.195a61 61 0 0 1-15.188-6.308c2.336-6.157 1.035-13.348-3.93-18.309-4.937-4.945-12.16-6.231-18.312-3.91a61 61 0 0 1-6.328-15.168c6.015-2.688 10.211-8.703 10.211-15.707 0-7.016-4.196-13.035-10.211-15.723a61.2 61.2 0 0 1 6.328-15.172c6.152 2.321 13.375 1.035 18.312-3.929 4.965-4.946 6.266-12.145 3.93-18.289a61.3 61.3 0 0 1 15.188-6.313" style="fill:#13beb7;fill-opacity:1;fill-rule:nonzero;stroke:none" transform="scale(1.33333)"/><path d="M594.008 45.018v51.617c-2.727-5.086-6.75-9.165-12.082-12.239q-7.99-4.792-17.762-4.79-12.076 0-21.313 6.387c-6.16 4.254-11.015 10.052-14.566 17.384-3.555 7.215-5.328 15.374-5.328 24.479 0 6.86 1.062 13.243 3.195 19.157q3.2 8.87 9.059 15.432 6.039 6.563 14.035 10.289 8.168 3.546 17.761 3.547 9.411.001 17.937-4.258 8.532-4.253 13.5-12.949l.535 4.79q1.068 5.675 5.504 8.87 4.621 3.193 11.903 3.192 4.618 0 12.077-1.417v-23.595q-3.193-.353-4.616-1.948-1.423-1.776-1.422-6.031V45.018Zm116.166 0v51.617c-2.727-5.086-6.75-9.165-12.082-12.239q-7.99-4.792-17.762-4.79-12.075 0-21.315 6.387c-6.157 4.254-11.013 10.052-14.564 17.384-3.555 7.215-5.327 15.374-5.327 24.479 0 6.86 1.061 13.243 3.194 19.157q3.2 8.87 9.059 15.432 6.039 6.563 14.035 10.289 8.169 3.546 17.763 3.547 9.41.001 17.936-4.258 8.53-4.253 13.5-12.949l.535 4.79q1.066 5.675 5.503 8.87c3.082 2.129 7.047 3.192 11.903 3.192q4.618 0 12.078-1.417v-23.595c-2.13-.234-3.672-.886-4.617-1.948q-1.424-1.776-1.422-6.031V45.018Zm-408.412 3.545V174.51h29.133v-40.621h19.713l18.664 31.383s1.106 1.827 1.77 2.659c1.398 1.765 3.39 4.039 4.628 4.929 2.906 2.09 6.399 3.07 11.371 3.07q2.31-.001 5.152-.354 3.024-.357 6.93-1.066v-23.59c-2.358.093-3.434.116-4.855-.653-1.692-.91-2.922-2.3-4.04-3.964l-1.17-1.977-9.852-16.648q6.392-3.546 11.015-9.047a42.7 42.7 0 0 0 7.101-12.594q2.49-7.096 2.489-14.901 0-7.803-3.2-15.43a44.2 44.2 0 0 0-8.523-13.66q-5.509-6.207-13.145-9.759-7.46-3.721-16.343-3.723zm29.133 25.543h25.751q3.376.001 6.395 2.13 3.02 2.128 4.973 6.032 2.132 3.724 2.132 8.867t-1.776 9.046q-1.776 3.901-4.618 6.211-2.665 2.126-6.214 2.125h-26.643zm474.14 5.356q-15.81 0-27.002 6.927-11.192 6.75-17.233 17.943-5.862 11.014-5.862 24.516 0 9.416 3.375 18.12a45.4 45.4 0 0 0 9.771 15.101q6.573 6.573 15.811 10.48 9.239 3.732 21.14 3.732 10.66 0 19.365-3.198 8.882-3.198 15.278-8.705 6.573-5.684 10.126-12.968l-24.161-6.75q-2.131 5.151-7.816 8.171-5.508 3.02-11.903 3.02-5.152 0-9.771-2.132-4.62-2.31-7.64-6.573-2.841-4.264-3.374-10.48h68.929q.177-1.777.355-4.087.355-2.488.355-4.975 0-12.79-5.862-23.627-5.864-11.014-17.055-17.766-11.014-6.75-26.825-6.75m117.396.5q-8.349.175-15.983 5.496-7.64 5.324-12.434 14.723v-18.8h-26.112v93.129h28.421V118.63q3.727-6.386 12.078-9.578c5.567-2.246 11.78-3.371 18.648-3.371V80.138q-.708-.176-1.774-.176zM416.025 81.38v59.6q.002 17.21 7.46 26.254 7.463 9.048 21.672 9.047 11.72.001 21.138-4.258c6.394-2.957 11.722-7.507 15.983-13.66l.535 5.68q1.067 5.674 5.508 8.868c2.957 2.012 6.926 3.015 11.899 3.015q2.309.001 5.152-.356 3.018-.353 6.925-1.061v-23.595q-3.375-.353-4.792-1.948-1.247-1.776-1.246-6.031V81.38H477.84v57.472q-2.667 4.793-6.038 7.805c-2.25 2.012-4.562 3.488-6.93 4.437q-3.55 1.238-7.46 1.239-6.215.001-9.59-4.435-3.375-4.61-3.376-13.125V81.38ZM804.68 99.89q5.33 0 9.77 2.487 4.442 2.31 7.107 6.751 2.664 4.264 3.376 10.126h-40.505q.712-5.862 3.376-10.126 2.664-4.44 6.928-6.75 4.44-2.488 9.948-2.488m-231.457 3.84q4.263-.002 8.35 2.13a24.9 24.9 0 0 1 7.457 5.675c2.25 2.363 3.97 5.145 5.153 8.336v19.511a26 26 0 0 1-3.55 5.324q-2.132 2.485-4.797 4.078a27.8 27.8 0 0 1-5.328 2.66 19.5 19.5 0 0 1-5.864.888q-4.793 0-8.882-1.774a21.3 21.3 0 0 1-7.103-4.965 26.7 26.7 0 0 1-4.797-7.628q-1.597-4.436-1.596-9.578 0-4.969 1.418-9.403 1.599-4.435 4.441-7.804 2.841-3.548 6.573-5.5 3.908-1.95 8.525-1.95m116.166 0q4.263-.002 8.351 2.13a24.9 24.9 0 0 1 7.456 5.675c2.25 2.363 3.97 5.145 5.152 8.336v19.511a26 26 0 0 1-3.549 5.324q-2.132 2.485-4.797 4.078a27.8 27.8 0 0 1-5.328 2.66 19.5 19.5 0 0 1-5.864.888q-4.794 0-8.878-1.774a21.3 21.3 0 0 1-7.106-4.965 26.7 26.7 0 0 1-4.796-7.628q-1.598-4.436-1.598-9.578 0-4.969 1.417-9.403 1.6-4.435 4.443-7.804 2.84-3.548 6.574-5.5c2.606-1.301 5.444-1.95 8.523-1.95" style="fill:#041922;fill-opacity:1;fill-rule:nonzero;stroke:none;stroke-width:.9999851" transform="scale(1.33333)"/></svg>