<svg xmlns="http://www.w3.org/2000/svg" xml:space="preserve" width="1080" height="1080"><g style="stroke-width:.109073"><path d="M66.983-78.185a28.9 28.9 0 0 1-28.899-28.897 28.9 28.9 0 0 1 28.899-28.899 28.9 28.9 0 0 1 28.897 28.899 28.9 28.9 0 0 1-7.523 19.398L69.5-108.707a2.95 2.95 0 0 0-2.096-.868 2.967 2.967 0 0 0-2.098 5.065l21.02 18.853a28.9 28.9 0 0 1-19.342 7.472m-4.846-10.58a5.307 5.307 0 0 1 9.692 0 19 19 0 0 0 4.68-1.945 5.2 5.2 0 0 1-.33-1.493l-6.34-5.517a9.7 9.7 0 0 1-2.857.427c-5.399 0-9.791-4.39-9.791-9.793 0-5.396 4.392-9.789 9.791-9.789 5.396 0 9.79 4.393 9.79 9.789a9.8 9.8 0 0 1-.466 2.984l5.403 6.214c.56.023 1.112.13 1.645.327a19 19 0 0 0 1.945-4.673 5.32 5.32 0 0 1-3.142-4.852c0-2.16 1.29-4.015 3.142-4.843a18.8 18.8 0 0 0-1.945-4.677 5.32 5.32 0 0 1-5.642-1.206 5.3 5.3 0 0 1-1.206-5.644 19 19 0 0 0-4.68-1.945 5.307 5.307 0 0 1-9.691 0c-1.661.439-3.23 1.1-4.677 1.945a5.3 5.3 0 0 1-1.209 5.644c-1.52 1.525-3.744 1.921-5.638 1.206a18.8 18.8 0 0 0-1.948 4.677 5.305 5.305 0 0 1 0 9.69 19 19 0 0 0 1.948 4.678 5.3 5.3 0 0 1 5.638 1.21 5.3 5.3 0 0 1 1.21 5.64 19 19 0 0 0 4.676 1.946" style="opacity:1;fill:#13beb7;fill-opacity:1;stroke:none;stroke-width:4.93193007;stroke-linecap:round;stroke-linejoin:round;stroke-miterlimit:4;stroke-dasharray:none;stroke-opacity:.22977301" transform="matrix(11.46029 0 0 -11.46029 -227.633 -847.415)"/></g><path d="M505.318 807.548v87.762c-4.636-8.647-11.477-15.582-20.543-20.808-9.058-5.434-19.12-8.145-30.199-8.145-13.688 0-25.77 3.62-36.238 10.86-10.474 7.232-18.728 17.09-24.766 29.556-6.044 12.267-9.058 26.14-9.058 41.621 0 11.664 1.805 22.517 5.431 32.572q5.441 15.082 15.403 26.239c6.847 7.438 14.797 13.27 23.863 17.494q13.888 6.03 30.2 6.031c10.665 0 20.835-2.411 30.497-7.24q14.506-7.231 22.953-22.016l.91 8.143q1.816 9.652 9.358 15.082c5.24 3.62 11.982 5.428 20.238 5.428q7.852 0 20.535-2.41v-40.118c-3.62-.398-6.236-1.507-7.85-3.312q-2.419-3.02-2.417-10.254V807.548Zm197.514 0v87.762c-4.637-8.647-11.477-15.582-20.543-20.808-9.059-5.434-19.12-8.145-30.2-8.145q-20.532 0-36.241 10.86c-10.469 7.232-18.724 17.09-24.762 29.556-6.044 12.267-9.059 26.14-9.059 41.621 0 11.664 1.805 22.517 5.432 32.572q5.44 15.082 15.402 26.239c6.847 7.438 14.798 13.27 23.864 17.494 9.257 4.02 19.328 6.031 30.2 6.031q16 .002 30.497-7.24 14.506-7.231 22.953-22.016l.91 8.143q1.816 9.652 9.358 15.082c5.24 3.62 11.982 5.428 20.238 5.428q7.851 0 20.535-2.41v-40.118c-3.62-.398-6.243-1.507-7.85-3.312-1.615-2.013-2.418-5.432-2.418-10.254V807.548Zm-694.41 6.028v214.14h49.533V958.65h33.518l31.734 53.36s1.88 3.106 3.01 4.52c2.377 3.002 5.764 6.869 7.869 8.382 4.94 3.553 10.879 5.22 19.334 5.22 2.617 0 5.54-.203 8.76-.603q5.14-.608 11.783-1.813v-40.109c-4.01.16-5.84.198-8.256-1.11-2.877-1.548-4.968-3.91-6.87-6.74l-1.99-3.36-16.75-28.308q10.87-6.027 18.73-15.38a72.6 72.6 0 0 0 12.073-21.414c2.823-8.043 4.23-16.49 4.23-25.336s-1.812-17.59-5.439-26.237c-3.419-8.647-8.248-16.384-14.492-23.224-6.243-7.034-13.695-12.568-22.35-16.592-8.453-4.217-17.72-6.33-27.786-6.33zm49.533 43.43h43.785c3.826 0 7.452 1.21 10.873 3.62 3.421 2.412 6.243 5.832 8.455 10.256 2.418 4.224 3.625 9.245 3.625 15.077q0 8.745-3.02 15.38c-2.01 4.423-4.63 7.944-7.85 10.561q-4.532 3.614-10.567 3.613h-45.3Zm806.168 9.105q-26.883 0-45.912 11.78-19.03 11.477-29.3 30.507-9.968 18.728-9.968 41.684 0 16.008 5.739 30.808 5.74 14.5 16.613 25.676 11.176 11.175 26.883 17.82 15.707 6.345 35.945 6.344 18.123 0 32.924-5.437 15.102-5.438 25.976-14.801 11.177-9.665 17.217-22.05l-41.08-11.478q-3.623 8.76-13.289 13.895-9.364 5.135-20.238 5.135-8.76 0-16.613-3.625-7.853-3.927-12.989-11.176-4.832-7.249-5.738-17.82H947.49q.302-3.021.604-6.948.604-4.23.603-8.459.001-21.747-9.967-40.171-9.967-18.728-28.998-30.207-18.727-11.478-45.609-11.477m199.604.852q-14.195.297-27.176 9.343-12.991 9.055-21.14 25.033v-31.966h-44.4v158.343h48.325V932.71c4.223-7.24 11.072-12.666 20.535-16.286 9.465-3.818 20.03-5.732 31.707-5.732v-43.43q-1.205-.298-3.015-.298zm-861.028 2.41V970.71c0 19.507 4.232 34.382 12.686 44.636 8.455 10.256 20.743 15.383 36.847 15.383 13.284 0 25.267-2.412 35.94-7.24 10.871-5.028 19.931-12.763 27.176-23.225l.91 9.658q1.813 9.645 9.365 15.077c5.028 3.42 11.775 5.127 20.23 5.127q3.926.002 8.76-.606 5.13-.599 11.776-1.805V987.6c-3.826-.398-6.542-1.507-8.149-3.312q-2.12-3.02-2.119-10.254v-104.66h-48.318v97.718c-3.023 5.433-6.45 9.856-10.268 13.27-3.825 3.42-7.757 5.931-11.781 7.545-4.025 1.4-8.255 2.105-12.686 2.105q-10.567.002-16.306-7.539-5.739-7.84-5.739-22.316v-90.783zm660.819 31.474q9.061 0 16.613 4.229 7.55 3.927 12.082 11.478 4.531 7.25 5.74 17.217h-68.869q1.209-9.967 5.74-17.217 4.53-7.551 11.78-11.478 7.55-4.23 16.914-4.229m-393.54 6.53c4.834 0 9.563 1.203 14.198 3.619a42.4 42.4 0 0 1 12.68 9.65c3.825 4.018 6.748 8.748 8.761 14.174v33.174c-1.608 3.22-3.626 6.237-6.037 9.053q-3.626 4.223-8.156 6.933a47.2 47.2 0 0 1-9.059 4.524 33.2 33.2 0 0 1-9.97 1.507q-8.15 0-15.102-3.015-6.945-3.01-12.076-8.442c-3.428-3.818-6.143-8.142-8.156-12.97-1.813-5.028-2.715-10.455-2.715-16.286 0-5.633.803-10.958 2.412-15.986q2.718-7.54 7.55-13.27c3.22-4.019 6.946-7.14 11.176-9.351 4.431-2.212 9.26-3.314 14.495-3.314m197.514 0c4.834 0 9.565 1.203 14.2 3.619a42.4 42.4 0 0 1 12.677 9.65c3.826 4.018 6.749 8.748 8.76 14.174v33.174c-1.607 3.22-3.624 6.237-6.035 9.053q-3.626 4.223-8.156 6.933a47.2 47.2 0 0 1-9.06 4.524 33.2 33.2 0 0 1-9.97 1.507c-5.432 0-10.467-1.004-15.095-3.015q-6.954-3.01-12.083-8.442c-3.427-3.818-6.14-8.142-8.154-12.97q-2.717-7.54-2.717-16.286c0-5.633.804-10.958 2.41-15.986q2.721-7.54 7.553-13.27c3.22-4.019 6.948-7.14 11.178-9.351 4.43-2.212 9.257-3.314 14.492-3.314" style="fill:#fff;fill-opacity:1;fill-rule:nonzero;stroke:none;stroke-width:1.70024383"/></svg>