<svg xmlns="http://www.w3.org/2000/svg" xml:space="preserve" width="1300" height="300"><path d="M141.797 18.77c-51.836 0-93.856 41.964-93.859 93.726a93.68 93.68 0 0 0 27.492 66.281 93.92 93.92 0 0 0 66.367 27.453 93.93 93.93 0 0 0 66.363-27.457 93.66 93.66 0 0 0 27.488-66.277 93.66 93.66 0 0 0-24.433-62.914l-61.246 68.184a9.57 9.57 0 0 1-6.809 2.816 9.58 9.58 0 0 1-6.812-2.816c-3.766-3.758-3.766-9.852 0-13.614l68.269-61.148a93.94 93.94 0 0 0-62.82-24.234m-15.738 34.312c2.691 6.012 8.718 10.199 15.742 10.199 7.011 0 13.043-4.187 15.734-10.199a61.7 61.7 0 0 1 15.199 6.313c-.609 1.566-.945 3.207-1.074 4.843l-20.578 17.891a31.4 31.4 0 0 0-9.281-1.387C124.266 80.742 110 94.98 110 112.508c0 17.5 14.266 31.75 31.801 31.75 17.527 0 31.797-14.25 31.797-31.75 0-3.383-.543-6.629-1.516-9.68l17.547-20.156a17.4 17.4 0 0 0 5.344-1.059 61 61 0 0 1 6.316 15.157c-6.012 2.703-10.203 8.722-10.203 15.738 0 7.004 4.191 13.019 10.203 15.707a61 61 0 0 1-6.316 15.168c-6.153-2.321-13.368-1.035-18.325 3.91-4.96 4.961-6.253 12.152-3.914 18.309a61.4 61.4 0 0 1-15.199 6.308c-2.691-6.004-8.723-10.195-15.734-10.195-7.024 0-13.051 4.191-15.742 10.195a61 61 0 0 1-15.188-6.308c2.336-6.157 1.035-13.348-3.93-18.309-4.937-4.945-12.16-6.231-18.312-3.91a61 61 0 0 1-6.328-15.168c6.015-2.688 10.211-8.703 10.211-15.707 0-7.016-4.196-13.035-10.211-15.723a61.2 61.2 0 0 1 6.328-15.172c6.152 2.321 13.375 1.035 18.312-3.929 4.965-4.946 6.266-12.145 3.93-18.289a61.3 61.3 0 0 1 15.188-6.313" style="fill:#041922;fill-opacity:1;fill-rule:nonzero;stroke:none" transform="scale(1.33333)"/><path d="M792.016 60.022v68.822c-3.636-6.781-9-12.22-16.11-16.318-7.104-4.261-14.994-6.387-23.682-6.387q-16.102 0-28.417 8.516c-8.213 5.672-14.687 13.402-19.421 23.178-4.74 9.62-7.104 20.5-7.104 32.639 0 9.147 1.416 17.658 4.26 25.543q4.266 11.826 12.078 20.576c5.37 5.833 11.604 10.406 18.713 13.718q10.891 4.729 23.682 4.73c8.364 0 16.34-1.891 23.916-5.678q11.376-5.67 18-17.264l.714 6.385q1.423 7.57 7.338 11.827c4.11 2.839 9.396 4.257 15.87 4.257q6.157 0 16.104-1.89v-31.46c-2.839-.312-4.89-1.182-6.156-2.597q-1.898-2.37-1.896-8.041V60.022Zm154.888 0v68.822c-3.636-6.781-9-12.22-16.11-16.318-7.103-4.261-14.993-6.387-23.681-6.387q-16.102 0-28.421 8.516c-8.21 5.672-14.683 13.402-19.418 23.178-4.74 9.62-7.104 20.5-7.104 32.639 0 9.147 1.416 17.658 4.26 25.543q4.266 11.826 12.078 20.576c5.37 5.833 11.604 10.406 18.714 13.718q10.891 4.729 23.683 4.73 12.547.001 23.915-5.678 11.375-5.67 18-17.264l.713 6.385q1.423 7.57 7.338 11.827c4.11 2.839 9.396 4.257 15.87 4.257q6.158 0 16.104-1.89v-31.46c-2.839-.312-4.896-1.182-6.155-2.597q-1.899-2.37-1.897-8.041V60.022ZM402.355 64.75v167.927h38.843v-54.162h26.285l24.885 41.844s1.475 2.437 2.36 3.546c1.864 2.353 4.52 5.386 6.171 6.572 3.875 2.787 8.531 4.094 15.162 4.094q3.08-.002 6.87-.473 4.03-.477 9.24-1.421v-31.454c-3.146.126-4.58.156-6.475-.87-2.256-1.214-3.896-3.067-5.386-5.285l-1.561-2.636-13.135-22.198q8.523-4.727 14.686-12.061a57 57 0 0 0 9.469-16.793q3.318-9.461 3.317-19.868c0-6.938-1.421-13.793-4.265-20.575a58.9 58.9 0 0 0-11.365-18.212q-7.346-8.276-17.526-13.011c-6.63-3.307-13.896-4.964-21.79-4.964zm38.843 34.057h34.336q4.501.002 8.527 2.84c2.682 1.89 4.896 4.573 6.63 8.042 1.896 3.312 2.843 7.25 2.843 11.823q0 6.858-2.368 12.061c-1.577 3.468-3.632 6.23-6.157 8.282q-3.553 2.834-8.286 2.833h-35.525zm632.189 7.14q-21.08 0-36.004 9.238-14.923 9-22.977 23.923-7.816 14.687-7.816 32.688 0 12.554 4.5 24.16 4.5 11.37 13.028 20.135 8.764 8.763 21.081 13.974 12.317 4.975 28.188 4.975 14.212 0 25.818-4.264 11.844-4.264 20.37-11.607 8.765-7.58 13.502-17.29l-32.214-9.002q-2.842 6.87-10.422 10.896-7.342 4.027-15.87 4.027-6.87 0-13.028-2.843-6.158-3.08-10.185-8.764-3.79-5.684-4.5-13.974h91.905q.236-2.37.473-5.448.474-3.317.473-6.633 0-17.054-7.816-31.503-7.816-14.686-22.74-23.688-14.685-9-35.766-9m156.527.668q-11.132.234-21.311 7.327-10.187 7.101-16.578 19.631v-25.068h-34.817v124.172h37.895v-74.504c3.312-5.678 8.682-9.932 16.104-12.771 7.422-2.995 15.707-4.495 24.864-4.495v-34.058q-.944-.234-2.365-.234zm-675.209 1.89v79.468c0 15.297 3.319 26.963 9.948 35.004 6.63 8.042 16.267 12.063 28.896 12.063q15.627.001 28.183-5.678c8.525-3.942 15.63-10.008 21.311-18.212l.714 7.574c.948 5.04 3.396 8.984 7.344 11.822 3.942 2.683 9.234 4.02 15.864 4.02 2.052 0 4.343-.155 6.87-.474q4.023-.47 9.234-1.415v-31.46c-3-.312-5.13-1.182-6.39-2.597q-1.663-2.37-1.662-8.041v-82.074h-37.89v76.63c-2.371 4.26-5.058 7.729-8.052 10.406-3 2.683-6.083 4.651-9.24 5.917q-4.733 1.649-9.947 1.65-8.288.001-12.788-5.911-4.5-6.149-4.5-17.5v-71.192zm518.207 24.682q7.106 0 13.028 3.316 5.922 3.08 9.475 9.001 3.553 5.684 4.5 13.502h-54.005q.947-7.817 4.501-13.502 3.553-5.921 9.237-9 5.922-3.317 13.264-3.317m-308.61 5.12q5.685-.002 11.134 2.838a33.2 33.2 0 0 1 9.943 7.568c3 3.15 5.293 6.86 6.871 11.115v26.015a34.8 34.8 0 0 1-4.734 7.099q-2.843 3.313-6.396 5.437a37 37 0 0 1-7.104 3.547 26 26 0 0 1-7.819 1.183q-6.39 0-11.842-2.365-5.445-2.36-9.47-6.62c-2.688-2.994-4.817-6.385-6.396-10.171q-2.13-5.914-2.129-12.77 0-6.625 1.892-12.537 2.13-5.915 5.92-10.406c2.526-3.152 5.447-5.6 8.765-7.333q5.209-2.601 11.366-2.6m154.889 0q5.684-.002 11.135 2.838a33.2 33.2 0 0 1 9.942 7.568c3 3.15 5.292 6.86 6.869 11.115v26.015a34.8 34.8 0 0 1-4.733 7.099q-2.843 3.313-6.396 5.437a37 37 0 0 1-7.103 3.547 26 26 0 0 1-7.82 1.183q-6.392 0-11.837-2.365a28.4 28.4 0 0 1-9.475-6.62c-2.688-2.994-4.816-6.385-6.394-10.171q-2.131-5.914-2.13-12.77 0-6.625 1.89-12.537 2.132-5.915 5.922-10.406c2.525-3.152 5.448-5.6 8.765-7.333 3.475-1.735 7.26-2.6 11.365-2.6" style="fill:#041922;fill-opacity:1;fill-rule:nonzero;stroke:none;stroke-width:1.33331347"/></svg>