<svg xmlns="http://www.w3.org/2000/svg" xml:space="preserve" width="1300" height="300"><path d="M141.797 18.77c-51.836 0-93.856 41.964-93.859 93.726a93.68 93.68 0 0 0 27.492 66.281 93.92 93.92 0 0 0 66.367 27.453 93.93 93.93 0 0 0 66.363-27.457 93.66 93.66 0 0 0 27.488-66.277 93.66 93.66 0 0 0-24.433-62.914l-61.246 68.184a9.57 9.57 0 0 1-6.809 2.816 9.58 9.58 0 0 1-6.812-2.816c-3.766-3.758-3.766-9.852 0-13.614l68.269-61.148a93.94 93.94 0 0 0-62.82-24.234m-15.738 34.312c2.691 6.012 8.718 10.199 15.742 10.199 7.011 0 13.043-4.187 15.734-10.199a61.7 61.7 0 0 1 15.199 6.313c-.609 1.566-.945 3.207-1.074 4.843l-20.578 17.891a31.4 31.4 0 0 0-9.281-1.387C124.266 80.742 110 94.98 110 112.508c0 17.5 14.266 31.75 31.801 31.75 17.527 0 31.797-14.25 31.797-31.75 0-3.383-.543-6.629-1.516-9.68l17.547-20.156a17.4 17.4 0 0 0 5.344-1.059 61 61 0 0 1 6.316 15.157c-6.012 2.703-10.203 8.722-10.203 15.738 0 7.004 4.191 13.019 10.203 15.707a61 61 0 0 1-6.316 15.168c-6.153-2.321-13.368-1.035-18.325 3.91-4.96 4.961-6.253 12.152-3.914 18.309a61.4 61.4 0 0 1-15.199 6.308c-2.691-6.004-8.723-10.195-15.734-10.195-7.024 0-13.051 4.191-15.742 10.195a61 61 0 0 1-15.188-6.308c2.336-6.157 1.035-13.348-3.93-18.309-4.937-4.945-12.16-6.231-18.312-3.91a61 61 0 0 1-6.328-15.168c6.015-2.688 10.211-8.703 10.211-15.707 0-7.016-4.196-13.035-10.211-15.723a61.2 61.2 0 0 1 6.328-15.172c6.152 2.321 13.375 1.035 18.312-3.929 4.965-4.946 6.266-12.145 3.93-18.289a61.3 61.3 0 0 1 15.188-6.313" style="fill:#13beb7;fill-opacity:1;fill-rule:nonzero;stroke:none" transform="scale(1.33333)"/><path d="M792.01 60.025v68.821c-3.636-6.78-9-12.219-16.11-16.317-7.103-4.262-14.993-6.387-23.681-6.387q-16.104 0-28.418 8.515c-8.213 5.672-14.686 13.403-19.42 23.178-4.74 9.62-7.104 20.5-7.104 32.64 0 9.146 1.415 17.657 4.259 25.542q4.266 11.827 12.078 20.576c5.37 5.833 11.604 10.407 18.714 13.719q10.89 4.729 23.682 4.73c8.363 0 16.339-1.892 23.916-5.678q11.375-5.67 18-17.265l.713 6.386q1.423 7.569 7.338 11.827c4.11 2.838 9.396 4.256 15.87 4.256q6.158 0 16.104-1.89v-31.46c-2.838-.311-4.89-1.181-6.155-2.597-1.267-1.579-1.896-4.26-1.896-8.041V60.025Zm154.888 0v68.821c-3.635-6.78-9-12.219-16.11-16.317-7.103-4.262-14.993-6.387-23.681-6.387q-16.1 0-28.42 8.515c-8.21 5.672-14.684 13.403-19.419 23.178-4.74 9.62-7.103 20.5-7.103 32.64 0 9.146 1.415 17.657 4.26 25.542q4.266 11.827 12.077 20.576c5.37 5.833 11.605 10.407 18.714 13.719 7.26 3.152 15.157 4.73 23.683 4.73q12.548 0 23.915-5.678 11.376-5.67 18-17.265l.713 6.386q1.424 7.569 7.338 11.827c4.11 2.838 9.396 4.256 15.871 4.256q6.157 0 16.103-1.89v-31.46c-2.838-.311-4.895-1.181-6.155-2.597-1.267-1.579-1.896-4.26-1.896-8.041V60.025ZM402.35 64.75v167.927h38.844v-54.161h26.284l24.886 41.844s1.475 2.436 2.36 3.545c1.864 2.354 4.52 5.386 6.17 6.573 3.875 2.786 8.532 4.094 15.162 4.094q3.08-.002 6.87-.474 4.031-.476 9.24-1.421v-31.453c-3.145.125-4.58.155-6.474-.87-2.256-1.215-3.896-3.067-5.387-5.286l-1.56-2.636-13.136-22.198q8.524-4.726 14.687-12.061a57 57 0 0 0 9.468-16.793q3.32-9.46 3.318-19.868 0-10.404-4.266-20.574a58.9 58.9 0 0 0-11.364-18.213q-7.345-8.276-17.527-13.01c-6.629-3.307-13.896-4.965-21.79-4.965zm38.844 34.057h34.336c3 0 5.843.95 8.526 2.84s4.896 4.573 6.63 8.042c1.896 3.312 2.843 7.25 2.843 11.823q0 6.858-2.368 12.061t-6.157 8.282q-3.553 2.834-8.286 2.833h-35.524zm632.188 7.14q-21.08 0-36.004 9.238-14.923 9-22.977 23.924-7.816 14.685-7.816 32.688 0 12.553 4.5 24.16 4.5 11.37 13.028 20.134 8.764 8.763 21.081 13.975 12.318 4.974 28.188 4.974 14.212 0 25.819-4.264 11.842-4.263 20.37-11.606 8.764-7.58 13.502-17.29l-32.215-9.002q-2.842 6.87-10.421 10.896-7.343 4.026-15.87 4.026-6.87 0-13.029-2.842-6.158-3.08-10.185-8.764-3.79-5.685-4.5-13.975h91.905q.236-2.369.473-5.448.474-3.316.473-6.633 0-17.054-7.815-31.502-7.818-14.687-22.74-23.688-14.686-9-35.767-9m156.527.669q-11.131.232-21.31 7.327-10.188 7.1-16.579 19.63v-25.068h-34.817v124.172h37.895v-74.504c3.312-5.677 8.683-9.932 16.104-12.77 7.423-2.995 15.707-4.496 24.864-4.496V106.85q-.943-.234-2.365-.234zm-675.208 1.89v79.468q.002 22.943 9.947 35.003c6.631 8.043 16.267 12.063 28.896 12.063q15.628.002 28.183-5.677c8.526-3.943 15.63-10.009 21.311-18.213l.714 7.574q1.422 7.563 7.344 11.823c3.943 2.682 9.234 4.02 15.865 4.02q3.078.002 6.869-.475 4.024-.47 9.234-1.415v-31.46c-3-.311-5.13-1.181-6.39-2.597q-1.663-2.369-1.662-8.041v-82.074h-37.89v76.63q-3.558 6.391-8.052 10.406c-3 2.683-6.083 4.652-9.239 5.917q-4.735 1.65-9.948 1.651-8.287 0-12.787-5.912-4.5-6.148-4.5-17.5v-71.192zm518.206 24.682q7.106 0 13.028 3.315 5.922 3.08 9.475 9.002 3.554 5.685 4.501 13.501h-54.006q.948-7.816 4.501-13.501 3.553-5.922 9.238-9.002 5.92-3.315 13.263-3.315m-308.609 5.12c3.79 0 7.499.943 11.134 2.838a33.2 33.2 0 0 1 9.943 7.568c3 3.15 5.292 6.86 6.87 11.115v26.014a34.8 34.8 0 0 1-4.734 7.1q-2.842 3.311-6.396 5.436a37 37 0 0 1-7.103 3.548 26 26 0 0 1-7.82 1.182q-6.39.001-11.842-2.365-5.445-2.36-9.47-6.62c-2.688-2.994-4.817-6.384-6.396-10.17q-2.13-5.914-2.129-12.772 0-6.623 1.892-12.536 2.131-5.913 5.921-10.406c2.525-3.152 5.447-5.6 8.764-7.333 3.475-1.735 7.26-2.6 11.366-2.6m154.888 0c3.791 0 7.5.943 11.135 2.838a33.2 33.2 0 0 1 9.942 7.568c3 3.15 5.292 6.86 6.87 11.115v26.014a34.8 34.8 0 0 1-4.733 7.1q-2.843 3.311-6.396 5.436a37 37 0 0 1-7.104 3.548 26 26 0 0 1-7.819 1.182c-4.26 0-8.209-.787-11.838-2.365a28.4 28.4 0 0 1-9.474-6.62c-2.688-2.994-4.816-6.384-6.395-10.17q-2.13-5.914-2.13-12.772 0-6.623 1.89-12.536 2.133-5.913 5.922-10.406c2.526-3.152 5.448-5.6 8.766-7.333q5.21-2.601 11.364-2.6" style="fill:#fff;fill-opacity:1;fill-rule:nonzero;stroke:none;stroke-width:1.33331347"/></svg>