<?xml version="1.0" encoding="UTF-8" standalone="no"?>
<!-- Created with Inkscape (http://www.inkscape.org/) -->

<svg
   xmlns:dc="http://purl.org/dc/elements/1.1/"
   xmlns:cc="http://creativecommons.org/ns#"
   xmlns:rdf="http://www.w3.org/1999/02/22-rdf-syntax-ns#"
   xmlns:svg="http://www.w3.org/2000/svg"
   xmlns="http://www.w3.org/2000/svg"
   xmlns:sodipodi="http://sodipodi.sourceforge.net/DTD/sodipodi-0.dtd"
   xmlns:inkscape="http://www.inkscape.org/namespaces/inkscape"
   width="400"
   height="400"
   viewBox="0 0 105.83333 105.83334"
   version="1.1"
   id="svg8"
   inkscape:version="0.92.3 (2405546, 2018-03-11)"
   sodipodi:docname="bsd-logo.svg">
  <defs
     id="defs2" />
  <sodipodi:namedview
     id="base"
     pagecolor="#ffffff"
     bordercolor="#666666"
     borderopacity="1.0"
     inkscape:pageopacity="0.0"
     inkscape:pageshadow="2"
     inkscape:zoom="0.7"
     inkscape:cx="18.618061"
     inkscape:cy="205.0383"
     inkscape:document-units="px"
     inkscape:current-layer="layer1"
     showgrid="false"
     inkscape:window-width="1920"
     inkscape:window-height="1052"
     inkscape:window-x="0"
     inkscape:window-y="0"
     inkscape:window-maximized="1"
     units="px" />
  <metadata
     id="metadata5">
    <rdf:RDF>
      <cc:Work
         rdf:about="">
        <dc:format>image/svg+xml</dc:format>
        <dc:type
           rdf:resource="http://purl.org/dc/dcmitype/StillImage" />
        <dc:title />
      </cc:Work>
    </rdf:RDF>
  </metadata>
  <g
     inkscape:label="Calque 1"
     inkscape:groupmode="layer"
     id="layer1"
     transform="translate(0,-191.16665)">
    <g
       id="g1178"
       transform="matrix(0.6839459,0,0,0.6839459,1.6192032,220.13423)"
       style="fill:#222d42;fill-opacity:1">
      <path
         id="path1161"
         d="M 76.67,69.61 C 85.8665,68.5553 94.419,59.6767 92.929,50.212 92.29947,46.2063 89.6741,42.0766 85.3312,39.204 81.9358,36.9579 65.3522,29.117 62.4422,27.102 60.6583,25.7357 57.157,21.9917 56.899,19.5783 c -0.69976,-6.5034 2.8501,-9.2859 6.4485,-10.95 1.4812,-0.69848 3.3979,-0.95387 4.1845,-1.0458 6.7128,-0.78404 8.8913,0.43544 15.031,3.3481 0.63208,0.2988 1.2603,0.31413 1.9409,0.20686 2.0648,-0.32434 3.4911,-1.2297 3.1668,-3.2932 -0.243,-1.5319 -1.095,-2.2329 -2.694,-3.0259 -4.281,-2.1172 -12.307,-4.6544 -19.068,-3.5908 -0.11365,0.0166 -0.22346,0.040862 -0.33583,0.058739 l -0.0166,-0.094493 c -9.38,1.5605 -16.814,10.043 -15.333,19.456 0.79681,5.0592 4.6889,9.2974 8.6678,11.887 2.665,2.2346 12.294,6.105 21.824,11.388 3.38,1.8745 4.7438,3.7261 5.2393,7.9183 0.5146,4.3492 -4.5242,9.291 -8.4635,10.786 -6.1242,1.7954 -13.321,-0.75084 -18.117,-3.2881 -1.4314,-0.93216 -2.0891,-1.4251 -3.4069,-1.2169 -2.0623,0.32562 -3.472,2.2615 -3.1489,4.325 0.21708,1.3727 1.0075,2.3355 2.3521,2.9293 8.5287,3.7542 14.28,5.0618 21.5,4.2343 z"
         inkscape:connector-curvature="0"
         style="fill:#222d42;fill-opacity:1" />
      <path
         id="path1163"
         d="M 17.398,0 C 17.237,-1.9154e-4 17.07,0.060648 16.919,0.11971 7.5874,1.16581 0.281,8.93491 0,18.47571 h 0.11971 c -0.006519,0.09322 -0.039904,0.18388 -0.039904,0.27965 v 47.406 c 0,1.7466 1.1548,3.1548 2.6337,3.4318 0.026917,0.005 0.052662,0.03564 0.079808,0.0399 0.39969,0.13963 0.86114,0.19982 1.3168,0.19952 h 26.895 v 0.19952 c 10.996,-0.02682 19.913,-8.9475 19.913,-19.952 0,-8.8969 -5.8448,-16.419 -13.887,-18.994 3.4171,-3.2879 5.5468,-7.8926 5.5468,-13.009 0,-9.6641 -7.5812,-17.544 -17.119,-18.037 -0.0664,-0.0090382 -0.1328,-0.038308 -0.20048,-0.038308 h -7.8608 z m 0.27933,6.2649 h 7.2226 c 6.0993,0.62892 10.854,5.6681 10.854,11.812 0,5.9389 -4.449,10.844 -10.255,11.732 h -15.922 c -1.0894,-0.38 -2.0128,-1.156 -2.5539,-2.156 -0.3562,-0.651 -0.5586,-1.4 -0.5586,-2.194 V 24.54126 H 6.34468 v -5.786 c 0,-0.17492 -0.018102,-0.35071 -0.039904,-0.51876 0.394,-6.226 5.2245,-11.228 11.372,-11.891 V 6.265691 Z m 13.329,29.848 v 0.11971 c 7.4535,0.11492 13.447,6.2057 13.447,13.687 0,7.4803 -5.9942,13.533 -13.447,13.648 v 0.0399 h -24.66 v -22.745 h 0.11971 v -0.9178 c 0,-0.79425 0.20239,-1.5423 0.55866,-2.1948 0.3439,-0.636 0.8449,-1.186 1.4365,-1.596 h 22.106 c 0.1496,0 0.29487,-0.01986 0.43895,-0.0399 z"
         inkscape:connector-curvature="0"
         style="fill:#222d42;fill-opacity:1" />
      <path
         id="path1165"
         d="m 110.1,1.3967 v 0.039904 h -0.15961 c -5.6556,0 -10.302,4.3362 -10.814,9.8564 v 54.23 c 0,1.7305 1.135,3.1768 2.5937,3.4717 0.0772,0.0156 0.16038,0.03084 0.23942,0.0399 0.0812,0.0098 0.15603,0.0399 0.23943,0.0399 0.0263,7.42e-4 0.0533,0 0.0798,0 h 14.086 c 0.0274,0 0.0881,0.0011 0.11971,0 18.582,-0.42139 33.52,-15.381 33.52,-33.799 0,-18.223 -14.611,-33.078 -32.921,-33.799 -0.30264,-0.037031 -0.55483,-0.079808 -0.71828,-0.079808 h -6.2649 z m -1.1173,5.786 h 10.375 c 14.131,1.7775 25.06,13.682 25.06,28.093 0,14.313 -10.79,26.113 -24.78,28.013 h -10.455 c -1.3816,-0.29625 -2.5756,-1.1556 -3.2268,-2.3547 -0.35499,-0.65379 -0.51971,-1.4021 -0.51971,-2.1951 v -0.9178 h -0.0399 v -46.25 c 0.008,-0.78021 0.20878,-1.5538 0.55866,-2.1948 0.62698,-1.1556 1.7111,-1.9846 3.0327,-2.2745 z"
         inkscape:connector-curvature="0"
         style="fill:#222d42;fill-opacity:1" />
    </g>
  </g>
</svg>
