<?xml version="1.0" encoding="UTF-8" standalone="no"?>
<!-- Created with Inkscape (http://www.inkscape.org/) -->

<svg
   xmlns:dc="http://purl.org/dc/elements/1.1/"
   xmlns:cc="http://creativecommons.org/ns#"
   xmlns:rdf="http://www.w3.org/1999/02/22-rdf-syntax-ns#"
   xmlns:svg="http://www.w3.org/2000/svg"
   xmlns="http://www.w3.org/2000/svg"
   xmlns:sodipodi="http://sodipodi.sourceforge.net/DTD/sodipodi-0.dtd"
   xmlns:inkscape="http://www.inkscape.org/namespaces/inkscape"
   width="400"
   height="400"
   viewBox="0 0 105.83333 105.83334"
   version="1.1"
   id="svg8"
   inkscape:version="0.92.5 (2060ec1f9f, 2020-04-08)"
   sodipodi:docname="kali-logo.svg">
  <defs
     id="defs2">
    <filter
       color-interpolation-filters="sRGB"
       height="1.1937"
       width="1.1146"
       y="-.096849"
       x="-.057299"
       id="a">
      <feGaussianBlur
         id="feGaussianBlur858"
         stdDeviation="8.9351949" />
    </filter>
  </defs>
  <sodipodi:namedview
     id="base"
     pagecolor="#ffffff"
     bordercolor="#666666"
     borderopacity="1.0"
     inkscape:pageopacity="0.0"
     inkscape:pageshadow="2"
     inkscape:zoom="0.98994949"
     inkscape:cx="452.82105"
     inkscape:cy="223.16014"
     inkscape:document-units="px"
     inkscape:current-layer="layer1"
     showgrid="false"
     inkscape:window-width="1848"
     inkscape:window-height="1016"
     inkscape:window-x="1992"
     inkscape:window-y="912"
     inkscape:window-maximized="1"
     units="px" />
  <metadata
     id="metadata5">
    <rdf:RDF>
      <cc:Work
         rdf:about="">
        <dc:format>image/svg+xml</dc:format>
        <dc:type
           rdf:resource="http://purl.org/dc/dcmitype/StillImage" />
        <dc:title></dc:title>
      </cc:Work>
    </rdf:RDF>
  </metadata>
  <g
     inkscape:label="Calque 1"
     inkscape:groupmode="layer"
     id="layer1"
     transform="translate(0,-191.16665)">
    <path
       id="path6"
       style="fill:#222d42;fill-opacity:1;stroke-width:0.83985353;paint-order:stroke fill markers"
       d="m 56.302591,217.72747 c 0,0 -8.576585,-0.57067 -23.181638,3.99931 -14.883886,4.65715 -23.3252542,11.25824 -23.3252542,11.25824 0,0 22.1838922,-12.38617 47.2232872,-13.08997 z m 31.990029,13.46707 1.114993,-0.0727 c 0,0 -6.388101,-7.75067 -18.61536,-11.52615 6.873279,2.79395 12.855636,6.49585 17.500031,11.59838 z m 1.824753,3.22033 c 0.171418,-0.29722 0.724803,0.94425 1.145052,1.4658 0.01781,0.10413 0.04737,0.16769 -0.196297,0.11756 -0.02049,-0.10706 -0.05585,-0.1381 -0.05585,-0.1381 0,0 -0.588139,-0.34994 -0.76846,-0.59819 -0.180456,-0.24822 -0.212481,-0.68242 -0.124503,-0.84707 z m 15.005667,36.89477 c 0,0 1.35611,-15.56921 -23.10522,-19.15874 -3.100321,-0.45489 -7.021098,-0.805 -10.986967,-0.81503 -19.605544,0.25923 -20.320259,-22.61221 -5.546731,-23.76702 6.122616,-0.50519 13.433461,2.79765 20.580614,6.12598 -0.02653,0.88764 0.01016,1.67644 0.59333,2.40534 0.582974,0.72868 2.82249,1.52366 3.538129,1.93427 0.715581,0.41074 3.008022,1.86826 4.412846,3.69678 0.304656,-0.56988 2.84887,-2.22594 2.84887,-2.22594 0,0 -0.609488,0.0133 -2.027406,-0.51668 -1.418094,-0.52993 -3.100827,-2.1333 -3.140637,-2.22594 -0.03973,-0.0928 -0.06618,-0.23852 0.26521,-0.30483 0.251627,-0.21185 -0.318248,-0.90091 -0.570043,-1.15253 -0.251617,-0.25179 -1.934683,-3.11359 -1.974326,-3.17994 -0.03973,-0.0663 -0.05308,-0.13244 -0.172233,-0.21201 -0.371132,-0.11933 -2.001034,0.17223 -2.001034,0.17223 0,0 -2.506705,-1.23114 -3.370751,-3.8855 0.01259,0.46493 -0.42984,0.97255 0,2.04068 -1.306979,-0.55289 -2.429613,-1.49588 -3.315068,-3.82612 -0.527021,1.32536 0,2.16808 0,2.16808 0,0 -3.077735,-0.86002 -3.570137,-3.69838 -0.540451,1.27414 0,2.04051 0,2.04051 0,0 -5.017459,-2.618 -13.354513,-2.65596 -5.581668,-0.51198 -6.74369,-10.33104 -6.226591,-11.98387 0,0 -8.050838,-4.24302 -23.898875,-6.11758 -15.848038,-1.87471 -28.8456117,-0.2825 -28.8456117,-0.2825 0,0 28.0687467,-1.34705 50.5549877,7.75655 0.764417,3.41895 3.063954,9.11325 4.302487,11.85033 -3.543932,2.45027 -7.540291,4.75433 -8.162622,12.92619 -0.622114,8.17152 6.403463,15.35924 15.115689,15.58096 8.272719,0.44066 13.988601,0.50325 20.916556,4.09505 6.612921,3.65646 12.035107,14.79822 12.571767,24.81851 0.57956,-7.43472 -2.210496,-23.42269 -15.229902,-28.27703 18.197102,3.18446 19.797872,16.67445 19.797872,16.67445 z m -49.249026,-54.80297 -0.654775,-2.11198 c 0,0 -10.803877,-1.91856 -25.329984,-0.88604 -14.526108,1.03251 -29.19247181,6.1174 -29.19247181,6.1174 0,0 30.00964981,-7.55112 55.17670281,-3.11946"
       inkscape:connector-curvature="0" />
  </g>
</svg>
