<svg xmlns="http://www.w3.org/2000/svg" xmlns:xlink="http://www.w3.org/1999/xlink" viewBox="0 0 755.9 653.5"><defs><clipPath id="clippath"><rect width="755.9" height="653.5" class="cls-16" rx="38.6" ry="38.6"/></clipPath><clipPath id="clippath-1"><path d="M-5-5h765.9v663.5H-5z" class="cls-16"/></clipPath><clipPath id="clippath-2"><path d="M191.6 345.3h33.5v42.9h-33.5z" class="cls-16"/></clipPath><clipPath id="clippath-3"><path d="M191.6 345.3h33.5v42.9h-33.5z" class="cls-16"/></clipPath><style>.cls-1{stroke:#ebecef;stroke-linecap:round;stroke-linejoin:round;stroke-width:.3px}.cls-1,.cls-3{fill:#fff}.cls-4{fill:#13beb7}.cls-5{fill:#9aa1b4}.cls-6{fill:#071922}.cls-7{fill:#d7deef}.cls-9{fill:#c7ced3}.cls-10{fill:#f9fafd}.cls-11{fill:#c6cad5}.cls-12{fill:#97a2b4}.cls-14{fill:#73829d}.cls-16{fill:none}.cls-17{opacity:1}.cls-20{fill:#da2a1d}.cls-21{fill:#dee2e9}.cls-22{fill:#e0e0ec}.cls-24{fill:#97b0db}.cls-26{fill:#31b6b2}.cls-29{fill:#ebecef}.cls-33{fill:#b0bbcb}.cls-34{fill:#ef9605}.cls-37{fill:#13aba5}.cls-39{fill:#2eb5b1}.cls-41{fill:#a1a5b0}.cls-44{fill:#98a8b6}</style></defs><g id="Layer_1"><g style="clip-path:url(#clippath)"><image xlink:href="visual2-1.png" width="1597" height="1383" style="clip-path:url(#clippath-1)" transform="matrix(.5 0 0 .5 -5.3 -5.1)"/></g><path d="M301.2 177.1c-18 0-35.2-2.6-51.5-7.9-33.7-10.9-51.5-27.5-68.7-43.5-15.7-14.6-32-29.8-60.6-41.3C86.1 70.6 45.7 69.3.5 80.3l-1-3.9c46-11.3 87.2-9.9 122.3 4.2 29.3 11.7 45.8 27.1 61.8 42 17.7 16.5 34.4 32 67.2 42.7 28.5 9.2 59.8 10.2 93.2 2.9l.9 3.9c-15 3.3-29.6 4.9-43.7 4.9M755.9 77.7v4c-4.7 0-9.2.2-13.7.6h-.3c-.7 0-1.3.1-2 .2-.9 0-1.8.2-2.7.3-2 .2-4 .5-6 .8-5.1.8-10.2 1.8-15.2 3-1.5.4-3 .8-4.4 1.2-.7.2-1.3.4-2 .6-.4.1-.8.2-1.2.4-4.1 1.3-8.2 2.7-12.1 4.4-1.4.6-2.9 1.2-4.2 1.8-.5.2-.9.4-1.4.6-.1 0-.3.1-.4.2-1.2.5-2.3 1.1-3.4 1.6h-.1l-1.2.6c-3.8 1.9-7.1 3.9-10.2 5.9-2.8 1.9-5.6 3.9-8.2 6.1-.4.3-.7.6-1.1 1-3 2.6-5.7 5.4-8.3 8.3l-.3.4c-.6.6-1.1 1.3-1.6 1.9-1.9 2.2-3.7 4.5-5.7 6.8-.7.8-1.4 1.7-2.1 2.6-1.8 2.2-3.5 4.4-5.5 6.7-.3.4-.7.8-1 1.3-1.5 1.8-2.9 3.5-4.3 5.1l-1.1 1.3c-.5.5-1 1.1-1.4 1.6-2.5 2.8-5.3 5.7-8.3 8.8-.5.5-1.1 1.1-1.7 1.6l-.5.5c-.8.8-1.7 1.6-2.5 2.4-.6.6-1.3 1.2-1.9 1.8-.7.7-1.5 1.4-2.3 2.1-2.8 2.5-5.9 5.1-9.2 7.9-.2.2-.4.3-.6.5-.7.5-1.3 1.1-2 1.6-1.9 1.5-4.2 3.4-6.9 5.4-2.8 2.2-6.1 4.7-9.7 7.3-.8.6-1.7 1.2-2.5 1.8l-2.3 1.6s-.1 0-.2.1c-6.7 4.7-14.4 9.6-23 14.4-.9.5-1.7 1-2.6 1.4-3.5 1.9-7.1 3.8-10.8 5.5-1.8.9-3.7 1.7-5.5 2.6-1.9.8-3.7 1.6-5.5 2.4-3.7 1.5-7.5 3-11.3 4.3-1 .4-1.9.7-2.9 1-1.9.6-3.7 1.2-5.6 1.8h-.2q-7.2 2.1-14.7 3.6c-1.9.4-3.7.7-5.6 1h-.7c-.7.2-1.5.4-2.2.5l-2.1.3c-.4 0-.9.1-1.3.2-4 .5-8 .8-12.1 1-2 0-4 .1-6 .1h-3.5999999999999996c-4.3-.1-8.5-.4-12.8-.9l-1.9-.2h-.3c-.9-.1-1.8-.2-2.7-.4l-2.1-.3c-1.7-.3-3.5-.6-5.2-1-.6-.1-1.1-.2-1.7-.4-3.9-.9-7.9-1.9-11.7-3.2-.3 0-.6-.2-.9-.3-.5-.2-1-.3-1.5-.5-.7-.2-1.5-.5-2.2-.8-.8-.3-1.5-.5-2.3-.8l-.9-.3c-.5-.2-1.1-.4-1.7-.7-.5-.2-.9-.4-1.3-.5l-.6-.2q-5.25-2.25-10.5-4.8l1.8-3.6c3.3 1.7 6.7 3.3 10.2 4.7 0 0 .2 0 .3.1.8.3 1.5.6 2.3.9.1 0 .2 0 .3.1l2.4.9c.2 0 .4.1.6.2.5.2 1 .4 1.5.5.8.3 1.5.5 2.3.8 4.4 1.5 8.9 2.7 13.4 3.7.7.2 1.4.3 2.2.5.2 0 .4 0 .6.1.7.2 1.4.3 2.1.4.3 0 .7.1 1 .2.7.1 1.3.2 2 .3.9.1 1.8.3 2.6.4s1.7.2 2.5.3c3.3.4 6.7.7 9.9.8H478c4-.2 7.9-.5 11.8-1h.1c.9-.1 1.7-.2 2.6-.4h.6c.8-.2 1.7-.3 2.5-.5 1-.1 2-.3 2.9-.5 1-.2 1.9-.4 2.9-.6 3.9-.8 7.8-1.7 11.5-2.8 2.9-.8 5.7-1.6 8.5-2.6.9-.3 1.9-.6 2.8-1q5.7-1.95 11.1-4.2 4.2-1.65 8.1-3.6c.9-.4 1.8-.8 2.7-1.3 3.7-1.7 7.2-3.6 10.6-5.4 3.3-1.8 6.5-3.7 9.6-5.5.2-.1.5-.3.7-.4 3.5-2.1 6.9-4.3 10.1-6.4 0 0 .1 0 .2-.1 1.6-1.1 3.2-2.1 4.7-3.2 1.6-1.1 3.3-2.3 4.9-3.5 4.6-3.4 9.2-6.8 13.6-10.4.3-.3.7-.5 1-.8.6-.5 1.2-1 1.8-1.4.7-.5 1.3-1.1 2-1.6 3.5-2.8 6.7-5.6 9.6-8.2 2.2-2 4.4-4.1 6.5-6.1.6-.6 1.3-1.2 1.9-1.8l.2-.2c3-3 5.7-5.8 8.2-8.6.7-.7 1.3-1.4 1.9-2.1.9-1.1 1.9-2.2 2.9-3.3.7-.8 1.3-1.5 1.9-2.3.4-.4.7-.9 1.1-1.3 1.9-2.3 3.7-4.5 5.4-6.7.7-.9 1.4-1.7 2.1-2.6l1.5-1.8c.3-.4.6-.7.9-1.1 1.7-2.1 3.5-4.3 5.4-6.4 2.7-3 5.5-5.9 8.6-8.6 1.4-1.3 2.9-2.5 4.5-3.7 1.6-1.3 3.3-2.5 5.2-3.7 3.1-2.1 6.6-4.1 10.5-6.1 0 0 .1 0 .2-.1.7-.4 1.5-.7 2.3-1.1l1.2-.6 1.2-.6c.4-.2.8-.4 1.2-.5l1.2-.6c.8-.4 1.7-.7 2.6-1.1.4-.2.8-.3 1.2-.5 3.7-1.6 7.6-2.9 11.4-4.2.6-.2 1.1-.4 1.7-.5 1.1-.3 2.2-.7 3.3-1 6.1-1.7 12.4-3.1 18.7-4 1.1-.2 2.3-.3 3.4-.5 1.1-.1 2.2-.3 3.3-.4.4 0 .8 0 1.3-.1.9 0 1.8-.2 2.6-.2h1.5c4-.3 8-.5 12.1-.6h1.9" class="cls-33"/><path d="m47.5 73.1-.2-4c3.6-.2 7.2-.3 10.7-.3h1.4v4H58c-3.4 0-7 0-10.5.3M83 74.5c-3.9-.5-7.8-.9-11.8-1.2l.3-4c4.1.3 8.1.7 12.1 1.2l-.5 4Zm-59.2 1.1-.6-4c4-.6 8.1-1.1 12-1.6l.4 4c-3.9.4-7.8.9-11.8 1.5m82.4 4c-3.8-1.1-7.6-2.1-11.5-2.9l.8-3.9c4 .8 7.9 1.8 11.8 3zM.5 80.3l-1-3.9c3.9-1 7.8-1.8 11.8-2.6l.8 3.9c-3.8.8-7.7 1.6-11.6 2.6m127.8 7.5c-3.6-1.7-7.2-3.2-10.9-4.6l1.4-3.7 3 1.2c2.8 1.1 5.5 2.3 8.2 3.5zM149 99.3c-3.3-2.2-6.7-4.2-10.1-6.1l1.9-3.5c3.5 2 7 4.1 10.4 6.3zm18.8 14.4c-3-2.6-6-5.1-9.2-7.5l2.4-3.2c3.2 2.5 6.3 5 9.4 7.7zm17.7 16.1-4.5-4.2c-1.4-1.3-2.8-2.6-4.3-3.9l2.7-2.9c1.4 1.3 2.8 2.6 4.3 4l4.5 4.2-2.7 2.9Zm18.4 15.7c-3.2-2.4-6.3-5-9.4-7.6l2.6-3c3 2.6 6.1 5.1 9.2 7.5l-2.4 3.2Zm20.4 13.1c-3.6-1.9-7.1-3.9-10.5-6.1l2.2-3.4c3.3 2.1 6.7 4.1 10.2 5.9l-1.9 3.5Zm22.3 9.5c-3.8-1.3-7.6-2.8-11.3-4.3l1.6-3.7c3.5 1.5 7.3 2.9 11.1 4.2l-1.3 3.8Zm23.5 6.2c-4-.7-7.9-1.6-11.9-2.6l1-3.9c3.8 1 7.7 1.9 11.6 2.6zm60.4.5-.6-4c3.8-.6 7.8-1.3 11.7-2.1l.8 3.9c-4 .8-7.9 1.5-11.9 2.1m-36.3 2.3c-4.1-.2-8.1-.5-12.1-.9l.4-4c3.9.4 7.9.7 11.8.9l-.2 4Zm12.1 0v-4c3.8-.1 7.8-.3 11.7-.7l.4 4c-4 .4-8.1.6-12.1.7M477.9 226.2c-2.7.1-5.4.1-8.1.1h-1.3c-.8 0-1.6 0-2.4-.1l-.2 4h6.1c2 0 4 0 6-.1l-.2-4Zm23.5-2.9c-1 .2-1.9.4-2.9.6s-2 .3-2.9.5c-.8.1-1.7.3-2.5.4h-.6c-.9.2-1.8.3-2.6.4h-.1l.5 4c.4 0 .9 0 1.3-.2 1.5-.2 2.9-.4 4.4-.6h.7c1.9-.4 3.7-.8 5.6-1.1l-.8-3.9Zm-47.8 1.7c-.9-.1-1.7-.3-2.6-.4-.7 0-1.3-.2-2-.3-.3 0-.7-.1-1-.2-.7-.1-1.4-.3-2.1-.4-.2 0-.4 0-.6-.1-.7-.1-1.5-.3-2.2-.5-.2 0-.3 0-.5-.1l-.9 3.9c.6.1 1.1.3 1.7.4l3 .6c.7.1 1.4.3 2.2.4l2.1.3c.9.1 1.8.3 2.7.4h.3l.5-4h-.7m70.8-8c-.9.3-1.9.6-2.8 1-2.8.9-5.7 1.8-8.5 2.6l1.1 3.9c1-.3 1.9-.5 2.9-.8h.2c1.9-.6 3.7-1.1 5.6-1.8 1-.3 1.9-.7 2.9-1l-1.3-3.8Zm-94.5 2.4c-.8-.3-1.5-.5-2.3-.8-.5-.2-1-.3-1.5-.5-.2 0-.4-.1-.6-.2l-2.4-.9c-.1 0-.2 0-.3-.1-.8-.3-1.5-.6-2.3-.9 0 0-.2 0-.3-.1l-1.5 3.7c.2 0 .4.2.6.2.4.2.9.4 1.3.5.6.2 1.1.4 1.7.7l.9.3c.8.3 1.5.6 2.3.8.7.3 1.5.5 2.2.8.5.2 1 .3 1.5.5l.9.3 1.2-3.8c-.5-.2-1-.3-1.5-.5m116.5-11.5c-.9.4-1.8.9-2.7 1.3q-4.05 1.95-8.1 3.6l1.5 3.7c1.8-.8 3.7-1.6 5.5-2.4s3.7-1.7 5.5-2.6zm20.9-11.4c-.2.1-.5.3-.7.4-3.2 1.9-6.4 3.8-9.6 5.5s1.9 3.5 1.9 3.5c.9-.5 1.7-1 2.6-1.4 2.6-1.5 5.3-3 7.9-4.6zm19.9-13.2c-1.6 1.2-3.3 2.3-4.9 3.5-1.6 1.1-3.1 2.1-4.7 3.2 0 0-.1 0-.2.1l2.2 3.3c1.6-1.1 3.3-2.2 5-3.4 0 0 .1 0 .2-.1l2.3-1.6c.8-.6 1.7-1.2 2.5-1.8l-2.3-3.3Zm18.9-14.5c-.2.2-.4.3-.6.5-.6.5-1.3 1.1-2 1.6-.6.4-1.1.9-1.8 1.4-.3.3-.6.5-1 .8-1.2 1-2.6 2.1-4.1 3.2l2.5 3.2q4.05-3.15 6.9-5.4c.7-.5 1.3-1.1 2-1.6.2-.2.4-.3.6-.5l-2.5-3.1Zm17.7-15.9-.2.2c-.6.6-1.2 1.2-1.9 1.8-2.1 2.1-4.3 4.1-6.5 6.1l2.7 3c.8-.7 1.5-1.4 2.3-2.1.6-.6 1.3-1.2 1.9-1.8.8-.8 1.7-1.6 2.5-2.4l.5-.5c.6-.5 1.1-1.1 1.7-1.6l-2.8-2.8Zm19-15.2-3.1-2.5c-.4.5-.7.9-1.1 1.3-.6.8-1.3 1.5-1.9 2.3-1.6 1.8-3.1 3.6-4.7 5.4l3 2.7c.5-.5 1-1.1 1.4-1.6l1.1-1.3c1.4-1.6 2.8-3.3 4.3-5.1.3-.4.7-.8 1-1.3Zm12.2-21.1c-1.9 2.1-3.7 4.3-5.4 6.4-.3.4-.6.7-.9 1.1l-1.5 1.8 3.1 2.5c1.8-2.2 3.7-4.6 5.6-6.8.5-.6 1.1-1.3 1.6-1.9l.3-.4-3-2.7Zm20.5-12.7-2.2-3.3c-1.8 1.2-3.5 2.4-5.2 3.7-1.5 1.2-3.1 2.4-4.5 3.7s2.6 3 2.6 3c.4-.3.7-.6 1.1-1 2.6-2.2 5.3-4.2 8.2-6.1m19.4-14.5c-.4.1-.8.3-1.2.5-.9.4-1.7.7-2.6 1.1l-1.2.6c-.4.2-.8.4-1.2.5l-1.2.6-1.2.6c-.8.4-1.5.7-2.3 1.1h-.2l1.8 3.5 1.2-.6h.1c1.1-.5 2.2-1.1 3.4-1.6.1 0 .3-.1.4-.2l1.4-.6 4.2-1.8-1.5-3.7Zm23.1-7.4c-2.3.5-4.5 1.1-6.7 1.7-1.1.3-2.2.6-3.3 1-.6.2-1.1.3-1.7.5s1.2 3.8 1.2 3.8c.3-.1.7-.2 1-.3.4-.1.8-.3 1.2-.4.7-.2 1.3-.4 2-.6 1.5-.4 2.9-.8 4.4-1.2.9-.2 1.8-.5 2.8-.7l-.9-3.9Zm24-3.7h-1.5c-.9 0-1.8.1-2.6.2-.4 0-.8 0-1.3.1-1.1.1-2.2.3-3.3.4s-2.3.3-3.4.5.6 3.9.6 3.9c2.2-.3 4.5-.6 6.7-.9l2.7-.3c.7 0 1.3-.1 2-.2h.3l-.3-4Zm12.2-.5v4h1.9v-4z" class="cls-14"/><path d="M328.4 196.2c4.9-3.5 7.5 14.6 7.4 17s-25.8 26.4-31.6 25.6 4-28.2 24.2-42.6" class="cls-3"/><path d="M304.2 238.8c-.4 0-.8-.3-1.1-.7-.3-4.6 14-28.2 30.1-38 1.8 4.7 2.6 11.7 2.6 13.1-.1 2.4-25.8 26.4-31.6 25.6" style="fill:#5d76a0"/><path d="M427 196.2c-2.8 26.5-26.3 40.6-53.1 37.7s-46.8-21.7-43.9-48.2c2.8-26.5 26.9-45.7 53.7-42.8s46.2 26.7 43.4 53.2Z" class="cls-3"/><path d="M427 196.5c-8.6 14.1-25.7 32.1-56 29.2-16.8-1.6-28.6-8.3-36.8-16.4 7.1 13.6 21.9 22.6 39.7 24.5 26.7 2.9 50-11.1 53.1-37.4Z" class="cls-24"/><path d="M395 216.2c15.5-11 19.1-32.4 8.1-47.8-11-15.5-32.5-19.1-48-8.2-15.5 11-19.1 32.4-8.1 47.8 11 15.5 32.5 19.1 48 8.2" style="fill:#15a6c9"/><path d="M396.3 218c16.5-11.7 20.4-34.5 8.7-50.9-11.7-16.5-34.6-20.4-51.1-8.7s-20.4 34.5-8.7 50.9c11.7 16.5 34.6 20.4 51.1 8.7" style="fill:#254773"/><path d="M379.1 151.1c-20.1-2.2-38.2 12.3-40.4 32.4-.8 7.1.6 13.9 3.5 19.8l64-34.4c-5.7-9.5-15.2-16.6-27.1-17.9Z" style="fill:#1b3556"/><path d="M395 216.2c15.5-11 19.1-32.4 8.1-47.8-11-15.5-32.5-19.1-48-8.2-15.5 11-19.1 32.4-8.1 47.8 11 15.5 32.5 19.1 48 8.2" style="fill:#35378e"/><path d="M386.4 139.8s-5.2-16.8-2.9-18.1c2.3-1.2 15.9 1.6 15.9 1.6s1.1-12.1 2.2-11.9 8.7 18.4 7.6 22.6c-1 4.2-17.7-.4-17.7-.4s-3.2 7.2-5.1 6.2M358.4 197.5c4.3-.4 7.3-5.3 6.8-11s-4.3-10.1-8.6-9.7-7.3 5.3-6.8 11 4.3 10.1 8.6 9.7M386.1 195.4c4.3.2 7.9-4.4 8.1-10.1.2-5.8-3.1-10.6-7.3-10.7s-7.9 4.4-8.1 10.1c-.2 5.8 3.1 10.6 7.3 10.7" class="cls-4"/><path d="M386.4 139.8c1.9 1 5.1-6.2 5.1-6.2s16.7 4.6 17.7.4-6.5-22.4-7.6-22.6c0 0 3.7 15.4 2.3 17.4-1.3 2-9.4-1.7-12.1-1.2-2.7.6-5.4 12.1-5.4 12.1Z" style="fill:#159b91"/><path d="M423.7 181.4c-7-.7 3.4 22.2 5.2 24.8 1.8 2.7 42.4 12.9 47.1 8s-23.6-30-52.3-32.8" class="cls-3"/><path d="M421.3 183.9c1.4 6.9 10.2 16 13.8 18.8 4.3 3.3 28.7 11.4 41.3 10.9 0 .2-.2.4-.4.6-4.7 4.9-42.6-2-47.1-8-3.2-4.3-8.1-16.4-7.6-22.3" class="cls-24"/><path d="M.5 497.9h755.9v-30.7H.5z" class="cls-33"/><path d="M.5 509h755.9v-15.4H.5z" class="cls-14"/><path d="M525.8 321.3h169.7c5.3 0 9.6 4.3 9.6 9.6v112.4c0 5.3-4.3 9.6-9.6 9.6H525.8c-5.3 0-9.6-4.3-9.6-9.6V330.9c0-5.3 4.3-9.6 9.6-9.6" class="cls-22"/><path d="M705.1 434.6v11.5c0 3.7-3 6.6-6.6 6.6H522.9c-3.7 0-6.6-3-6.6-6.6v-11.5z" class="cls-22"/><path d="M610.6 439.5c2.3 0 4.2 1.9 4.2 4.2s-1.9 4.2-4.2 4.2-4.2-1.9-4.2-4.2 1.9-4.2 4.2-4.2" class="cls-10"/><path d="M219.4 478.5c0 4.8-32.5 8.7-72.7 8.7S74 483.3 74 478.5s32.5-8.7 72.7-8.7 72.7 3.9 72.7 8.7M452 478.5c0 4.8-32.5 8.7-72.7 8.7s-72.7-3.9-72.7-8.7 32.5-8.7 72.7-8.7 72.7 3.9 72.7 8.7M684.9 478.5c0 4.8-32.5 8.7-72.7 8.7s-72.7-3.9-72.7-8.7 32.5-8.7 72.7-8.7 72.7 3.9 72.7 8.7" class="cls-14"/><path d="m358.2 450.3-2.9 18.5s-14.3 7.6-4.2 7.8c10 .2 57.3 0 57.3 0s9.1 0-5.4-8l-2.7-18.3z" class="cls-22"/><path d="M349.1 476.4c2.3-2 7.6-4.1 7.6-4.1l2.4-14.5h40.4l2.2 14.3c3.4 1.9 6.8 3.3 8 4.4 1.9-.4 3.9-2-6.7-7.9l-2.7-18.3h-42.1l-2.9 18.5s-12 6.4-6.3 7.6" class="cls-12"/><path d="m528.1 295.8-3.7 1.2c-1.6.5-2.8 1.8-3.3 3.4l-2.9 7.8c-.2.7-1 1.1-1.7.9-.1 0-.3-.1-.4-.2l-7.3-4.5c-1.3-1-3-1.2-4.5-.7l-3.7 1.2c-4 1.3-8.3-.9-9.6-4.9l-5.6-17.2c-1.3-4 .9-8.3 4.9-9.6l27.5-9c4-1.3 8.3.9 9.6 4.9l5.6 17.2c1.3 4-.9 8.3-4.9 9.6" class="cls-26"/><path d="M500.6 290.3c-1.2-.6-1.7-2.1-1.1-3.3q.45-.9 1.5-1.2c.7-.2 1.3-.2 1.9.2l3.4 1.7 6.5-12.7c.3-.6.8-1 1.4-1.2s1.3-.2 1.9.2c.6.3 1 .8 1.2 1.4s.2 1.3-.2 1.9l-7.6 14.9c-.3.6-.8 1-1.4 1.2-.3 0-.6.1-.9.1s-.6-.1-.9-.2l-5.7-2.9Z" class="cls-3"/><path d="M467.5 336H314.2v90.9h151.6c1 0 1.8-.8 1.8-1.8V336Z" style="fill:#e3e9f1"/><path d="M337.8 341.3h-20.4c-.2 0-.4.2-.4.4v23.9c0 .2.2.4.4.4h20.4c.2 0 .4-.2.4-.4v-23.9c0-.2-.2-.4-.4-.4" class="cls-3"/><path d="M330.8 342.7h-12.2c-.2 0-.4.2-.4.4v.3c0 .2.2.4.4.4h12.2c.2 0 .4-.2.4-.4v-.3c0-.2-.2-.4-.4-.4" class="cls-5"/><path d="M325.5 347.1h-7.1c-.3 0-.5.2-.5.5v.3c0 .3.2.5.5.5h7.1c.3 0 .5-.2.5-.5v-.3c0-.3-.2-.5-.5-.5M326.6 363.5h-8.2c-.3 0-.5.2-.5.5v.3c0 .3.2.5.5.5h8.2c.3 0 .5-.2.5-.5v-.3c0-.3-.2-.5-.5-.5M328.6 360.2h-10.2c-.3 0-.5.2-.5.5v.3c0 .3.2.5.5.5h10.2c.3 0 .5-.2.5-.5v-.3c0-.3-.2-.5-.5-.5M326 356.9h-7.6c-.3 0-.5.2-.5.5v.3c0 .3.2.5.5.5h7.6c.3 0 .5-.2.5-.5v-.3c0-.3-.2-.5-.5-.5M328.6 353.7h-10.2c-.3 0-.5.2-.5.5v.3c0 .3.2.5.5.5h10.2c.3 0 .5-.2.5-.5v-.3c0-.3-.2-.5-.5-.5M330.2 350.4h-11.9c-.3 0-.5.2-.5.5v.3c0 .3.2.5.5.5h11.9c.3 0 .5-.2.5-.5v-.3c0-.3-.2-.5-.5-.5" class="cls-11"/><path d="M336.8 347h-3.5c-.3 0-.5.2-.5.5v.4c0 .3.2.5.5.5h3.5c.3 0 .5-.2.5-.5v-.4c0-.3-.2-.5-.5-.5M336.8 350.3h-2.1c-.3 0-.5.2-.5.5v.4c0 .3.2.5.5.5h2.1c.3 0 .5-.2.5-.5v-.4c0-.3-.2-.5-.5-.5M336.8 353.6h-2.1c-.3 0-.5.2-.5.5v.4c0 .3.2.5.5.5h2.1c.3 0 .5-.2.5-.5v-.4c0-.3-.2-.5-.5-.5M336.8 356.9h-4.5c-.3 0-.5.2-.5.5v.4c0 .3.2.5.5.5h4.5c.3 0 .5-.2.5-.5v-.4c0-.3-.2-.5-.5-.5M336.8 360.1h-2.6c-.3 0-.5.2-.5.5v.4c0 .3.2.5.5.5h2.6c.3 0 .5-.2.5-.5v-.4c0-.3-.2-.5-.5-.5M336.8 363.4h-3.5c-.3 0-.5.2-.5.5v.4c0 .3.2.5.5.5h3.5c.3 0 .5-.2.5-.5v-.4c0-.3-.2-.5-.5-.5" class="cls-5"/><path d="M391.1 341.3h-47.5c-.2 0-.4.2-.4.4v23.8c0 .2.2.4.4.4h47.5c.2 0 .4-.2.4-.4v-23.8c0-.2-.2-.4-.4-.4" class="cls-3"/><path d="M367.5 342.7H345c-.2 0-.4.2-.4.4v.3c0 .2.2.4.4.4h22.5c.2 0 .4-.2.4-.4v-.3c0-.2-.2-.4-.4-.4" class="cls-5"/><path d="M367.4 349.1c-2.5 0-4.9 1-6.7 2.7s-2.8 4.1-2.8 6.6h5.1c0-2.3 2-4.2 4.4-4.2 2.3 0 4.3 1.8 4.4 4.2h5.1c0-2.5-1.1-4.9-2.8-6.6-1.8-1.7-4.2-2.7-6.7-2.7" class="cls-26"/><path d="M367.2 357.8c-.3 0-.5.4-.5.8s.4.6.7.6l12.2-2.4c.3 0 .4-.2.3-.3 0-.1-.1-.2-.4-.2z" style="fill:#1b1b1b"/><path d="m376.8 357.3-5 1c0 .1 5.1.1 5.1.1v-1.1Z" style="fill:#e0e0e0"/><path d="M371.8 361H363c-.2 0-.4.2-.4.4v.3c0 .2.2.4.4.4h8.8c.2 0 .4-.2.4-.4v-.3c0-.2-.2-.4-.4-.4" class="cls-5"/><path d="M463.5 341.3h-66.6c-.2 0-.4.2-.4.4v23.8c0 .2.2.4.4.4h66.6c.2 0 .4-.2.4-.4v-23.8c0-.2-.2-.4-.4-.4" class="cls-3"/><path d="M420.9 342.7h-22.5c-.2 0-.4.2-.4.4v.3c0 .2.2.4.4.4h22.5c.2 0 .4-.2.4-.4v-.3c0-.2-.2-.4-.4-.4" class="cls-5"/><path d="M448 361h-35.5c-.2 0-.4.2-.4.4v.3c0 .2.2.4.4.4H448c.2 0 .4-.2.4-.4v-.3c0-.2-.2-.4-.4-.4" class="cls-11"/><path d="M457.2 349.8h-54c-.1 0-.2 0-.2.2v5.6c0 .1 0 .2.2.2h54c.1 0 .2 0 .2-.2V350c0-.1 0-.2-.2-.2" class="cls-26"/><path d="M456.1 349.8h-5v6h5z" class="cls-9"/><path d="M456.1 349.8v6h1s.3-.1.3-.3V350c0-.1-.1-.3-.3-.3h-1Z" class="cls-44"/><path d="M361.5 371h-44.1c-.2 0-.4.2-.4.4v48c0 .2.2.4.4.4h44.1c.2 0 .4-.2.4-.4v-48c0-.2-.2-.4-.4-.4" class="cls-3"/><path d="M333.2 372.4h-14.6c-.2 0-.4.2-.4.4v.3c0 .2.2.4.4.4h14.6c.2 0 .4-.2.4-.4v-.3c0-.2-.2-.4-.4-.4" class="cls-5"/><path d="M331.4 406.8H330s-.1 0-.1.1v1.4s0 .1.1.1h1.4s.1 0 .1-.1v-1.4s0-.1-.1-.1" class="cls-26"/><path d="M348.7 407h-15.1c-.3 0-.5.2-.5.5v.3c0 .3.2.5.5.5h15.1c.3 0 .5-.2.5-.5v-.3c0-.3-.2-.5-.5-.5" class="cls-11"/><path d="M331.4 416.2H330s-.1 0-.1.1v1.4s0 .1.1.1h1.4s.1 0 .1-.1v-1.4s0-.1-.1-.1" class="cls-9"/><path d="M348.7 416.4h-15.1c-.3 0-.5.2-.5.5v.3c0 .3.2.5.5.5h15.1c.3 0 .5-.2.5-.5v-.3c0-.3-.2-.5-.5-.5" class="cls-11"/><path d="M331.4 413.1H330s-.1 0-.1.1v1.4s0 .1.1.1h1.4s.1 0 .1-.1v-1.4s0-.1-.1-.1" class="cls-20"/><path d="M348.7 413.3h-15.1c-.3 0-.5.2-.5.5v.3c0 .3.2.5.5.5h15.1c.3 0 .5-.2.5-.5v-.3c0-.3-.2-.5-.5-.5" class="cls-11"/><path d="M331.4 410H330s-.1 0-.1.1v1.4s0 .1.1.1h1.4s.1 0 .1-.1v-1.4s0-.1-.1-.1" class="cls-34"/><path d="M348.7 410.2h-15.1c-.3 0-.5.2-.5.5v.3c0 .3.2.5.5.5h15.1c.3 0 .5-.2.5-.5v-.3c0-.3-.2-.5-.5-.5" class="cls-11"/><path d="M331.1 380c-2.4 1.7-4.2 4.2-5.1 7l6.7 2.1c.4-1.4 1.3-2.5 2.4-3.4l-4.1-5.8Z" class="cls-34"/><path d="M335.9 377.8c-1.7.4-3.2 1.2-4.6 2.2l4.1 5.7c.7-.5 1.5-.9 2.4-1.1l-1.8-6.8Z" class="cls-20"/><path d="M339.7 377.3v7c1.8 0 3.6.8 4.8 2.2 2.7 2.8 2.6 7.3-.2 10-.6.6-1.4 1.1-2.2 1.4-1.7.7-3.7.7-5.4 0s-3.1-2.1-3.8-3.8c-.6-1.5-.7-3.2-.2-4.8l-6.7-2.2c-1.6 5-.2 10.5 3.5 14.2 5.5 5.5 14.5 5.5 20 0s5.5-14.3 0-19.8c-2.6-2.6-6.1-4.2-9.8-4.2" class="cls-26"/><path d="M339.4 377.3c-1.1 0-2.3.1-3.4.4l1.8 6.8c.5-.1 1.1-.2 1.6-.2h.1v-7Z" class="cls-9"/><path d="M463.6 371h-96.3c-.2 0-.4.2-.4.4v48c0 .2.2.4.4.4h96.3c.2 0 .4-.2.4-.4v-48c0-.2-.2-.4-.4-.4" class="cls-3"/><path d="M383 372.4h-14.6c-.2 0-.4.2-.4.4v.3c0 .2.2.4.4.4H383c.2 0 .4-.2.4-.4v-.3c0-.2-.2-.4-.4-.4" class="cls-5"/><path d="M376.6 406.8h-1.4s-.1 0-.1.1v1.4s0 .1.1.1h1.4s.1 0 .1-.1v-1.4s0-.1-.1-.1" class="cls-44"/><path d="M393.8 407h-15.1c-.3 0-.5.2-.5.5v.3c0 .3.2.5.5.5h15.1c.3 0 .5-.2.5-.5v-.3c0-.3-.2-.5-.5-.5" class="cls-11"/><path d="M376.6 410h-1.4s-.1 0-.1.1v1.4s0 .1.1.1h1.4s.1 0 .1-.1v-1.4s0-.1-.1-.1" class="cls-26"/><path d="M393.8 410.2h-15.1c-.3 0-.5.2-.5.5v.3c0 .3.2.5.5.5h15.1c.3 0 .5-.2.5-.5v-.3c0-.3-.2-.5-.5-.5" class="cls-11"/><path d="M407.4 406.8H406s-.1 0-.1.1v1.4s0 .1.1.1h1.4s.1 0 .1-.1v-1.4s0-.1-.1-.1" class="cls-44"/><path d="M424.7 407h-15.1c-.3 0-.5.2-.5.5v.3c0 .3.2.5.5.5h15.1c.3 0 .5-.2.5-.5v-.3c0-.3-.2-.5-.5-.5" class="cls-11"/><path d="M407.4 416.2H406s-.1 0-.1.1v1.4s0 .1.1.1h1.4s.1 0 .1-.1v-1.4s0-.1-.1-.1" class="cls-9"/><path d="M424.7 416.4h-15.1c-.3 0-.5.2-.5.5v.3c0 .3.2.5.5.5h15.1c.3 0 .5-.2.5-.5v-.3c0-.3-.2-.5-.5-.5" class="cls-11"/><path d="M407.4 413.1H406s-.1 0-.1.1v1.4s0 .1.1.1h1.4s.1 0 .1-.1v-1.4s0-.1-.1-.1" class="cls-26"/><path d="M424.7 413.3h-15.1c-.3 0-.5.2-.5.5v.3c0 .3.2.5.5.5h15.1c.3 0 .5-.2.5-.5v-.3c0-.3-.2-.5-.5-.5" class="cls-11"/><path d="M407.4 410H406s-.1 0-.1.1v1.4s0 .1.1.1h1.4s.1 0 .1-.1v-1.4s0-.1-.1-.1" class="cls-34"/><path d="M424.7 410.2h-15.1c-.3 0-.5.2-.5.5v.3c0 .3.2.5.5.5h15.1c.3 0 .5-.2.5-.5v-.3c0-.3-.2-.5-.5-.5" class="cls-11"/><path d="M438.3 406.8h-1.4s-.1 0-.1.1v1.4s0 .1.1.1h1.4s.1 0 .1-.1v-1.4s0-.1-.1-.1" class="cls-44"/><path d="M455.5 407h-15.1c-.3 0-.5.2-.5.5v.3c0 .3.2.5.5.5h15.1c.3 0 .5-.2.5-.5v-.3c0-.3-.2-.5-.5-.5" class="cls-11"/><path d="M438.3 413.1h-1.4s-.1 0-.1.1v1.4s0 .1.1.1h1.4s.1 0 .1-.1v-1.4s0-.1-.1-.1" class="cls-20"/><path d="M455.5 413.3h-15.1c-.3 0-.5.2-.5.5v.3c0 .3.2.5.5.5h15.1c.3 0 .5-.2.5-.5v-.3c0-.3-.2-.5-.5-.5" class="cls-11"/><path d="M438.3 410h-1.4s-.1 0-.1.1v1.4s0 .1.1.1h1.4s.1 0 .1-.1v-1.4s0-.1-.1-.1" class="cls-26"/><path d="M455.5 410.2h-15.1c-.3 0-.5.2-.5.5v.3c0 .3.2.5.5.5h15.1c.3 0 .5-.2.5-.5v-.3c0-.3-.2-.5-.5-.5" class="cls-11"/><path d="M384.7 379.8v5.8c1.2 0 2.3.4 3.3 1.1q1.5 1.05 2.1 2.7l5.5-1.9c-.8-2.2-2.3-4.2-4.2-5.6s-4.3-2.1-6.6-2.2" class="cls-26"/><path d="M384.5 379.8c-3.1 0-6 1.3-8.1 3.4-2.1 2.2-3.4 5.1-3.4 8.1 0 3.1 1.2 6 3.4 8.2 4.5 4.5 11.9 4.5 16.4 0 3.1-3.1 4.2-7.6 2.8-11.8l-5.5 1.9c.6 2.1 0 4.3-1.4 5.8-1.7 1.7-4.2 2.2-6.3 1.3-1.4-.6-2.6-1.7-3.1-3.1-.9-2.1-.4-4.6 1.2-6.3 1.1-1.1 2.5-1.7 4-1.7z" class="cls-44"/><path d="M421 393.1c-.4 1.2-1.1 2.2-2.1 2.9-1.8 1.3-4.2 1.5-6.1.4l-3 4.9c4 2.2 8.9 1.9 12.6-.7 2-1.4 3.5-3.5 4.2-5.8l-5.5-1.7Z" class="cls-26"/><path d="m409.9 392.9-5.5 1.8c.8 2.8 2.7 5.1 5.2 6.6l3-4.9c-1.3-.8-2.3-2-2.7-3.4" class="cls-9"/><path d="M415.6 379.8v5.8c1.5 0 3 .7 4 1.7 1.4 1.5 2 3.6 1.4 5.6l5.5 1.7c1.2-4 0-8.4-2.9-11.4-2.2-2.2-5.1-3.4-8.1-3.4" class="cls-44"/><path d="M415.3 379.8c-3.1 0-6 1.3-8.1 3.4-2.9 2.9-4 7.2-2.9 11.2l5.5-1.8c-.4-1.9.1-4 1.5-5.4 1.1-1.1 2.5-1.7 4-1.7v-5.8Z" class="cls-34"/><path d="M445.3 379.8c-2.1.2-4.1.9-5.9 2.2l3.3 4.7c.8-.6 1.8-1 2.8-1.2l-.2-5.8Z" class="cls-26"/><path d="M446.4 379.8v5.8c1.5 0 3 .7 4 1.7 2.2 2.3 2.2 6 0 8.2-.5.5-1.2.9-1.9 1.2-1.4.6-3 .6-4.5 0-.7-.3-1.3-.7-1.9-1.3-2.3-2.3-2.3-5.9 0-8.2.1-.1.2-.2.4-.3l-3.3-4.7c-5.1 3.9-6 11.2-2.1 16.2.3.4.6.8 1 1.1 4.5 4.5 11.9 4.5 16.4 0 2.2-2.2 3.4-5.1 3.4-8.2s-1.2-6-3.4-8.1c-2.2-2.2-5.1-3.4-8.1-3.4" class="cls-44"/><path d="M446.2 379.8h-.6l.2 5.8h.4z" class="cls-20"/><path d="M314.1 328.4v98.5h-19.2c-2 0-3.6-1.6-3.6-3.6V332c0-2 1.6-3.6 3.6-3.6z" class="cls-6"/><path d="M467.5 331.5v4.5H314.2v-7.7h150.2c1.7 0 3.1 1.4 3.1 3.1" class="cls-3"/><path d="M467.5 336.5H314.2v-.4h153.3z" class="cls-7"/><path d="M698.7 336.4v88.7c0 1-.8 1.7-1.7 1.7H545.4v-90.4z" class="cls-3"/><path d="M624.6 411.4h-16.1c-.3 0-.5.2-.5.5v.3c0 .3.2.5.5.5h16.1c.3 0 .5-.2.5-.5v-.3c0-.3-.2-.5-.5-.5M624.6 414.7h-16.1c-.3 0-.5.2-.5.5v.3c0 .3.2.5.5.5h16.1c.3 0 .5-.2.5-.5v-.3c0-.3-.2-.5-.5-.5" class="cls-11"/><path d="M645 347.1h-99.6v.7H645z" class="cls-21"/><path d="M597.7 339.9h-47.5c-.6 0-1.1.5-1.1 1.1s.5 1.1 1.1 1.1h47.5c.6 0 1.1-.5 1.1-1.1s-.5-1.1-1.1-1.1" class="cls-5"/><path d="M644.6 426.8h.7v-90.3h-.7z" class="cls-21"/><path d="M629 351.7h-79.3c-.4 0-.7.3-.7.7s.3.7.7.7H629c.4 0 .7-.3.7-.7s-.3-.7-.7-.7M595.9 356h-46.2c-.4 0-.7.3-.7.7s.3.7.7.7h46.2c.4 0 .7-.3.7-.7s-.3-.7-.7-.7" class="cls-11"/><path d="M682 339.9h-32.5c-.6 0-1.1.5-1.1 1.1s.5 1.1 1.1 1.1H682c.6 0 1.1-.5 1.1-1.1s-.5-1.1-1.1-1.1" class="cls-5"/><path d="M679 350.7h-29.9c-.4 0-.7.3-.7.7s.3.7.7.7H679c.4 0 .7-.3.7-.7s-.3-.7-.7-.7" class="cls-11"/><path d="M698.7 347.1h-53.9v.7h53.9z" class="cls-21"/><path d="M550.2 376.9c-.6 0-1.1.5-1.1 1.1v9.3c0 .6.5 1.1 1.1 1.1h10.5s.2 0 .2-.2V377s0-.2-.2-.2h-10.5Z" class="cls-29"/><path d="M639.2 377c.8 0 1.4.4 1.4.9v9.3c0 .5-.6.9-1.4.9h-78.5v-11.2h78.5Z" class="cls-1"/><path d="M593.3 379H563c-.5 0-.9.4-.9.9s.4.9.9.9h30.3c.5 0 .9-.4.9-.9s-.4-.9-.9-.9" class="cls-5"/><path d="M611.5 382.7h-48.7c-.4 0-.7.3-.7.7s.3.7.7.7h48.7c.4 0 .7-.3.7-.7s-.3-.7-.7-.7" class="cls-11"/><path d="M553.8 383.6c0 .2 0 .3-.2.5-.3.3-.7.3-.9 0-.3-.2-.3-.6 0-.9.2-.3.6-.3.9 0 .1.1.2.3.2.4M555.7 383.6c0 .2 0 .3-.2.5-.3.3-.7.3-.9 0-.3-.2-.3-.6 0-.9.1-.1.3-.2.4-.2.4 0 .7.2.7.6M557.6 383.6c0 .2 0 .3-.2.5-.3.3-.7.3-.9 0-.3-.2-.3-.6 0-.9.1-.1.3-.2.4-.2.4 0 .7.2.7.6M553.8 381.7c0 .2 0 .3-.2.5-.3.3-.7.3-.9 0-.3-.2-.3-.6 0-.9.2-.3.7-.3.9 0 .1.1.2.2.2.4M555.7 381.7c0 .2 0 .3-.2.5-.3.3-.7.3-.9 0-.3-.2-.3-.6 0-.9.2-.3.6-.3.9 0 .1.1.2.3.2.4M557.6 381.7c0 .2 0 .3-.2.5-.3.3-.7.3-.9 0-.3-.2-.3-.6 0-.9.2-.3.6-.3.9 0 .1.1.2.3.2.4" class="cls-41"/><path d="M595.2 385.3h-32.3c-.4 0-.7.3-.7.7s.3.7.7.7h32.3c.4 0 .7-.3.7-.7s-.3-.7-.7-.7" class="cls-11"/><path d="M627.6 378.3c-.6 0-1.1.5-1.1 1.1s.6 1.1 1.2 1c.6 0 1.1-.5 1.1-1.1s-.6-1-1.1-1" class="cls-20"/><path d="M624 378.3c-.6 0-1.1.5-1.1 1.1s.6 1.1 1.2 1c.6 0 1.1-.5 1.1-1.1s-.6-1-1.1-1" class="cls-34"/><path d="M630.7 377v11.2h9.1l.7-.3.3-.5v-9.7l-.4-.5-.5-.2h-9.1ZM550.2 392.4c-.6 0-1.1.5-1.1 1.1v9.3c0 .6.5 1.1 1.1 1.1h10.5s.2 0 .2-.2v-11.299999999999999h-10.6Z" class="cls-29"/><path d="M639.2 392.5c.8 0 1.4.4 1.4.9v9.3c0 .5-.6.9-1.4.9h-78.5v-11.2h78.5Z" class="cls-1"/><path d="M593.3 394.5H563c-.5 0-.9.4-.9.9s.4.9.9.9h30.3c.5 0 .9-.4.9-.9s-.4-.9-.9-.9" class="cls-5"/><path d="M611.5 398.2h-48.7c-.4 0-.7.3-.7.7s.3.7.7.7h48.7c.4 0 .7-.3.7-.7s-.3-.7-.7-.7" class="cls-11"/><path d="M553.8 399.1c0 .2 0 .3-.2.5-.3.3-.7.3-.9 0-.1-.1-.2-.3-.2-.4 0-.4.2-.7.6-.7.2 0 .3 0 .5.1.1.1.2.3.2.4ZM555.7 399.1c0 .2 0 .3-.2.5-.3.3-.7.3-.9 0-.1-.1-.2-.3-.2-.4 0-.2 0-.3.2-.5.2-.3.6-.3.9 0 .1.1.2.3.2.4M557.6 399.1c0 .2 0 .3-.2.5-.3.3-.7.3-.9 0-.1-.1-.2-.3-.2-.4 0-.2 0-.3.2-.5.2-.3.6-.3.9 0 .1.1.2.3.2.4M553.8 397.2c0 .2 0 .3-.2.5-.3.3-.7.3-.9 0-.1-.1-.2-.3-.2-.4 0-.4.2-.7.6-.7s.7.2.7.6M555.7 397.2c0 .2 0 .3-.2.5-.3.3-.7.3-.9 0-.1-.1-.2-.3-.2-.4 0-.2 0-.3.2-.5.1-.1.3-.2.4-.2.4 0 .7.2.7.6M557.6 397.2c0 .2 0 .3-.2.5-.3.3-.7.3-.9 0-.1-.1-.2-.3-.2-.4 0-.2 0-.3.2-.5.1-.1.3-.2.4-.2.4 0 .7.2.7.6" class="cls-41"/><path d="M595.2 400.8h-32.3c-.4 0-.7.3-.7.7s.3.7.7.7h32.3c.4 0 .7-.3.7-.7s-.3-.7-.7-.7" class="cls-11"/><path d="M627.6 393.8c-.6 0-1.1.5-1.1 1.1s.6 1.1 1.2 1c.6 0 1.1-.5 1.1-1.1s-.6-1-1.1-1" class="cls-20"/><path d="M624 393.8c-.6 0-1.1.5-1.1 1.1s.6 1.1 1.2 1c.6 0 1.1-.5 1.1-1.1s-.6-1-1.1-1" class="cls-34"/><path d="M630.7 392.5v11.2h9.1l.7-.3.3-.5v-9.7l-.4-.5-.5-.2h-9.1ZM550.2 407.9c-.6 0-1.1.5-1.1 1.1v9.3c0 .6.5 1.1 1.1 1.1h10.5s.2 0 .2-.2V408s0-.2-.2-.2h-10.5Z" class="cls-29"/><path d="M639.2 408c.8 0 1.4.4 1.4.9v9.3c0 .5-.6.9-1.4.9h-78.5v-11.2h78.5Z" class="cls-1"/><path d="M593.3 410H563c-.5 0-.9.4-.9.9s.4.9.9.9h30.3c.5 0 .9-.4.9-.9s-.4-.9-.9-.9" class="cls-5"/><path d="M611.5 413.7h-48.7c-.4 0-.7.3-.7.7s.3.7.7.7h48.7c.4 0 .7-.3.7-.7s-.3-.7-.7-.7" class="cls-11"/><path d="M553.8 414.6c0 .2 0 .3-.2.5-.3.3-.7.3-.9 0-.3-.2-.3-.6 0-.9.2-.3.7-.3.9 0 .1.1.2.2.2.4M555.7 414.6c0 .2 0 .3-.2.5-.3.3-.7.3-.9 0-.3-.2-.3-.6 0-.9.2-.3.6-.3.9 0 .1.1.2.3.2.4M557.6 414.6c0 .2 0 .3-.2.5-.3.3-.7.3-.9 0-.3-.2-.3-.6 0-.9.2-.3.6-.3.9 0 .1.1.2.3.2.4M553.8 412.7c0 .2 0 .3-.2.5-.3.3-.7.3-.9 0-.3-.2-.3-.6 0-.9.2-.3.7-.3.9 0 .1.1.2.2.2.4M555.7 412.7c0 .2 0 .3-.2.5-.3.3-.7.3-.9 0-.3-.2-.3-.6 0-.9.2-.3.6-.3.9 0 .1.1.2.3.2.4M557.6 412.7c0 .2 0 .3-.2.5-.3.3-.7.3-.9 0-.3-.2-.3-.6 0-.9.2-.3.6-.3.9 0 .1.1.2.3.2.4" class="cls-41"/><path d="M595.2 416.3h-32.3c-.4 0-.7.3-.7.7s.3.7.7.7h32.3c.4 0 .7-.3.7-.7s-.3-.7-.7-.7" class="cls-11"/><path d="M627.6 409.3h-.1c-.6 0-1.1.6-1 1.2 0 .6.6 1.1 1.2 1 .6 0 1.1-.5 1.1-1.1s-.6-1-1.1-1" class="cls-20"/><path d="M624 409.3h-.1c-.6 0-1.1.6-1 1.2 0 .6.6 1.1 1.2 1 .6 0 1.1-.5 1.1-1.1s-.6-1-1.1-1" class="cls-34"/><path d="M630.7 408v11.2h9.1l.7-.3.3-.5v-9.7l-.4-.5-.5-.2h-9.1ZM550.2 361.3c-.6 0-1.1.5-1.1 1.1v9.3c0 .6.5 1.1 1.1 1.1h10.5s.2 0 .2-.2v-11.2s0-.2-.2-.2h-10.5Z" class="cls-29"/><path d="M639.2 361.5c.8 0 1.4.4 1.4.9v9.3c0 .5-.6.9-1.4.9h-78.5v-11.2h78.5Z" class="cls-1"/><path d="M593.3 363.5H563c-.5 0-.9.4-.9.9s.4.9.9.9h30.3c.5 0 .9-.4.9-.9s-.4-.9-.9-.9" class="cls-5"/><path d="M611.5 367.2h-48.7c-.4 0-.7.3-.7.7s.3.7.7.7h48.7c.4 0 .7-.3.7-.7s-.3-.7-.7-.7" class="cls-11"/><path d="M553.8 368c0 .2 0 .3-.2.5-.3.3-.7.3-.9 0-.3-.2-.3-.6 0-.9.2-.3.7-.3.9 0 .1.1.2.2.2.4M555.7 368c0 .2 0 .3-.2.5-.3.3-.7.3-.9 0-.3-.2-.3-.7 0-.9.1-.1.3-.2.4-.2.4 0 .7.2.7.6M557.6 368c0 .2 0 .3-.2.5-.3.3-.7.3-.9 0-.3-.2-.3-.7 0-.9.1-.1.3-.2.4-.2.4 0 .7.2.7.6M553.8 366.2c0 .2 0 .3-.2.5-.3.3-.7.3-.9 0-.3-.2-.3-.6 0-.9.2-.3.7-.3.9 0 .1.1.2.2.2.4M555.7 366.2c0 .2 0 .3-.2.5-.3.3-.7.3-.9 0-.3-.2-.3-.7 0-.9.1-.1.3-.2.4-.2.4 0 .7.2.7.6M557.6 366.2c0 .2 0 .3-.2.5-.3.3-.7.3-.9 0-.3-.2-.3-.7 0-.9.1-.1.3-.2.4-.2.4 0 .7.2.7.6" class="cls-41"/><path d="M595.2 369.8h-32.3c-.4 0-.7.3-.7.7s.3.7.7.7h32.3c.4 0 .7-.3.7-.7s-.3-.7-.7-.7" class="cls-11"/><path d="M627.6 362.8c-.6 0-1.1.5-1.1 1.1s.6 1.1 1.2 1c.6 0 1.1-.5 1.1-1.1s-.6-1-1.1-1" class="cls-20"/><path d="M624 362.8c-.6 0-1.1.5-1.1 1.1s.6 1.1 1.2 1c.6 0 1.1-.5 1.1-1.1s-.6-1-1.1-1" class="cls-34"/><path d="M630.7 361.5v11.2h9.1l.7-.3.3-.5v-9.7l-.4-.5-.5-.2h-9.1ZM649.3 354.9c-.5 0-.9.4-.9.9v7.6c0 .5.4.9.9.9h8.5v-9.399999999999999h-8.5" class="cls-29"/><path d="M695.8 355.1c.4 0 .7.3.7.8v7.6c0 .4-.3.8-.7.8h-38.4v-9.2z" class="cls-1"/><path d="M681.1 357.1h-20.9c-.5 0-.9.4-.9.9s.4.9.9.9h20.9c.5 0 .9-.4.9-.9s-.4-.9-.9-.9" class="cls-5"/><path d="M688.4 360.7h-28.3c-.4 0-.7.3-.7.7s.3.7.7.7h28.3c.4 0 .7-.3.7-.7s-.3-.7-.7-.7" class="cls-11"/><path d="M652.2 360.4c0 .3-.2.5-.5.5s-.5-.2-.5-.5.2-.5.5-.5c.1 0 .3 0 .4.1.1 0 .2.2.2.3ZM653.7 360.4c0 .3-.2.5-.5.5s-.5-.2-.5-.5.2-.5.5-.5c.1 0 .3 0 .4.1.1 0 .2.2.2.3ZM655.2 360.4c0 .3-.2.5-.5.5s-.5-.2-.5-.5.2-.5.5-.5c.1 0 .3 0 .4.1.1 0 .2.2.2.3ZM652.2 358.9c0 .3-.2.5-.5.5s-.5-.2-.5-.5.2-.5.5-.5c.1 0 .3 0 .4.1.1 0 .2.2.2.3ZM653.7 358.9c0 .3-.2.5-.5.5s-.5-.2-.5-.5.2-.5.5-.5c.1 0 .3 0 .4.1.1 0 .2.2.2.3ZM655.2 358.9c0 .3-.2.5-.5.5s-.5-.2-.5-.5.2-.5.5-.5c.1 0 .3 0 .4.1.1 0 .2.2.2.3Z" class="cls-41"/><path d="M649.3 366.1c-.5 0-.9.4-.9.9v7.6c0 .5.4.9.9.9h8.4s.1 0 .1-.1v-9.3h-8.5" class="cls-29"/><path d="M695.8 366.3c.4 0 .7.3.7.8v7.6c0 .4-.3.8-.7.8h-38.4v-9.2z" class="cls-1"/><path d="M673.8 368.3h-13.6c-.5 0-.9.4-.9.9s.4.9.9.9h13.6c.5 0 .9-.4.9-.9s-.4-.9-.9-.9" class="cls-5"/><path d="M693.6 371.9h-33.5c-.4 0-.7.3-.7.7s.3.7.7.7h33.5c.4 0 .7-.3.7-.7s-.3-.7-.7-.7" class="cls-11"/><path d="M652.2 371.6c0 .1 0 .3-.1.4-.2.2-.5.2-.7 0s-.2-.5 0-.7.5-.2.7 0c0 0 .2.2.2.3ZM653.7 371.6c0 .1 0 .3-.1.4-.2.2-.5.2-.7 0 0 0-.1-.2-.2-.3 0-.3.2-.5.5-.5.1 0 .3 0 .4.1.1 0 .2.2.2.3ZM655.2 371.6c0 .1 0 .3-.1.4-.2.2-.5.2-.7 0s-.2-.5 0-.7.5-.2.7 0c0 0 .2.2.2.3ZM652.2 370.1c0 .3-.3.5-.5.5-.3 0-.5-.2-.5-.5s.2-.5.5-.5c.1 0 .3 0 .4.1.1 0 .2.2.2.3ZM653.7 370.1c0 .1 0 .3-.1.4-.2.2-.5.2-.7 0s-.2-.5 0-.7.5-.2.7 0c.1 0 .2.2.2.3ZM655.2 370.1c0 .3-.3.5-.5.5-.3 0-.5-.2-.5-.5s.2-.5.5-.5c.1 0 .3 0 .4.1.1 0 .2.2.2.3Z" class="cls-41"/><path d="M649.3 377.3c-.5 0-.9.4-.9.9v7.6c0 .5.4.9.9.9h8.4s.1 0 .1-.1v-9.3h-8.5" class="cls-29"/><path d="M695.8 377.5c.4 0 .7.3.7.8v7.6c0 .4-.3.8-.7.8h-38.4v-9.2z" class="cls-1"/><path d="M687.7 379.5h-27.5c-.5 0-.9.4-.9.9s.4.9.9.9h27.5c.5 0 .9-.4.9-.9s-.4-.9-.9-.9" class="cls-5"/><path d="M681.7 383.1h-21.5c-.4 0-.7.3-.7.7s.3.7.7.7h21.5c.4 0 .7-.3.7-.7s-.3-.7-.7-.7" class="cls-11"/><path d="M652.2 382.8c0 .1 0 .3-.1.4-.2.2-.5.2-.7 0s-.2-.5 0-.7.5-.2.7 0c.1 0 .2.2.2.3ZM653.7 382.8c0 .1 0 .3-.1.4-.2.2-.5.2-.7 0 0 0-.1-.2-.2-.3 0-.3.2-.5.5-.5.1 0 .3 0 .4.1.1 0 .2.2.2.3ZM655.2 382.8c0 .1 0 .3-.1.4-.2.2-.5.2-.7 0s-.2-.5 0-.7.5-.2.7 0c.1 0 .2.2.2.3ZM652.2 381.3c0 .1 0 .3-.1.4-.2.2-.5.2-.7 0s-.2-.5 0-.7.5-.2.7 0c0 0 .2.2.2.3ZM653.7 381.3c0 .1 0 .3-.1.4-.2.2-.5.2-.7 0 0 0-.1-.2-.2-.3 0-.3.2-.5.5-.5.1 0 .3 0 .4.1.1 0 .2.2.2.3ZM655.2 381.3c0 .1 0 .3-.1.4-.2.2-.5.2-.7 0s-.2-.5 0-.7.5-.2.7 0c0 0 .2.2.2.3Z" class="cls-41"/><path d="M649.3 395c-.5 0-.9.4-.9.9v7.6c0 .5.4.9.9.9h8.4s.1 0 .1-.1v-9.2s0-.1-.1-.1z" class="cls-29"/><path d="M695.7 395.2c.4 0 .7.3.7.8v7.6c0 .4-.3.8-.7.8h-38.4v-9.2z" class="cls-1"/><path d="M678.2 397.2h-18.1c-.5 0-.9.4-.9.9s.4.9.9.9h18.1c.5 0 .9-.4.9-.9s-.4-.9-.9-.9" class="cls-5"/><path d="M693.6 400.8h-33.5c-.4 0-.7.3-.7.7s.3.7.7.7h33.5c.4 0 .7-.3.7-.7s-.3-.7-.7-.7" class="cls-11"/><path d="M652.1 400.5c0 .1 0 .3-.1.4-.2.2-.5.2-.7 0 0 0-.1-.2-.2-.3 0-.3.2-.5.5-.5.1 0 .3 0 .4.1.1 0 .2.2.2.3ZM653.6 400.5c0 .1 0 .3-.1.4-.2.2-.5.2-.7 0 0 0-.2-.2-.2-.3 0-.3.2-.5.5-.5.1 0 .3 0 .4.1.1 0 .2.2.2.3ZM655.1 400.5c0 .1 0 .3-.1.4-.2.2-.5.2-.7 0 0 0-.1-.2-.2-.3 0-.3.2-.5.5-.5.1 0 .3 0 .4.1.1 0 .2.2.2.3ZM652.1 399c0 .1 0 .3-.1.4-.2.2-.5.2-.7 0 0 0-.1-.2-.2-.3 0-.3.2-.5.5-.5.1 0 .3 0 .4.1.1 0 .2.2.2.3ZM653.6 399c0 .1 0 .3-.1.4-.2.2-.5.2-.7 0 0 0-.2-.2-.2-.3 0-.3.2-.5.5-.5.1 0 .3 0 .4.1.1 0 .2.2.2.3ZM655.1 399c0 .1 0 .3-.1.4-.2.2-.5.2-.7 0 0 0-.1-.2-.2-.3 0-.3.2-.5.5-.5.1 0 .3 0 .4.1.1 0 .2.2.2.3Z" class="cls-41"/><path d="M649.4 405.9c-.5 0-.9.4-.9.9v7.6c0 .5.4.9.9.9h8.5v-9.4h-8.5" class="cls-29"/><path d="M695.8 406c.4 0 .7.3.7.8v7.6c0 .4-.3.8-.7.8h-38.4V406z" class="cls-1"/><path d="M681.2 408.1h-20.9c-.5 0-.9.4-.9.9s.4.9.9.9h20.9c.5 0 .9-.4.9-.9s-.4-.9-.9-.9" class="cls-5"/><path d="M686.5 411.7h-26.3c-.4 0-.7.3-.7.7s.3.7.7.7h26.3c.4 0 .7-.3.7-.7s-.3-.7-.7-.7" class="cls-11"/><path d="M652.2 411.3c0 .1 0 .3-.1.4-.2.2-.5.2-.7 0 0 0-.2-.2-.2-.3 0-.3.2-.5.5-.5.1 0 .3 0 .4.1.1 0 .2.2.2.3ZM653.7 411.3c0 .1 0 .3-.1.4-.2.2-.5.2-.7 0s-.2-.5 0-.7.5-.2.7 0c.1 0 .2.2.2.3ZM655.2 411.3c0 .1 0 .3-.1.4-.2.2-.5.2-.7 0 0 0-.2-.2-.2-.3 0-.3.2-.5.5-.5.1 0 .3 0 .4.1.1 0 .2.2.2.3ZM652.2 409.9c0 .1 0 .3-.1.4-.2.2-.5.2-.7 0 0 0-.2-.2-.2-.3 0-.3.2-.5.5-.5.1 0 .3 0 .4.1.1 0 .2.2.2.3ZM653.7 409.9c0 .1 0 .3-.1.4-.2.2-.5.2-.7 0s-.2-.5 0-.7.5-.2.7 0c.1 0 .2.2.2.3ZM655.2 409.9c0 .1 0 .3-.1.4-.2.2-.5.2-.7 0 0 0-.2-.2-.2-.3 0-.3.2-.5.5-.5.1 0 .3 0 .4.1.1 0 .2.2.2.3Z" class="cls-41"/><path d="M677.5 391.2h-28.4c-.4 0-.7.3-.7.7s.3.7.7.7h28.4c.4 0 .7-.3.7-.7s-.3-.7-.7-.7" class="cls-11"/><path d="M545.4 328.3v98.5h-19.2c-2 0-3.6-1.6-3.6-3.6v-91.3c0-2 1.6-3.6 3.6-3.6z" class="cls-6"/><path d="M698.7 331.5v4.5H545.4v-7.7h150.2c1.7 0 3.1 1.4 3.1 3.1" class="cls-3"/><path d="M698.7 336.4H545.4v-.4h153.3z" class="cls-7"/><path d="M633.2 601.4h.2-.3Z" style="fill:#2f2f42"/><path d="M609.4 354.1c-16.9.1-30.5 13.8-30.5 30.7s5.7 19.5 14.1 25.8c1 .7 1.1 4 1.3 5.9.6 5.3 0 15.9 0 15.9 0 .8.3 1.4.8 1.4h30c.4 0 .8-.6.8-1.4 0 0-.6-10.7 0-15.9.2-2.1.5-5.8 1.5-6.6 7.7-6.3 13-15.1 13-25.1 0-16.9-13.7-30.7-30.7-30.7h-.2Z" style="fill:#fbce9e"/><path d="M636.5 362.2s8-15.3-9.6-16.7c0 0-15.1-13.7-30.4-2.5 0 0-8.4 0-12.9 9.5 0 0-6.6-2.5-8 4.2 0 0-4.8 13.9 0 26.5s6.4 14 6.4 14 5.8 11.2 25 9.8c24.1.7 22.2-8.8 32.8-16.5 0 0 15.2-21.9-3.2-28.2" style="fill:#4d3e39"/><path d="M604.9 502.1c-.7-1.1-1.8-1.9-2.9-2.2l-16.2-4.1-1.7-.4c-2-.5-3.6-2-4.6-4.1-.5-1.1-.8 3-.9 1.8 0-1.1 0-2.3.3-3.4l5.6-20.5 3.6-13.3c.4-1.6.7-3.3.8-5 .2-4.7-1-9.3-3.4-13-4.3-6.7-11.7-9.2-18.2-6.1 0 0-.2 0-.3.1-4.6 2.2-8.1 7-9.4 12.8l-4 17.5-8.2 30.6c-3.5 15.3 5.1 30.8 18.1 32.6l23.3 3.3 10.8 1.5c2.6.4 5-1.7 5.5-4.8v-.2l.3-1.9 2.2-16.3v-.2c.3-1.7-.1-3.4-1-4.8ZM684.8 492.8c-9.9-16.1-21.2-55.5-25.7-60.4-3.3-1.4-2.1-1.1-3.3-1.4-.2 0-.3-.1-.5-.1-2.4-.6-4.9-.6-7.2.2-4.4 1.4-8 4.9-10.1 9.8-2.3 5.5-2.4 11.9-.1 17.5l.2.5 12.9 31.3c1.9 4.5 0 4.7-3.9 6.4l-.9.4-16.3 7.1c-2.5 1.1-3.9 4.4-3.1 7.5v.2l4.6 17.7v.2c0 .2 0 .3.1.4 1 2.7 3.5 4.2 5.9 3.4l8.8-2.8 1.8-.6 22.7-7.3c12.7-4.1 19.4-15.5 14.2-30.1Z" class="cls-37"/><path d="M659.6 650.7h-88.9v-77.8h88.9z" style="fill:#262654"/><path d="M584.1 425.6c-12 3.7-23.7 6.7-26.3 20.7 0 0 5.4 16.5 7.1 25.4 2.4 11.9 4.1 22.5 3.7 36.4v2.6l.3 6.1.2 6.4v.3l.8 21.2v7.1l.2 5.5v.4l.6 15.1c12.5 3.5 25.7 6.5 38.7 6.5 18.4 0 33.1 2.4 50.2-4.6 5.3-39.2 4.4-39.2-.5-141.8 0-1.2-10.2-8.3-25.1-6.8h-10.2l-20.9-.3-18.8-.3Z" class="cls-26"/><path d="M649.4 416.8c-.5 0-.9.4-.9.9v7.6c0 .5.4.9.9.9h8.5v-9.4h-8.5" class="cls-29"/><path d="M695.8 416.9c.4 0 .7.3.7.8v7.6c0 .4-.3.8-.7.8h-38.4v-9.2z" class="cls-1"/><path d="M681.2 418.9h-20.9c-.5 0-.9.4-.9.9s.4.9.9.9h20.9c.5 0 .9-.4.9-.9s-.4-.9-.9-.9" class="cls-5"/><path d="M686.5 422.6h-26.3c-.4 0-.7.3-.7.7s.3.7.7.7h26.3c.4 0 .7-.3.7-.7s-.3-.7-.7-.7" class="cls-11"/><path d="M652.2 422.2c0 .1 0 .3-.1.4-.2.2-.5.2-.7 0 0 0-.2-.2-.2-.3 0-.3.2-.5.5-.5s.5.2.6.4ZM653.7 422.2c0 .1 0 .3-.1.4-.2.2-.5.2-.7 0s-.2-.5 0-.7.5-.2.7 0c0 0 .2.2.2.3ZM655.2 422.2c0 .1 0 .3-.1.4-.2.2-.5.2-.7 0 0 0-.2-.2-.2-.3 0-.3.2-.5.5-.5.1 0 .3 0 .4.1.1 0 .2.2.2.3ZM652.2 420.8c0 .1 0 .3-.1.4-.2.2-.5.2-.7 0 0 0-.2-.2-.2-.3 0-.3.2-.5.5-.5.1 0 .3 0 .4.1.1 0 .2.2.2.3ZM653.7 420.8c0 .1 0 .3-.1.4-.2.2-.5.2-.7 0s-.2-.5 0-.7.5-.2.7 0c.1 0 .2.2.2.3ZM655.2 420.8c0 .1 0 .3-.1.4-.2.2-.5.2-.7 0 0 0-.2-.2-.2-.3 0-.3.2-.5.5-.5.1 0 .3 0 .4.1.1 0 .2.2.2.3Z" class="cls-41"/><path d="m125.6 450.3-2.9 18.5s-14.3 7.6-4.2 7.8c10 .2 57.3 0 57.3 0s9.1 0-5.4-8l-2.7-18.3z" class="cls-22"/><path d="M116.5 476.4c2.3-2 7.6-4.1 7.6-4.1l2.4-14.5h40.4l2.2 14.3c3.4 1.9 6.8 3.3 8 4.4 1.9-.4 3.9-2-6.7-7.9l-2.7-18.3h-42.1l-2.9 18.5s-12 6.4-6.3 7.6" class="cls-12"/><path d="M61.5 321.4h169.7c5.3 0 9.6 4.3 9.6 9.6v112.4c0 5.3-4.3 9.6-9.6 9.6H61.5c-5.3 0-9.6-4.3-9.6-9.6V331c0-5.3 4.3-9.6 9.6-9.6" class="cls-22"/><path d="M240.8 434.7v11.5c0 3.7-3 6.6-6.6 6.6H58.6c-3.7 0-6.6-3-6.6-6.6v-11.5z" class="cls-22"/><path d="M81.1 328.4v98.5H61.9c-2 0-3.6-1.6-3.6-3.6V332c0-2 1.6-3.6 3.6-3.6z" class="cls-6"/><path d="M234.4 331.5v4.5H81.1v-7.7h150.2c1.7 0 3.1 1.4 3.1 3.1" class="cls-3"/><path d="M234.4 336.5H81.1v-.4h153.3z" class="cls-7"/><path d="M234.4 336.5v87.7c-.2 1.6-1.5 2.7-3.1 2.7H81.1v-90.4z" class="cls-3"/><path d="M234.4 393.8H81.1v-1.1h153.3z" class="cls-7"/><path d="M81.1 399.9h153.3v-6.1H81.1z" class="cls-10"/><path d="M96 398.6h-9.8c-.5 0-.9-.4-.9-.9V396c0-.5.4-.9.9-.9H96c.5 0 .9.4.9.9v1.7c0 .5-.4.9-.9.9" class="cls-5"/><path d="M133.4 398.1H103c-.5 0-.9-.4-.9-.9v-.2c0-.5.4-.9.9-.9h30.4c.5 0 .9.4.9.9v.2c0 .5-.4.9-.9.9M162.8 398.1h-8.1c-.5 0-.9-.4-.9-.9v-.2c0-.5.4-.9.9-.9h8.1c.5 0 .9.4.9.9v.2c0 .5-.4.9-.9.9M195.1 398.1H187c-.5 0-.9-.4-.9-.9v-.2c0-.5.4-.9.9-.9h8.1c.5 0 .9.4.9.9v.2c0 .5-.4.9-.9.9M226.4 398.1h-15.9c-.5 0-.9-.4-.9-.9v-.2c0-.5.4-.9.9-.9h15.9c.5 0 .9.4.9.9v.2c0 .5-.4.9-.9.9" class="cls-11"/><path d="M81.1 406h153.3v-6.1H81.1z" class="cls-3"/><path d="M96 404.7h-9.8c-.5 0-.9-.4-.9-.9v-1.7c0-.5.4-.9.9-.9H96c.5 0 .9.4.9.9v1.7c0 .5-.4.9-.9.9" class="cls-5"/><path d="M127.2 404.1h-24.3c-.5 0-.9-.4-.9-.9v-.2c0-.5.4-.9.9-.9h24.3c.5 0 .9.4.9.9v.2c0 .5-.4.9-.9.9M162.8 404.1h-8.1c-.5 0-.9-.4-.9-.9v-.2c0-.5.4-.9.9-.9h8.1c.5 0 .9.4.9.9v.2c0 .5-.4.9-.9.9M195.1 404.1H187c-.5 0-.9-.4-.9-.9v-.2c0-.5.4-.9.9-.9h8.1c.5 0 .9.4.9.9v.2c0 .5-.4.9-.9.9M226.4 404.1h-15.9c-.5 0-.9-.4-.9-.9v-.2c0-.5.4-.9.9-.9h15.9c.5 0 .9.4.9.9v.2c0 .5-.4.9-.9.9" class="cls-11"/><path d="M81.1 412.1h153.3V406H81.1z" class="cls-10"/><path d="M96 410.8h-9.8c-.5 0-.9-.4-.9-.9v-1.7c0-.5.4-.9.9-.9H96c.5 0 .9.4.9.9v1.7c0 .5-.4.9-.9.9" class="cls-39"/><path d="M141.2 410.2H103c-.5 0-.9-.4-.9-.9v-.2c0-.5.4-.9.9-.9h38.2c.5 0 .9.4.9.9v.2c0 .5-.4.9-.9.9M162.8 410.2h-8.1c-.5 0-.9-.4-.9-.9v-.2c0-.5.4-.9.9-.9h8.1c.5 0 .9.4.9.9v.2c0 .5-.4.9-.9.9M195.1 410.2H187c-.5 0-.9-.4-.9-.9v-.2c0-.5.4-.9.9-.9h8.1c.5 0 .9.4.9.9v.2c0 .5-.4.9-.9.9M226.4 410.2h-15.9c-.5 0-.9-.4-.9-.9v-.2c0-.5.4-.9.9-.9h15.9c.5 0 .9.4.9.9v.2c0 .5-.4.9-.9.9" class="cls-11"/><path d="M81.1 418.1h153.3V412H81.1z" class="cls-3"/><path d="M96 416.9h-9.8c-.5 0-.9-.4-.9-.9v-1.7c0-.5.4-.9.9-.9H96c.5 0 .9.4.9.9v1.7c0 .5-.4.9-.9.9" class="cls-39"/><path d="M136.5 416.3H103c-.5 0-.9-.4-.9-.9v-.2c0-.5.4-.9.9-.9h33.5c.5 0 .9.4.9.9v.2c0 .5-.4.9-.9.9M162.8 416.3h-8.1c-.5 0-.9-.4-.9-.9v-.2c0-.5.4-.9.9-.9h8.1c.5 0 .9.4.9.9v.2c0 .5-.4.9-.9.9M195.1 416.3H187c-.5 0-.9-.4-.9-.9v-.2c0-.5.4-.9.9-.9h8.1c.5 0 .9.4.9.9v.2c0 .5-.4.9-.9.9M226.4 416.3h-15.9c-.5 0-.9-.4-.9-.9v-.2c0-.5.4-.9.9-.9h15.9c.5 0 .9.4.9.9v.2c0 .5-.4.9-.9.9" class="cls-11"/><path d="M81.1 424.2h153.3v-6.1H81.1z" class="cls-10"/><path d="M96 422.9h-9.8c-.5 0-.9-.4-.9-.9v-1.7c0-.5.4-.9.9-.9H96c.5 0 .9.4.9.9v1.7c0 .5-.4.9-.9.9" class="cls-5"/><path d="M121.2 422.4H103c-.5 0-.9-.4-.9-.9v-.2c0-.5.4-.9.9-.9h18.2c.5 0 .9.4.9.9v.2c0 .5-.4.9-.9.9M162.8 422.4h-8.1c-.5 0-.9-.4-.9-.9v-.2c0-.5.4-.9.9-.9h8.1c.5 0 .9.4.9.9v.2c0 .5-.4.9-.9.9M195.1 422.4H187c-.5 0-.9-.4-.9-.9v-.2c0-.5.4-.9.9-.9h8.1c.5 0 .9.4.9.9v.2c0 .5-.4.9-.9.9M226.4 422.4h-15.9c-.5 0-.9-.4-.9-.9v-.2c0-.5.4-.9.9-.9h15.9c.5 0 .9.4.9.9v.2c0 .5-.4.9-.9.9" class="cls-11"/><path d="M234.4 424.2c-.2 1.6-1.5 2.7-3.1 2.7H81.1v-2.7z" class="cls-3"/><path d="M96.9 426.4v.5H85.2v-.5c0-.5.4-.9.9-.9h9.8c.5 0 .9.4.9.9" class="cls-39"/><path d="M134.2 426.9h-32.1c.1-.3.5-.6.8-.6h30.4q.6 0 .9.6M163.6 426.9h-9.8c.1-.3.5-.6.9-.6h8.1q.6 0 .9.6M196 426.9h-9.8c.1-.3.5-.6.9-.6h8.1q.6 0 .9.6M227.3 426.9h-17.6c.1-.3.5-.6.9-.6h15.9q.6 0 .9.6" class="cls-11"/><path d="M135.8 344.6H86.4c-.6 0-1.2-.5-1.2-1.2v-1c0-.6.5-1.2 1.2-1.2h49.4c.6 0 1.2.5 1.2 1.2v1c0 .6-.5 1.2-1.2 1.2" class="cls-5"/><path d="M161.1 345.4h-19.6c-.6 0-1.2-.5-1.2-1.2v-2.4c0-.6.5-1.2 1.2-1.2h19.6c.6 0 1.2.5 1.2 1.2v2.4c0 .6-.5 1.2-1.2 1.2" class="cls-39"/><path d="M113.6 353.7H86.4c-.6 0-1.2-.5-1.2-1.2v-.4c0-.6.5-1.2 1.2-1.2h27.2c.6 0 1.2.5 1.2 1.2v.4c0 .6-.5 1.2-1.2 1.2" class="cls-5"/><path d="M187.1 358.2h-101c-.5 0-.9-.4-.9-.9v-.2c0-.5.4-.9.9-.9h101c.5 0 .9.4.9.9v.2c0 .5-.4.9-.9.9M187.7 363.1H86.1c-.5 0-.9-.4-.9-.9v-.2c0-.5.4-.9.9-.9h101.6c.5 0 .9.4.9.9v.2c0 .5-.4.9-.9.9M188.3 368.1H86.2c-.5 0-.9-.4-.9-.9v-.2c0-.5.4-.9.9-.9h102.1c.5 0 .9.4.9.9v.2c0 .5-.4.9-.9.9" class="cls-11"/><path d="M113.6 375.5H86.4c-.6 0-1.2-.5-1.2-1.2v-.4c0-.6.5-1.2 1.2-1.2h27.2c.6 0 1.2.5 1.2 1.2v.4c0 .6-.5 1.2-1.2 1.2" class="cls-5"/><path d="M191.5 380H86.2c-.5 0-.9-.4-.9-.9v-.2c0-.5.4-.9.9-.9h105.3c.5 0 .9.4.9.9v.2c0 .5-.4.9-.9.9M195.6 385H86.1c-.5 0-.9-.4-.9-.9v-.2c0-.5.4-.9.9-.9h109.5c.5 0 .9.4.9.9v.2c0 .5-.4.9-.9.9" class="cls-11"/><path d="M467.5 336v89.1c0 1-.8 1.8-1.8 1.8H295c-2 0-3.6-1.6-3.6-3.6V332c0-2 1.6-3.6 3.6-3.6h169.3c1.7 0 3.1 1.4 3.1 3.1v4.5Zm-3.3-14.7H294.5c-5.3 0-9.6 4.3-9.6 9.6v112.4c0 5.3 4.3 9.6 9.6 9.6h169.7c5.3 0 9.6-4.3 9.6-9.6V330.9c0-5.3-4.3-9.6-9.6-9.6" class="cls-22"/><g class="cls-17"><path d="M208.4 345.3c-5.6 1.4-11.2 2.9-16.7 5.7 0 8.4.4 15.2.7 21.7 5.3 7.4 10.7 11.9 16 15.4 5.3-3.6 10.7-8 16-15.4.4-6.5.7-13.3.7-21.7-5.6-2.8-11.2-4.3-16.7-5.7" class="cls-26" style="clip-path:url(#clippath-2)"/></g><g class="cls-17" style="clip-path:url(#clippath-3)"><path d="M208.4 347.5c4.9 1.2 9.8 2.7 14.6 4.9 0 6.6-.3 13.1-.7 19.7-4.7 6.4-9.2 10.3-13.9 13.6-4.7-3.3-9.2-7.2-13.9-13.6-.3-5.9-.6-12.2-.7-19.7 4.8-2.2 9.6-3.7 14.6-4.9m0-2.2c-5.6 1.4-11.2 2.9-16.7 5.7 0 8.4.4 15.2.7 21.8 5.3 7.4 10.7 11.9 16 15.4 5.3-3.6 10.7-8 16-15.4.4-6.5.7-13.3.7-21.8-5.6-2.8-11.2-4.3-16.7-5.7" style="fill:#199b95"/></g><path d="M208.4 366.7c.9 0 1.7.7 1.7 1.7s-.2 1.3-1 1.6l.4 1.6h-2.3l.4-1.6c-.8-.2-1-.9-1-1.6 0-.9.8-1.7 1.7-1.7m.1-10.2c1.1 0 2 .4 2.8 1.1q1.2 1.2 1.2 2.7v2.9h-7.9v-2.9q0-1.65 1.2-2.7c.7-.7 1.8-1.1 2.8-1.1m-.1-2.9c-1.9 0-3.5.7-4.9 2s-2 2.9-2 4.8v2.9h-.5c-.4 0-.8.1-1.1.4s-.4.6-.4 1v8.7c0 .4.1.7.4 1s.6.4 1.1.4h14.9c.4 0 .8-.1 1.1-.4s.4-.6.4-1v-8.7c0-.4-.1-.7-.4-1s-.7-.4-1.1-.4h-.5v-2.9c0-1.8-.7-3.4-2-4.8-1.4-1.3-3-2-4.9-2" style="fill:#fff;fill-opacity:1"/></g></svg>