<?xml version="1.0" encoding="UTF-8" standalone="no"?>
<svg
   xmlns:dc="http://purl.org/dc/elements/1.1/"
   xmlns:cc="http://creativecommons.org/ns#"
   xmlns:rdf="http://www.w3.org/1999/02/22-rdf-syntax-ns#"
   xmlns:svg="http://www.w3.org/2000/svg"
   xmlns="http://www.w3.org/2000/svg"
   xmlns:sodipodi="http://sodipodi.sourceforge.net/DTD/sodipodi-0.dtd"
   xmlns:inkscape="http://www.inkscape.org/namespaces/inkscape"
   viewBox="0 0 1300 300"
   height="300"
   width="1300"
   xml:space="preserve"
   id="svg2"
   version="1.1"
   sodipodi:docname="logo-rudder-2021-monochrome.svg"
   inkscape:version="0.92.5 (2060ec1f9f, 2020-04-08)"><sodipodi:namedview
     pagecolor="#ffffff"
     bordercolor="#666666"
     borderopacity="1"
     objecttolerance="10"
     gridtolerance="10"
     guidetolerance="10"
     inkscape:pageopacity="0"
     inkscape:pageshadow="2"
     inkscape:window-width="1848"
     inkscape:window-height="1016"
     id="namedview9"
     showgrid="false"
     inkscape:zoom="1.0573966"
     inkscape:cx="781.8975"
     inkscape:cy="75.361597"
     inkscape:window-x="750"
     inkscape:window-y="1107"
     inkscape:window-maximized="1"
     inkscape:current-layer="svg2" /><metadata
     id="metadata8"><rdf:RDF><cc:Work
         rdf:about=""><dc:format>image/svg+xml</dc:format><dc:type
           rdf:resource="http://purl.org/dc/dcmitype/StillImage" /><dc:title /></cc:Work></rdf:RDF></metadata><defs
     id="defs6" /><g
     transform="matrix(1.3333333,0,0,1.3333333,0,7.5e-6)"
     id="g10"><g
       id="g12"><path
         id="path16"
         style="fill:#041922;fill-opacity:1;fill-rule:nonzero;stroke:none"
         d="m 141.797,18.77 c -51.836,0 -93.856,41.964 -93.859,93.726 0,24.859 9.89,48.703 27.492,66.281 17.601,17.578 41.472,27.453 66.367,27.453 24.891,-0.003 48.762,-9.878 66.363,-27.457 17.602,-17.578 27.488,-41.418 27.488,-66.277 -0.039,-23.273 -8.75,-45.699 -24.433,-62.914 l -61.246,68.184 c -1.871,1.882 -4.344,2.816 -6.809,2.816 -2.465,0 -4.941,-0.934 -6.812,-2.816 -3.766,-3.758 -3.766,-9.852 0,-13.614 L 204.617,43.004 C 187.398,27.445 165.016,18.809 141.797,18.77 Z m -15.738,34.312 c 2.691,6.012 8.718,10.199 15.742,10.199 7.011,0 13.043,-4.187 15.734,-10.199 5.395,1.43 10.485,3.574 15.199,6.313 -0.609,1.566 -0.945,3.207 -1.074,4.843 l -20.578,17.891 c -2.949,-0.91 -6.059,-1.387 -9.281,-1.387 -17.535,0 -31.801,14.238 -31.801,31.766 0,17.5 14.266,31.75 31.801,31.75 17.527,0 31.797,-14.25 31.797,-31.75 0,-3.383 -0.543,-6.629 -1.516,-9.68 l 17.547,-20.156 c 1.82,-0.074 3.613,-0.418 5.344,-1.059 2.742,4.692 4.89,9.782 6.316,15.157 -6.012,2.703 -10.203,8.722 -10.203,15.738 0,7.004 4.191,13.019 10.203,15.707 -1.426,5.39 -3.574,10.473 -6.316,15.168 -6.153,-2.321 -13.368,-1.035 -18.325,3.91 -4.96,4.961 -6.253,12.152 -3.914,18.309 -4.714,2.738 -9.804,4.886 -15.199,6.308 -2.691,-6.004 -8.723,-10.195 -15.734,-10.195 -7.024,0 -13.051,4.191 -15.742,10.195 -5.399,-1.422 -10.489,-3.57 -15.188,-6.308 2.336,-6.157 1.035,-13.348 -3.93,-18.309 -4.937,-4.945 -12.16,-6.231 -18.312,-3.91 -2.754,-4.695 -4.887,-9.778 -6.328,-15.168 6.015,-2.688 10.211,-8.703 10.211,-15.707 0,-7.016 -4.196,-13.035 -10.211,-15.723 1.441,-5.387 3.574,-10.48 6.328,-15.172 6.152,2.321 13.375,1.035 18.312,-3.929 4.965,-4.946 6.266,-12.145 3.93,-18.289 4.699,-2.739 9.789,-4.883 15.188,-6.313 z" /></g></g><path
     id="path18-2"
     d="M 792.01598,60.022214 V 128.844 c -3.63596,-6.78127 -9.00037,-12.2193 -16.10959,-16.31788 -7.1039,-4.26128 -14.99404,-6.38683 -23.68192,-6.38683 -10.7345,0 -20.20845,2.83853 -28.41767,8.51582 -8.21323,5.6719 -14.68634,13.40212 -19.42094,23.17797 -4.73994,9.6199 -7.10366,20.49905 -7.10366,32.63884 0,9.14663 1.41549,17.6576 4.25943,25.54285 2.84397,7.88511 6.87044,14.74262 12.07837,20.57579 5.36923,5.83328 11.60411,10.40675 18.71333,13.7187 7.2599,3.15197 15.15536,4.72968 23.68191,4.72968 8.36385,0 16.33904,-1.89115 23.91625,-5.67777 7.58388,-3.77995 13.58366,-9.53512 17.9996,-17.2644 l 0.71373,6.38534 c 0.948,5.04658 3.39537,8.98846 7.33801,11.82715 4.10925,2.83861 9.39608,4.25641 15.87064,4.25641 4.10394,0 9.47288,-0.63009 16.10345,-1.89004 v -31.45948 c -2.83863,-0.31203 -4.89026,-1.1817 -6.15559,-2.59763 -1.26664,-1.57873 -1.89613,-4.25972 -1.89613,-8.04099 V 60.022214 Z m 154.88816,0 V 128.844 c -3.6359,-6.78127 -9.00031,-12.2193 -16.10954,-16.31788 -7.10388,-4.26128 -14.99409,-6.38683 -23.68197,-6.38683 -10.73445,0 -20.20746,2.83853 -28.42067,8.51582 -8.20925,5.6719 -14.68335,13.40212 -19.41798,23.17797 -4.73989,9.6199 -7.10363,20.49905 -7.10363,32.63884 0,9.14663 1.41549,17.6576 4.25945,25.54285 2.84395,7.88511 6.87044,14.74262 12.07833,20.57579 5.3693,5.83328 11.60415,10.40675 18.71338,13.7187 7.25987,3.15197 15.1569,4.72968 23.68346,4.72968 8.36385,0 16.3375,-1.89115 23.91473,-5.67777 7.58389,-3.77995 13.58365,-9.53512 17.99958,-17.2644 l 0.71377,6.38534 c 0.94793,5.04658 3.3953,8.98846 7.33798,11.82715 4.10922,2.83861 9.39607,4.25641 15.87058,4.25641 4.10397,0 9.47293,-0.63009 16.10349,-1.89004 v -31.45948 c -2.83862,-0.31203 -4.89562,-1.1817 -6.15558,-2.59763 -1.26663,-1.57873 -1.89617,-4.25972 -1.89617,-8.04099 V 60.022214 Z m -544.54917,4.72654 V 232.67563 h 38.84342 v -54.16114 h 26.28413 l 24.88577,41.84387 c 0,0 1.47489,2.43641 2.36022,3.54564 1.86399,2.35335 4.52026,5.38565 6.17089,6.57222 3.87461,2.78661 8.53093,4.09402 15.16151,4.09402 2.05198,0 4.34401,-0.15991 6.86932,-0.47327 2.68794,-0.31735 5.767,-0.79195 9.24026,-1.42134 v -31.45336 c -3.14527,0.12523 -4.57952,0.15543 -6.47417,-0.86998 -2.25595,-1.21456 -3.89605,-3.06705 -5.38669,-5.28559 l -1.56072,-2.63591 -13.13517,-22.19781 c 5.68259,-3.15197 10.57743,-7.17094 14.68669,-12.06146 4.10394,-5.04673 7.26052,-10.64616 9.46848,-16.79271 2.2133,-6.30669 3.31749,-12.9309 3.31749,-19.86815 0,-6.93734 -1.4216,-13.79303 -4.26556,-20.57431 -2.6813,-6.781116 -6.4687,-12.848546 -11.36463,-18.212476 -4.89592,-5.51591 -10.73975,-9.85515 -17.52632,-13.01112 -6.62924,-3.30661 -13.89582,-4.964 -21.79035,-4.964 z m 38.84342,34.05712 h 34.33585 c 2.99997,0 5.84391,0.94902 8.52654,2.839626 2.68263,1.89075 4.89574,4.57323 6.63038,8.04256 1.89597,3.31195 2.84269,7.24928 2.84269,11.8226 0,4.5719 -0.78925,8.59228 -2.3679,12.06145 -1.5773,3.46801 -3.63179,6.22953 -6.1571,8.28153 -2.3693,1.8906 -5.13011,2.83342 -8.28607,2.83342 h -35.52439 z m 632.18851,7.140436 c -14.0542,0 -26.0553,3.07864 -36.0038,9.2372 -9.9484,6.00069 -17.6084,13.97542 -22.9774,23.92389 -5.2111,9.79061 -7.8158,20.68653 -7.8158,32.68784 0,8.36935 1.4995,16.42211 4.4999,24.15978 3.0003,7.57981 7.3431,14.29193 13.0279,20.1347 5.8428,5.84275 12.8698,10.50044 21.0813,13.97447 8.2114,3.31619 17.6077,4.97475 28.1879,4.97475 9.4747,0 18.0807,-1.42166 25.8184,-4.26403 7.8955,-2.84245 14.6858,-6.71133 20.3705,-11.60663 5.8429,-5.05324 10.3431,-10.81609 13.5014,-17.29051 l -32.2147,-9.00132 c -1.8948,4.57942 -5.3679,8.21149 -10.4211,10.896 -4.8952,2.68444 -10.1858,4.02658 -15.8705,4.02658 -4.5795,0 -8.9223,-0.94769 -13.0281,-2.8427 -4.1056,-2.05284 -7.5007,-4.97402 -10.1852,-8.76394 -2.5266,-3.78982 -4.0261,-8.44752 -4.5,-13.97448 h 91.9049 c 0.1579,-1.57913 0.3154,-3.39508 0.4733,-5.44793 0.3157,-2.21079 0.4732,-4.42267 0.4732,-6.63345 0,-11.36973 -2.6047,-21.86972 -7.8159,-31.50239 -5.2111,-9.79052 -12.7914,-17.68739 -22.7399,-23.688 -9.7905,-6.00071 -21.7122,-8.99983 -35.7663,-8.99983 z m 156.5269,0.66781 c -7.4212,0.15598 -14.5244,2.59794 -21.3109,7.32724 -6.792,4.73453 -12.317,11.27625 -16.5783,19.63075 v -25.06802 h -34.8167 v 124.17154 h 37.8952 v -74.50411 c 3.312,-5.6773 8.6823,-9.932 16.1035,-12.77068 7.4226,-2.99459 15.7071,-4.4953 24.8644,-4.4953 v -34.0571 c -0.6307,-0.15598 -1.4168,-0.23432 -2.3649,-0.23432 z m -675.20859,1.88997 v 79.46812 c 0,15.29718 3.31865,26.96239 9.94788,35.0037 6.63058,8.04249 16.26642,12.06303 28.89555,12.06303 10.41717,0 19.81414,-1.89115 28.18334,-5.67777 8.52521,-3.94266 15.62973,-10.00861 21.31097,-18.21249 l 0.71373,7.57387 c 0.94798,5.04116 3.39616,8.98398 7.34411,11.82259 3.94261,2.68256 9.23394,4.02053 15.86453,4.02053 2.05195,0 4.34268,-0.15612 6.86931,-0.47482 2.68263,-0.31202 5.75951,-0.78583 9.23414,-1.41522 v -31.45948 c -2.99996,-0.31203 -5.12994,-1.1817 -6.38992,-2.59763 -1.10931,-1.57873 -1.66181,-4.25972 -1.66181,-8.04099 v -82.07344 h -37.89076 v 76.63006 c -2.37062,4.25995 -5.05708,7.72858 -8.0517,10.4058 -2.99997,2.68272 -6.0828,4.65126 -9.23874,5.91663 -3.15596,1.09865 -6.47325,1.65111 -9.94789,1.65111 -5.52522,0 -9.78754,-1.9694 -12.78749,-5.91208 -2.99996,-4.09858 -4.49989,-9.93239 -4.49989,-17.50029 v -71.19123 z m 518.20699,24.68206 c 4.7372,0 9.0799,1.10522 13.0277,3.31594 3.9479,2.05294 7.106,5.05355 9.4747,9.00139 2.3686,3.78984 3.8697,8.29007 4.5013,13.50123 h -54.0062 c 0.6315,-5.21116 2.1327,-9.71139 4.5013,-13.50123 2.3687,-3.94784 5.4473,-6.94845 9.2373,-9.00139 3.9479,-2.21072 8.3685,-3.31594 13.2639,-3.31594 z m -308.60936,5.1202 c 3.79061,0 7.49872,0.94354 11.13334,2.83813 3.78662,1.89069 7.10464,4.41178 9.94328,7.56775 2.99995,3.15064 5.29221,6.86025 6.87084,11.11495 v 26.01454 c -1.26131,2.52524 -2.84361,4.89108 -4.73422,7.09911 -1.89599,2.20797 -4.02677,4.02124 -6.39605,5.43718 -2.21333,1.42268 -4.57836,2.60469 -7.10367,3.54728 -2.52663,0.79196 -5.13628,1.1824 -7.81892,1.1824 -4.25994,0 -8.20788,-0.78749 -11.84247,-2.3648 -3.63062,-1.57324 -6.78738,-3.78098 -9.47002,-6.61966 -2.68795,-2.99458 -4.81739,-6.38478 -6.39604,-10.17148 -1.4213,-3.94259 -2.12896,-8.19878 -2.12896,-12.77069 0,-4.41733 0.63023,-8.59362 1.89156,-12.53629 1.42132,-3.94259 3.3946,-7.4113 5.92124,-10.40588 2.52528,-3.15188 5.44666,-5.59997 8.76393,-7.33335 3.47463,-1.73462 7.26089,-2.59919 11.36616,-2.59919 z m 154.8882,0 c 3.79061,0 7.5003,0.94354 11.13486,2.83813 3.78662,1.89069 7.10311,4.41178 9.94172,7.56775 3,3.15064 5.29202,6.86025 6.86934,11.11495 v 26.01454 c -1.25995,2.52524 -2.84205,4.89108 -4.73273,7.09911 -1.89595,2.20797 -4.02675,4.02124 -6.39602,5.43718 -2.21329,1.42268 -4.57834,2.60469 -7.10366,3.54728 -2.52665,0.79196 -5.13628,1.1824 -7.81891,1.1824 -4.25995,0 -8.20866,-0.78749 -11.83789,-2.3648 -3.63597,-1.57324 -6.79195,-3.78098 -9.47458,-6.61966 -2.68796,-2.99458 -4.81586,-6.38478 -6.39451,-10.17148 -1.42134,-3.94259 -2.13049,-8.19878 -2.13049,-12.77069 0,-4.41733 0.63001,-8.59362 1.88998,-12.53629 1.42267,-3.94259 3.39616,-7.4113 5.92282,-10.40588 2.52525,-3.15188 5.44816,-5.59997 8.76543,-7.33335 3.47459,-1.73462 7.25933,-2.59919 11.36464,-2.59919 z"
     style="fill:#041922;fill-opacity:1;fill-rule:nonzero;stroke:none;stroke-width:1.33331347"
     inkscape:connector-curvature="0" /></svg>