<?xml version="1.0" encoding="UTF-8" standalone="no"?>
<!-- Created with Inkscape (http://www.inkscape.org/) -->

<svg
   xmlns:dc="http://purl.org/dc/elements/1.1/"
   xmlns:cc="http://creativecommons.org/ns#"
   xmlns:rdf="http://www.w3.org/1999/02/22-rdf-syntax-ns#"
   xmlns:svg="http://www.w3.org/2000/svg"
   xmlns="http://www.w3.org/2000/svg"
   xmlns:sodipodi="http://sodipodi.sourceforge.net/DTD/sodipodi-0.dtd"
   xmlns:inkscape="http://www.inkscape.org/namespaces/inkscape"
   width="210mm"
   height="207mm"
   viewBox="0 0 210 207"
   version="1.1"
   id="svg1233"
   sodipodi:docname="rudder-logo-square-black.svg"
   inkscape:version="0.92.3 (2405546, 2018-03-11)">
  <defs
     id="defs1227" />
  <sodipodi:namedview
     id="base"
     pagecolor="#ffffff"
     bordercolor="#666666"
     borderopacity="1.0"
     inkscape:pageopacity="0.0"
     inkscape:pageshadow="2"
     inkscape:zoom="0.7"
     inkscape:cx="63.996081"
     inkscape:cy="435.73856"
     inkscape:document-units="mm"
     inkscape:current-layer="layer1"
     showgrid="false"
     inkscape:window-width="1920"
     inkscape:window-height="1017"
     inkscape:window-x="-8"
     inkscape:window-y="-8"
     inkscape:window-maximized="1" />
  <metadata
     id="metadata1230">
    <rdf:RDF>
      <cc:Work
         rdf:about="">
        <dc:format>image/svg+xml</dc:format>
        <dc:type
           rdf:resource="http://purl.org/dc/dcmitype/StillImage" />
        <dc:title></dc:title>
      </cc:Work>
    </rdf:RDF>
  </metadata>
  <g
     inkscape:label="Calque 1"
     inkscape:groupmode="layer"
     id="layer1"
     transform="translate(0,-90)">
    <path
       inkscape:connector-curvature="0"
       id="path92"
       style="fill:#666666;fill-opacity:1;fill-rule:nonzero;stroke:none;stroke-width:0.03527778"
       d="m 18.19889,279.64035 c 1.753836,0 3.144102,-0.41474 4.18297,-1.2512 1.030078,-0.83556 1.548723,-1.97225 1.548723,-3.40737 v -0.0791 c 0,-1.51446 -0.500163,-2.66874 -1.514462,-3.45065 -1.002804,-0.78462 -2.430036,-1.17185 -4.250816,-1.17185 h -7.131876 v 9.36018 z M 6.1891351,265.86887 H 18.577336 c 1.745046,0 3.293092,0.24749 4.640983,0.73886 1.348117,0.48506 2.475116,1.17275 3.372207,2.04437 0.739537,0.76433 1.311827,1.64565 1.70808,2.65724 0.397155,1.00551 0.590773,2.11493 0.590773,3.33006 v 0.0782 c 0,1.14549 -0.16905,2.1661 -0.492949,3.08167 -0.336297,0.90611 -0.794309,1.71687 -1.37539,2.41155 -0.579278,0.70528 -1.266973,1.30484 -2.076158,1.78742 -0.810763,0.49386 -1.699289,0.87253 -2.677525,1.13579 l 7.492066,10.51288 h -5.7495 l -6.841336,-9.6834 h -6.135158 v 9.6834 H 6.1891351 v -27.77805" />
    <path
       inkscape:connector-curvature="0"
       id="path94"
       style="fill:#666666;fill-opacity:1;fill-rule:nonzero;stroke:none;stroke-width:0.03527778"
       d="m 51.033111,294.08893 c -1.805678,0 -3.426753,-0.26417 -4.877652,-0.77583 -1.463296,-0.52022 -2.704799,-1.29334 -3.735101,-2.32342 -1.030078,-1.0303 -1.821682,-2.30877 -2.375489,-3.8318 -0.554709,-1.51266 -0.836459,-3.2843 -0.836459,-5.2996 v -15.98941 h 4.841814 v 15.79579 c 0,2.58759 0.624132,4.55984 1.875327,5.91675 1.250293,1.34789 2.975052,2.0171 5.186,2.0171 2.18435,0 3.890852,-0.64464 5.142046,-1.93799 1.250068,-1.29424 1.875327,-3.23043 1.875327,-5.80224 v -15.98941 h 4.843392 v 15.7595 c 0,2.06038 -0.28175,3.87508 -0.85404,5.43439 -0.5635,1.55752 -1.366374,2.86055 -2.396677,3.90844 -1.029175,1.04856 -2.28037,1.82168 -3.749751,2.3419 -1.470509,0.51166 -3.117731,0.77583 -4.938737,0.77583" />
    <path
       inkscape:connector-curvature="0"
       id="path96"
       style="fill:#666666;fill-opacity:1;fill-rule:nonzero;stroke:none;stroke-width:0.03527778"
       d="m 84.755183,289.24441 c 1.460591,0 2.781434,-0.23577 3.969066,-0.69378 1.199127,-0.46658 2.202156,-1.11821 3.038615,-1.95625 0.826767,-0.83646 1.478173,-1.83047 1.944976,-2.99376 0.457787,-1.15157 0.69626,-2.40276 0.69626,-3.75944 v -0.0793 c 0,-1.35421 -0.238473,-2.62298 -0.69626,-3.78424 -0.466803,-1.17186 -1.118209,-2.17466 -1.944976,-3.01112 -0.836459,-0.83646 -1.839488,-1.49688 -3.038615,-1.97225 -1.187632,-0.47559 -2.508475,-0.71406 -3.969066,-0.71406 h -5.468651 v 18.96424 z M 74.44314,265.86887 h 10.354193 c 2.166994,0 4.156824,0.35139 5.971293,1.05667 1.812214,0.70347 3.372207,1.67292 4.684259,2.91442 1.310926,1.24218 2.323422,2.703 3.035685,4.3847 0.714067,1.68081 1.066367,3.4955 1.066367,5.45874 v 0.0784 c 0,1.95466 -0.3523,3.77815 -1.066367,5.47744 -0.712263,1.6905 -1.724759,3.15988 -3.035685,4.40228 -1.312052,1.24241 -2.872045,2.21794 -4.684259,2.93291 -1.814469,0.71136 -3.804299,1.07245 -5.971293,1.07245 H 74.44314 v -27.77805" />
    <path
       inkscape:connector-curvature="0"
       id="path98"
       style="fill:#666666;fill-opacity:1;fill-rule:nonzero;stroke:none;stroke-width:0.03527778"
       d="m 120.5462,289.24441 c 1.46059,0 2.78143,-0.23577 3.96907,-0.69378 1.19033,-0.46658 2.20215,-1.11821 3.03861,-1.95625 0.82767,-0.83646 1.47817,-1.83047 1.94498,-2.99376 0.45778,-1.15157 0.68747,-2.40276 0.68747,-3.75944 v -0.0793 c 0,-1.35421 -0.22969,-2.62298 -0.68747,-3.78424 -0.46681,-1.17186 -1.11731,-2.17466 -1.94498,-3.01112 -0.83646,-0.83646 -1.84828,-1.49688 -3.03861,-1.97225 -1.18764,-0.47559 -2.50848,-0.71406 -3.96907,-0.71406 h -5.47744 v 18.96424 z m -10.31204,-23.37554 h 10.35509 c 2.16609,0 4.15592,0.35139 5.97062,1.05667 1.81199,0.70347 3.37198,1.67292 4.68403,2.91442 1.31183,1.24218 2.32342,2.703 3.03591,4.3847 0.71475,1.68081 1.06614,3.4955 1.06614,5.45874 v 0.0784 c 0,1.95466 -0.35139,3.77815 -1.06614,5.47744 -0.71249,1.6905 -1.72408,3.15988 -3.03591,4.40228 -1.31205,1.24241 -2.87204,2.21794 -4.68403,2.93291 -1.8147,0.71136 -3.80453,1.07245 -5.97062,1.07245 h -10.35509 v -27.77805" />
    <path
       inkscape:connector-curvature="0"
       id="path100"
       style="fill:#666666;fill-opacity:1;fill-rule:nonzero;stroke:none;stroke-width:0.03527778"
       d="m 189.37227,279.64035 c 1.75136,0 3.14162,-0.41474 4.18049,-1.2512 1.04,-0.83556 1.55143,-1.97225 1.55143,-3.40737 v -0.0791 c 0,-1.51446 -0.50264,-2.66874 -1.50567,-3.45065 -1.0125,-0.78462 -2.43004,-1.17185 -4.26231,-1.17185 h -7.13166 v 9.36018 z m -12.00074,-13.77148 h 12.37941 c 1.74257,0 3.29287,0.24749 4.63828,0.73886 1.34812,0.48506 2.47511,1.17275 3.37221,2.04437 0.74134,0.76433 1.31182,1.64565 1.70808,2.65724 0.39715,1.00551 0.59077,2.11493 0.59077,3.33006 v 0.0782 c 0,1.14549 -0.15756,2.1661 -0.49295,3.08167 -0.32503,0.90611 -0.78281,1.71687 -1.36389,2.41155 -0.58199,0.70528 -1.27847,1.30484 -2.08766,1.78742 -0.80896,0.49386 -1.69929,0.87253 -2.67752,1.13579 l 7.50356,10.51288 h -5.75919 l -6.84044,-9.6834 h -6.13764 v 9.6834 h -4.83302 v -27.77805" />
    <path
       inkscape:connector-curvature="0"
       id="path102"
       style="fill:#f36f21;fill-opacity:1;fill-rule:nonzero;stroke:none;stroke-width:0.03527778"
       d="m 150.85977,270.28017 h 15.71556 v -4.4113 h -20.55895 v 4.4113 h 4.84339" />
    <path
       inkscape:connector-curvature="0"
       id="path104"
       style="fill:#666666;fill-opacity:1;fill-rule:nonzero;stroke:none;stroke-width:0.03527778"
       d="m 150.85977,289.24441 v -7.42219 h 13.92994 v -4.40161 h -18.77333 v 16.22631 h 20.75257 v -4.40251 h -15.90918" />
    <g
       id="g1061"
       transform="matrix(2.2539985,0,0,-2.2539985,-21.258932,423.38031)"
       inkscape:export-xdpi="228"
       inkscape:export-ydpi="228"
       style="stroke-width:0.15651198">
      <path
         d="m 60.3441,95.0879 c 1.7028,0.4531 3.3079,1.1293 4.793,1.9961 -0.7391,1.9371 -0.3281,4.215 1.234,5.777 1.5629,1.563 3.8398,1.973 5.7809,1.235 0.8679,1.484 1.5429,3.09 1.9929,4.793 -1.8988,0.851 -3.2187,2.75 -3.2187,4.964 0,2.215 1.3199,4.114 3.2187,4.965 -0.45,1.7 -1.125,3.305 -1.9929,4.789 -0.543,-0.207 -1.1129,-0.312 -1.6872,-0.336 l -5.5347,-6.363 c 0.3078,-0.965 0.4801,-1.992 0.4801,-3.055 0,-5.531 -4.5,-10.031 -10.0313,-10.031 -5.5269,0 -10.0269,4.5 -10.0269,10.031 0,5.532 4.5,10.028 10.0269,10.028 1.0191,0 2,-0.153 2.9262,-0.438 l 6.4918,5.653 c 0.0429,0.519 0.1519,1.035 0.3402,1.527 -1.4851,0.867 -3.0902,1.547 -4.793,1.996 -0.848,-1.898 -2.75,-3.223 -4.9652,-3.223 -2.2109,0 -4.1129,1.325 -4.9609,3.223 -1.7032,-0.449 -3.309,-1.129 -4.793,-1.996 0.7379,-1.937 0.3281,-4.215 -1.2379,-5.777 -1.559,-1.563 -3.8359,-1.973 -5.7781,-1.239 -0.8668,-1.484 -1.543,-3.089 -1.9918,-4.789 1.8949,-0.851 3.2187,-2.75 3.2187,-4.965 0,-2.214 -1.3238,-4.113 -3.2187,-4.964 0.4488,-1.703 1.125,-3.309 1.9918,-4.793 1.9422,0.738 4.2191,0.328 5.7781,-1.235 1.566,-1.562 1.9758,-3.8399 1.2379,-5.777 1.484,-0.8668 3.0898,-1.543 4.793,-1.9961 0.848,1.898 2.75,3.2191 4.9609,3.2191 2.2152,0 4.1172,-1.3211 4.9652,-3.2191"
         style="fill:#949393;fill-opacity:1;fill-rule:nonzero;stroke:none;stroke-width:0.0156512"
         id="path106"
         inkscape:connector-curvature="0" />
      <path
         d="m 53.6371,116.49 c -1.1883,-1.187 -1.1883,-3.113 0,-4.301 0.593,-0.593 1.3668,-0.89 2.1481,-0.89 0.7769,0 1.5546,0.297 2.1488,0.89 l 21.707,24.813 c 0.3281,0.328 0.3281,0.863 0,1.195 -0.332,0.328 -0.864,0.328 -1.1961,0 L 53.6371,116.49"
         style="fill:#666666;fill-opacity:1;fill-rule:nonzero;stroke:none;stroke-width:0.0156512"
         id="path108"
         inkscape:connector-curvature="0" />
      <path
         d="m 26.684,118.596 3.382,-3.496 c 0.6918,13.378 11.7621,24.015 25.3129,24.015 5.7422,0 11.0391,-1.91 15.2891,-5.129 l 5.3199,4.563 c -5.5859,4.652 -12.7688,7.453 -20.609,7.453 -17.3988,0 -31.5699,-13.785 -32.2027,-31.031 l 3.5078,3.625"
         style="fill:#8ec642;fill-opacity:1;fill-rule:nonzero;stroke:none;stroke-width:0.0156512"
         id="path110"
         inkscape:connector-curvature="0" />
      <path
         d="m 50.5512,85.068 3.4957,3.3832 C 41.8672,89.084 31.9691,98.3109 30.2852,110.182 l -3.6012,3.726 -3.368,-3.48 C 24.9449,94.5879 38.0512,82.1539 54.1762,81.5609 l -3.625,3.5071"
         style="fill:#5e92d4;fill-opacity:1;fill-rule:nonzero;stroke:none;stroke-width:0.0156512"
         id="path112"
         inkscape:connector-curvature="0" />
      <path
         d="M 80.6949,112.432 C 80.0621,100.252 70.8359,90.3531 58.9648,88.6738 L 55.2379,85.068 58.7191,81.7012 C 74.559,83.334 86.9879,96.4359 87.582,112.561 l -6.8871,-0.129"
         style="fill:#f36f21;fill-opacity:1;fill-rule:nonzero;stroke:none;stroke-width:0.0156512"
         id="path114"
         inkscape:connector-curvature="0" />
    </g>
  </g>
</svg>
