<?xml version="1.0" encoding="UTF-8" standalone="no"?>
<!-- Created with Inkscape (http://www.inkscape.org/) -->

<svg
   xmlns:dc="http://purl.org/dc/elements/1.1/"
   xmlns:cc="http://creativecommons.org/ns#"
   xmlns:rdf="http://www.w3.org/1999/02/22-rdf-syntax-ns#"
   xmlns:svg="http://www.w3.org/2000/svg"
   xmlns="http://www.w3.org/2000/svg"
   xmlns:sodipodi="http://sodipodi.sourceforge.net/DTD/sodipodi-0.dtd"
   xmlns:inkscape="http://www.inkscape.org/namespaces/inkscape"
   width="210mm"
   height="207mm"
   viewBox="0 0 210 207"
   version="1.1"
   id="svg1233"
   sodipodi:docname="rudder-logo-square-white.svg"
   inkscape:version="0.92.3 (2405546, 2018-03-11)">
  <defs
     id="defs1227" />
  <sodipodi:namedview
     id="base"
     pagecolor="#ffffff"
     bordercolor="#666666"
     borderopacity="1.0"
     inkscape:pageopacity="0.0"
     inkscape:pageshadow="2"
     inkscape:zoom="0.35"
     inkscape:cx="-194.28571"
     inkscape:cy="560"
     inkscape:document-units="mm"
     inkscape:current-layer="layer1"
     showgrid="false"
     inkscape:window-width="1920"
     inkscape:window-height="1017"
     inkscape:window-x="-8"
     inkscape:window-y="-8"
     inkscape:window-maximized="1" />
  <metadata
     id="metadata1230">
    <rdf:RDF>
      <cc:Work
         rdf:about="">
        <dc:format>image/svg+xml</dc:format>
        <dc:type
           rdf:resource="http://purl.org/dc/dcmitype/StillImage" />
        <dc:title></dc:title>
      </cc:Work>
    </rdf:RDF>
  </metadata>
  <g
     inkscape:label="Calque 1"
     inkscape:groupmode="layer"
     id="layer1"
     transform="translate(0,-90)">
    <g
       id="g1070"
       transform="matrix(2.2539985,0,0,-2.2539985,-21.025192,423.38031)"
       inkscape:export-xdpi="228"
       inkscape:export-ydpi="228"
       style="stroke-width:0.15651198">
      <path
         d="m 17.402,63.7711 c 0.7781,0 1.3949,0.184 1.8558,0.5551 0.457,0.3707 0.6871,0.875 0.6871,1.5117 v 0.0351 c 0,0.6719 -0.2219,1.184 -0.6719,1.5309 -0.4449,0.3481 -1.0781,0.5199 -1.8859,0.5199 H 14.223 v -4.1527 z m -5.3282,6.1098 h 5.4961 c 0.7742,0 1.461,-0.1098 2.059,-0.3278 0.5981,-0.2152 1.0981,-0.5203 1.4961,-0.907 0.3281,-0.3391 0.582,-0.7301 0.7578,-1.1789 0.1762,-0.4461 0.2621,-0.9383 0.2621,-1.4774 v -0.0347 c 0,-0.5082 -0.075,-0.961 -0.2187,-1.3672 C 21.777,64.1859 21.5738,63.8262 21.316,63.518 21.059,63.2051 20.7539,62.9391 20.3949,62.725 20.0352,62.5059 19.641,62.3379 19.207,62.2211 l 3.3239,-4.6641 h -2.5508 l -3.0352,4.2961 H 14.223 V 57.557 h -2.1492 v 12.3239"
         style="fill:#ffffff;fill-opacity:1;fill-rule:nonzero;stroke:none;stroke-width:0.0156512"
         id="path92"
         inkscape:connector-curvature="0" />
      <path
         d="m 31.9691,57.3609 c -0.8011,0 -1.5203,0.1172 -2.164,0.3442 -0.6492,0.2308 -1.2,0.5738 -1.6571,1.0308 -0.457,0.4571 -0.8082,1.0243 -1.0539,1.7 -0.2461,0.6711 -0.3711,1.4571 -0.3711,2.3512 v 7.0938 h 2.1481 V 62.873 c 0,-1.148 0.2769,-2.023 0.832,-2.625 0.5547,-0.598 1.3199,-0.8949 2.3008,-0.8949 0.9691,0 1.7262,0.286 2.2813,0.8598 0.5546,0.5742 0.832,1.4332 0.832,2.5742 v 7.0938 h 2.1488 v -6.9918 c 0,-0.9141 -0.125,-1.7192 -0.3789,-2.411 -0.25,-0.691 -0.6062,-1.2691 -1.0633,-1.734 -0.4566,-0.4652 -1.0117,-0.8082 -1.6636,-1.039 -0.6524,-0.227 -1.3832,-0.3442 -2.1911,-0.3442"
         style="fill:#ffffff;fill-opacity:1;fill-rule:nonzero;stroke:none;stroke-width:0.0156512"
         id="path94"
         inkscape:connector-curvature="0" />
      <path
         d="m 46.9301,59.5102 c 0.648,0 1.234,0.1046 1.7609,0.3078 0.532,0.207 0.977,0.4961 1.3481,0.8679 0.3668,0.3711 0.6558,0.8121 0.8629,1.3282 0.2031,0.5109 0.3089,1.066 0.3089,1.6679 v 0.0352 c 0,0.6008 -0.1058,1.1637 -0.3089,1.6789 -0.2071,0.5199 -0.4961,0.9648 -0.8629,1.3359 -0.3711,0.3711 -0.8161,0.6641 -1.3481,0.875 -0.5269,0.211 -1.1129,0.3168 -1.7609,0.3168 h -2.4262 v -8.4136 z m -4.575,10.3707 h 4.5937 c 0.9614,0 1.8442,-0.1559 2.6492,-0.4688 0.804,-0.3121 1.4961,-0.7422 2.0782,-1.293 0.5816,-0.5511 1.0308,-1.1992 1.3468,-1.9453 0.3168,-0.7457 0.4731,-1.5508 0.4731,-2.4218 v -0.0348 c 0,-0.8672 -0.1563,-1.6762 -0.4731,-2.4301 -0.316,-0.75 -0.7652,-1.4019 -1.3468,-1.9531 C 51.0941,58.7828 50.402,58.35 49.598,58.0328 48.793,57.7172 47.9102,57.557 46.9488,57.557 h -4.5937 v 12.3239"
         style="fill:#ffffff;fill-opacity:1;fill-rule:nonzero;stroke:none;stroke-width:0.0156512"
         id="path96"
         inkscape:connector-curvature="0" />
      <path
         d="m 62.809,59.5102 c 0.648,0 1.234,0.1046 1.7609,0.3078 0.5281,0.207 0.977,0.4961 1.3481,0.8679 0.3672,0.3711 0.6558,0.8121 0.8629,1.3282 0.2031,0.5109 0.305,1.066 0.305,1.6679 v 0.0352 c 0,0.6008 -0.1019,1.1637 -0.305,1.6789 -0.2071,0.5199 -0.4957,0.9648 -0.8629,1.3359 -0.3711,0.3711 -0.82,0.6641 -1.3481,0.875 -0.5269,0.211 -1.1129,0.3168 -1.7609,0.3168 h -2.4301 v -8.4136 z m -4.575,10.3707 h 4.5941 c 0.961,0 1.8438,-0.1559 2.6489,-0.4688 0.8039,-0.3121 1.496,-0.7422 2.0781,-1.293 0.582,-0.5511 1.0308,-1.1992 1.3469,-1.9453 0.3171,-0.7457 0.473,-1.5508 0.473,-2.4218 v -0.0348 c 0,-0.8672 -0.1559,-1.6762 -0.473,-2.4301 -0.3161,-0.75 -0.7649,-1.4019 -1.3469,-1.9531 C 66.973,58.7828 66.2809,58.35 65.477,58.0328 64.6719,57.7172 63.7891,57.557 62.8281,57.557 H 58.234 v 12.3239"
         style="fill:#ffffff;fill-opacity:1;fill-rule:nonzero;stroke:none;stroke-width:0.0156512"
         id="path98"
         inkscape:connector-curvature="0" />
      <path
         d="m 93.3441,63.7711 c 0.777,0 1.3938,0.184 1.8547,0.5551 0.4614,0.3707 0.6883,0.875 0.6883,1.5117 v 0.0351 c 0,0.6719 -0.223,1.184 -0.668,1.5309 -0.4492,0.3481 -1.0781,0.5199 -1.891,0.5199 h -3.164 v -4.1527 z m -5.3242,6.1098 h 5.4922 c 0.7731,0 1.4609,-0.1098 2.0578,-0.3278 0.5981,-0.2152 1.0981,-0.5203 1.4961,-0.907 0.3289,-0.3391 0.582,-0.7301 0.7578,-1.1789 0.1762,-0.4461 0.2621,-0.9383 0.2621,-1.4774 v -0.0347 c 0,-0.5082 -0.0699,-0.961 -0.2187,-1.3672 C 97.723,64.1859 97.5199,63.8262 97.2621,63.518 97.0039,63.2051 96.6949,62.9391 96.3359,62.725 95.977,62.5059 95.582,62.3379 95.148,62.2211 l 3.329,-4.6641 h -2.5551 l -3.0348,4.2961 h -2.723 V 57.557 h -2.1442 v 12.3239"
         style="fill:#ffffff;fill-opacity:1;fill-rule:nonzero;stroke:none;stroke-width:0.0156512"
         id="path100"
         inkscape:connector-curvature="0" />
      <path
         d="m 76.2578,67.9238 h 6.9723 v 1.9571 H 74.109 v -1.9571 h 2.1488"
         style="fill:#f36f21;fill-opacity:1;fill-rule:nonzero;stroke:none;stroke-width:0.0156512"
         id="path102"
         inkscape:connector-curvature="0" />
      <path
         d="m 76.2578,59.5102 v 3.2929 h 6.1801 v 1.9528 H 74.109 V 57.557 h 9.207 v 1.9532 h -7.0582"
         style="fill:#ffffff;fill-opacity:1;fill-rule:nonzero;stroke:none;stroke-width:0.0156512"
         id="path104"
         inkscape:connector-curvature="0" />
    </g>
    <g
       id="g1061"
       transform="matrix(2.2539985,0,0,-2.2539985,-21.258932,423.38031)"
       inkscape:export-xdpi="228"
       inkscape:export-ydpi="228"
       style="stroke-width:0.15651198">
      <path
         d="m 60.3441,95.0879 c 1.7028,0.4531 3.3079,1.1293 4.793,1.9961 -0.7391,1.9371 -0.3281,4.215 1.234,5.777 1.5629,1.563 3.8398,1.973 5.7809,1.235 0.8679,1.484 1.5429,3.09 1.9929,4.793 -1.8988,0.851 -3.2187,2.75 -3.2187,4.964 0,2.215 1.3199,4.114 3.2187,4.965 -0.45,1.7 -1.125,3.305 -1.9929,4.789 -0.543,-0.207 -1.1129,-0.312 -1.6872,-0.336 l -5.5347,-6.363 c 0.3078,-0.965 0.4801,-1.992 0.4801,-3.055 0,-5.531 -4.5,-10.031 -10.0313,-10.031 -5.5269,0 -10.0269,4.5 -10.0269,10.031 0,5.532 4.5,10.028 10.0269,10.028 1.0191,0 2,-0.153 2.9262,-0.438 l 6.4918,5.653 c 0.0429,0.519 0.1519,1.035 0.3402,1.527 -1.4851,0.867 -3.0902,1.547 -4.793,1.996 -0.848,-1.898 -2.75,-3.223 -4.9652,-3.223 -2.2109,0 -4.1129,1.325 -4.9609,3.223 -1.7032,-0.449 -3.309,-1.129 -4.793,-1.996 0.7379,-1.937 0.3281,-4.215 -1.2379,-5.777 -1.559,-1.563 -3.8359,-1.973 -5.7781,-1.239 -0.8668,-1.484 -1.543,-3.089 -1.9918,-4.789 1.8949,-0.851 3.2187,-2.75 3.2187,-4.965 0,-2.214 -1.3238,-4.113 -3.2187,-4.964 0.4488,-1.703 1.125,-3.309 1.9918,-4.793 1.9422,0.738 4.2191,0.328 5.7781,-1.235 1.566,-1.562 1.9758,-3.8399 1.2379,-5.777 1.484,-0.8668 3.0898,-1.543 4.793,-1.9961 0.848,1.898 2.75,3.2191 4.9609,3.2191 2.2152,0 4.1172,-1.3211 4.9652,-3.2191"
         style="fill:#949393;fill-opacity:1;fill-rule:nonzero;stroke:none;stroke-width:0.0156512"
         id="path106"
         inkscape:connector-curvature="0" />
      <path
         d="m 53.6371,116.49 c -1.1883,-1.187 -1.1883,-3.113 0,-4.301 0.593,-0.593 1.3668,-0.89 2.1481,-0.89 0.7769,0 1.5546,0.297 2.1488,0.89 l 21.707,24.813 c 0.3281,0.328 0.3281,0.863 0,1.195 -0.332,0.328 -0.864,0.328 -1.1961,0 L 53.6371,116.49"
         style="fill:#ffffff;fill-opacity:1;fill-rule:nonzero;stroke:none;stroke-width:0.0156512"
         id="path108"
         inkscape:connector-curvature="0" />
      <path
         d="m 26.684,118.596 3.382,-3.496 c 0.6918,13.378 11.7621,24.015 25.3129,24.015 5.7422,0 11.0391,-1.91 15.2891,-5.129 l 5.3199,4.563 c -5.5859,4.652 -12.7688,7.453 -20.609,7.453 -17.3988,0 -31.5699,-13.785 -32.2027,-31.031 l 3.5078,3.625"
         style="fill:#8ec642;fill-opacity:1;fill-rule:nonzero;stroke:none;stroke-width:0.0156512"
         id="path110"
         inkscape:connector-curvature="0" />
      <path
         d="m 50.5512,85.068 3.4957,3.3832 C 41.8672,89.084 31.9691,98.3109 30.2852,110.182 l -3.6012,3.726 -3.368,-3.48 C 24.9449,94.5879 38.0512,82.1539 54.1762,81.5609 l -3.625,3.5071"
         style="fill:#5e92d4;fill-opacity:1;fill-rule:nonzero;stroke:none;stroke-width:0.0156512"
         id="path112"
         inkscape:connector-curvature="0" />
      <path
         d="M 80.6949,112.432 C 80.0621,100.252 70.8359,90.3531 58.9648,88.6738 L 55.2379,85.068 58.7191,81.7012 C 74.559,83.334 86.9879,96.4359 87.582,112.561 l -6.8871,-0.129"
         style="fill:#f36f21;fill-opacity:1;fill-rule:nonzero;stroke:none;stroke-width:0.0156512"
         id="path114"
         inkscape:connector-curvature="0" />
    </g>
  </g>
</svg>
