<?xml version="1.0" encoding="UTF-8" standalone="no"?>
<!-- Created with Inkscape (http://www.inkscape.org/) -->

<svg
   xmlns:dc="http://purl.org/dc/elements/1.1/"
   xmlns:cc="http://creativecommons.org/ns#"
   xmlns:rdf="http://www.w3.org/1999/02/22-rdf-syntax-ns#"
   xmlns:svg="http://www.w3.org/2000/svg"
   xmlns="http://www.w3.org/2000/svg"
   xmlns:sodipodi="http://sodipodi.sourceforge.net/DTD/sodipodi-0.dtd"
   xmlns:inkscape="http://www.inkscape.org/namespaces/inkscape"
   width="500mm"
   height="120mm"
   viewBox="0 0 500 120"
   version="1.1"
   id="svg1233"
   sodipodi:docname="rudder-logo-rect-white.svg"
   inkscape:version="0.92.3 (2405546, 2018-03-11)">
  <defs
     id="defs1227" />
  <sodipodi:namedview
     id="base"
     pagecolor="#ffffff"
     bordercolor="#666666"
     borderopacity="1.0"
     inkscape:pageopacity="0.0"
     inkscape:pageshadow="2"
     inkscape:zoom="0.35"
     inkscape:cx="744.47835"
     inkscape:cy="668.96237"
     inkscape:document-units="mm"
     inkscape:current-layer="layer1"
     showgrid="false"
     inkscape:window-width="1920"
     inkscape:window-height="1017"
     inkscape:window-x="-8"
     inkscape:window-y="-8"
     inkscape:window-maximized="1" />
  <metadata
     id="metadata1230">
    <rdf:RDF>
      <cc:Work
         rdf:about="">
        <dc:format>image/svg+xml</dc:format>
        <dc:type
           rdf:resource="http://purl.org/dc/dcmitype/StillImage" />
        <dc:title></dc:title>
      </cc:Work>
    </rdf:RDF>
  </metadata>
  <g
     inkscape:label="Calque 1"
     inkscape:groupmode="layer"
     id="layer1"
     transform="translate(0,-177)">
    <path
       inkscape:connector-curvature="0"
       id="path1232"
       style="fill:#f36f21;fill-opacity:1;fill-rule:nonzero;stroke:none;stroke-width:0.03527778"
       d="m 393.82038,220.87164 h 28.67814 v -8.03546 h -37.50784 v 8.03546 h 8.8297"
       inkscape:export-xdpi="228.36929"
       inkscape:export-ydpi="228.36929" />
    <path
       inkscape:connector-curvature="0"
       id="path1236"
       style="fill:#949393;fill-opacity:1;fill-rule:nonzero;stroke:none;stroke-width:0.03527778"
       d="m 57.615497,261.84593 c 2.154476,-0.57631 4.193984,-1.42962 6.079549,-2.52977 -0.92979,-2.47144 -0.412804,-5.35175 1.570323,-7.34446 1.981167,-1.98068 4.873984,-2.49791 7.344437,-1.56886 1.090598,-1.87772 1.954447,-3.91723 2.528059,-6.08175 -2.412111,-1.08104 -4.088822,-3.4956 -4.088822,-6.29993 0,-2.81658 1.676711,-5.22869 4.088822,-6.30973 -0.573612,-2.15472 -1.437461,-4.19423 -2.528059,-6.08175 -0.698139,0.25984 -1.416134,0.39221 -2.144916,0.43143 l -7.027479,8.08205 c 0.391723,1.22566 0.602292,2.51751 0.602292,3.878 0,7.01817 -5.705966,12.73467 -12.726827,12.73467 -7.02846,0 -12.743986,-5.7165 -12.743986,-12.73467 0,-7.02797 5.715526,-12.73712 12.743986,-12.73712 1.284008,0 2.529775,0.19366 3.71622,0.55645 l 8.234025,-7.1824 c 0.05834,-0.6496 0.19341,-1.31146 0.431925,-1.9341 -1.885565,-1.10065 -3.925073,-1.96352 -6.079549,-2.53713 -1.083979,2.41211 -3.49609,4.08882 -6.302621,4.08882 -2.814129,0 -5.22624,-1.67671 -6.309239,-4.08882 -2.165016,0.57361 -4.194965,1.43648 -6.079549,2.53713 0.93837,2.46114 0.411824,5.35371 -1.571304,7.33438 -1.981167,1.98313 -4.873984,2.50036 -7.334877,1.57131 -1.100157,1.88752 -1.963026,3.92703 -2.536638,6.08175 2.412111,1.08104 4.088822,3.49315 4.088822,6.30973 0,2.80433 -1.676711,5.21889 -4.088822,6.29993 0.573612,2.16452 1.436481,4.20403 2.536638,6.08175 2.460893,-0.92905 5.35371,-0.41182 7.334877,1.56886 1.983128,1.99271 2.509674,4.87302 1.571304,7.34446 1.884584,1.10015 3.914533,1.95346 6.079549,2.52977 1.082999,-2.41481 3.49511,-4.08858 6.309239,-4.08858 2.806531,0 5.218642,1.67377 6.302621,4.08858"
       inkscape:export-xdpi="228.36929"
       inkscape:export-ydpi="228.36929" />
    <g
       id="g2059"
       style="fill:#ffffff"
       transform="translate(0,15.875)">
      <path
         inkscape:export-ydpi="228.36929"
         inkscape:export-xdpi="228.36929"
         d="m 151.71209,222.08733 c 3.1887,0 5.72632,-0.76481 7.62316,-2.28709 1.88556,-1.53208 2.83447,-3.60101 2.83447,-6.21413 v -0.15443 c 0,-2.76756 -0.92881,-4.85364 -2.75775,-6.29012 -1.8385,-1.42668 -4.43446,-2.14492 -7.77538,-2.14492 h -13.00456 v 17.09069 z m -21.91736,-25.12615 h 22.59932 c 3.17889,0 6.00283,0.45105 8.47328,1.34087 2.46187,0.88984 4.51094,2.13511 6.14843,3.72603 1.34823,1.39726 2.39299,3.01514 3.11123,4.85364 0.73712,1.82869 1.10016,3.85839 1.10016,6.08175 v 0.14218 c 0,2.07873 -0.30642,3.94664 -0.90969,5.6111 -0.60229,1.66691 -1.44604,3.14261 -2.50796,4.42465 -1.05309,1.2747 -2.32582,2.36554 -3.79172,3.25537 -1.4757,0.88984 -3.10339,1.58111 -4.8931,2.06893 l 13.68333,19.17925 h -10.4939 l -12.4969,-17.66678 h -11.18518 v 17.66678 h -8.8373 v -50.68377"
         style="fill:#ffffff;fill-opacity:1;fill-rule:nonzero;stroke:none;stroke-width:0.03527778"
         id="path1222"
         inkscape:connector-curvature="0" />
      <path
         inkscape:export-ydpi="228.36929"
         inkscape:export-xdpi="228.36929"
         d="m 211.62756,248.43967 c -3.28479,0 -6.25335,-0.45865 -8.90569,-1.40756 -2.66215,-0.93861 -4.92228,-2.35573 -6.80735,-4.23051 -1.88753,-1.88826 -3.33381,-4.21433 -4.34866,-6.99171 -1.01486,-2.77736 -1.52228,-5.99351 -1.52228,-9.67051 v -29.1782 h 8.8395 v 28.81295 c 0,4.74088 1.13742,8.33208 3.41716,10.80058 2.28954,2.46067 5.43951,3.68633 9.4695,3.68633 3.98341,0 7.11621,-1.17566 9.3935,-3.55151 2.27974,-2.35573 3.42942,-5.8881 3.42942,-10.57015 v -29.1782 h 8.83705 v 28.74677 c 0,3.76279 -0.52459,7.077 -1.55905,9.92054 -1.04427,2.85362 -2.50036,5.22823 -4.38543,7.13389 -1.87772,1.90444 -4.16727,3.33112 -6.83677,4.26973 -2.68175,0.94891 -5.68954,1.40756 -9.0209,1.40756"
         style="fill:#ffffff;fill-opacity:1;fill-rule:nonzero;stroke:none;stroke-width:0.03527778"
         id="path1224"
         inkscape:connector-curvature="0" />
      <path
         inkscape:export-ydpi="228.36929"
         inkscape:export-xdpi="228.36929"
         d="m 273.17806,239.61193 c 2.65234,0 5.06691,-0.42138 7.23879,-1.27445 2.17433,-0.8435 4.02263,-2.02997 5.54491,-3.56205 1.52228,-1.53209 2.70137,-3.34117 3.54218,-5.45667 0.84325,-2.09834 1.27469,-4.39524 1.27469,-6.86618 v -0.15443 c 0,-2.47095 -0.43144,-4.76785 -1.27469,-6.89315 -0.84081,-2.14492 -2.0199,-3.9638 -3.54218,-5.49589 -1.52228,-1.53208 -3.37058,-2.73078 -5.54491,-3.601 -2.17188,-0.87268 -4.58645,-1.31147 -7.23879,-1.31147 h -9.98673 v 34.61529 z m -18.82378,-42.65075 h 18.89977 c 3.95645,0 7.58443,0.63245 10.89863,1.91694 3.30194,1.28204 6.15774,3.05436 8.54044,5.32184 2.39495,2.26993 4.23345,4.93208 5.54491,8.00605 1.30166,3.06417 1.95371,6.37837 1.95371,9.94996 v 0.14218 c 0,3.58139 -0.65205,6.9152 -1.95371,10.00633 -1.31146,3.08378 -3.14996,5.76581 -5.54491,8.03525 -2.3827,2.26748 -5.2385,4.04936 -8.54044,5.35175 -3.3142,1.30117 -6.94218,1.95347 -10.89863,1.95347 h -18.89977 v -50.68377"
         style="fill:#ffffff;fill-opacity:1;fill-rule:nonzero;stroke:none;stroke-width:0.03527778"
         id="path1226"
         inkscape:connector-curvature="0" />
      <path
         inkscape:export-ydpi="228.36929"
         inkscape:export-xdpi="228.36929"
         d="m 338.49381,239.61193 c 2.66215,0 5.07426,-0.42138 7.24859,-1.27445 2.17433,-0.8435 4.02019,-2.02997 5.53511,-3.56205 1.52228,-1.53209 2.70872,-3.34117 3.55198,-5.45667 0.84326,-2.09834 1.26244,-4.39524 1.26244,-6.86618 v -0.15443 c 0,-2.47095 -0.41918,-4.76785 -1.26244,-6.89315 -0.84326,-2.14492 -2.0297,-3.9638 -3.55198,-5.49589 -1.51492,-1.53208 -3.36078,-2.73078 -5.53511,-3.601 -2.17433,-0.87268 -4.58644,-1.31147 -7.24859,-1.31147 h -9.98673 v 34.61529 z m -18.81643,-42.65075 h 18.89242 c 3.96381,0 7.59423,0.63245 10.89618,1.91694 3.30439,1.28204 6.15774,3.05436 8.55269,5.32184 2.3827,2.26993 4.231,4.93208 5.53266,8.00605 1.30411,3.06417 1.96352,6.37837 1.96352,9.94996 v 0.14218 c 0,3.58139 -0.65941,6.9152 -1.96352,10.00633 -1.30166,3.08378 -3.14996,5.76581 -5.53266,8.03525 -2.39495,2.26748 -5.2483,4.04936 -8.55269,5.35175 -3.30195,1.30117 -6.93237,1.95347 -10.89618,1.95347 h -18.89242 v -50.68377"
         style="fill:#ffffff;fill-opacity:1;fill-rule:nonzero;stroke:none;stroke-width:0.03527778"
         id="path1228"
         inkscape:connector-curvature="0" />
      <path
         inkscape:export-ydpi="228.36929"
         inkscape:export-xdpi="228.36929"
         d="m 464.10498,222.08733 c 3.19899,0 5.74592,-0.76481 7.631,-2.28709 1.88752,-1.53208 2.83374,-3.60101 2.83374,-6.21413 v -0.15443 c 0,-2.76756 -0.91925,-4.85364 -2.7651,-6.29012 -1.8385,-1.42668 -4.42466,-2.14492 -7.77563,-2.14492 h -12.99451 v 17.09069 z m -21.91001,-25.12615 h 22.59884 c 3.17937,0 6.01311,0.45105 8.46445,1.34087 2.47094,0.88984 4.52025,2.13511 6.15774,3.72603 1.35069,1.39726 2.38515,3.01514 3.12055,4.85364 0.71824,1.82869 1.08349,3.85839 1.08349,6.08175 v 0.14218 c 0,2.07873 -0.30642,3.94664 -0.89964,5.6111 -0.61283,1.66691 -1.43648,3.14261 -2.51017,4.42465 -1.05162,1.2747 -2.32631,2.36554 -3.79221,3.25537 -1.48305,0.88984 -3.11074,1.58111 -4.89286,2.06893 l 13.68334,19.17925 h -10.49415 l -12.49689,-17.66678 h -11.18298 v 17.66678 h -8.83951 v -50.68377"
         style="fill:#ffffff;fill-opacity:1;fill-rule:nonzero;stroke:none;stroke-width:0.03527778"
         id="path1230"
         inkscape:connector-curvature="0" />
      <path
         inkscape:export-ydpi="228.36929"
         inkscape:export-xdpi="228.36929"
         d="m 393.82038,239.61193 v -13.54118 h 25.42277 v -8.04283 h -34.25247 v 29.61703 h 37.87309 v -8.03302 h -29.04339"
         style="fill:#ffffff;fill-opacity:1;fill-rule:nonzero;stroke:none;stroke-width:0.03527778"
         id="path1234"
         inkscape:connector-curvature="0" />
      <path
         inkscape:export-ydpi="228.36929"
         inkscape:export-xdpi="228.36929"
         d="m 49.09246,218.79519 c -1.503403,1.51247 -1.503403,3.954 0,5.45667 0.746675,0.75746 1.742652,1.13006 2.727842,1.13006 0.988377,0 1.983128,-0.3726 2.731029,-1.13006 L 82.118279,192.7498 c 0.412804,-0.42163 0.412804,-1.1031 0,-1.52473 -0.421384,-0.40938 -1.100158,-0.40938 -1.521542,0 L 49.09246,218.79519"
         style="fill:#ffffff;fill-opacity:1;fill-rule:nonzero;stroke:none;stroke-width:0.03527778"
         id="path1238"
         inkscape:connector-curvature="0" />
    </g>
    <path
       inkscape:connector-curvature="0"
       id="path1240"
       style="fill:#8ec642;fill-opacity:1;fill-rule:nonzero;stroke:none;stroke-width:0.03527778"
       d="m 14.868429,231.98843 4.289831,4.45162 c 0.89253,-16.99508 14.93891,-30.49701 32.147017,-30.49701 7.295655,0 14.016718,2.42191 19.417248,6.51074 l 6.750724,-5.80231 c -7.093665,-5.8979 -16.210415,-9.45233 -26.167972,-9.45233 -22.090671,0 -40.084186,17.50495 -40.888468,39.39535 l 4.45162,-4.60606"
       inkscape:export-xdpi="228.36929"
       inkscape:export-ydpi="228.36929" />
    <path
       inkscape:connector-curvature="0"
       id="path1242"
       style="fill:#5e92d4;fill-opacity:1;fill-rule:nonzero;stroke:none;stroke-width:0.03527778"
       d="m 45.176946,274.57104 4.44206,-4.30037 C 34.15355,269.46712 21.580912,257.74681 19.445556,242.6836 l -4.577127,-4.73107 -4.269731,4.41485 c 2.069415,20.11835 18.700969,35.89978 39.182096,36.65528 l -4.603848,-4.45162"
       inkscape:export-xdpi="228.36929"
       inkscape:export-ydpi="228.36929" />
    <path
       inkscape:connector-curvature="0"
       id="path1244"
       style="fill:#f36f21;fill-opacity:1;fill-rule:nonzero;stroke:none;stroke-width:0.03527778"
       d="m 83.450333,239.82044 c -0.794722,15.46548 -12.517238,28.03812 -27.588029,30.17347 l -4.730336,4.57713 4.414359,4.26973 C 75.664411,276.77136 91.443883,260.13 92.201344,239.65865 l -8.751011,0.16179"
       inkscape:export-xdpi="228.36929"
       inkscape:export-ydpi="228.36929" />
  </g>
</svg>
