<?xml version="1.0" encoding="UTF-8" standalone="no"?>
<!-- Created with Inkscape (http://www.inkscape.org/) -->

<svg
   xmlns:dc="http://purl.org/dc/elements/1.1/"
   xmlns:cc="http://creativecommons.org/ns#"
   xmlns:rdf="http://www.w3.org/1999/02/22-rdf-syntax-ns#"
   xmlns:svg="http://www.w3.org/2000/svg"
   xmlns="http://www.w3.org/2000/svg"
   xmlns:sodipodi="http://sodipodi.sourceforge.net/DTD/sodipodi-0.dtd"
   xmlns:inkscape="http://www.inkscape.org/namespaces/inkscape"
   width="400"
   height="400"
   viewBox="0 0 105.83333 105.83334"
   version="1.1"
   id="svg8"
   inkscape:version="0.92.3 (2405546, 2018-03-11)"
   sodipodi:docname="aix-logo.svg">
  <defs
     id="defs2" />
  <sodipodi:namedview
     id="base"
     pagecolor="#ffffff"
     bordercolor="#666666"
     borderopacity="1.0"
     inkscape:pageopacity="0.0"
     inkscape:pageshadow="2"
     inkscape:zoom="0.98994949"
     inkscape:cx="-94.031136"
     inkscape:cy="172.91579"
     inkscape:document-units="px"
     inkscape:current-layer="layer1"
     showgrid="false"
     inkscape:window-width="1920"
     inkscape:window-height="1052"
     inkscape:window-x="0"
     inkscape:window-y="0"
     inkscape:window-maximized="1"
     units="px" />
  <metadata
     id="metadata5">
    <rdf:RDF>
      <cc:Work
         rdf:about="">
        <dc:format>image/svg+xml</dc:format>
        <dc:type
           rdf:resource="http://purl.org/dc/dcmitype/StillImage" />
        <dc:title />
      </cc:Work>
    </rdf:RDF>
  </metadata>
  <g
     inkscape:label="Calque 1"
     inkscape:groupmode="layer"
     id="layer1"
     transform="translate(0,-191.16665)">
    <path
       style="opacity:1;fill:#222d42;fill-opacity:1;stroke:none;stroke-width:2.67048264;stroke-miterlimit:4;stroke-dasharray:none;stroke-opacity:1"
       d="M 52.916667,200.65225 A 43.431278,43.431278 0 0 0 9.4856049,244.08332 43.431278,43.431278 0 0 0 52.916667,287.51438 43.431278,43.431278 0 0 0 96.347729,244.08332 43.431278,43.431278 0 0 0 52.916667,200.65225 Z m 0,2.15326 a 41.277659,41.277659 0 0 1 41.27781,41.27781 41.277659,41.277659 0 0 1 -41.27781,41.27781 41.277659,41.277659 0 0 1 -41.277808,-41.27781 41.277659,41.277659 0 0 1 41.277808,-41.27781 z m 0,3.58937 a 37.688297,37.688297 0 0 0 -37.688434,37.68844 37.688297,37.688297 0 0 0 37.688434,37.68843 37.688297,37.688297 0 0 0 37.688434,-37.68843 37.688297,37.688297 0 0 0 -37.688434,-37.68844 z m -20.188033,24.9438 h 4.606779 l 8.554722,22.73271 h -4.606779 l -2.194897,-5.83285 h -8.112872 l -2.194897,5.83285 h -4.606779 z m 15.289773,0 h 4.606317 v 22.73271 h -4.606317 z m 6.734589,0 h 4.606317 l 6.520836,8.39973 6.520837,-8.39973 h 4.606317 l -8.823994,11.36636 8.823994,11.36635 h -4.606317 l -6.520837,-8.39973 -6.520836,8.39973 h -4.606317 l 8.823995,-11.36635 z m -19.721205,6.12109 -2.727886,7.24907 h 5.455775 z m 46.285723,11.81561 c 1.324333,0 2.398007,1.07367 2.398007,2.398 0,1.32434 -1.073674,2.39801 -2.398007,2.39801 -1.324325,0 -2.398007,-1.07367 -2.398007,-2.39801 0,-1.32433 1.073682,-2.398 2.398007,-2.398 z m 0,0.34237 c -1.135423,0 -2.055631,0.92021 -2.055631,2.05563 0,1.13543 0.920208,2.05563 2.055631,2.05563 1.135422,0 2.055633,-0.9202 2.055633,-2.05563 0,-1.13542 -0.920211,-2.05563 -2.055633,-2.05563 z m -0.685211,0.68521 h 0.342375 0.514024 c 0.473255,0 0.856396,0.38314 0.856396,0.8564 0,0.38124 -0.249087,0.70414 -0.593139,0.81475 l 0.591289,0.86658 -0.28269,0.19293 -0.694926,-1.01787 h -0.390954 v 1.02805 h -0.342375 v -1.02805 -0.34237 -1.02804 z m 0.342375,0.34238 v 1.02804 h 0.514024 c 0.28386,0 0.514023,-0.23017 0.514023,-0.51402 0,-0.28386 -0.230163,-0.51402 -0.514023,-0.51402 z"
       id="path846"
       inkscape:connector-curvature="0" />
  </g>
</svg>
