<?xml version="1.0" encoding="UTF-8" standalone="no"?>
<!-- Created with Inkscape (http://www.inkscape.org/) -->

<svg
   xmlns:dc="http://purl.org/dc/elements/1.1/"
   xmlns:cc="http://creativecommons.org/ns#"
   xmlns:rdf="http://www.w3.org/1999/02/22-rdf-syntax-ns#"
   xmlns:svg="http://www.w3.org/2000/svg"
   xmlns="http://www.w3.org/2000/svg"
   xmlns:sodipodi="http://sodipodi.sourceforge.net/DTD/sodipodi-0.dtd"
   xmlns:inkscape="http://www.inkscape.org/namespaces/inkscape"
   width="400"
   height="400"
   viewBox="0 0 105.83333 105.83334"
   version="1.1"
   id="svg8"
   inkscape:version="0.92.3 (2405546, 2018-03-11)"
   sodipodi:docname="android-logo.svg">
  <defs
     id="defs2" />
  <sodipodi:namedview
     id="base"
     pagecolor="#ffffff"
     bordercolor="#666666"
     borderopacity="1.0"
     inkscape:pageopacity="0.0"
     inkscape:pageshadow="2"
     inkscape:zoom="1.4"
     inkscape:cx="-125.63295"
     inkscape:cy="158.87533"
     inkscape:document-units="px"
     inkscape:current-layer="layer1"
     showgrid="false"
     inkscape:window-width="1920"
     inkscape:window-height="1052"
     inkscape:window-x="0"
     inkscape:window-y="0"
     inkscape:window-maximized="1"
     units="px" />
  <metadata
     id="metadata5">
    <rdf:RDF>
      <cc:Work
         rdf:about="">
        <dc:format>image/svg+xml</dc:format>
        <dc:type
           rdf:resource="http://purl.org/dc/dcmitype/StillImage" />
        <dc:title />
      </cc:Work>
    </rdf:RDF>
  </metadata>
  <g
     inkscape:label="Calque 1"
     inkscape:groupmode="layer"
     id="layer1"
     transform="translate(0,-191.16665)">
    <path
       style="opacity:1;fill:#222d42;fill-opacity:1;stroke:none;stroke-width:4.8496809;stroke-miterlimit:4;stroke-dasharray:none;stroke-opacity:1"
       d="m 35.506875,193.35574 c -0.167338,-0.0117 -0.339785,0.0247 -0.496609,0.11524 -0.418195,0.24144 -0.560806,0.77242 -0.31936,1.19062 l 4.729943,8.19278 A 28.266274,28.266274 0 0 0 24.759212,225.12641 H 81.023997 A 28.266274,28.266274 0 0 0 66.322566,202.84973 l 4.727361,-8.18813 c 0.241446,-0.4182 0.09935,-0.94918 -0.318844,-1.19062 -0.418195,-0.24145 -0.949695,-0.0988 -1.191141,0.31936 l -4.78627,8.28993 a 28.266274,28.266274 0 0 0 -11.856641,-2.65617 28.266274,28.266274 0 0 0 -11.902634,2.66909 l -4.793506,-8.30285 c -0.150903,-0.26138 -0.415116,-0.41511 -0.694016,-0.4346 z m 4.485516,16.86563 a 2.3623515,2.3623515 0 0 1 2.362129,2.36265 2.3623515,2.3623515 0 0 1 -2.362129,2.36213 2.3623515,2.3623515 0 0 1 -2.362647,-2.36213 2.3623515,2.3623515 0 0 1 2.362647,-2.36265 z m 25.798426,0 a 2.3623515,2.3623515 0 0 1 2.362647,2.36265 2.3623515,2.3623515 0 0 1 -2.362647,2.36213 2.3623515,2.3623515 0 0 1 -2.362131,-2.36213 2.3623515,2.3623515 0 0 1 2.362131,-2.36265 z m -49.474501,16.05381 c -3.481255,0 -6.283854,2.80259 -6.283854,6.28385 v 26.08058 c 0,3.48125 2.802599,6.28385 6.283854,6.28385 3.481255,0 6.283854,-2.8026 6.283854,-6.28385 v -26.08058 c 0,-3.48126 -2.802599,-6.28385 -6.283854,-6.28385 z m 73.200703,0 c -3.481256,0 -6.283855,2.80259 -6.283855,6.28385 v 26.08058 c 0,3.48125 2.802599,6.28385 6.283855,6.28385 3.481255,0 6.283854,-2.8026 6.283854,-6.28385 v -26.08058 c 0,-3.48126 -2.802599,-6.28385 -6.283854,-6.28385 z m -64.59451,1.06401 v 40.58667 c 0,3.72469 2.998421,6.72362 6.723103,6.72362 h 4.493784 v 13.87978 c 0,3.48125 2.802599,6.28385 6.283855,6.28385 3.481255,0 6.283854,-2.8026 6.283854,-6.28385 v -13.87978 h 8.379849 v 13.87978 c 0,3.48125 2.802602,6.28385 6.283854,6.28385 3.481256,0 6.283855,-2.8026 6.283855,-6.28385 v -13.87978 h 4.493784 c 3.724682,0 6.723105,-2.99893 6.723105,-6.72362 v -40.58667 z"
       id="rect954"
       inkscape:connector-curvature="0" />
  </g>
</svg>
