<?xml version="1.0" encoding="UTF-8" standalone="no"?>
<!-- Created with Inkscape (http://www.inkscape.org/) -->

<svg
   xmlns:dc="http://purl.org/dc/elements/1.1/"
   xmlns:cc="http://creativecommons.org/ns#"
   xmlns:rdf="http://www.w3.org/1999/02/22-rdf-syntax-ns#"
   xmlns:svg="http://www.w3.org/2000/svg"
   xmlns="http://www.w3.org/2000/svg"
   xmlns:sodipodi="http://sodipodi.sourceforge.net/DTD/sodipodi-0.dtd"
   xmlns:inkscape="http://www.inkscape.org/namespaces/inkscape"
   width="400"
   height="400"
   viewBox="0 0 105.83333 105.83334"
   version="1.1"
   id="svg8"
   inkscape:version="0.92.3 (2405546, 2018-03-11)"
   sodipodi:docname="fedora-logo.svg">
  <defs
     id="defs2" />
  <sodipodi:namedview
     id="base"
     pagecolor="#ffffff"
     bordercolor="#666666"
     borderopacity="1.0"
     inkscape:pageopacity="0.0"
     inkscape:pageshadow="2"
     inkscape:zoom="0.9899495"
     inkscape:cx="-128.17681"
     inkscape:cy="302.35744"
     inkscape:document-units="px"
     inkscape:current-layer="layer1"
     showgrid="false"
     inkscape:window-width="1920"
     inkscape:window-height="1052"
     inkscape:window-x="0"
     inkscape:window-y="0"
     inkscape:window-maximized="1"
     units="px" />
  <metadata
     id="metadata5">
    <rdf:RDF>
      <cc:Work
         rdf:about="">
        <dc:format>image/svg+xml</dc:format>
        <dc:type
           rdf:resource="http://purl.org/dc/dcmitype/StillImage" />
        <dc:title />
      </cc:Work>
    </rdf:RDF>
  </metadata>
  <g
     inkscape:label="Calque 1"
     inkscape:groupmode="layer"
     id="layer1"
     transform="translate(0,-191.16665)">
    <g
       id="g1931"
       transform="matrix(0.59087419,0,0,0.59087419,57.110549,188.85239)"
       style="fill:#222d42;fill-opacity:1">
      <path
         style="fill:#222d42;stroke-width:0.26458335;fill-opacity:1"
         id="f"
         d="m -74.938866,123.5983 c -0.560239,-0.0829 -1.131488,-0.12485 -1.698443,-0.12485 -6.348168,0 -11.512944,5.16515 -11.512944,11.51363 v 3.59633 h -3.761978 c -1.378985,0 -2.507793,1.12835 -2.507793,2.50683 0,1.37986 1.128808,2.77045 2.507793,2.77045 h 3.76131 v 19.29569 c 0,1.69225 1.379253,3.07182 3.071392,3.07182 1.69293,0 3.07218,-1.37957 3.07218,-3.07182 v -19.29569 h 4.15877 c 1.37887,0 2.507,-1.39059 2.507,-2.77045 0,-1.37848 -1.12813,-2.50683 -2.507,-2.50683 h -4.156726 v -3.59633 c 0,-2.96018 2.407844,-5.76683 5.367996,-5.76683 0.266713,0 0.535331,0.0199 0.798575,0.0587 1.67894,0.24856 3.240606,-0.51195 3.489725,-2.19119 0.247766,-1.6784 -0.911308,-3.2403 -2.589857,-3.48941"
         inkscape:connector-curvature="0" />
      <path
         style="fill:#222d42;stroke-width:0.26458335;fill-opacity:1"
         id="e"
         d="m -58.596919,142.9092 c -4.199893,0 -7.083573,2.75779 -7.709998,6.76872 9.465329,0 15.420287,0 15.420287,0 -0.564181,-3.82279 -3.57292,-6.76872 -7.710289,-6.76872 z m 11.534712,11.0956 c 0,0 0,0 -19.370334,0 0.313491,4.19908 3.698528,7.33399 8.211651,7.33399 3.196894,0 5.955226,-1.3165 8.149389,-3.4473 0.439108,-0.44021 0.940199,-0.56527 1.504373,-0.56527 0.752324,0 1.504921,0.37685 2.006013,1.00355 0.314039,0.43884 0.502187,0.94048 0.502187,1.44158 0,0.68977 -0.313762,1.44153 -0.878213,2.00627 -2.632721,2.82032 -7.083579,4.70128 -11.471897,4.70128 -7.960977,0 -14.354947,-6.39379 -14.354947,-14.35532 0,-7.96097 6.206105,-14.35475 14.167066,-14.35475 7.898437,0 13.791134,6.14282 13.791134,14.22914 0,1.19143 -1.065268,2.00683 -2.256422,2.00683"
         inkscape:connector-curvature="0" />
      <path
         style="fill:#222d42;stroke-width:0.26458335;fill-opacity:1"
         id="d"
         d="m -25.35226,161.02475 c -5.014479,0 -8.211376,-4.0123 -8.211376,-8.90117 0,-4.88885 3.196897,-8.9017 8.211376,-8.9017 5.015309,0 8.211923,3.82387 8.211923,8.9017 0,5.07675 -3.196614,8.90117 -8.211923,8.90117 z m 14.355583,-34.60339 c 0,-1.69185 -1.378752,-3.00872 -3.071276,-3.00872 -1.692537,0 -3.072384,1.31687 -3.072384,3.00872 v 16.17381 c -1.566627,-2.88341 -4.951394,-4.82634 -8.963694,-4.82634 -8.149122,0 -13.602976,6.14282 -13.602976,14.35475 0,8.2122 5.642009,14.35532 13.602976,14.35532 3.551152,0 6.630148,-1.46555 8.473905,-4.01314 l 0.68208,1.72971 c 0.422577,1.18785 1.555338,2.03742 2.88643,2.03742 1.684533,0 3.064939,-1.37187 3.064939,-3.0633 v -0.0132 -36.73502"
         inkscape:connector-curvature="0" />
      <path
         style="fill:#222d42;stroke-width:0.26458335;fill-opacity:1"
         id="o"
         d="m 8.2879901,143.22188 c -5.014484,0 -8.27474341,4.01285 -8.27474341,8.9017 0,4.88887 3.26025941,8.90117 8.27474341,8.90117 5.0150339,0 8.2755559,-4.0123 8.2755559,-8.90117 0,-4.88885 -3.260522,-8.9017 -8.2755559,-8.9017 z m 0,23.25702 c -7.96096873,0 -14.3547574,-6.39379 -14.3547574,-14.35532 0,-7.96097 6.39378867,-14.35475 14.3547574,-14.35475 7.9617919,0 14.3553079,6.39378 14.3553079,14.35475 0,7.96153 -6.393516,14.35532 -14.3553079,14.35532"
         inkscape:connector-curvature="0" />
      <path
         style="fill:#222d42;stroke-width:0.26458335;fill-opacity:1"
         id="r"
         d="m 43.370069,137.76883 c -4.205682,0 -6.987985,1.24378 -9.44412,4.36628 l -0.226721,-1.4523 c -0.190638,-1.51622 -1.48399,-2.68698 -3.0498,-2.68698 -1.69885,0 -3.076511,1.37572 -3.076511,3.0754 v 0.007 0.003 22.0755 c 0,1.69225 1.378759,3.07182 3.071558,3.07182 1.692524,0 3.071831,-1.37957 3.071831,-3.07182 v -11.84737 c 0,-5.39079 4.701546,-8.08714 9.653763,-8.08714 1.504654,0 2.695239,-1.25343 2.695239,-2.75807 0,-1.50436 -1.190585,-2.69497 -2.695239,-2.69497"
         inkscape:connector-curvature="0" />
      <path
         style="fill:#222d42;stroke-width:0.26458335;fill-opacity:1"
         id="a"
         d="m 61.423342,161.02475 c -5.015299,0 -8.274728,-4.0123 -8.274728,-8.90117 0,-4.88885 3.259429,-8.9017 8.274728,-8.9017 5.014753,0 8.274748,4.01285 8.274748,8.9017 0,4.88887 -3.259995,8.90117 -8.274748,8.90117 z m 14.355572,-8.90117 c 0.06284,-7.71001 -5.454105,-14.35475 -14.355572,-14.35475 -7.961522,0 -14.418089,6.39378 -14.418089,14.35475 0,7.96153 6.268718,14.35532 13.854209,14.35532 3.785584,0 7.192674,-1.94873 8.712729,-3.98449 l 0.748181,1.89996 c 0.401658,1.06719 1.431393,1.82695 2.638803,1.82695 1.556152,0 2.817559,-1.26057 2.819739,-2.81564 v -11.2821"
         inkscape:connector-curvature="0" />
      <path
         style="fill:#222d42;stroke-width:0.26458335;fill-opacity:1"
         id="TM2"
         d="m 78.442379,163.43515 c 0,0 0,-0.71452 0,-0.71452 l -0.326448,0.74896 c 0,0 -0.318172,-0.74896 -0.318172,-0.74896 v 0.71452 h -0.183211 v -1.12835 h 0.192011 c 0.105119,0.24018 0.209764,0.4806 0.314571,0.7209 l 0.309684,-0.7209 h 0.194472 v 1.12835 z m -1.334963,-0.93937 v 0.93937 H 76.91595 v -0.93937 h -0.320921 v -0.18898 h 0.833022 v 0.18898 h -0.320635"
         inkscape:connector-curvature="0" />
    </g>
    <path
       inkscape:connector-curvature="0"
       style="fill:#ffffff;stroke:none;stroke-width:0.26458335"
       d="m 133.09125,119.21411 c -4.45802,0 -8.07186,3.61393 -8.07186,8.07186 v 0.006 8.03 h 7.21249 c 1.0424,0 1.88463,-0.83249 1.88463,-1.87844 -7.9e-4,-1.04514 -0.84197,-1.87947 -1.88463,-1.87947 h -2.79777 -0.002 c -0.33277,0 -0.60151,-0.26929 -0.60151,-0.60151 v -5.3e-4 -3.68298 c 0.004,-2.35043 1.90959,-4.25349 4.25969,-4.25349 0.7967,0 0.99329,0.10387 1.53737,0.10387 1.14158,0 1.90556,-0.76454 1.90531,-1.81694 -5.3e-4,-0.87081 -0.74619,-1.61915 -1.65881,-1.85829 -0.62646,-0.16406 -1.10678,-0.23978 -1.78336,-0.23978 z"
       id="free-5" />
    <g
       id="g2067"
       transform="matrix(1.7417694,0,0,1.7417694,-104.71315,12.084178)">
      <path
         id="voice"
         transform="matrix(0.26458334,0,0,0.26458334,0,191.16665)"
         d="m 346.14844,-326.69141 c -35.8828,0 -64.97384,29.07765 -65,64.95508 l -0.002,-0.002 v 50.30078 l 0.002,0.002 c 0.0197,8.14606 6.62594,14.74219 14.77734,14.74219 l 0.0703,-0.002 0.004,0.002 h 50.17383 c 35.8869,-0.0151 64.97461,-29.10638 64.97461,-64.99609 0,-35.89901 -29.10163,-65.00196 -65,-65.00196 z m 19.08398,15.40625 c 2.55715,0 4.37251,0.28615 6.74024,0.90625 3.44927,0.90384 6.26753,3.73219 6.26953,7.02344 9.4e-4,3.97758 -2.88654,6.86719 -7.20117,6.86719 -2.05637,0 -2.7994,-0.39258 -5.81055,-0.39258 -8.88224,0 -16.08401,7.19266 -16.09961,16.07617 v 13.91992 0.002 c 0,1.25563 1.01573,2.27343 2.27344,2.27343 h 0.006 10.57422 c 3.94079,10e-6 7.12004,3.15339 7.12304,7.10352 0,3.9532 -3.18323,7.09961 -7.12304,7.09961 H 349.131 v 16.2168 0.0234 c 0,16.84887 -13.65861,30.50782 -30.50781,30.50782 l 0.002,-0.002 c -2.55715,0 -4.37251,-0.28618 -6.74023,-0.90625 -3.44928,-0.90383 -6.26754,-3.73218 -6.26954,-7.02343 -9.4e-4,-3.97758 2.88654,-6.86719 7.20118,-6.86719 2.05636,0 2.79939,0.39258 5.81054,0.39258 8.88227,0 16.08451,-7.19266 16.09961,-16.07617 v -13.91993 -0.002 c 0,-1.25563 -1.01571,-2.27344 -2.27344,-2.27344 h -0.008 -10.57422 c -3.94076,0 -7.12004,-3.15338 -7.12304,-7.10351 0,-3.9532 3.18326,-7.09961 7.12304,-7.09961 h 12.85352 v -16.2168 -0.0215 c 0,-16.84887 13.6586,-30.50782 30.50781,-30.50782 z"
         style="fill:#222d42;stroke:none;stroke-width:1;fill-opacity:1"
         inkscape:connector-curvature="0" />
      <path
         style="fill:#294172;stroke:none;stroke-width:0.26458335"
         id="TM"
         d="m 105.81536,136.14848 c 0,0 0,-0.71452 0,-0.71452 l -0.32645,0.74896 c 0,0 -0.31817,-0.74896 -0.31817,-0.74896 v 0.71452 h -0.18321 v -1.12834 h 0.19201 c 0.10512,0.24018 0.20976,0.48059 0.31457,0.72089 l 0.30968,-0.72089 h 0.19448 v 1.12834 z m -1.33496,-0.93937 v 0.93937 h -0.19147 v -0.93937 h -0.32092 v -0.18897 h 0.83302 v 0.18897 h -0.32063"
         inkscape:connector-curvature="0" />
      <path
         id="path2022"
         transform="matrix(0.26458334,0,0,0.26458334,0,191.16665)"
         d="m 365.17773,-311.29492 c -0.14783,0.006 -0.29562,0.0132 -0.44335,0.0215 0.16635,-0.003 0.33105,-0.0117 0.49804,-0.0117 v 0.002 c 0.17436,0 0.32453,0.0126 0.49219,0.0156 -0.18221,-0.0107 -0.36451,-0.0199 -0.54688,-0.0273 z m 0.54688,0.0273 c 0.89279,0.0202 1.78427,0.0795 2.67187,0.17774 -0.83735,-0.10599 -1.71387,-0.16054 -2.67187,-0.17774 z m 3.05273,0.22266 c 1.03369,0.14909 2.04958,0.3679 3.19532,0.66797 3.44927,0.90383 6.26752,3.73218 6.26953,7.02343 9.4e-4,3.97758 -2.88655,6.86719 -7.20117,6.86719 -2.05637,0 -2.7994,-0.39258 -5.81055,-0.39258 -1.14802,0 -2.26439,0.12635 -3.34375,0.35547 v 0.0547 c 1.08164,-0.23342 2.18449,-0.3545 3.29101,-0.36133 8.8759,-4.7e-4 16.07165,7.19441 16.07227,16.07031 4.7e-4,8.87666 -7.19561,16.07274 -16.07227,16.07227 -1.10604,-0.002 -1.7196,0.1037 -3.29101,0.0801 h 0.0977 c 3.94078,0 7.12004,3.15342 7.12304,7.10351 0,3.91346 -3.12096,7.03136 -7.00586,7.09375 1.02158,0.11424 2.04828,0.17682 3.07617,0.1875 16.8655,7.7e-4 30.53788,-13.67161 30.53711,-30.53711 -0.0191,-15.45814 -11.58705,-28.46363 -26.9375,-30.28515 z m -50.09961,46.32812 c -16.86549,-7.5e-4 -30.53787,13.67161 -30.53711,30.53711 0.0189,15.45816 11.58706,28.46362 26.9375,30.28516 -1.03368,-0.14891 -2.04957,-0.36776 -3.19531,-0.66797 -3.44927,-0.90384 -6.26752,-3.73219 -6.26953,-7.02344 -9.4e-4,-3.97757 2.88655,-6.86718 7.20117,-6.86718 2.05637,0 2.7994,0.39257 5.81055,0.39257 1.14802,0 2.26439,-0.12643 3.34375,-0.35547 v -0.0547 c -1.08164,0.23357 -2.1845,0.35452 -3.29102,0.36132 -8.8759,5e-4 -16.07164,-7.19443 -16.07226,-16.07031 -4.7e-4,-8.87667 7.1956,-16.07272 16.07226,-16.07226 1.10604,0.001 1.71961,-0.10351 3.29102,-0.0801 h -0.0977 c -3.94078,0 -7.12004,-3.15342 -7.12304,-7.10352 0,-3.91347 3.12096,-7.03135 7.00586,-7.09375 -1.02158,-0.11414 -2.04828,-0.17691 -3.07618,-0.1875 z m -3.21875,60.86719 c 0.83735,0.10583 1.71388,0.16073 2.67188,0.17773 -0.89279,-0.0189 -1.78428,-0.0795 -2.67188,-0.17773 z m 2.67188,0.17578 c 0.18221,0.0113 0.36449,0.0198 0.54687,0.0274 v 0.002 c 0.14782,-0.008 0.29565,-0.0121 0.44336,-0.0234 -0.16633,0.003 -0.33105,0.0117 -0.49804,0.0117 v -0.002 c -0.17435,0 -0.32455,-0.0119 -0.49219,-0.0156 z"
         style="opacity:1;fill:#394b6e;fill-opacity:1;stroke:none;stroke-width:9.68838596;stroke-miterlimit:4;stroke-dasharray:none;stroke-opacity:1"
         inkscape:connector-curvature="0" />
    </g>
  </g>
</svg>
