<?xml version="1.0" encoding="UTF-8" standalone="no"?>
<!-- Created with Inkscape (http://www.inkscape.org/) -->

<svg
   xmlns:dc="http://purl.org/dc/elements/1.1/"
   xmlns:cc="http://creativecommons.org/ns#"
   xmlns:rdf="http://www.w3.org/1999/02/22-rdf-syntax-ns#"
   xmlns:svg="http://www.w3.org/2000/svg"
   xmlns="http://www.w3.org/2000/svg"
   xmlns:sodipodi="http://sodipodi.sourceforge.net/DTD/sodipodi-0.dtd"
   xmlns:inkscape="http://www.inkscape.org/namespaces/inkscape"
   width="400"
   height="400"
   viewBox="0 0 105.83333 105.83334"
   version="1.1"
   id="svg8"
   inkscape:version="0.92.3 (2405546, 2018-03-11)"
   sodipodi:docname="freebsd-logo.svg">
  <defs
     id="defs2" />
  <sodipodi:namedview
     id="base"
     pagecolor="#ffffff"
     bordercolor="#666666"
     borderopacity="1.0"
     inkscape:pageopacity="0.0"
     inkscape:pageshadow="2"
     inkscape:zoom="0.98994949"
     inkscape:cx="-73.117956"
     inkscape:cy="-7.3148441"
     inkscape:document-units="px"
     inkscape:current-layer="layer1"
     showgrid="false"
     inkscape:window-width="1920"
     inkscape:window-height="1052"
     inkscape:window-x="0"
     inkscape:window-y="0"
     inkscape:window-maximized="1"
     units="px" />
  <metadata
     id="metadata5">
    <rdf:RDF>
      <cc:Work
         rdf:about="">
        <dc:format>image/svg+xml</dc:format>
        <dc:type
           rdf:resource="http://purl.org/dc/dcmitype/StillImage" />
        <dc:title />
      </cc:Work>
    </rdf:RDF>
  </metadata>
  <g
     inkscape:label="Calque 1"
     inkscape:groupmode="layer"
     id="layer1"
     transform="translate(0,-191.16665)">
    <path
       inkscape:connector-curvature="0"
       style="fill:#ffffff;stroke:none;stroke-width:0.26458335"
       d="m 133.09125,119.21411 c -4.45802,0 -8.07186,3.61393 -8.07186,8.07186 v 0.006 8.03 h 7.21249 c 1.0424,0 1.88463,-0.83249 1.88463,-1.87844 -7.9e-4,-1.04514 -0.84197,-1.87947 -1.88463,-1.87947 h -2.79777 -0.002 c -0.33277,0 -0.60151,-0.26929 -0.60151,-0.60151 v -5.3e-4 -3.68298 c 0.004,-2.35043 1.90959,-4.25349 4.25969,-4.25349 0.7967,0 0.99329,0.10387 1.53737,0.10387 1.14158,0 1.90556,-0.76454 1.90531,-1.81694 -5.3e-4,-0.87081 -0.74619,-1.61915 -1.65881,-1.85829 -0.62646,-0.16406 -1.10678,-0.23978 -1.78336,-0.23978 z"
       id="free-5" />
    <path
       id="path2153"
       d="m 47.677712,288.60852 c -1.704755,-0.14508 -3.300694,-0.87051 -4.533914,-2.03119 -1.160685,-1.12441 -1.886115,-2.43018 -2.248826,-3.98985 -0.145088,-0.68915 -0.145088,-2.24882 0,-2.93798 0.652886,-3.01053 2.901703,-5.29561 5.912231,-5.9485 0.725422,-0.14509 2.031194,-0.18136 2.792896,-0.0363 2.901704,0.5078 5.295617,2.72035 5.984767,5.54952 0.290175,1.08814 0.326447,2.10374 0.07251,2.43018 -0.07251,0.0725 -0.181351,0.21763 -0.290167,0.29017 -0.145088,0.10881 -0.217632,0.10881 -5.839687,0.14508 -5.622064,0.0363 -5.694608,0.0363 -5.912231,0.14509 -0.290176,0.14509 -0.471527,0.47153 -0.471527,0.83424 0,0.32645 0.326439,0.94306 0.797966,1.55967 0.797974,0.97933 1.922386,1.70475 3.22815,1.95865 0.797974,0.18136 1.886115,0.10882 2.611537,-0.10881 0.652886,-0.18136 1.233228,-0.47153 1.704755,-0.79797 0.616614,-0.47153 0.870509,-0.5078 1.305773,-0.29017 0.326438,0.14509 0.54407,0.5078 0.54407,0.90678 0,0.36272 -0.145088,0.58034 -0.54407,0.90679 -1.051869,0.79796 -2.430186,1.34203 -3.627143,1.45085 -0.797965,0 -0.943053,0.0363 -1.487123,-0.0363 z m 5.331889,-8.63258 c 0.398991,-0.29017 0.544071,-0.76169 0.326448,-1.26949 -0.471536,-1.01561 -1.450861,-2.0312 -2.539002,-2.57527 -0.797965,-0.39899 -1.523395,-0.58035 -2.430176,-0.58035 -1.305773,0 -2.32137,0.32645 -3.373239,1.12442 -0.906781,0.68915 -1.777299,1.88611 -1.777299,2.50273 0,0.39898 0.217632,0.76169 0.580342,0.90678 0.108816,0.0363 1.704756,0.0363 4.606468,0.0363 4.388835,-0.0363 4.46137,-0.0363 4.606458,-0.14508 z m 27.167251,8.66886 c -0.616615,-0.0725 -1.741027,-0.32644 -2.357642,-0.54407 -0.616614,-0.21763 -1.450851,-0.61662 -1.95865,-0.90679 -0.471527,-0.2539 -0.616614,-0.36271 -0.72543,-0.54407 -0.362711,-0.61661 0,-1.37831 0.689158,-1.45086 0.253904,-0.0363 0.362711,0 1.160685,0.39899 3.083063,1.5234 5.476976,1.45086 7.109188,-0.18135 0.326439,-0.36272 0.689158,-0.94306 0.797965,-1.37831 0.18136,-0.72543 0.0363,-1.59594 -0.435255,-2.17628 -0.507798,-0.68916 -0.689158,-0.79798 -4.352563,-2.75663 -3.772221,-1.99493 -4.243748,-2.32137 -4.969178,-3.26442 -0.435255,-0.58034 -0.761694,-1.19696 -0.906781,-1.7773 -0.108816,-0.36271 -0.145088,-0.61661 -0.145088,-1.16069 0,-0.76169 0.07251,-1.12441 0.362719,-1.81356 0.68915,-1.55966 2.393905,-2.79289 4.425108,-3.15561 0.398983,-0.0725 0.725421,-0.0725 1.523395,-0.0725 1.088141,0.0363 1.741019,0.14508 2.720353,0.5078 0.797965,0.29016 1.886106,0.83423 2.103738,1.05187 0.54407,0.61661 0.108815,1.59593 -0.689159,1.59593 -0.217631,0 -0.435254,-0.0725 -0.979325,-0.32644 -1.305772,-0.61662 -2.248825,-0.87051 -3.445782,-0.87051 -1.378308,0 -2.538993,0.47152 -3.336967,1.30577 -0.797965,0.87051 -0.943053,1.95865 -0.398982,3.08306 0.217631,0.43526 1.051869,1.19696 1.595939,1.5234 0.253904,0.14509 1.668483,0.90678 3.155607,1.70475 3.155607,1.66849 3.518326,1.88611 4.171212,2.46645 0.725422,0.68916 1.196948,1.41459 1.450852,2.2851 0.108816,0.36271 0.145088,0.54407 0.145088,1.23323 0,0.72543 0,0.87051 -0.18136,1.30576 -0.18136,0.61662 -0.326447,0.83425 -0.689158,1.37832 -1.196957,1.66848 -3.590862,2.75662 -5.839687,2.53899 z M 1.7581713,288.49971 c -0.1088158,-0.0725 -0.217623,-0.18135 -0.3264388,-0.29017 l -0.1088158,-0.18136 v -15.45159 l 0.1450878,-0.58035 c 0.5803423,-2.10373 2.1400098,-3.62713 4.1712039,-4.09866 0.2901755,-0.0725 0.9067812,-0.10881 2.86544,-0.10881 h 2.7928956 c 0.326439,0.0363 0.616615,0.18135 0.797966,0.43525 0.18136,0.25391 0.18136,0.79798 0,1.05187 -0.290167,0.39898 -0.217623,0.39898 -3.2644228,0.39898 -2.6840803,0.0363 -2.7566242,0.0363 -3.119335,0.14509 -1.1606847,0.43526 -2.1400098,1.5234 -2.3939134,2.75663 -0.1088072,0.47152 -0.1088072,3.59086 -0.036298,3.95358 0.072509,0.25389 0.3989914,0.65287 0.7254302,0.83423 0.2176316,0.10882 0.2901669,0.14509 2.7928961,0.14509 2.4664487,0.0363 2.5752645,0.0363 2.7566242,0.14509 0.4715267,0.29017 0.5803427,0.94305 0.2538949,1.37831 -0.072509,0.10881 -0.217623,0.25389 -0.2901668,0.29016 -0.1088158,0.0725 -0.7617021,0.0725 -2.6840804,0.10882 -2.7928961,0.0363 -2.7566241,0.0363 -3.1556068,0.36271 -0.1088158,0.0725 -0.2539036,0.2539 -0.3264475,0.39899 -0.1088072,0.2539 -0.1450791,0.2539 -0.1450791,3.98985 l -0.036298,3.73595 -0.1450877,0.21763 c -0.2176317,0.47152 -0.8705093,0.61661 -1.2695006,0.36271 z m 10.7725927,0 c -0.290166,-0.18135 -0.398982,-0.32644 -0.471526,-0.65288 -0.0363,-0.21763 -0.07251,-1.63221 -0.0363,-4.93291 0.0363,-4.53392 0.0363,-4.679 0.145088,-5.07799 0.181359,-0.65289 0.398982,-1.12441 0.72543,-1.63221 1.015597,-1.5234 2.68408,-2.46645 4.533914,-2.53899 0.834247,-0.0363 1.160686,0 1.95866,0.29016 1.196948,0.399 2.248817,1.12442 2.792887,1.88612 0.18136,0.29017 0.217632,0.39898 0.217632,0.61661 0,0.61662 -0.580343,1.05187 -1.160685,0.90678 -0.145088,-0.0363 -0.362711,-0.21763 -0.616614,-0.43525 -0.943053,-0.90679 -1.813563,-1.2695 -2.974248,-1.30577 -1.088141,0 -1.958659,0.36272 -2.720352,1.08814 -0.398983,0.36272 -0.616614,0.7617 -0.834246,1.2695 l -0.145079,0.43525 -0.0363,4.82409 v 4.78782 l -0.18136,0.21763 c -0.253903,0.36271 -0.834237,0.5078 -1.196957,0.2539 z m 17.446527,0.0725 c -0.07251,0 -0.326439,-0.0725 -0.580342,-0.10882 -2.32137,-0.43525 -4.425108,-2.17628 -5.368161,-4.4251 -1.196957,-2.82917 -0.580342,-6.09359 1.59594,-8.26987 2.067466,-2.06747 5.114265,-2.75662 7.907153,-1.74103 1.741027,0.61662 3.336966,2.06747 4.171212,3.8085 0.471527,0.97932 0.797966,2.28509 0.725422,3.19188 -0.0363,0.47152 -0.108816,0.65288 -0.398983,0.87051 -0.145088,0.10881 -0.217632,0.10881 -5.875959,0.14508 l -5.694608,0.0363 -0.217623,0.14509 c -0.507799,0.29016 -0.580342,0.87051 -0.253904,1.48712 0.253904,0.47153 0.761702,1.19696 1.088141,1.45086 0.761702,0.68915 1.777299,1.19695 2.756624,1.41458 0.471527,0.10882 1.523396,0.10882 2.067466,0.0363 0.797974,-0.14509 1.632212,-0.5078 2.357642,-1.0156 0.435255,-0.29017 0.689158,-0.39899 0.979325,-0.32645 0.471527,0.10882 0.761702,0.47153 0.761702,0.94307 0,0.32644 -0.108816,0.54407 -0.471527,0.83423 -0.870517,0.72543 -2.285097,1.34205 -3.482054,1.48713 -0.398983,0.0725 -1.813562,0.10881 -2.067466,0.0363 z m 5.622064,-8.59631 c 0.326439,-0.18136 0.471527,-0.47153 0.471527,-0.83424 0,-0.21763 -0.0363,-0.36272 -0.217632,-0.68916 -0.507798,-0.94305 -1.342044,-1.7773 -2.285097,-2.2851 -2.684081,-1.48712 -6.129854,-0.39898 -7.580715,2.35764 -0.326438,0.65289 -0.253895,1.12442 0.253904,1.45086 l 0.18136,0.14508 h 8.92275 z m 24.011635,8.56004 c -0.253903,-0.14508 -0.36271,-0.2539 -0.471526,-0.5078 -0.07251,-0.21763 -0.07251,-1.05187 -0.07251,-7.94343 v -7.7258 l 0.145087,-0.47153 c 0.181351,-0.61661 0.507799,-1.34203 0.834238,-1.7773 0.797974,-1.08813 2.031194,-1.92237 3.336966,-2.17628 1.051869,-0.21762 3.554598,-0.18135 4.425108,0.0725 1.849834,0.54407 3.300694,1.95866 3.772221,3.77222 0.253895,0.90679 0.253895,1.92239 0.0363,2.90171 -0.108816,0.5078 -0.652886,1.55967 -1.015597,1.99493 l -0.326448,0.36272 0.507799,0.21762 c 1.668483,0.7617 2.86544,2.17628 3.373238,3.98985 0.18136,0.61662 0.18136,2.14001 0.0363,2.75663 -0.580342,2.32136 -2.321369,4.02611 -4.606458,4.49764 -0.471536,0.10881 -0.834246,0.10881 -5.150538,0.10881 -4.09866,0 -4.679002,0 -4.82409,-0.0725 z m 9.793269,-1.95865 c 1.813562,-0.5078 2.974247,-2.0312 2.974247,-3.88104 0,-2.0312 -1.450852,-3.69968 -3.482046,-3.95358 -0.580342,-0.0725 -6.819021,-0.0725 -7.109188,0 -0.290167,0.0725 -0.54407,0.32644 -0.652886,0.54407 -0.07251,0.14509 -0.07251,0.87052 -0.07251,3.80849 v 3.62714 l 3.953581,-0.0363 c 3.808493,0 3.917309,0 4.388835,-0.10882 z m -2.14001,-9.97463 c 1.632211,-0.39899 2.720352,-1.92238 2.611536,-3.59086 -0.108816,-1.48713 -1.088141,-2.72036 -2.575264,-3.15561 -0.544071,-0.14509 -3.119335,-0.14509 -3.663406,0 -1.233228,0.32644 -2.176282,1.30577 -2.502729,2.50272 -0.108807,0.43525 -0.108807,0.61661 -0.108807,2.10374 v 1.63221 l 0.181351,0.21763 c 0.290175,0.36271 0.253903,0.36271 3.119335,0.36271 2.176282,0.0363 2.647808,0.0363 2.937984,-0.0725 z m 22.016713,11.897 c -0.18136,-0.0725 -0.326439,-0.21762 -0.398983,-0.39898 l -0.145088,-0.25389 V 270.4728 l 0.145088,-0.43525 c 0.326439,-1.05187 1.233229,-1.88612 2.321369,-2.14001 0.507799,-0.10882 3.55459,-0.10882 4.388827,0.0363 2.285098,0.36272 4.243757,1.34204 5.839695,2.93798 4.09866,4.0624 4.09866,10.62751 0.0363,14.6899 -1.34204,1.34204 -3.010527,2.2851 -4.751554,2.75663 -1.196948,0.29016 -1.523395,0.32644 -4.461371,0.32644 -2.647817,-0.0363 -2.720352,-0.0363 -2.974255,-0.14509 z m 5.73088,-2.06746 c 3.264422,-0.36271 5.984778,-2.61154 6.964098,-5.73087 0.29017,-0.87052 0.36271,-1.48713 0.36271,-2.46645 0,-1.16069 -0.14509,-1.95866 -0.54407,-3.01053 -0.94305,-2.46645 -3.119333,-4.38884 -5.694606,-5.04172 -0.834237,-0.21762 -1.342036,-0.2539 -3.046791,-0.21762 -1.523396,0.0363 -1.632212,0.0363 -1.777291,0.14507 -0.07251,0.0725 -0.217631,0.18136 -0.290175,0.29018 -0.108816,0.14509 -0.108816,0.18136 -0.108816,7.83462 v 7.65325 l 0.145088,0.18136 c 0.253903,0.36271 0.435254,0.39898 1.994922,0.39898 0.834246,0.0363 1.704755,0 1.994931,-0.0363 z M 45.972957,260.28056 c -13.492945,-0.72543 -24.954688,-10.55497 -27.602505,-23.64893 -1.41458,-7.07291 -0.217623,-14.50854 3.373239,-20.42077 0.290175,-0.47153 0.54407,-0.94306 0.54407,-1.05187 0,-0.10882 -0.217632,-0.47153 -0.471527,-0.87051 -1.487123,-2.21256 -3.373238,-6.92783 -3.881037,-9.64818 -0.435255,-2.32137 0.07251,-4.17121 1.305773,-4.82409 0.870509,-0.43527 2.575264,-0.43527 4.09866,0.0363 2.430185,0.76169 5.839687,2.46644 8.523767,4.31629 l 1.414589,0.97932 1.305764,-0.58034 c 6.420029,-2.97426 13.819393,-3.55459 20.747221,-1.63221 2.248825,0.61661 5.150529,1.81357 6.819012,2.82916 l 0.761702,0.47153 1.41458,-0.94306 c 2.756624,-1.81356 6.093591,-3.26442 9.104118,-3.95357 3.37323,-0.7617 5.368161,-0.29018 6.23867,1.45085 0.326439,0.65289 0.362711,0.94305 0.362711,2.53899 0,1.05187 -0.108816,2.24883 -0.290167,2.93799 -0.689158,3.04679 -2.248826,6.60139 -4.134932,9.43055 l -1.051877,1.55967 0.290175,0.54407 c 0.54407,1.05187 1.41458,3.8085 1.777299,5.6946 1.994922,9.79327 -1.051869,19.55027 -8.197329,26.40555 -5.223081,5.00545 -11.606839,7.79835 -18.969921,8.30614 -1.233229,0.0725 -2.285098,0.14509 -2.393914,0.10882 -0.07251,0.0363 -0.580342,0 -1.088141,-0.0363 z m 5.368161,-1.2695 c 1.741027,-0.21763 4.82409,-0.97932 6.528845,-1.63221 6.927828,-2.64781 12.477349,-7.68953 15.56042,-14.14583 1.523396,-3.19188 2.285089,-5.91223 2.647809,-9.57564 0.36271,-3.59086 -0.290176,-8.45122 -1.559676,-11.897 l -0.362711,-0.90678 -0.398983,0.47152 c -0.616614,0.72542 -1.342044,1.0156 -2.756624,1.08814 -0.943053,0.0363 -1.595939,0 -2.575265,-0.2539 -4.280019,-1.08814 -7.798346,-4.1712 -9.104109,-8.01597 -0.544071,-1.59594 -0.616615,-3.77222 -0.18136,-4.93291 0.326439,-0.79796 1.124413,-1.63221 1.777299,-1.77729 0.725421,-0.14508 1.160676,-0.36272 1.051869,-0.54407 -0.145088,-0.2539 -2.829168,-1.55967 -4.570195,-2.21255 -10.70005,-3.98985 -23.068582,-1.2695 -30.794384,6.81901 -3.55459,3.73595 -5.948503,8.19733 -7.036644,13.13024 -1.124413,5.11425 -0.906781,9.72072 0.689158,14.79871 2.937984,9.21292 10.51869,16.39465 19.985519,18.8611 0.870509,0.21763 2.212554,0.5078 2.937975,0.61662 1.668483,0.2539 6.347494,0.32644 8.161057,0.10881 z m -5.839687,-3.11933 c -10.155979,-0.83425 -18.02686,-6.81902 -21.907897,-16.64856 -0.761703,-1.95865 -1.523405,-4.78782 -1.813572,-6.81902 -0.54407,-3.84476 0.87051,-9.68445 3.482055,-14.21836 1.632211,-2.86544 4.425107,-6.02105 6.9641,-7.94344 2.865431,-2.14001 6.528845,-3.84476 10.482418,-4.86036 2.575273,-0.65288 3.191878,-0.68915 1.668483,-0.0725 -4.606459,1.88612 -8.052241,4.17121 -11.026488,7.21801 -4.026125,4.20747 -5.984775,9.21292 -5.585793,14.29091 0.145088,1.70475 0.18136,1.74102 1.051869,1.37831 1.559668,-0.65288 4.098669,-0.90678 5.767144,-0.5078 3.518326,0.83424 7.072916,3.77223 10.264794,8.56004 2.212554,3.26443 4.533924,4.71528 7.653259,4.71528 6.746477,0 14.363463,-7.65325 16.249569,-16.35838 0.07251,-0.39899 0.18136,-0.79797 0.253904,-1.19696 0.07251,-0.32644 0.145079,-0.32644 1.051869,-0.2539 0.54407,0.0363 1.088141,0.14509 1.23322,0.21763 0.253903,0.14509 0.72543,1.55967 1.160685,3.55459 0.181359,0.87052 0.253903,1.95866 0.253903,4.42511 0,2.82917 -0.0363,3.48205 -0.326447,4.82409 -0.507799,2.32137 -1.015597,3.80849 -2.14001,6.05732 -2.393905,4.89663 -6.42003,8.81394 -11.498015,11.20785 -2.937984,1.37831 -5.622064,2.10373 -8.959031,2.39391 -1.95865,0.21762 -2.212553,0.21762 -4.280019,0.0363 z M 72.269699,220.3458 c 0.943053,-0.47154 1.559667,-1.12442 2.901703,-3.08307 3.663414,-5.47698 5.186809,-12.94888 2.974256,-14.87126 -1.632212,-1.41458 -5.440705,-0.90678 -10.083444,1.37831 -3.010519,1.48712 -5.948503,3.62714 -6.891556,5.04172 -2.14001,3.22815 0.471526,8.77767 5.259345,11.13531 2.031202,1.05186 4.280028,1.19695 5.839696,0.39899 z M 68.7151,219.72918 c -1.922378,-0.47152 -4.171204,-1.88611 -4.860362,-3.11934 -1.124413,-1.95865 0,-3.26442 5.223082,-6.12986 7.000372,-3.84476 7.834609,-4.4251 8.269864,-5.6946 0.145087,-0.43526 0.362719,-0.7617 0.471526,-0.7617 0.290176,0 0.616615,1.41458 0.507799,2.24883 -0.253895,2.03119 -1.632212,6.23867 -2.82916,8.63258 -0.834246,1.66849 -1.813571,3.08307 -2.756624,3.95357 -1.233229,1.12442 -2.176282,1.30578 -4.026125,0.87052 z m -45.37547,-5.9485 c 0.18136,-0.2539 0.326447,-0.5078 0.326447,-0.54407 0,-0.0725 -0.217631,-0.43526 -0.471526,-0.79797 -0.72543,-1.05187 -1.922387,-3.66341 -2.539001,-5.51325 -0.943054,-2.82916 -1.088141,-4.67901 -0.398983,-4.89664 0.580342,-0.18135 3.844765,1.7773 7.471898,4.42511 l 1.668484,1.23323 1.196957,-0.79797 c 0.652877,-0.43526 1.196956,-0.83424 1.160684,-0.90679 -0.0363,-0.18136 -1.704755,-1.48712 -3.482054,-2.68408 -3.191879,-2.14001 -5.041722,-2.86543 -6.9641,-2.72035 -2.611537,0.18136 -3.046791,2.72035 -1.342045,7.79835 0.435264,1.30576 1.994931,4.60646 2.575274,5.51325 0.290166,0.43525 0.398982,0.43525 0.797965,-0.10882 z m 53.24636,5.62206 c -0.0363,-0.14508 -0.0363,-0.32644 0.07251,-0.39899 0.253894,-0.25389 0.725421,-0.0725 0.761693,0.25391 0.0363,0.29016 0.0363,0.29016 -0.108816,0 -0.108816,-0.25391 -0.145079,-0.25391 -0.145079,-0.0725 0,0.36271 -0.471535,0.54407 -0.580342,0.21762 z m 0.217623,-0.2539 c -0.0363,-0.10882 -0.07251,-0.0725 -0.108816,0.10882 0,0.18135 0.0363,0.25389 0.07251,0.21762 0.0363,-0.0363 0.07251,-0.21762 0.0363,-0.32644 z"
       class="st0"
       inkscape:connector-curvature="0"
       style="fill:#222d42;stroke-width:0.36271361;fill-opacity:1" />
  </g>
  <style
     id="style2151">.st0{fill:red}</style>
</svg>
