<?xml version="1.0" encoding="UTF-8" standalone="no"?>
<!-- Created with Inkscape (http://www.inkscape.org/) -->

<svg
   xmlns:dc="http://purl.org/dc/elements/1.1/"
   xmlns:cc="http://creativecommons.org/ns#"
   xmlns:rdf="http://www.w3.org/1999/02/22-rdf-syntax-ns#"
   xmlns:svg="http://www.w3.org/2000/svg"
   xmlns="http://www.w3.org/2000/svg"
   xmlns:sodipodi="http://sodipodi.sourceforge.net/DTD/sodipodi-0.dtd"
   xmlns:inkscape="http://www.inkscape.org/namespaces/inkscape"
   width="400"
   height="400"
   viewBox="0 0 105.83333 105.83334"
   version="1.1"
   id="svg8"
   inkscape:version="0.92.5 (2060ec1f9f, 2020-04-08)"
   sodipodi:docname="rocky-logo.svg">
  <defs
     id="defs2">
    <rect
       id="rect23901"
       height="245.6882"
       width="656.25759"
       y="109.49711"
       x="322.7081" />
    <rect
       id="rect8253"
       height="206.15028"
       width="568.74967"
       y="115.26738"
       x="319.14754" />
  </defs>
  <sodipodi:namedview
     id="base"
     pagecolor="#ffffff"
     bordercolor="#666666"
     borderopacity="1.0"
     inkscape:pageopacity="0.0"
     inkscape:pageshadow="2"
     inkscape:zoom="0.7"
     inkscape:cx="122.90378"
     inkscape:cy="313.60973"
     inkscape:document-units="px"
     inkscape:current-layer="layer1"
     showgrid="false"
     inkscape:window-width="1848"
     inkscape:window-height="1016"
     inkscape:window-x="72"
     inkscape:window-y="27"
     inkscape:window-maximized="1"
     units="px" />
  <metadata
     id="metadata5">
    <rdf:RDF>
      <cc:Work
         rdf:about="">
        <dc:format>image/svg+xml</dc:format>
        <dc:type
           rdf:resource="http://purl.org/dc/dcmitype/StillImage" />
        <dc:title></dc:title>
      </cc:Work>
    </rdf:RDF>
  </metadata>
  <g
     inkscape:label="Calque 1"
     inkscape:groupmode="layer"
     id="layer1"
     transform="translate(0,-191.16665)">
    <g
       id="g878"
       transform="matrix(0.11746085,0,0,0.11746085,-0.39770453,219.12997)"
       style="fill:#222d42;fill-opacity:1">
      <text
         style="font-style:normal;font-variant:normal;font-weight:normal;font-stretch:normal;font-size:40px;line-height:1.25;font-family:'Rocky Display';-inkscape-font-specification:'Rocky Display';white-space:pre;shape-inside:url(#rect8253);fill:#222d42;fill-opacity:1;stroke:none"
         id="text8251"
         xml:space="preserve" />
      <g
         style="font-weight:900;font-size:128px;line-height:1.25;font-family:'Rocky Display';-inkscape-font-specification:'Rocky Display Heavy';white-space:pre;shape-inside:url(#rect23901);fill:#222d42;fill-opacity:1"
         id="text23899"
         transform="translate(-76.526421,-18.110047)"
         aria-label="Rocky ">
        <path
           d="m 199.47266,114.70312 c -61.27427,2e-5 -110.945316,49.67303 -110.945316,110.94727 0,30.31857 12.160316,57.79755 31.871096,77.82227 l 112.54101,-112.54102 27.78516,27.78516 43.52148,43.51953 c 3.99988,-11.45528 6.17383,-23.76578 6.17383,-36.58594 0,-61.27424 -49.67337,-110.94727 -110.94726,-110.94727 z m 559.50195,28.81446 -34.56055,7.4668 v 149.33203 h 34.56055 v -50.56055 l 43.30664,50.56055 h 43.73242 l -53.54687,-61.86719 50.13476,-50.98633 h -38.61328 l -45.01367,46.08008 z m -423.89258,7.4668 v 149.33203 h 36.69336 v -54.40039 h 27.94727 l 28.16015,54.40039 h 40.95899 l -32.64063,-59.73243 c 8.3911,-3.83999 15.14759,-9.45796 20.26758,-16.85351 5.11999,-7.39554 7.67969,-15.78718 7.67969,-25.17383 0,-6.96888 -1.35052,-13.36812 -4.05274,-19.19922 -2.55999,-5.8311 -6.18753,-10.80915 -10.88086,-14.93359 -4.5511,-4.26666 -10.09646,-7.5389 -16.63867,-9.81445 -6.39999,-2.41778 -13.44111,-3.62501 -21.12109,-3.625 z m 36.69336,31.35937 h 36.26758 c 5.68888,0 10.23902,1.56447 13.65234,4.69336 3.55556,3.12888 5.33399,7.18238 5.33399,12.16016 0,4.97776 -1.77843,9.03127 -5.33399,12.16015 -3.41332,3.12889 -7.96346,4.69336 -13.65234,4.69336 h -36.26758 z m 159.14649,2.98633 c -8.53332,0 -16.56966,1.56448 -24.10743,4.69336 -7.39554,2.98666 -13.86545,7.11083 -19.41211,12.37304 -5.40443,5.26222 -9.74256,11.52012 -13.01367,18.77344 -3.12888,7.1111 -4.69336,14.71952 -4.69336,22.82617 0,8.10666 1.56448,15.7877 4.69336,23.04102 3.27111,7.1111 7.60924,13.29638 13.01367,18.55859 5.54666,5.26222 12.01657,9.38834 19.41211,12.375 7.53777,2.98666 15.5741,4.47852 24.10743,4.47852 8.53332,0 16.49703,-1.49186 23.89257,-4.47852 7.53777,-2.98666 14.00963,-7.11278 19.41407,-12.375 5.54666,-5.26221 9.88479,-11.44749 13.01367,-18.55859 3.2711,-7.25332 4.90625,-14.93436 4.90625,-23.04102 0,-8.10665 -1.63515,-15.71507 -4.90625,-22.82617 -3.12888,-7.25332 -7.46701,-13.51122 -13.01367,-18.77344 -5.40444,-5.26221 -11.8763,-9.38638 -19.41407,-12.37304 -7.39554,-3.12888 -15.35925,-4.69336 -23.89257,-4.69336 z m 133.11914,0 c -8.3911,0 -16.28415,1.56448 -23.67969,4.69336 -7.25332,2.98666 -13.5819,7.11083 -18.98633,12.37304 -5.26221,5.12 -9.459,11.30723 -12.58789,18.56055 -2.98666,7.1111 -4.47852,14.79018 -4.47852,23.03906 0,8.24888 1.49186,15.92992 4.47852,23.04102 3.12889,7.1111 7.32568,13.29638 12.58789,18.55859 5.40443,5.26222 11.73301,9.38834 18.98633,12.375 7.39554,2.98666 15.28859,4.47852 23.67969,4.47852 8.95998,0 17.56362,-1.77648 25.8125,-5.33203 8.24887,-3.69777 15.21932,-8.81912 20.9082,-15.36133 l -20.48047,-21.33203 c -3.69777,4.12444 -7.53731,7.18077 -11.51953,9.17187 -3.98221,1.99111 -8.32035,2.98828 -13.01367,2.98828 -7.67999,0 -14.15185,-2.70298 -19.41407,-8.10742 -5.11999,-5.54666 -7.67968,-12.37381 -7.67968,-20.48047 0,-8.10665 2.48903,-14.93185 7.46679,-20.47851 5.12,-5.54666 11.37789,-8.32031 18.77344,-8.32031 4.97777,0 9.5279,1.06588 13.65235,3.19921 4.12443,2.13333 8.17794,5.40557 12.16015,9.81446 l 21.12109,-21.97461 c -5.8311,-6.54222 -12.94289,-11.6616 -21.33398,-15.35938 -8.3911,-3.69776 -17.2087,-5.54687 -26.45312,-5.54687 z m 178.77148,2.13281 43.30664,114.34766 v 0.21289 c -1.84889,4.83554 -4.69321,8.46113 -8.5332,10.8789 -3.84,2.41778 -8.4608,3.62696 -13.86524,3.62696 -2.27555,0 -4.26794,-0.0707 -5.97461,-0.21289 -1.56444,-0.14222 -3.12892,-0.35618 -4.69336,-0.64063 v 29.44141 c 1.70666,0.42666 3.84039,0.71129 6.40039,0.85351 2.56,0.28444 5.19036,0.42578 7.89258,0.42578 13.51109,0 24.39175,-3.05828 32.64063,-9.17382 8.24887,-6.11555 15.502,-16.49762 21.75976,-31.14649 L 972.30664,187.46289 H 934.97266 L 905.95898,258.50391 881,187.46289 Z m -311.89062,27.73438 c 7.67998,0 14.14988,2.77365 19.4121,8.32031 5.40444,5.54666 8.10743,12.37186 8.10743,20.47851 0,7.96444 -2.70299,14.72093 -8.10743,20.26758 -5.26222,5.54666 -11.73212,8.32031 -19.4121,8.32031 -7.67999,0 -14.22252,-2.77365 -19.62696,-8.32031 -5.26221,-5.54665 -7.89258,-12.30314 -7.89258,-20.26758 0,-8.10665 2.63037,-14.93185 7.89258,-20.47851 5.40444,-5.54666 11.94697,-8.32031 19.62696,-8.32031 z m -297.98243,31.30468 -79.92773,79.92774 c 14.13313,6.52618 29.87148,10.16797 46.46094,10.16797 33.84806,0 64.15833,-15.15797 84.50781,-39.05664 z"
           inkscape:original="M 199.47266 114.70312 C 138.19839 114.70314 88.527344 164.37615 88.527344 225.65039 C 88.527344 255.96896 100.68766 283.44794 120.39844 303.47266 L 232.93945 190.93164 L 260.72461 218.7168 L 304.24609 262.23633 C 308.24597 250.78105 310.41992 238.47055 310.41992 225.65039 C 310.41992 164.37615 260.74655 114.70312 199.47266 114.70312 z M 758.97461 143.51758 L 724.41406 150.98438 L 724.41406 300.31641 L 758.97461 300.31641 L 758.97461 249.75586 L 802.28125 300.31641 L 846.01367 300.31641 L 792.4668 238.44922 L 842.60156 187.46289 L 803.98828 187.46289 L 758.97461 233.54297 L 758.97461 143.51758 z M 335.08203 150.98438 L 335.08203 300.31641 L 371.77539 300.31641 L 371.77539 245.91602 L 399.72266 245.91602 L 427.88281 300.31641 L 468.8418 300.31641 L 436.20117 240.58398 C 444.59227 236.74399 451.34876 231.12602 456.46875 223.73047 C 461.58874 216.33493 464.14844 207.94329 464.14844 198.55664 C 464.14844 191.58776 462.79792 185.18852 460.0957 179.35742 C 457.53571 173.52632 453.90817 168.54827 449.21484 164.42383 C 444.66374 160.15717 439.11838 156.88493 432.57617 154.60938 C 426.17618 152.1916 419.13506 150.98437 411.45508 150.98438 L 335.08203 150.98438 z M 371.77539 182.34375 L 408.04297 182.34375 C 413.73185 182.34375 418.28199 183.90822 421.69531 187.03711 C 425.25087 190.16599 427.0293 194.21949 427.0293 199.19727 C 427.0293 204.17503 425.25087 208.22854 421.69531 211.35742 C 418.28199 214.48631 413.73185 216.05078 408.04297 216.05078 L 371.77539 216.05078 L 371.77539 182.34375 z M 530.92188 185.33008 C 522.38856 185.33008 514.35222 186.89456 506.81445 190.02344 C 499.41891 193.0101 492.949 197.13427 487.40234 202.39648 C 481.99791 207.6587 477.65978 213.9166 474.38867 221.16992 C 471.25979 228.28102 469.69531 235.88944 469.69531 243.99609 C 469.69531 252.10275 471.25979 259.78379 474.38867 267.03711 C 477.65978 274.14821 481.99791 280.33349 487.40234 285.5957 C 492.949 290.85792 499.41891 294.98404 506.81445 297.9707 C 514.35222 300.95736 522.38855 302.44922 530.92188 302.44922 C 539.4552 302.44922 547.41891 300.95736 554.81445 297.9707 C 562.35222 294.98404 568.82408 290.85792 574.22852 285.5957 C 579.77518 280.33349 584.11331 274.14821 587.24219 267.03711 C 590.51329 259.78379 592.14844 252.10275 592.14844 243.99609 C 592.14844 235.88944 590.51329 228.28102 587.24219 221.16992 C 584.11331 213.9166 579.77518 207.6587 574.22852 202.39648 C 568.82408 197.13427 562.35222 193.0101 554.81445 190.02344 C 547.41891 186.89456 539.4552 185.33008 530.92188 185.33008 z M 664.04102 185.33008 C 655.64992 185.33008 647.75687 186.89456 640.36133 190.02344 C 633.10801 193.0101 626.77943 197.13427 621.375 202.39648 C 616.11279 207.51648 611.916 213.70371 608.78711 220.95703 C 605.80045 228.06813 604.30859 235.74721 604.30859 243.99609 C 604.30859 252.24497 605.80045 259.92601 608.78711 267.03711 C 611.916 274.14821 616.11279 280.33349 621.375 285.5957 C 626.77943 290.85792 633.10801 294.98404 640.36133 297.9707 C 647.75687 300.95736 655.64992 302.44922 664.04102 302.44922 C 673.001 302.44922 681.60464 300.67274 689.85352 297.11719 C 698.10239 293.41942 705.07284 288.29807 710.76172 281.75586 L 690.28125 260.42383 C 686.58348 264.54827 682.74394 267.6046 678.76172 269.5957 C 674.77951 271.58681 670.44137 272.58398 665.74805 272.58398 C 658.06806 272.58398 651.5962 269.881 646.33398 264.47656 C 641.21399 258.9299 638.6543 252.10275 638.6543 243.99609 C 638.6543 235.88944 641.14333 229.06424 646.12109 223.51758 C 651.24109 217.97092 657.49898 215.19727 664.89453 215.19727 C 669.8723 215.19727 674.42243 216.26315 678.54688 218.39648 C 682.67131 220.52981 686.72482 223.80205 690.70703 228.21094 L 711.82812 206.23633 C 705.99702 199.69411 698.88523 194.57473 690.49414 190.87695 C 682.10304 187.17919 673.28544 185.33008 664.04102 185.33008 z M 842.8125 187.46289 L 886.11914 301.81055 L 886.11914 302.02344 C 884.27025 306.85898 881.42593 310.48457 877.58594 312.90234 C 873.74594 315.32012 869.12514 316.5293 863.7207 316.5293 C 861.44515 316.5293 859.45276 316.45863 857.74609 316.31641 C 856.18165 316.17419 854.61717 315.96023 853.05273 315.67578 L 853.05273 345.11719 C 854.75939 345.54385 856.89312 345.82848 859.45312 345.9707 C 862.01312 346.25514 864.64348 346.39648 867.3457 346.39648 C 880.85679 346.39648 891.73745 343.3382 899.98633 337.22266 C 908.2352 331.10711 915.48833 320.72504 921.74609 306.07617 L 972.30664 187.46289 L 934.97266 187.46289 L 905.95898 258.50391 L 881 187.46289 L 842.8125 187.46289 z M 530.92188 215.19727 C 538.60186 215.19727 545.07176 217.97092 550.33398 223.51758 C 555.73842 229.06424 558.44141 235.88944 558.44141 243.99609 C 558.44141 251.96053 555.73842 258.71702 550.33398 264.26367 C 545.07176 269.81033 538.60186 272.58398 530.92188 272.58398 C 523.24189 272.58398 516.69936 269.81033 511.29492 264.26367 C 506.03271 258.71702 503.40234 251.96053 503.40234 243.99609 C 503.40234 235.88944 506.03271 229.06424 511.29492 223.51758 C 516.69936 217.97092 523.24189 215.19727 530.92188 215.19727 z M 232.93945 246.50195 L 153.01172 326.42969 C 167.14485 332.95587 182.8832 336.59766 199.47266 336.59766 C 233.32072 336.59766 263.63099 321.43969 283.98047 297.54102 L 232.93945 246.50195 z "
           inkscape:radius="0"
           sodipodi:type="inkscape:offset"
           style="font-size:213.33299255px;fill:#222d42;fill-opacity:1"
           id="path1585" />
      </g>
    </g>
  </g>
</svg>
