<?xml version="1.0" encoding="UTF-8" standalone="no"?>
<!-- Created with Inkscape (http://www.inkscape.org/) -->

<svg
   xmlns:dc="http://purl.org/dc/elements/1.1/"
   xmlns:cc="http://creativecommons.org/ns#"
   xmlns:rdf="http://www.w3.org/1999/02/22-rdf-syntax-ns#"
   xmlns:svg="http://www.w3.org/2000/svg"
   xmlns="http://www.w3.org/2000/svg"
   xmlns:xlink="http://www.w3.org/1999/xlink"
   xmlns:sodipodi="http://sodipodi.sourceforge.net/DTD/sodipodi-0.dtd"
   xmlns:inkscape="http://www.inkscape.org/namespaces/inkscape"
   width="400"
   height="400"
   viewBox="0 0 105.83333 105.83334"
   version="1.1"
   id="svg8"
   inkscape:version="0.92.3 (2405546, 2018-03-11)"
   sodipodi:docname="slackware-logo.svg">
  <defs
     id="defs2">
    <inkscape:path-effect
       effect="spiro"
       id="path-effect29672-0"
       is_visible="true" />
    <inkscape:path-effect
       effect="spiro"
       id="path-effect29678-1"
       is_visible="true" />
    <inkscape:path-effect
       effect="spiro"
       id="path-effect29678-4-6"
       is_visible="true" />
    <inkscape:path-effect
       effect="spiro"
       id="path-effect28714-5"
       is_visible="true" />
    <inkscape:path-effect
       effect="spiro"
       id="path-effect29721-2"
       is_visible="true" />
    <inkscape:path-effect
       effect="spiro"
       id="path-effect28463-8-0"
       is_visible="true" />
    <inkscape:path-effect
       effect="spiro"
       id="path-effect28463-0-7"
       is_visible="true" />
    <linearGradient
       id="linearGradient28799-5-5">
      <stop
         style="stop-color:#fefefc;stop-opacity:1;"
         offset="0"
         id="stop28801-1-9" />
      <stop
         id="stop28807-2-6"
         offset="0.75733864"
         style="stop-color:#fefefc;stop-opacity:1" />
      <stop
         style="stop-color:#d4d4d4;stop-opacity:1"
         offset="1"
         id="stop28803-6-3" />
    </linearGradient>
    <inkscape:path-effect
       effect="spiro"
       id="path-effect28797-8-1"
       is_visible="true" />
    <inkscape:path-effect
       effect="spiro"
       id="path-effect28797-81"
       is_visible="true" />
    <inkscape:path-effect
       effect="spiro"
       id="path-effect28273-4-2"
       is_visible="true" />
    <linearGradient
       id="linearGradient28853-5">
      <stop
         style="stop-color:#020204;stop-opacity:1"
         offset="0"
         id="stop28855-3" />
      <stop
         id="stop28865-0"
         offset="0.73448181"
         style="stop-color:#020204;stop-opacity:1" />
      <stop
         style="stop-color:#5c5c5c;stop-opacity:1;"
         offset="1"
         id="stop28857-9" />
    </linearGradient>
    <inkscape:path-effect
       effect="spiro"
       id="path-effect28851-0"
       is_visible="true" />
    <inkscape:path-effect
       effect="spiro"
       id="path-effect28881-6"
       is_visible="true" />
    <linearGradient
       id="linearGradient28935-8">
      <stop
         style="stop-color:#949494;stop-opacity:0.39215687;"
         offset="0"
         id="stop28937-7" />
      <stop
         id="stop28943-3"
         offset="0.5"
         style="stop-color:#949494;stop-opacity:1;" />
      <stop
         style="stop-color:#949494;stop-opacity:0.39215687;"
         offset="1"
         id="stop28939-8" />
    </linearGradient>
    <linearGradient
       id="linearGradient28976-3">
      <stop
         style="stop-color:#747474;stop-opacity:1"
         offset="0"
         id="stop28978-7" />
      <stop
         id="stop29259-5"
         offset="0.125"
         style="stop-color:#8c8c8c;stop-opacity:1;" />
      <stop
         id="stop29257-0"
         offset="0.25"
         style="stop-color:#a4a4a4;stop-opacity:1;" />
      <stop
         id="stop28984-4"
         offset="0.5"
         style="stop-color:#d4d4d4;stop-opacity:1" />
      <stop
         style="stop-color:#d4d4d4;stop-opacity:1"
         offset="0.61919296"
         id="stop28986-0" />
      <stop
         style="stop-color:#7c7c7c;stop-opacity:1"
         offset="1"
         id="stop28980-2" />
    </linearGradient>
    <inkscape:path-effect
       effect="spiro"
       id="path-effect28974-8"
       is_visible="true" />
    <clipPath
       clipPathUnits="userSpaceOnUse"
       id="clipPath29028-5">
      <path
         style="fill:url(#radialGradient29032);fill-opacity:1;stroke:none"
         d="m 85.75,122.36218 c -2.780425,1.91023 -5.110569,4.57487 -6.25,7.75 -1.436029,4.00163 -0.885838,8.48071 0.5,12.5 1.419488,4.11688 3.793788,8.04098 7.37932,10.51234 1.792766,1.23567 3.868091,2.08301 6.030402,2.33859 2.162311,0.25558 4.409274,-0.0949 6.340278,-1.10093 2.35312,-1.22596 4.14782,-3.37278 5.26217,-5.78076 1.11436,-2.40798 1.5888,-5.0701 1.73783,-7.71924 0.18989,-3.37546 -0.14047,-6.80646 -1.25,-10 -1.20527,-3.46909 -3.39005,-6.67055 -6.472754,-8.6666 -1.541351,-0.99803 -3.291947,-1.68356 -5.110883,-1.93515 -1.818936,-0.25158 -3.704766,-0.0633 -5.416363,0.60175 -0.975471,0.37901 -1.887438,0.9074 -2.75,1.5"
         id="path29030-7"
         inkscape:original-d="m 85.75,122.36218 c -2.54738,2.12715 -5.20812,4.59907 -6.25,7.75 -1.30914,3.95917 -1.63336,8.91703 0.5,12.5 3.91901,6.58194 12.38353,13.85135 19.75,11.75 4.87452,-1.3905 6.10748,-8.51023 7,-13.5 0.59149,-3.30679 0.59578,-7.19325 -1.25,-10 -3.61233,-5.49303 -10.4265,-9.89357 -17,-10 -1.04403,-0.0169 -1.94852,0.83074 -2.75,1.5 z"
         inkscape:connector-curvature="0"
         sodipodi:nodetypes="aaaaaaaa" />
    </clipPath>
    <linearGradient
       id="linearGradient29336-6">
      <stop
         style="stop-color:#646464;stop-opacity:0"
         offset="0"
         id="stop29338-1" />
      <stop
         id="stop29344-7"
         offset="0.30628255"
         style="stop-color:#646464;stop-opacity:0.5825243" />
      <stop
         style="stop-color:#646464;stop-opacity:1"
         offset="0.47000006"
         id="stop29354-5" />
      <stop
         id="stop29356-3"
         offset="0.72834015"
         style="stop-color:#646464;stop-opacity:0.25728154" />
      <stop
         style="stop-color:#646464;stop-opacity:0;"
         offset="1"
         id="stop29340-6" />
    </linearGradient>
    <inkscape:path-effect
       effect="spiro"
       id="path-effect29455-3"
       is_visible="true" />
    <linearGradient
       id="linearGradient29477-3">
      <stop
         style="stop-color:#757574;stop-opacity:0"
         offset="0"
         id="stop29479-5" />
      <stop
         id="stop29487-5"
         offset="0.26291031"
         style="stop-color:#757574;stop-opacity:1;" />
      <stop
         id="stop29485-0"
         offset="0.5"
         style="stop-color:#757574;stop-opacity:1;" />
      <stop
         style="stop-color:#757574;stop-opacity:0"
         offset="1"
         id="stop29481-3" />
    </linearGradient>
    <linearGradient
       id="linearGradient28469-0">
      <stop
         id="stop28479-4"
         offset="0"
         style="stop-color:#d2940a;stop-opacity:1" />
      <stop
         id="stop28477-2"
         offset="0.75143719"
         style="stop-color:#d89c08;stop-opacity:1" />
      <stop
         style="stop-color:#b67e07;stop-opacity:1;"
         offset="0.86579126"
         id="stop28485-7" />
      <stop
         style="stop-color:#946106;stop-opacity:1"
         offset="1"
         id="stop28473-1" />
    </linearGradient>
    <inkscape:path-effect
       effect="spiro"
       id="path-effect28463-4"
       is_visible="true" />
    <inkscape:path-effect
       effect="spiro"
       id="path-effect28489-4"
       is_visible="true" />
    <inkscape:path-effect
       effect="spiro"
       id="path-effect28273-54-7"
       is_visible="true" />
    <linearGradient
       id="linearGradient28275-8">
      <stop
         style="stop-color:#ad780a;stop-opacity:1"
         offset="0"
         id="stop28277-1" />
      <stop
         id="stop28291-9"
         offset="0.11972899"
         style="stop-color:#d89e08;stop-opacity:1" />
      <stop
         id="stop28289-6"
         offset="0.25514477"
         style="stop-color:#edb80b;stop-opacity:1" />
      <stop
         id="stop28287-6"
         offset="0.39194193"
         style="stop-color:#ebc80d;stop-opacity:1" />
      <stop
         id="stop28285-7"
         offset="0.52741116"
         style="stop-color:#f5d838;stop-opacity:1" />
      <stop
         id="stop28283-7"
         offset="0.76906693"
         style="stop-color:#f6d811;stop-opacity:1" />
      <stop
         style="stop-color:#f5cd31;stop-opacity:1"
         offset="1"
         id="stop28279-5" />
    </linearGradient>
    <inkscape:path-effect
       effect="spiro"
       id="path-effect28273-44"
       is_visible="true" />
    <inkscape:path-effect
       effect="spiro"
       id="path-effect28384-7"
       is_visible="true" />
    <linearGradient
       id="linearGradient29529-6">
      <stop
         style="stop-color:#3a2903;stop-opacity:1;"
         offset="0"
         id="stop29531-0" />
      <stop
         id="stop29539-7"
         offset="0.55472803"
         style="stop-color:#735208;stop-opacity:1" />
      <stop
         style="stop-color:#ac8c04;stop-opacity:1"
         offset="1"
         id="stop29533-8" />
    </linearGradient>
    <inkscape:path-effect
       effect="spiro"
       id="path-effect29553-7"
       is_visible="true" />
    <clipPath
       clipPathUnits="userSpaceOnUse"
       id="clipPath29644-8">
      <path
         style="fill:url(#radialGradient29648);fill-opacity:1;stroke:none"
         d="m 54.232441,122.36218 c -1.780966,0.097 -3.484616,0.91899 -4.787851,2.1367 -1.303235,1.21771 -2.221372,2.81176 -2.786181,4.50357 -1.129618,3.38363 -0.875481,7.05177 -0.618698,10.60973 0.23251,3.22162 0.470404,6.50533 1.676785,9.50158 0.60319,1.49813 1.450247,2.91021 2.580338,4.06395 1.130092,1.15374 2.551736,2.04189 4.118297,2.43447 1.468838,0.36809 3.038161,0.29183 4.482784,-0.16209 1.444623,-0.45391 2.763917,-1.27887 3.846236,-2.33791 1.57904,-1.54507 2.643262,-3.5662 3.253449,-5.68947 0.610186,-2.12328 0.784157,-4.35155 0.752401,-6.56053 -0.03974,-2.76435 -0.400909,-5.53851 -1.265755,-8.16439 -0.864846,-2.62588 -2.245742,-5.10327 -4.172795,-7.08561 -0.933308,-0.96009 -1.997766,-1.80513 -3.198586,-2.39747 -1.200819,-0.59233 -2.54344,-0.92535 -3.880424,-0.85253"
         id="path29646-8"
         inkscape:original-d="m 54.232441,122.36218 c -3.79199,4.78949 -8.5176,11.69104 -8.19273,17.25 0.32487,5.55896 3.86025,13.93486 8.37542,16 4.51517,2.06514 5.75436,0.0125 8.32902,-2.5 2.57466,-2.51247 3.85871,-7.34762 4.00585,-12.25 0.14713,-4.90238 -3.03534,-11.91949 -5.43855,-15.25 -2.40321,-3.33051 -3.28702,-8.03949 -7.07901,-3.25 z"
         inkscape:connector-curvature="0"
         sodipodi:nodetypes="zzzzzzz" />
    </clipPath>
    <inkscape:path-effect
       effect="spiro"
       id="path-effect29707-7-6"
       is_visible="true" />
    <clipPath
       id="clipPath14656-7"
       clipPathUnits="userSpaceOnUse">
      <path
         style="fill:none;stroke:#c17d11;stroke-width:1px;stroke-linecap:butt;stroke-linejoin:miter;stroke-opacity:1"
         inkscape:original-d="m 304.84727,225.44951 c 5.05628,5.63479 9.72833,12.47181 10.94319,20.00305 1.91724,11.88535 -4.97006,23.58228 -6.44591,35.53273 -0.57645,4.66766 -2.84839,9.7988 -0.93525,14.08107 1.10334,2.46967 3.76154,4.35176 6.36677,4.92292 5.08221,1.1142 11.95719,2.41291 15.20182,-3.54776 6.07775,-11.16533 10.5961,-26.78641 9.45943,-38.64224 -0.906,-9.44981 -3.86858,-18.61978 -7.74003,-27.40773 -2.817,-6.39442 -6.14704,-12.5833 -9.61753,-18.52016 -3.44146,-5.88721 -8.20051,-10.94245 -13.10336,-15.63502 -6.34842,-6.07614 -12.40311,-17.98386 -20.89399,-15.99204 -5.48499,1.28669 -7.45029,9.57719 -7.69578,15.30218 -0.17245,4.02188 2.46425,7.71677 4.46569,11.18873 2.26238,3.92465 5.10447,7.56255 8.38442,10.65407 3.43735,3.23988 8.4511,4.53927 11.61053,8.0602 z"
         id="path14658-9"
         d="m 304.84727,225.44951 c 6.01627,4.92338 9.77707,12.317 10.94319,20.00305 1.8254,12.03148 -2.34636,24.07488 -6.44591,35.53273 -0.81749,2.28481 -1.63978,4.59033 -1.96473,6.99513 -0.32495,2.4048 -0.11897,4.94825 1.02948,7.08594 1.30279,2.42497 3.73227,4.12469 6.36677,4.92292 2.58877,0.78438 5.39365,0.76103 8.01466,0.0922 2.62101,-0.66882 5.06097,-1.96774 7.18716,-3.63996 5.48002,-4.30997 8.75799,-10.98552 10.01043,-17.84394 1.25243,-6.85841 0.63908,-13.92879 -0.551,-20.7983 -1.62313,-9.36916 -4.30898,-18.53961 -7.74003,-27.40773 -2.51766,-6.50732 -5.46794,-12.91081 -9.61753,-18.52016 -4.04611,-5.46946 -9.16208,-10.08954 -13.10336,-15.63502 -2.73209,-3.84412 -4.89983,-8.13097 -8.1917,-11.50812 -1.64594,-1.68858 -3.57654,-3.13527 -5.76975,-4.00143 -2.19321,-0.86616 -4.66356,-1.12446 -6.93254,-0.48249 -1.50468,0.42573 -2.89193,1.23739 -4.03791,2.30136 -1.14598,1.06397 -2.05268,2.37637 -2.69275,3.80312 -1.28015,2.85349 -1.47719,6.11241 -0.96512,9.1977 0.66114,3.98343 2.44407,7.69333 4.46569,11.18873 2.27396,3.93169 4.918,7.71926 8.38442,10.65407 3.5985,3.04664 7.96161,5.07413 11.61053,8.0602"
         inkscape:connector-curvature="0"
         sodipodi:nodetypes="aaaaassssaaaaaa" />
    </clipPath>
    <inkscape:path-effect
       effect="spiro"
       id="path-effect4500-7"
       is_visible="true" />
    <inkscape:path-effect
       effect="spiro"
       id="path-effect4582-3"
       is_visible="true" />
    <inkscape:path-effect
       is_visible="true"
       id="path-effect14300-7"
       effect="spiro" />
    <clipPath
       id="clipPath14489-3"
       clipPathUnits="userSpaceOnUse">
      <path
         inkscape:original-d="m 516.00562,331.8756 c 0.90859,1.59687 -1.57016,3.38773 -2.81579,4.73826 -2.74207,2.97299 -6.45099,4.90178 -9.89648,7.01985 -5.91373,3.63539 -12.61918,5.90302 -18.41964,9.71654 -3.88318,2.553 -7.32809,5.72221 -10.86016,8.74238 -3.0221,2.58411 -5.48201,5.87643 -8.83247,8.01771 -3.3519,2.1422 -7.0437,4.15414 -10.99061,4.6502 -4.78298,0.60114 -9.87221,-0.25577 -14.29898,-2.16416 -3.0947,-1.33413 -6.16113,-3.38144 -7.96301,-6.22931 -1.81288,-2.86525 -2.06093,-6.5375 -2.23266,-9.92375 -0.30734,-6.06031 1.36252,-12.0605 2.17848,-18.07349 0.67882,-5.00236 1.85312,-9.94325 2.26013,-14.97502 0.73946,-9.14185 -0.7797,-18.40771 0.3199,-27.51327 0.35468,-2.93704 -0.181,-6.65876 2.01238,-8.64398 2.0384,-1.84494 5.43058,-1.1212 8.17929,-1.06253 3.34492,0.0714 6.63224,0.95108 9.88917,1.71656 2.05612,0.48325 3.99816,1.41138 6.0722,1.81081 3.44031,0.66255 6.96573,1.06623 10.46739,0.95192 3.78516,-0.12356 7.43659,-1.79636 11.22363,-1.76474 1.55185,0.013 3.12359,0.28186 4.58649,0.79985 1.48266,0.52499 2.98786,1.20618 4.12281,2.29512 0.86547,0.83038 1.42933,1.95676 1.87872,3.06879 0.67163,1.66196 0.8942,3.4778 1.16703,5.24945 0.24238,1.57389 -0.1531,3.27141 0.41433,4.75933 1.83023,4.79924 5.57666,8.72712 9.22489,12.34277 1.74278,1.93455 4.03041,3.53404 6.16708,4.82839 2.26886,1.37444 4.3675,2.44991 5.46279,4.81597 0.65901,1.48517 -0.54371,3.76097 0.68307,4.82635 z"
         sodipodi:nodetypes="aaaaaaaaaaaaaaaaaaaaaaaacscaa"
         inkscape:connector-curvature="0"
         id="path14491-6"
         d="m 516.00562,331.8756 c -0.6714,1.71905 -1.62682,3.32679 -2.81579,4.73826 -2.6238,3.11482 -6.268,5.17039 -9.89648,7.01985 -6.1886,3.15437 -12.60169,5.92177 -18.41964,9.71654 -3.89802,2.54249 -7.4959,5.52671 -10.86016,8.74238 -2.87719,2.75012 -5.60582,5.68745 -8.83247,8.01771 -3.25567,2.35122 -7.01915,4.05426 -10.99061,4.6502 -4.83026,0.72481 -9.82134,-0.21289 -14.29898,-2.16416 -3.13754,-1.36728 -6.15569,-3.3229 -7.96301,-6.22931 -1.81425,-2.91754 -2.22807,-6.48813 -2.23266,-9.92375 -0.008,-6.07666 1.11824,-12.09004 2.17848,-18.07349 0.88097,-4.97177 1.71949,-9.95483 2.26013,-14.97502 0.98337,-9.13118 0.9763,-18.35278 0.3199,-27.51327 -0.10993,-1.53416 -0.23754,-3.0832 -0.008,-4.60412 0.22922,-1.52092 0.85475,-3.0367 2.02069,-4.03986 1.07696,-0.9266 2.52093,-1.33598 3.93947,-1.4145 1.41854,-0.0785 2.83404,0.14655 4.23982,0.35197 3.31254,0.48405 6.65159,0.8649 9.88917,1.71656 2.04284,0.53738 4.03315,1.25925 6.0722,1.81081 3.40258,0.92039 6.96639,1.36144 10.46739,0.95192 3.76917,-0.44089 7.42987,-1.85678 11.22363,-1.76474 1.55658,0.0378 3.1015,0.33171 4.58649,0.79985 1.51539,0.47772 3.00914,1.16182 4.12281,2.29512 0.84639,0.8613 1.43579,1.94539 1.87872,3.06879 0.65982,1.67352 1.01492,3.457 1.16703,5.24945 0.13475,1.58788 0.11343,3.19441 0.41433,4.75933 0.49503,2.57458 1.84746,4.92305 3.52848,6.93494 1.68102,2.01189 3.68982,3.72048 5.69641,5.40783 1.99908,1.68103 4.0106,3.35469 6.16708,4.82839 1.0121,0.69165 2.05642,1.33949 3.01736,2.10062 0.96094,0.76113 1.84466,1.6468 2.44543,2.71535 0.81492,1.44944 1.06377,3.2077 0.68307,4.82635 l 2e-5,0"
         style="fill:url(#linearGradient14493);fill-opacity:1;stroke:none" />
    </clipPath>
    <inkscape:path-effect
       is_visible="true"
       id="path-effect14300-2-7"
       effect="spiro" />
    <clipPath
       id="clipPath14481-1"
       clipPathUnits="userSpaceOnUse">
      <path
         inkscape:original-d="m 516.00562,331.8756 c 0.90859,1.59687 -1.57016,3.38773 -2.81579,4.73826 -2.74207,2.97299 -6.45099,4.90178 -9.89648,7.01985 -5.91373,3.63539 -12.61918,5.90302 -18.41964,9.71654 -3.88318,2.553 -7.32809,5.72221 -10.86016,8.74238 -3.0221,2.58411 -5.48201,5.87643 -8.83247,8.01771 -3.3519,2.1422 -7.0437,4.15414 -10.99061,4.6502 -4.78298,0.60114 -9.87221,-0.25577 -14.29898,-2.16416 -3.0947,-1.33413 -6.16113,-3.38144 -7.96301,-6.22931 -1.81288,-2.86525 -2.06093,-6.5375 -2.23266,-9.92375 -0.30734,-6.06031 1.36252,-12.0605 2.17848,-18.07349 0.67882,-5.00236 1.85312,-9.94325 2.26013,-14.97502 0.73946,-9.14185 -0.7797,-18.40771 0.3199,-27.51327 0.35468,-2.93704 -0.181,-6.65876 2.01238,-8.64398 2.0384,-1.84494 5.43058,-1.1212 8.17929,-1.06253 3.34492,0.0714 6.63224,0.95108 9.88917,1.71656 2.05612,0.48325 3.99816,1.41138 6.0722,1.81081 3.44031,0.66255 6.96573,1.06623 10.46739,0.95192 3.78516,-0.12356 7.43659,-1.79636 11.22363,-1.76474 1.55185,0.013 3.12359,0.28186 4.58649,0.79985 1.48266,0.52499 2.98786,1.20618 4.12281,2.29512 0.86547,0.83038 1.42933,1.95676 1.87872,3.06879 0.67163,1.66196 0.8942,3.4778 1.16703,5.24945 0.24238,1.57389 -0.1531,3.27141 0.41433,4.75933 1.83023,4.79924 5.57666,8.72712 9.22489,12.34277 1.74278,1.93455 4.03041,3.53404 6.16708,4.82839 2.26886,1.37444 4.3675,2.44991 5.46279,4.81597 0.65901,1.48517 -0.54371,3.76097 0.68307,4.82635 z"
         sodipodi:nodetypes="aaaaaaaaaaaaaaaaaaaaaaaacscaa"
         inkscape:connector-curvature="0"
         id="path14483-3"
         d="m 516.00562,331.8756 c -0.6714,1.71905 -1.62682,3.32679 -2.81579,4.73826 -2.6238,3.11482 -6.268,5.17039 -9.89648,7.01985 -6.1886,3.15437 -12.60169,5.92177 -18.41964,9.71654 -3.89802,2.54249 -7.4959,5.52671 -10.86016,8.74238 -2.87719,2.75012 -5.60582,5.68745 -8.83247,8.01771 -3.25567,2.35122 -7.01915,4.05426 -10.99061,4.6502 -4.83026,0.72481 -9.82134,-0.21289 -14.29898,-2.16416 -3.13754,-1.36728 -6.15569,-3.3229 -7.96301,-6.22931 -1.81425,-2.91754 -2.22807,-6.48813 -2.23266,-9.92375 -0.008,-6.07666 1.11824,-12.09004 2.17848,-18.07349 0.88097,-4.97177 1.71949,-9.95483 2.26013,-14.97502 0.98337,-9.13118 0.9763,-18.35278 0.3199,-27.51327 -0.10993,-1.53416 -0.23754,-3.0832 -0.008,-4.60412 0.22922,-1.52092 0.85475,-3.0367 2.02069,-4.03986 1.07696,-0.9266 2.52093,-1.33598 3.93947,-1.4145 1.41854,-0.0785 2.83404,0.14655 4.23982,0.35197 3.31254,0.48405 6.65159,0.8649 9.88917,1.71656 2.04284,0.53738 4.03315,1.25925 6.0722,1.81081 3.40258,0.92039 6.96639,1.36144 10.46739,0.95192 3.76917,-0.44089 7.42987,-1.85678 11.22363,-1.76474 1.55658,0.0378 3.1015,0.33171 4.58649,0.79985 1.51539,0.47772 3.00914,1.16182 4.12281,2.29512 0.84639,0.8613 1.43579,1.94539 1.87872,3.06879 0.65982,1.67352 1.01492,3.457 1.16703,5.24945 0.13475,1.58788 0.11343,3.19441 0.41433,4.75933 0.49503,2.57458 1.84746,4.92305 3.52848,6.93494 1.68102,2.01189 3.68982,3.72048 5.69641,5.40783 1.99908,1.68103 4.0106,3.35469 6.16708,4.82839 1.0121,0.69165 2.05642,1.33949 3.01736,2.10062 0.96094,0.76113 1.84466,1.6468 2.44543,2.71535 0.81492,1.44944 1.06377,3.2077 0.68307,4.82635 l 2e-5,0"
         style="fill:url(#linearGradient14485);fill-opacity:1;stroke:none" />
    </clipPath>
    <inkscape:path-effect
       is_visible="true"
       id="path-effect14300-2-2-0"
       effect="spiro" />
    <clipPath
       id="clipPath14473-5"
       clipPathUnits="userSpaceOnUse">
      <path
         inkscape:original-d="m 511.82669,331.89986 c 0.79493,1.29584 -1.37375,2.7491 -2.46357,3.84504 -2.39907,2.41255 -5.64405,3.97773 -8.65855,5.69652 -5.17399,2.95008 -11.04067,4.79023 -16.11556,7.88485 -3.39744,2.07173 -6.41144,4.64351 -9.50169,7.09434 -2.64407,2.09697 -4.79627,4.76865 -7.72763,6.50627 -2.93262,1.73837 -6.16262,3.37103 -9.61582,3.77358 -4.18468,0.48781 -8.63731,-0.20756 -12.51035,-1.75619 -2.70759,-1.08263 -5.39044,-2.744 -6.96693,-5.05501 -1.58611,-2.32511 -1.80313,-5.3051 -1.95338,-8.053 -0.2689,-4.91787 1.19208,-9.78694 1.90598,-14.66641 0.59391,-4.05935 1.62131,-8.06882 1.97741,-12.15204 0.64696,-7.4185 -0.68217,-14.93763 0.27989,-22.32668 0.31031,-2.38337 -0.15836,-5.4035 1.76065,-7.01448 1.78342,-1.49715 4.75128,-0.90984 7.15616,-0.86223 2.92651,0.0579 5.80263,0.77179 8.65215,1.39297 1.79893,0.39215 3.49804,1.14531 5.31265,1.46945 3.00996,0.53765 6.0944,0.86523 9.15804,0.77247 3.31168,-0.10027 6.50636,-1.45773 9.81969,-1.43207 1.35773,0.0105 2.73287,0.22873 4.01277,0.64907 1.2972,0.42602 2.61412,0.9788 3.6071,1.86246 0.75721,0.67384 1.25054,1.58789 1.64371,2.49029 0.58762,1.34866 0.78235,2.82219 1.02105,4.25986 0.21206,1.27719 -0.13395,2.65471 0.36251,3.86214 1.60129,3.89452 4.87908,7.08195 8.07096,10.016 1.52478,1.56986 3.52626,2.86783 5.39565,3.91818 1.98506,1.11534 3.82118,1.98807 4.77946,3.9081 0.57658,1.2052 -0.47569,3.05198 0.59763,3.91652 z"
         sodipodi:nodetypes="aaaaaaaaaaaaaaaaaaaaaaaacscaa"
         inkscape:connector-curvature="0"
         id="path14475-9"
         d="m 511.82669,331.89986 c -0.60617,1.40358 -1.44178,2.70776 -2.46357,3.84504 -2.32524,2.58805 -5.50706,4.22246 -8.65855,5.69652 -5.42045,2.53534 -11.00071,4.7788 -16.11556,7.88485 -3.38301,2.05437 -6.53696,4.47221 -9.50169,7.09434 -2.52461,2.23286 -4.92977,4.6271 -7.72763,6.50627 -2.88313,1.93644 -6.17534,3.29888 -9.61582,3.77358 -4.21817,0.58201 -8.55335,-0.18335 -12.51035,-1.75619 -2.7091,-1.07682 -5.36625,-2.6185 -6.96693,-5.05501 -1.53813,-2.3413 -1.9333,-5.25173 -1.95338,-8.053 -0.0354,-4.93859 0.96501,-9.81816 1.90598,-14.66641 0.78215,-4.02995 1.52682,-8.0717 1.97741,-12.15204 0.81784,-7.40607 0.66114,-14.88536 0.27989,-22.32668 -0.064,-1.24906 -0.13361,-2.5105 0.0789,-3.74301 0.21256,-1.23251 0.73646,-2.45247 1.68171,-3.27147 0.93914,-0.8137 2.20952,-1.15942 3.45104,-1.2115 1.24152,-0.0521 2.47642,0.16381 3.70512,0.34927 2.88969,0.43617 5.81087,0.7091 8.65215,1.39297 1.78651,0.43 3.53091,1.02011 5.31265,1.46945 2.98632,0.75312 6.09645,1.10709 9.15804,0.77247 3.2941,-0.36004 6.50688,-1.50957 9.81969,-1.43207 1.35838,0.0318 2.70755,0.27142 4.01277,0.64907 1.31265,0.3798 2.61744,0.9202 3.6071,1.86246 0.72535,0.69061 1.25006,1.56936 1.64371,2.49029 0.57625,1.34814 0.88626,2.79994 1.02105,4.25986 0.11897,1.28855 0.10468,2.59405 0.36251,3.86214 0.4369,2.14878 1.63966,4.08139 3.11506,5.70353 1.4754,1.62214 3.22406,2.96752 4.9559,4.31247 1.75634,1.36398 3.50975,2.7398 5.39565,3.91818 0.88228,0.55128 1.79349,1.05932 2.63473,1.67142 0.84123,0.61209 1.61878,1.33907 2.14473,2.23668 0.68386,1.16711 0.90229,2.59857 0.59763,3.91652 l 2e-5,0"
         style="fill:url(#linearGradient14477);fill-opacity:1;stroke:none" />
    </clipPath>
    <linearGradient
       id="linearGradient14518-6">
      <stop
         style="stop-color:#110800;stop-opacity:1;"
         offset="0"
         id="stop14540-0" />
      <stop
         id="stop14542-5"
         offset="0.59066743"
         style="stop-color:#a65a00;stop-opacity:0.80000001;" />
      <stop
         id="stop14522-4"
         offset="1"
         style="stop-color:#ff921e;stop-opacity:0;" />
    </linearGradient>
    <inkscape:path-effect
       effect="spiro"
       id="path-effect29716-0-0"
       is_visible="true" />
    <inkscape:path-effect
       effect="spiro"
       id="path-effect29716-0-8-3"
       is_visible="true" />
    <inkscape:path-effect
       effect="spiro"
       id="path-effect29716-6-1"
       is_visible="true" />
    <clipPath
       id="clipPath14822-9"
       clipPathUnits="userSpaceOnUse">
      <path
         style="fill:none;stroke:#ce5c00;stroke-width:1px;stroke-linecap:butt;stroke-linejoin:miter;stroke-opacity:1"
         inkscape:original-d="m 386.1875,285.32775 c -2.36571,-3.81321 -7.59294,-4.9003 -11.805,-6.41698 -2.08672,-0.75138 -4.32322,-1.04333 -6.52782,-1.27734 -2.27612,-0.2416 -4.71593,-0.91505 -6.8653,-0.1253 -3.64566,1.33955 -7.24986,3.80684 -8.75671,7.70871 -1.13743,2.94527 -1.80122,7.05909 -1.65394,10.40316 0.13075,2.96891 0.9633,5.07273 2.60877,7.33912 1.08803,1.49859 3.40096,2.67896 5.43398,3.22092 3.49923,0.93284 7.37483,0.82779 10.86038,-0.1553 5.98587,-2.2615 11.09272,-5.76885 14.33034,-10.77903 1.07459,-1.67639 2.15539,-3.45031 2.5532,-5.4034 0.30053,-1.4755 0.61519,-3.23621 -0.1779,-4.51456 z"
         id="path14824-1"
         d="m 386.1875,285.32775 c -0.40516,-1.10369 -1.11845,-2.08156 -1.9907,-2.86987 -0.87226,-0.78832 -1.90049,-1.39229 -2.98278,-1.85155 -2.16459,-0.91852 -4.52053,-1.26149 -6.83152,-1.69556 -2.17919,-0.40931 -4.34179,-0.90631 -6.52782,-1.27734 -2.27136,-0.38551 -4.6179,-0.63213 -6.8653,-0.1253 -1.96583,0.44333 -3.7845,1.45879 -5.27172,2.81864 -1.48723,1.35984 -2.64911,3.0564 -3.48499,4.89007 -1.47218,3.22952 -1.93451,6.86503 -1.65394,10.40316 0.20882,2.63325 0.87532,5.34594 2.60877,7.33912 1.40065,1.61052 3.38733,2.61526 5.43398,3.22092 3.52502,1.04316 7.36663,0.98822 10.86038,-0.1553 5.76689,-1.93113 10.87568,-5.77387 14.33034,-10.77903 1.13861,-1.64963 2.11217,-3.44809 2.5532,-5.4034 0.33597,-1.48955 0.34831,-3.08112 -0.1779,-4.51456"
         inkscape:connector-curvature="0"
         sodipodi:nodetypes="aaaasssaccaa" />
    </clipPath>
    <clipPath
       id="clipPath14822-2-4"
       clipPathUnits="userSpaceOnUse">
      <path
         style="fill:none;stroke:#ce5c00;stroke-width:1px;stroke-linecap:butt;stroke-linejoin:miter;stroke-opacity:1"
         inkscape:original-d="m 386.1875,285.32775 c -2.36571,-3.81321 -7.59294,-4.9003 -11.805,-6.41698 -2.08672,-0.75138 -4.32322,-1.04333 -6.52782,-1.27734 -2.27612,-0.2416 -4.71593,-0.91505 -6.8653,-0.1253 -3.64566,1.33955 -7.24986,3.80684 -8.75671,7.70871 -1.13743,2.94527 -1.80122,7.05909 -1.65394,10.40316 0.13075,2.96891 0.9633,5.07273 2.60877,7.33912 1.08803,1.49859 3.40096,2.67896 5.43398,3.22092 3.49923,0.93284 7.37483,0.82779 10.86038,-0.1553 5.98587,-2.2615 11.09272,-5.76885 14.33034,-10.77903 1.07459,-1.67639 2.15539,-3.45031 2.5532,-5.4034 0.30053,-1.4755 0.61519,-3.23621 -0.1779,-4.51456 z"
         id="path14824-6-5"
         d="m 386.1875,285.32775 c -0.40516,-1.10369 -1.11845,-2.08156 -1.9907,-2.86987 -0.87226,-0.78832 -1.90049,-1.39229 -2.98278,-1.85155 -2.16459,-0.91852 -4.52053,-1.26149 -6.83152,-1.69556 -2.17919,-0.40931 -4.34179,-0.90631 -6.52782,-1.27734 -2.27136,-0.38551 -4.6179,-0.63213 -6.8653,-0.1253 -1.96583,0.44333 -3.7845,1.45879 -5.27172,2.81864 -1.48723,1.35984 -2.64911,3.0564 -3.48499,4.89007 -1.47218,3.22952 -1.93451,6.86503 -1.65394,10.40316 0.20882,2.63325 0.87532,5.34594 2.60877,7.33912 1.40065,1.61052 3.38733,2.61526 5.43398,3.22092 3.52502,1.04316 7.36663,0.98822 10.86038,-0.1553 5.76689,-1.93113 10.87568,-5.77387 14.33034,-10.77903 1.13861,-1.64963 2.11217,-3.44809 2.5532,-5.4034 0.33597,-1.48955 0.34831,-3.08112 -0.1779,-4.51456"
         inkscape:connector-curvature="0"
         sodipodi:nodetypes="aaaasssaccaa" />
    </clipPath>
    <inkscape:path-effect
       is_visible="true"
       id="path-effect14972-2-2"
       effect="spiro" />
    <inkscape:path-effect
       is_visible="true"
       id="path-effect15017-9"
       effect="spiro" />
    <clipPath
       id="clipPath15031-3"
       clipPathUnits="userSpaceOnUse">
      <path
         sodipodi:nodetypes="czzzzzzzzzzzzzzzszzzzzc"
         inkscape:original-d="m 248.06066,184.61218 c 0,0 -5.10626,6.34527 -7.89695,10.24696 -2.7907,3.9017 -5.73652,6.64881 -8.58729,10.75139 -2.85076,4.10259 -7.36482,9.43164 -9.44912,13.93045 -2.08429,4.49881 -2.32047,9.0356 -4.26498,13.84932 -1.94451,4.81371 -3.70129,10.64183 -5.97071,15.33612 -2.26943,4.69429 -5.37093,9.68473 -6.93891,13.53553 -1.56799,3.8508 -3.81119,5.72384 -4.10782,10.22071 -0.29663,4.49686 -0.57747,8.31749 3.77151,16.77227 4.34898,8.45478 17.23626,22.00721 24.24176,27.92472 7.00549,5.9175 9.39133,7.22492 14.60245,8.52595 5.21112,1.30104 13.85627,2.9981 16.72874,-1.2702 2.87246,-4.26829 2.27191,-5.96483 -0.74863,-10.66616 -3.02055,-4.70132 -4.82469,-5.30209 -9.79642,-9.57343 -4.97172,-4.27133 -18.63696,-14.87266 -22.68212,-19.23996 -4.04516,-4.36729 -7.10731,-3.41164 -5.53019,-6.28412 1.57712,-2.87249 -2.20738,-4.00856 -2.65783,-7.69253 -0.76361,-6.24511 0.9436,-18.71046 1.45958,-22.13343 0.51598,-3.42296 1.22371,-2.92446 3.51815,-8.03965 2.29444,-5.11519 4.12424,-8.62435 7.04933,-13.46723 2.92509,-4.84289 8.62493,-10.12787 11.15147,-15.27803 2.52654,-5.15017 3.50393,-10.72068 4.36185,-15.31831 0.85792,-4.59763 1.74613,-12.13037 1.74613,-12.13037 z"
         inkscape:connector-curvature="0"
         id="path15033-2"
         d="m 248.06066,184.61218 c -2.60091,3.4397 -5.23338,6.85555 -7.89695,10.24696 -2.83301,3.60715 -5.70116,7.1866 -8.58729,10.75139 -3.54135,4.37407 -7.15155,8.79286 -9.44912,13.93045 -1.97407,4.41422 -2.91014,9.20748 -4.26498,13.84932 -1.53862,5.27153 -3.62627,10.37023 -5.97071,15.33612 -2.1648,4.58539 -4.54978,9.06293 -6.93891,13.53553 -1.73823,3.25407 -3.50515,6.58104 -4.10782,10.22071 -0.47627,2.87632 -0.19849,5.84423 0.53376,8.66626 0.73224,2.82202 1.90964,5.5106 3.23775,8.10601 5.66724,11.07504 14.17003,20.62168 24.24176,27.92472 4.57063,3.31418 9.46669,6.18109 14.60245,8.52595 2.78247,1.27041 5.71355,2.40436 8.77186,2.45744 1.52915,0.0265 3.0741,-0.22544 4.47434,-0.84055 1.40024,-0.6151 2.65068,-1.60373 3.48254,-2.88709 1.02278,-1.5779 1.36992,-3.53829 1.16461,-5.40743 -0.2053,-1.86914 -0.93484,-3.65294 -1.91324,-5.25873 -2.38997,-3.92251 -6.1652,-6.76055 -9.79642,-9.57343 -7.84055,-6.07358 -15.42466,-12.48038 -22.68212,-19.23996 -2.04911,-1.90854 -4.0984,-3.87759 -5.53019,-6.28412 -1.3943,-2.34352 -2.14763,-5.01375 -2.65783,-7.69253 -1.39963,-7.34872 -1.0404,-15.0827 1.45958,-22.13343 0.97802,-2.75834 2.27066,-5.39225 3.51815,-8.03965 2.1622,-4.58855 4.21133,-9.26299 7.04933,-13.46723 3.53268,-5.23334 8.24484,-9.67275 11.15147,-15.27803 2.45457,-4.7335 3.49353,-10.05742 4.36185,-15.31831 0.66531,-4.03089 1.24751,-8.07549 1.74613,-12.13037"
         style="fill:none;stroke:#729fcf;stroke-width:0.125;stroke-linecap:butt;stroke-linejoin:miter;stroke-miterlimit:4;stroke-dasharray:none;stroke-opacity:1" />
    </clipPath>
    <clipPath
       id="clipPath14186-9"
       clipPathUnits="userSpaceOnUse">
      <path
         style="fill:#402c07;fill-opacity:1;stroke:none"
         d="m 137.57703,281.0191 c 1.59929,-0.66295 3.3982,-0.78361 5.10074,-0.46963 1.70253,0.31398 3.31141,1.04948 4.74342,2.02239 2.86402,1.94583 4.98821,4.77774 7.02263,7.57952 4.67189,6.43406 9.16868,13.00227 13.24488,19.8293 3.30635,5.53766 6.34352,11.25685 10.16415,16.45304 2.49398,3.3919 5.3066,6.53947 7.813,9.92221 2.50639,3.38273 4.72794,7.05586 5.83931,11.11662 1.44411,5.27653 0.88463,11.09291 -1.62666,15.95302 -1.76663,3.41896 -4.47646,6.35228 -7.77242,8.33898 -3.29595,1.9867 -7.17064,3.01444 -11.01635,2.87021 -6.11413,-0.2293 -11.69944,-3.28515 -17.38362,-5.54906 -11.58097,-4.6125 -24.15978,-6.0594 -36.09666,-9.65174 -3.66859,-1.10404 -7.27582,-2.4107 -10.96988,-3.42629 -1.64125,-0.45122 -3.30866,-0.8482 -4.85875,-1.55144 -1.55008,-0.70325 -2.999548,-1.7491 -3.86171,-3.21675 -0.666391,-1.13439 -0.948386,-2.47002 -0.930187,-3.78554 0.0182,-1.31552 0.325889,-2.61453 0.773815,-3.85158 0.895851,-2.47409 2.343262,-4.71374 3.320162,-7.15696 1.59511,-3.98935 1.88169,-8.38839 1.66657,-12.67942 -0.21511,-4.29103 -0.91078,-8.54478 -1.20454,-12.83115 -0.13118,-1.91406 -0.18066,-3.85256 0.18479,-5.73598 0.36545,-1.88343 1.17577,-3.72459 2.55771,-5.05541 1.27406,-1.22693 2.96492,-1.95531 4.69643,-2.31651 1.73151,-0.3612 3.51533,-0.37747 5.28367,-0.33762 1.76833,0.0399 3.54067,0.13425 5.30351,-0.0106 1.76284,-0.14488 3.53347,-0.54055 5.06911,-1.41828 1.45996,-0.83447 2.65433,-2.0745 3.64374,-3.43424 0.9894,-1.35974 1.78909,-2.84573 2.60891,-4.31396 0.81983,-1.46823 1.66834,-2.93151 2.74157,-4.22611 1.07324,-1.2946 2.38923,-2.42304 3.94266,-3.06698"
         id="path14188-1"
         inkscape:connector-curvature="0"
         sodipodi:nodetypes="ssssssssssssssss"
         inkscape:original-d="m 137.57703,281.0191 c 6.32494,-1.3585 11.99755,4.87308 16.86679,9.13228 6.42572,5.62067 -8.54781,26.01622 13.24488,19.8293 5.86081,-1.66388 6.89528,11.31183 10.16415,16.45304 4.09971,6.44793 11.58575,13.6827 13.65231,21.03883 1.58383,5.63779 1.34339,10.90606 -1.62666,15.95302 -3.57124,6.06857 -11.7907,10.42929 -18.78877,11.20919 -5.73056,0.63864 -11.87822,-3.8351 -17.38362,-5.54906 -12.31617,-3.83432 -23.77946,-5.82074 -36.09666,-9.65174 -2.50091,-0.77785 -8.28361,-2.638 -10.96988,-3.42629 -4.51043,-1.3236 -6.46556,-0.99271 -8.72046,-4.76819 -2.68251,-4.49147 0.68051,-9.72669 3.16379,-14.79408 4.06995,-8.30524 1.91195,-17.82603 0.46203,-25.51057 -0.92235,-4.8884 -0.66071,-7.92707 2.7425,-10.79139 4.99476,-4.20385 14.53027,-1.53186 20.35272,-4.08305 5.82246,-2.55119 6.66365,-13.6939 12.93688,-15.04129 z" />
    </clipPath>
    <inkscape:path-effect
       effect="spiro"
       id="path-effect4669-1"
       is_visible="true" />
    <inkscape:path-effect
       effect="spiro"
       id="path-effect4669-4-3"
       is_visible="true" />
    <linearGradient
       id="linearGradient3312">
      <stop
         id="stop3314"
         offset="0"
         style="stop-color:#c7f994;stop-opacity:1;" />
      <stop
         id="stop3316"
         offset="1"
         style="stop-color:#87cf3e;stop-opacity:1;" />
    </linearGradient>
    <linearGradient
       id="linearGradient3431">
      <stop
         style="stop-color:#3d3d3d;stop-opacity:1;"
         offset="0"
         id="stop3433" />
      <stop
         style="stop-color:#000000;stop-opacity:0.11400651;"
         offset="1"
         id="stop3435" />
    </linearGradient>
    <clipPath
       id="clp82">
      <path
         id="path1826"
         d="M 1001.6,870.49 L 1036.3,870.49 L 1036.3,857.41 L 1001.6,857.41 L 1001.6,870.49 z " />
    </clipPath>
    <clipPath
       id="clp83">
      <path
         id="path1835"
         d="M 1001.6,870.49 L 1036.3,870.49 L 1036.3,857.41 L 1001.6,857.41 L 1001.6,870.49 z " />
    </clipPath>
    <clipPath
       id="clp84">
      <path
         id="path1844"
         d="M 1001.6,870.49 L 1036.3,870.49 L 1036.3,857.41 L 1001.6,857.41 L 1001.6,870.49 z " />
    </clipPath>
    <clipPath
       id="clp81">
      <path
         id="path1800"
         d="M 1000.9,934.34 L 1038.6,934.34 L 1038.6,922.24 L 1000.9,922.24 L 1000.9,934.34 z " />
    </clipPath>
    <clipPath
       id="clipPath116030">
      <path
         id="path116032"
         d="M 1001.6,870.49 L 1036.3,870.49 L 1036.3,857.41 L 1001.6,857.41 L 1001.6,870.49 z " />
    </clipPath>
    <clipPath
       id="clipPath116038">
      <path
         id="path116040"
         d="M 1001.6,870.49 L 1036.3,870.49 L 1036.3,857.41 L 1001.6,857.41 L 1001.6,870.49 z " />
    </clipPath>
    <clipPath
       id="clipPath116046">
      <path
         id="path116048"
         d="M 1001.6,870.49 L 1036.3,870.49 L 1036.3,857.41 L 1001.6,857.41 L 1001.6,870.49 z " />
    </clipPath>
    <linearGradient
       id="linearGradient5027"
       inkscape:collect="always">
      <stop
         id="stop5029"
         offset="0"
         style="stop-color:#ffffff;stop-opacity:1;" />
      <stop
         id="stop5031"
         offset="1"
         style="stop-color:#ffffff;stop-opacity:0;" />
    </linearGradient>
    <linearGradient
       gradientUnits="userSpaceOnUse"
       y2="33.272728"
       x2="32.636364"
       y1="-29.818182"
       x1="32"
       id="linearGradient5033"
       xlink:href="#linearGradient5027"
       inkscape:collect="always" />
  </defs>
  <sodipodi:namedview
     id="base"
     pagecolor="#ffffff"
     bordercolor="#666666"
     borderopacity="1.0"
     inkscape:pageopacity="0.0"
     inkscape:pageshadow="2"
     inkscape:zoom="0.98994949"
     inkscape:cx="-14.609066"
     inkscape:cy="262.61512"
     inkscape:document-units="px"
     inkscape:current-layer="layer1"
     showgrid="false"
     inkscape:window-width="1920"
     inkscape:window-height="1052"
     inkscape:window-x="0"
     inkscape:window-y="0"
     inkscape:window-maximized="1"
     units="px" />
  <metadata
     id="metadata5">
    <rdf:RDF>
      <cc:Work
         rdf:about="">
        <dc:format>image/svg+xml</dc:format>
        <dc:type
           rdf:resource="http://purl.org/dc/dcmitype/StillImage" />
        <dc:title />
      </cc:Work>
    </rdf:RDF>
  </metadata>
  <g
     inkscape:label="Calque 1"
     inkscape:groupmode="layer"
     id="layer1"
     transform="translate(0,-191.16665)">
    <g
       id="g3280"
       transform="matrix(1.7453391,0,0,1.7453391,-2.7755547,187.59775)">
      <g
         inkscape:label="Layer 1"
         id="layer1-2">
        <path
           style="fill:#222d42;fill-opacity:1;stroke:none;stroke-width:2.63852549;stroke-linecap:butt;stroke-linejoin:round;stroke-miterlimit:4;stroke-dasharray:none;stroke-opacity:1"
           d="M 200.06836,25.521484 A 155.91286,153.51421 89.5 0 0 47.919922,182.76758 155.91286,153.51421 89.5 0 0 202.78906,337.33594 155.91286,153.51421 89.5 0 0 354.9375,180.08984 155.91286,153.51421 89.5 0 0 200.06836,25.521484 Z m -4.39258,59.488282 c 23.97889,0 37.15068,7.429687 41.87891,7.429687 4.72823,0 8.10571,-6.416015 16.88672,-6.416015 7.43008,-10e-7 11.14453,5.403708 11.14453,16.548832 v 19.25 c 0,10.80739 -3.03899,16.54882 -11.14453,16.54882 -7.43009,0 -10.80737,-8.4436 -20.60157,-17.22461 -12.49604,-11.14511 -24.65462,-15.19726 -41.8789,-15.19726 -21.95251,0 -34.44922,11.1449 -34.44922,24.3164 0,17.56202 18.91377,19.25033 51.33594,19.92579 43.56729,1.01319 66.19531,13.84736 66.19531,46.26953 0,28.3694 -23.30464,48.9707 -64.50781,48.9707 -14.86016,0 -31.40918,-2.70145 -49.98438,-7.42969 -7.76781,5.06597 -13.16973,7.76758 -16.88476,7.76758 -7.76782,0 -12.16016,-5.40339 -12.16016,-15.87305 v -29.38281 c 0,-8.781 3.04126,-13.50781 11.82226,-13.50781 10.13194,0 9.11827,9.11728 15.53516,17.56055 8.781,11.48285 27.69413,19.58984 49.98438,19.58984 23.97889,0 38.83789,-10.8078 38.83789,-25.66797 0,-16.88654 -12.15831,-21.61523 -37.15039,-21.61523 h -9.45508 c -44.91821,0 -68.89844,-16.21116 -68.89844,-45.59375 0,-27.3562 22.6287,-46.269534 63.49414,-46.269534 z m -89.00586,145.900394 11.61133,0.16211 -0.47266,33.46289 178.83399,0.16992 -0.008,11.61133 -190.59375,-0.19141 z"
           transform="matrix(0.18949979,0,0,0.18949979,-6.2615863,-2.0170393)"
           id="path2168"
           inkscape:connector-curvature="0" />
        <path
           id="path10031"
           d="m 49.94457,50.251172 -36.003471,-0.0027 0.118679,-8.499171 1.999804,0.02792 -0.08377,5.999417 -0.0063,0.4545 34.003033,0.02021 z"
           style="fill:none;fill-rule:evenodd;stroke:none;stroke-width:0.30000001;stroke-linecap:butt;stroke-linejoin:miter;stroke-miterlimit:4;stroke-dasharray:none;stroke-opacity:1"
           inkscape:connector-curvature="0" />
      </g>
      <g
         id="layer2" />
    </g>
  </g>
  <style
     id="style2151">.st0{fill:red}</style>
</svg>
