<?xml version="1.0" encoding="UTF-8" standalone="no"?>
<!-- Created with Inkscape (http://www.inkscape.org/) -->

<svg
   version="1.1"
   id="svg1"
   width="105.33333"
   height="105.33333"
   viewBox="0 0 105.33333 105.33333"
   sodipodi:docname="tuxedo.svg"
   inkscape:version="1.3.2 (091e20ef0f, 2023-11-25)"
   xmlns:inkscape="http://www.inkscape.org/namespaces/inkscape"
   xmlns:sodipodi="http://sodipodi.sourceforge.net/DTD/sodipodi-0.dtd"
   xmlns="http://www.w3.org/2000/svg"
   xmlns:svg="http://www.w3.org/2000/svg">
  <defs
     id="defs1" />
  <sodipodi:namedview
     id="namedview1"
     pagecolor="#ffffff"
     bordercolor="#000000"
     borderopacity="0.25"
     inkscape:showpageshadow="2"
     inkscape:pageopacity="0.0"
     inkscape:pagecheckerboard="0"
     inkscape:deskcolor="#d1d1d1"
     inkscape:zoom="7.6424056"
     inkscape:cx="52.797512"
     inkscape:cy="52.666663"
     inkscape:window-width="1920"
     inkscape:window-height="1011"
     inkscape:window-x="0"
     inkscape:window-y="32"
     inkscape:window-maximized="1"
     inkscape:current-layer="g1">
    <inkscape:page
       x="0"
       y="0"
       inkscape:label="1"
       id="page1"
       width="105.33333"
       height="105.33333"
       margin="0"
       bleed="0" />
  </sodipodi:namedview>
  <g
     id="g1"
     inkscape:groupmode="layer"
     inkscape:label="1">
    <path
       id="path1"
       d="M 391.289,790 C 265.469,789.879 147.34,729.262 73.8711,627.07 263.012,627.461 334.488,627.93 572.77,627.93 L 435.078,418.16 537.969,251.602 h -78.52 L 393.711,361.68 296.719,219.262 739.34,220.309 c 28.359,55.203 43.199,116.332 43.281,178.402 0,103.75 -41.211,203.277 -114.609,276.68 C 594.609,748.789 495.078,790 391.289,790 Z M 338.09,579.41 C 233.629,579.301 176.328,578.441 44.0195,578.441 15.1992,522.93 0.078125,461.289 0,398.711 0,294.922 41.2109,195.391 114.609,121.988 188.012,48.5898 287.539,7.37891 391.289,7.37891 517.621,7.46094 636.09,68.5195 709.488,171.328 519.691,170.352 447.699,169.449 209.141,169.449 l 160.898,228.75 -90.859,149.102 h 78.281 l 53.359,-91.641 78.09,123.399 c -62.43,0.32 -110.281,0.39 -150.82,0.351 z"
       style="fill:#222d42;fill-opacity:1;fill-rule:nonzero;stroke:none"
       transform="matrix(0.13333333,0,0,-0.13333333,0,105.33333)" />
  </g>
</svg>
