<?xml version="1.0" encoding="UTF-8" standalone="no"?>
<!-- Created with Inkscape (http://www.inkscape.org/) -->

<svg
   xmlns:dc="http://purl.org/dc/elements/1.1/"
   xmlns:cc="http://creativecommons.org/ns#"
   xmlns:rdf="http://www.w3.org/1999/02/22-rdf-syntax-ns#"
   xmlns:svg="http://www.w3.org/2000/svg"
   xmlns="http://www.w3.org/2000/svg"
   xmlns:xlink="http://www.w3.org/1999/xlink"
   xmlns:sodipodi="http://sodipodi.sourceforge.net/DTD/sodipodi-0.dtd"
   xmlns:inkscape="http://www.inkscape.org/namespaces/inkscape"
   width="400"
   height="400"
   viewBox="0 0 105.83333 105.83334"
   version="1.1"
   id="svg8"
   inkscape:version="0.92.3 (2405546, 2018-03-11)"
   sodipodi:docname="ubuntu-logo.svg">
  <defs
     id="defs2">
    <inkscape:path-effect
       effect="spiro"
       id="path-effect29672-0"
       is_visible="true" />
    <inkscape:path-effect
       effect="spiro"
       id="path-effect29678-1"
       is_visible="true" />
    <inkscape:path-effect
       effect="spiro"
       id="path-effect29678-4-6"
       is_visible="true" />
    <inkscape:path-effect
       effect="spiro"
       id="path-effect28714-5"
       is_visible="true" />
    <inkscape:path-effect
       effect="spiro"
       id="path-effect29721-2"
       is_visible="true" />
    <inkscape:path-effect
       effect="spiro"
       id="path-effect28463-8-0"
       is_visible="true" />
    <inkscape:path-effect
       effect="spiro"
       id="path-effect28463-0-7"
       is_visible="true" />
    <linearGradient
       id="linearGradient28799-5-5">
      <stop
         style="stop-color:#fefefc;stop-opacity:1;"
         offset="0"
         id="stop28801-1-9" />
      <stop
         id="stop28807-2-6"
         offset="0.75733864"
         style="stop-color:#fefefc;stop-opacity:1" />
      <stop
         style="stop-color:#d4d4d4;stop-opacity:1"
         offset="1"
         id="stop28803-6-3" />
    </linearGradient>
    <inkscape:path-effect
       effect="spiro"
       id="path-effect28797-8-1"
       is_visible="true" />
    <inkscape:path-effect
       effect="spiro"
       id="path-effect28797-81"
       is_visible="true" />
    <inkscape:path-effect
       effect="spiro"
       id="path-effect28273-4-2"
       is_visible="true" />
    <linearGradient
       id="linearGradient28853-5">
      <stop
         style="stop-color:#020204;stop-opacity:1"
         offset="0"
         id="stop28855-3" />
      <stop
         id="stop28865-0"
         offset="0.73448181"
         style="stop-color:#020204;stop-opacity:1" />
      <stop
         style="stop-color:#5c5c5c;stop-opacity:1;"
         offset="1"
         id="stop28857-9" />
    </linearGradient>
    <inkscape:path-effect
       effect="spiro"
       id="path-effect28851-0"
       is_visible="true" />
    <inkscape:path-effect
       effect="spiro"
       id="path-effect28881-6"
       is_visible="true" />
    <linearGradient
       id="linearGradient28935-8">
      <stop
         style="stop-color:#949494;stop-opacity:0.39215687;"
         offset="0"
         id="stop28937-7" />
      <stop
         id="stop28943-3"
         offset="0.5"
         style="stop-color:#949494;stop-opacity:1;" />
      <stop
         style="stop-color:#949494;stop-opacity:0.39215687;"
         offset="1"
         id="stop28939-8" />
    </linearGradient>
    <linearGradient
       id="linearGradient28976-3">
      <stop
         style="stop-color:#747474;stop-opacity:1"
         offset="0"
         id="stop28978-7" />
      <stop
         id="stop29259-5"
         offset="0.125"
         style="stop-color:#8c8c8c;stop-opacity:1;" />
      <stop
         id="stop29257-0"
         offset="0.25"
         style="stop-color:#a4a4a4;stop-opacity:1;" />
      <stop
         id="stop28984-4"
         offset="0.5"
         style="stop-color:#d4d4d4;stop-opacity:1" />
      <stop
         style="stop-color:#d4d4d4;stop-opacity:1"
         offset="0.61919296"
         id="stop28986-0" />
      <stop
         style="stop-color:#7c7c7c;stop-opacity:1"
         offset="1"
         id="stop28980-2" />
    </linearGradient>
    <inkscape:path-effect
       effect="spiro"
       id="path-effect28974-8"
       is_visible="true" />
    <clipPath
       clipPathUnits="userSpaceOnUse"
       id="clipPath29028-5">
      <path
         style="fill:url(#radialGradient29032);fill-opacity:1;stroke:none"
         d="m 85.75,122.36218 c -2.780425,1.91023 -5.110569,4.57487 -6.25,7.75 -1.436029,4.00163 -0.885838,8.48071 0.5,12.5 1.419488,4.11688 3.793788,8.04098 7.37932,10.51234 1.792766,1.23567 3.868091,2.08301 6.030402,2.33859 2.162311,0.25558 4.409274,-0.0949 6.340278,-1.10093 2.35312,-1.22596 4.14782,-3.37278 5.26217,-5.78076 1.11436,-2.40798 1.5888,-5.0701 1.73783,-7.71924 0.18989,-3.37546 -0.14047,-6.80646 -1.25,-10 -1.20527,-3.46909 -3.39005,-6.67055 -6.472754,-8.6666 -1.541351,-0.99803 -3.291947,-1.68356 -5.110883,-1.93515 -1.818936,-0.25158 -3.704766,-0.0633 -5.416363,0.60175 -0.975471,0.37901 -1.887438,0.9074 -2.75,1.5"
         id="path29030-7"
         inkscape:original-d="m 85.75,122.36218 c -2.54738,2.12715 -5.20812,4.59907 -6.25,7.75 -1.30914,3.95917 -1.63336,8.91703 0.5,12.5 3.91901,6.58194 12.38353,13.85135 19.75,11.75 4.87452,-1.3905 6.10748,-8.51023 7,-13.5 0.59149,-3.30679 0.59578,-7.19325 -1.25,-10 -3.61233,-5.49303 -10.4265,-9.89357 -17,-10 -1.04403,-0.0169 -1.94852,0.83074 -2.75,1.5 z"
         inkscape:connector-curvature="0"
         sodipodi:nodetypes="aaaaaaaa" />
    </clipPath>
    <linearGradient
       id="linearGradient29336-6">
      <stop
         style="stop-color:#646464;stop-opacity:0"
         offset="0"
         id="stop29338-1" />
      <stop
         id="stop29344-7"
         offset="0.30628255"
         style="stop-color:#646464;stop-opacity:0.5825243" />
      <stop
         style="stop-color:#646464;stop-opacity:1"
         offset="0.47000006"
         id="stop29354-5" />
      <stop
         id="stop29356-3"
         offset="0.72834015"
         style="stop-color:#646464;stop-opacity:0.25728154" />
      <stop
         style="stop-color:#646464;stop-opacity:0;"
         offset="1"
         id="stop29340-6" />
    </linearGradient>
    <inkscape:path-effect
       effect="spiro"
       id="path-effect29455-3"
       is_visible="true" />
    <linearGradient
       id="linearGradient29477-3">
      <stop
         style="stop-color:#757574;stop-opacity:0"
         offset="0"
         id="stop29479-5" />
      <stop
         id="stop29487-5"
         offset="0.26291031"
         style="stop-color:#757574;stop-opacity:1;" />
      <stop
         id="stop29485-0"
         offset="0.5"
         style="stop-color:#757574;stop-opacity:1;" />
      <stop
         style="stop-color:#757574;stop-opacity:0"
         offset="1"
         id="stop29481-3" />
    </linearGradient>
    <linearGradient
       id="linearGradient28469-0">
      <stop
         id="stop28479-4"
         offset="0"
         style="stop-color:#d2940a;stop-opacity:1" />
      <stop
         id="stop28477-2"
         offset="0.75143719"
         style="stop-color:#d89c08;stop-opacity:1" />
      <stop
         style="stop-color:#b67e07;stop-opacity:1;"
         offset="0.86579126"
         id="stop28485-7" />
      <stop
         style="stop-color:#946106;stop-opacity:1"
         offset="1"
         id="stop28473-1" />
    </linearGradient>
    <inkscape:path-effect
       effect="spiro"
       id="path-effect28463-4"
       is_visible="true" />
    <inkscape:path-effect
       effect="spiro"
       id="path-effect28489-4"
       is_visible="true" />
    <inkscape:path-effect
       effect="spiro"
       id="path-effect28273-54-7"
       is_visible="true" />
    <linearGradient
       id="linearGradient28275-8">
      <stop
         style="stop-color:#ad780a;stop-opacity:1"
         offset="0"
         id="stop28277-1" />
      <stop
         id="stop28291-9"
         offset="0.11972899"
         style="stop-color:#d89e08;stop-opacity:1" />
      <stop
         id="stop28289-6"
         offset="0.25514477"
         style="stop-color:#edb80b;stop-opacity:1" />
      <stop
         id="stop28287-6"
         offset="0.39194193"
         style="stop-color:#ebc80d;stop-opacity:1" />
      <stop
         id="stop28285-7"
         offset="0.52741116"
         style="stop-color:#f5d838;stop-opacity:1" />
      <stop
         id="stop28283-7"
         offset="0.76906693"
         style="stop-color:#f6d811;stop-opacity:1" />
      <stop
         style="stop-color:#f5cd31;stop-opacity:1"
         offset="1"
         id="stop28279-5" />
    </linearGradient>
    <inkscape:path-effect
       effect="spiro"
       id="path-effect28273-44"
       is_visible="true" />
    <inkscape:path-effect
       effect="spiro"
       id="path-effect28384-7"
       is_visible="true" />
    <linearGradient
       id="linearGradient29529-6">
      <stop
         style="stop-color:#3a2903;stop-opacity:1;"
         offset="0"
         id="stop29531-0" />
      <stop
         id="stop29539-7"
         offset="0.55472803"
         style="stop-color:#735208;stop-opacity:1" />
      <stop
         style="stop-color:#ac8c04;stop-opacity:1"
         offset="1"
         id="stop29533-8" />
    </linearGradient>
    <inkscape:path-effect
       effect="spiro"
       id="path-effect29553-7"
       is_visible="true" />
    <clipPath
       clipPathUnits="userSpaceOnUse"
       id="clipPath29644-8">
      <path
         style="fill:url(#radialGradient29648);fill-opacity:1;stroke:none"
         d="m 54.232441,122.36218 c -1.780966,0.097 -3.484616,0.91899 -4.787851,2.1367 -1.303235,1.21771 -2.221372,2.81176 -2.786181,4.50357 -1.129618,3.38363 -0.875481,7.05177 -0.618698,10.60973 0.23251,3.22162 0.470404,6.50533 1.676785,9.50158 0.60319,1.49813 1.450247,2.91021 2.580338,4.06395 1.130092,1.15374 2.551736,2.04189 4.118297,2.43447 1.468838,0.36809 3.038161,0.29183 4.482784,-0.16209 1.444623,-0.45391 2.763917,-1.27887 3.846236,-2.33791 1.57904,-1.54507 2.643262,-3.5662 3.253449,-5.68947 0.610186,-2.12328 0.784157,-4.35155 0.752401,-6.56053 -0.03974,-2.76435 -0.400909,-5.53851 -1.265755,-8.16439 -0.864846,-2.62588 -2.245742,-5.10327 -4.172795,-7.08561 -0.933308,-0.96009 -1.997766,-1.80513 -3.198586,-2.39747 -1.200819,-0.59233 -2.54344,-0.92535 -3.880424,-0.85253"
         id="path29646-8"
         inkscape:original-d="m 54.232441,122.36218 c -3.79199,4.78949 -8.5176,11.69104 -8.19273,17.25 0.32487,5.55896 3.86025,13.93486 8.37542,16 4.51517,2.06514 5.75436,0.0125 8.32902,-2.5 2.57466,-2.51247 3.85871,-7.34762 4.00585,-12.25 0.14713,-4.90238 -3.03534,-11.91949 -5.43855,-15.25 -2.40321,-3.33051 -3.28702,-8.03949 -7.07901,-3.25 z"
         inkscape:connector-curvature="0"
         sodipodi:nodetypes="zzzzzzz" />
    </clipPath>
    <inkscape:path-effect
       effect="spiro"
       id="path-effect29707-7-6"
       is_visible="true" />
    <clipPath
       id="clipPath14656-7"
       clipPathUnits="userSpaceOnUse">
      <path
         style="fill:none;stroke:#c17d11;stroke-width:1px;stroke-linecap:butt;stroke-linejoin:miter;stroke-opacity:1"
         inkscape:original-d="m 304.84727,225.44951 c 5.05628,5.63479 9.72833,12.47181 10.94319,20.00305 1.91724,11.88535 -4.97006,23.58228 -6.44591,35.53273 -0.57645,4.66766 -2.84839,9.7988 -0.93525,14.08107 1.10334,2.46967 3.76154,4.35176 6.36677,4.92292 5.08221,1.1142 11.95719,2.41291 15.20182,-3.54776 6.07775,-11.16533 10.5961,-26.78641 9.45943,-38.64224 -0.906,-9.44981 -3.86858,-18.61978 -7.74003,-27.40773 -2.817,-6.39442 -6.14704,-12.5833 -9.61753,-18.52016 -3.44146,-5.88721 -8.20051,-10.94245 -13.10336,-15.63502 -6.34842,-6.07614 -12.40311,-17.98386 -20.89399,-15.99204 -5.48499,1.28669 -7.45029,9.57719 -7.69578,15.30218 -0.17245,4.02188 2.46425,7.71677 4.46569,11.18873 2.26238,3.92465 5.10447,7.56255 8.38442,10.65407 3.43735,3.23988 8.4511,4.53927 11.61053,8.0602 z"
         id="path14658-9"
         d="m 304.84727,225.44951 c 6.01627,4.92338 9.77707,12.317 10.94319,20.00305 1.8254,12.03148 -2.34636,24.07488 -6.44591,35.53273 -0.81749,2.28481 -1.63978,4.59033 -1.96473,6.99513 -0.32495,2.4048 -0.11897,4.94825 1.02948,7.08594 1.30279,2.42497 3.73227,4.12469 6.36677,4.92292 2.58877,0.78438 5.39365,0.76103 8.01466,0.0922 2.62101,-0.66882 5.06097,-1.96774 7.18716,-3.63996 5.48002,-4.30997 8.75799,-10.98552 10.01043,-17.84394 1.25243,-6.85841 0.63908,-13.92879 -0.551,-20.7983 -1.62313,-9.36916 -4.30898,-18.53961 -7.74003,-27.40773 -2.51766,-6.50732 -5.46794,-12.91081 -9.61753,-18.52016 -4.04611,-5.46946 -9.16208,-10.08954 -13.10336,-15.63502 -2.73209,-3.84412 -4.89983,-8.13097 -8.1917,-11.50812 -1.64594,-1.68858 -3.57654,-3.13527 -5.76975,-4.00143 -2.19321,-0.86616 -4.66356,-1.12446 -6.93254,-0.48249 -1.50468,0.42573 -2.89193,1.23739 -4.03791,2.30136 -1.14598,1.06397 -2.05268,2.37637 -2.69275,3.80312 -1.28015,2.85349 -1.47719,6.11241 -0.96512,9.1977 0.66114,3.98343 2.44407,7.69333 4.46569,11.18873 2.27396,3.93169 4.918,7.71926 8.38442,10.65407 3.5985,3.04664 7.96161,5.07413 11.61053,8.0602"
         inkscape:connector-curvature="0"
         sodipodi:nodetypes="aaaaassssaaaaaa" />
    </clipPath>
    <inkscape:path-effect
       effect="spiro"
       id="path-effect4500-7"
       is_visible="true" />
    <inkscape:path-effect
       effect="spiro"
       id="path-effect4582-3"
       is_visible="true" />
    <inkscape:path-effect
       is_visible="true"
       id="path-effect14300-7"
       effect="spiro" />
    <clipPath
       id="clipPath14489-3"
       clipPathUnits="userSpaceOnUse">
      <path
         inkscape:original-d="m 516.00562,331.8756 c 0.90859,1.59687 -1.57016,3.38773 -2.81579,4.73826 -2.74207,2.97299 -6.45099,4.90178 -9.89648,7.01985 -5.91373,3.63539 -12.61918,5.90302 -18.41964,9.71654 -3.88318,2.553 -7.32809,5.72221 -10.86016,8.74238 -3.0221,2.58411 -5.48201,5.87643 -8.83247,8.01771 -3.3519,2.1422 -7.0437,4.15414 -10.99061,4.6502 -4.78298,0.60114 -9.87221,-0.25577 -14.29898,-2.16416 -3.0947,-1.33413 -6.16113,-3.38144 -7.96301,-6.22931 -1.81288,-2.86525 -2.06093,-6.5375 -2.23266,-9.92375 -0.30734,-6.06031 1.36252,-12.0605 2.17848,-18.07349 0.67882,-5.00236 1.85312,-9.94325 2.26013,-14.97502 0.73946,-9.14185 -0.7797,-18.40771 0.3199,-27.51327 0.35468,-2.93704 -0.181,-6.65876 2.01238,-8.64398 2.0384,-1.84494 5.43058,-1.1212 8.17929,-1.06253 3.34492,0.0714 6.63224,0.95108 9.88917,1.71656 2.05612,0.48325 3.99816,1.41138 6.0722,1.81081 3.44031,0.66255 6.96573,1.06623 10.46739,0.95192 3.78516,-0.12356 7.43659,-1.79636 11.22363,-1.76474 1.55185,0.013 3.12359,0.28186 4.58649,0.79985 1.48266,0.52499 2.98786,1.20618 4.12281,2.29512 0.86547,0.83038 1.42933,1.95676 1.87872,3.06879 0.67163,1.66196 0.8942,3.4778 1.16703,5.24945 0.24238,1.57389 -0.1531,3.27141 0.41433,4.75933 1.83023,4.79924 5.57666,8.72712 9.22489,12.34277 1.74278,1.93455 4.03041,3.53404 6.16708,4.82839 2.26886,1.37444 4.3675,2.44991 5.46279,4.81597 0.65901,1.48517 -0.54371,3.76097 0.68307,4.82635 z"
         sodipodi:nodetypes="aaaaaaaaaaaaaaaaaaaaaaaacscaa"
         inkscape:connector-curvature="0"
         id="path14491-6"
         d="m 516.00562,331.8756 c -0.6714,1.71905 -1.62682,3.32679 -2.81579,4.73826 -2.6238,3.11482 -6.268,5.17039 -9.89648,7.01985 -6.1886,3.15437 -12.60169,5.92177 -18.41964,9.71654 -3.89802,2.54249 -7.4959,5.52671 -10.86016,8.74238 -2.87719,2.75012 -5.60582,5.68745 -8.83247,8.01771 -3.25567,2.35122 -7.01915,4.05426 -10.99061,4.6502 -4.83026,0.72481 -9.82134,-0.21289 -14.29898,-2.16416 -3.13754,-1.36728 -6.15569,-3.3229 -7.96301,-6.22931 -1.81425,-2.91754 -2.22807,-6.48813 -2.23266,-9.92375 -0.008,-6.07666 1.11824,-12.09004 2.17848,-18.07349 0.88097,-4.97177 1.71949,-9.95483 2.26013,-14.97502 0.98337,-9.13118 0.9763,-18.35278 0.3199,-27.51327 -0.10993,-1.53416 -0.23754,-3.0832 -0.008,-4.60412 0.22922,-1.52092 0.85475,-3.0367 2.02069,-4.03986 1.07696,-0.9266 2.52093,-1.33598 3.93947,-1.4145 1.41854,-0.0785 2.83404,0.14655 4.23982,0.35197 3.31254,0.48405 6.65159,0.8649 9.88917,1.71656 2.04284,0.53738 4.03315,1.25925 6.0722,1.81081 3.40258,0.92039 6.96639,1.36144 10.46739,0.95192 3.76917,-0.44089 7.42987,-1.85678 11.22363,-1.76474 1.55658,0.0378 3.1015,0.33171 4.58649,0.79985 1.51539,0.47772 3.00914,1.16182 4.12281,2.29512 0.84639,0.8613 1.43579,1.94539 1.87872,3.06879 0.65982,1.67352 1.01492,3.457 1.16703,5.24945 0.13475,1.58788 0.11343,3.19441 0.41433,4.75933 0.49503,2.57458 1.84746,4.92305 3.52848,6.93494 1.68102,2.01189 3.68982,3.72048 5.69641,5.40783 1.99908,1.68103 4.0106,3.35469 6.16708,4.82839 1.0121,0.69165 2.05642,1.33949 3.01736,2.10062 0.96094,0.76113 1.84466,1.6468 2.44543,2.71535 0.81492,1.44944 1.06377,3.2077 0.68307,4.82635 l 2e-5,0"
         style="fill:url(#linearGradient14493);fill-opacity:1;stroke:none" />
    </clipPath>
    <inkscape:path-effect
       is_visible="true"
       id="path-effect14300-2-7"
       effect="spiro" />
    <clipPath
       id="clipPath14481-1"
       clipPathUnits="userSpaceOnUse">
      <path
         inkscape:original-d="m 516.00562,331.8756 c 0.90859,1.59687 -1.57016,3.38773 -2.81579,4.73826 -2.74207,2.97299 -6.45099,4.90178 -9.89648,7.01985 -5.91373,3.63539 -12.61918,5.90302 -18.41964,9.71654 -3.88318,2.553 -7.32809,5.72221 -10.86016,8.74238 -3.0221,2.58411 -5.48201,5.87643 -8.83247,8.01771 -3.3519,2.1422 -7.0437,4.15414 -10.99061,4.6502 -4.78298,0.60114 -9.87221,-0.25577 -14.29898,-2.16416 -3.0947,-1.33413 -6.16113,-3.38144 -7.96301,-6.22931 -1.81288,-2.86525 -2.06093,-6.5375 -2.23266,-9.92375 -0.30734,-6.06031 1.36252,-12.0605 2.17848,-18.07349 0.67882,-5.00236 1.85312,-9.94325 2.26013,-14.97502 0.73946,-9.14185 -0.7797,-18.40771 0.3199,-27.51327 0.35468,-2.93704 -0.181,-6.65876 2.01238,-8.64398 2.0384,-1.84494 5.43058,-1.1212 8.17929,-1.06253 3.34492,0.0714 6.63224,0.95108 9.88917,1.71656 2.05612,0.48325 3.99816,1.41138 6.0722,1.81081 3.44031,0.66255 6.96573,1.06623 10.46739,0.95192 3.78516,-0.12356 7.43659,-1.79636 11.22363,-1.76474 1.55185,0.013 3.12359,0.28186 4.58649,0.79985 1.48266,0.52499 2.98786,1.20618 4.12281,2.29512 0.86547,0.83038 1.42933,1.95676 1.87872,3.06879 0.67163,1.66196 0.8942,3.4778 1.16703,5.24945 0.24238,1.57389 -0.1531,3.27141 0.41433,4.75933 1.83023,4.79924 5.57666,8.72712 9.22489,12.34277 1.74278,1.93455 4.03041,3.53404 6.16708,4.82839 2.26886,1.37444 4.3675,2.44991 5.46279,4.81597 0.65901,1.48517 -0.54371,3.76097 0.68307,4.82635 z"
         sodipodi:nodetypes="aaaaaaaaaaaaaaaaaaaaaaaacscaa"
         inkscape:connector-curvature="0"
         id="path14483-3"
         d="m 516.00562,331.8756 c -0.6714,1.71905 -1.62682,3.32679 -2.81579,4.73826 -2.6238,3.11482 -6.268,5.17039 -9.89648,7.01985 -6.1886,3.15437 -12.60169,5.92177 -18.41964,9.71654 -3.89802,2.54249 -7.4959,5.52671 -10.86016,8.74238 -2.87719,2.75012 -5.60582,5.68745 -8.83247,8.01771 -3.25567,2.35122 -7.01915,4.05426 -10.99061,4.6502 -4.83026,0.72481 -9.82134,-0.21289 -14.29898,-2.16416 -3.13754,-1.36728 -6.15569,-3.3229 -7.96301,-6.22931 -1.81425,-2.91754 -2.22807,-6.48813 -2.23266,-9.92375 -0.008,-6.07666 1.11824,-12.09004 2.17848,-18.07349 0.88097,-4.97177 1.71949,-9.95483 2.26013,-14.97502 0.98337,-9.13118 0.9763,-18.35278 0.3199,-27.51327 -0.10993,-1.53416 -0.23754,-3.0832 -0.008,-4.60412 0.22922,-1.52092 0.85475,-3.0367 2.02069,-4.03986 1.07696,-0.9266 2.52093,-1.33598 3.93947,-1.4145 1.41854,-0.0785 2.83404,0.14655 4.23982,0.35197 3.31254,0.48405 6.65159,0.8649 9.88917,1.71656 2.04284,0.53738 4.03315,1.25925 6.0722,1.81081 3.40258,0.92039 6.96639,1.36144 10.46739,0.95192 3.76917,-0.44089 7.42987,-1.85678 11.22363,-1.76474 1.55658,0.0378 3.1015,0.33171 4.58649,0.79985 1.51539,0.47772 3.00914,1.16182 4.12281,2.29512 0.84639,0.8613 1.43579,1.94539 1.87872,3.06879 0.65982,1.67352 1.01492,3.457 1.16703,5.24945 0.13475,1.58788 0.11343,3.19441 0.41433,4.75933 0.49503,2.57458 1.84746,4.92305 3.52848,6.93494 1.68102,2.01189 3.68982,3.72048 5.69641,5.40783 1.99908,1.68103 4.0106,3.35469 6.16708,4.82839 1.0121,0.69165 2.05642,1.33949 3.01736,2.10062 0.96094,0.76113 1.84466,1.6468 2.44543,2.71535 0.81492,1.44944 1.06377,3.2077 0.68307,4.82635 l 2e-5,0"
         style="fill:url(#linearGradient14485);fill-opacity:1;stroke:none" />
    </clipPath>
    <inkscape:path-effect
       is_visible="true"
       id="path-effect14300-2-2-0"
       effect="spiro" />
    <clipPath
       id="clipPath14473-5"
       clipPathUnits="userSpaceOnUse">
      <path
         inkscape:original-d="m 511.82669,331.89986 c 0.79493,1.29584 -1.37375,2.7491 -2.46357,3.84504 -2.39907,2.41255 -5.64405,3.97773 -8.65855,5.69652 -5.17399,2.95008 -11.04067,4.79023 -16.11556,7.88485 -3.39744,2.07173 -6.41144,4.64351 -9.50169,7.09434 -2.64407,2.09697 -4.79627,4.76865 -7.72763,6.50627 -2.93262,1.73837 -6.16262,3.37103 -9.61582,3.77358 -4.18468,0.48781 -8.63731,-0.20756 -12.51035,-1.75619 -2.70759,-1.08263 -5.39044,-2.744 -6.96693,-5.05501 -1.58611,-2.32511 -1.80313,-5.3051 -1.95338,-8.053 -0.2689,-4.91787 1.19208,-9.78694 1.90598,-14.66641 0.59391,-4.05935 1.62131,-8.06882 1.97741,-12.15204 0.64696,-7.4185 -0.68217,-14.93763 0.27989,-22.32668 0.31031,-2.38337 -0.15836,-5.4035 1.76065,-7.01448 1.78342,-1.49715 4.75128,-0.90984 7.15616,-0.86223 2.92651,0.0579 5.80263,0.77179 8.65215,1.39297 1.79893,0.39215 3.49804,1.14531 5.31265,1.46945 3.00996,0.53765 6.0944,0.86523 9.15804,0.77247 3.31168,-0.10027 6.50636,-1.45773 9.81969,-1.43207 1.35773,0.0105 2.73287,0.22873 4.01277,0.64907 1.2972,0.42602 2.61412,0.9788 3.6071,1.86246 0.75721,0.67384 1.25054,1.58789 1.64371,2.49029 0.58762,1.34866 0.78235,2.82219 1.02105,4.25986 0.21206,1.27719 -0.13395,2.65471 0.36251,3.86214 1.60129,3.89452 4.87908,7.08195 8.07096,10.016 1.52478,1.56986 3.52626,2.86783 5.39565,3.91818 1.98506,1.11534 3.82118,1.98807 4.77946,3.9081 0.57658,1.2052 -0.47569,3.05198 0.59763,3.91652 z"
         sodipodi:nodetypes="aaaaaaaaaaaaaaaaaaaaaaaacscaa"
         inkscape:connector-curvature="0"
         id="path14475-9"
         d="m 511.82669,331.89986 c -0.60617,1.40358 -1.44178,2.70776 -2.46357,3.84504 -2.32524,2.58805 -5.50706,4.22246 -8.65855,5.69652 -5.42045,2.53534 -11.00071,4.7788 -16.11556,7.88485 -3.38301,2.05437 -6.53696,4.47221 -9.50169,7.09434 -2.52461,2.23286 -4.92977,4.6271 -7.72763,6.50627 -2.88313,1.93644 -6.17534,3.29888 -9.61582,3.77358 -4.21817,0.58201 -8.55335,-0.18335 -12.51035,-1.75619 -2.7091,-1.07682 -5.36625,-2.6185 -6.96693,-5.05501 -1.53813,-2.3413 -1.9333,-5.25173 -1.95338,-8.053 -0.0354,-4.93859 0.96501,-9.81816 1.90598,-14.66641 0.78215,-4.02995 1.52682,-8.0717 1.97741,-12.15204 0.81784,-7.40607 0.66114,-14.88536 0.27989,-22.32668 -0.064,-1.24906 -0.13361,-2.5105 0.0789,-3.74301 0.21256,-1.23251 0.73646,-2.45247 1.68171,-3.27147 0.93914,-0.8137 2.20952,-1.15942 3.45104,-1.2115 1.24152,-0.0521 2.47642,0.16381 3.70512,0.34927 2.88969,0.43617 5.81087,0.7091 8.65215,1.39297 1.78651,0.43 3.53091,1.02011 5.31265,1.46945 2.98632,0.75312 6.09645,1.10709 9.15804,0.77247 3.2941,-0.36004 6.50688,-1.50957 9.81969,-1.43207 1.35838,0.0318 2.70755,0.27142 4.01277,0.64907 1.31265,0.3798 2.61744,0.9202 3.6071,1.86246 0.72535,0.69061 1.25006,1.56936 1.64371,2.49029 0.57625,1.34814 0.88626,2.79994 1.02105,4.25986 0.11897,1.28855 0.10468,2.59405 0.36251,3.86214 0.4369,2.14878 1.63966,4.08139 3.11506,5.70353 1.4754,1.62214 3.22406,2.96752 4.9559,4.31247 1.75634,1.36398 3.50975,2.7398 5.39565,3.91818 0.88228,0.55128 1.79349,1.05932 2.63473,1.67142 0.84123,0.61209 1.61878,1.33907 2.14473,2.23668 0.68386,1.16711 0.90229,2.59857 0.59763,3.91652 l 2e-5,0"
         style="fill:url(#linearGradient14477);fill-opacity:1;stroke:none" />
    </clipPath>
    <linearGradient
       id="linearGradient14518-6">
      <stop
         style="stop-color:#110800;stop-opacity:1;"
         offset="0"
         id="stop14540-0" />
      <stop
         id="stop14542-5"
         offset="0.59066743"
         style="stop-color:#a65a00;stop-opacity:0.80000001;" />
      <stop
         id="stop14522-4"
         offset="1"
         style="stop-color:#ff921e;stop-opacity:0;" />
    </linearGradient>
    <inkscape:path-effect
       effect="spiro"
       id="path-effect29716-0-0"
       is_visible="true" />
    <inkscape:path-effect
       effect="spiro"
       id="path-effect29716-0-8-3"
       is_visible="true" />
    <inkscape:path-effect
       effect="spiro"
       id="path-effect29716-6-1"
       is_visible="true" />
    <clipPath
       id="clipPath14822-9"
       clipPathUnits="userSpaceOnUse">
      <path
         style="fill:none;stroke:#ce5c00;stroke-width:1px;stroke-linecap:butt;stroke-linejoin:miter;stroke-opacity:1"
         inkscape:original-d="m 386.1875,285.32775 c -2.36571,-3.81321 -7.59294,-4.9003 -11.805,-6.41698 -2.08672,-0.75138 -4.32322,-1.04333 -6.52782,-1.27734 -2.27612,-0.2416 -4.71593,-0.91505 -6.8653,-0.1253 -3.64566,1.33955 -7.24986,3.80684 -8.75671,7.70871 -1.13743,2.94527 -1.80122,7.05909 -1.65394,10.40316 0.13075,2.96891 0.9633,5.07273 2.60877,7.33912 1.08803,1.49859 3.40096,2.67896 5.43398,3.22092 3.49923,0.93284 7.37483,0.82779 10.86038,-0.1553 5.98587,-2.2615 11.09272,-5.76885 14.33034,-10.77903 1.07459,-1.67639 2.15539,-3.45031 2.5532,-5.4034 0.30053,-1.4755 0.61519,-3.23621 -0.1779,-4.51456 z"
         id="path14824-1"
         d="m 386.1875,285.32775 c -0.40516,-1.10369 -1.11845,-2.08156 -1.9907,-2.86987 -0.87226,-0.78832 -1.90049,-1.39229 -2.98278,-1.85155 -2.16459,-0.91852 -4.52053,-1.26149 -6.83152,-1.69556 -2.17919,-0.40931 -4.34179,-0.90631 -6.52782,-1.27734 -2.27136,-0.38551 -4.6179,-0.63213 -6.8653,-0.1253 -1.96583,0.44333 -3.7845,1.45879 -5.27172,2.81864 -1.48723,1.35984 -2.64911,3.0564 -3.48499,4.89007 -1.47218,3.22952 -1.93451,6.86503 -1.65394,10.40316 0.20882,2.63325 0.87532,5.34594 2.60877,7.33912 1.40065,1.61052 3.38733,2.61526 5.43398,3.22092 3.52502,1.04316 7.36663,0.98822 10.86038,-0.1553 5.76689,-1.93113 10.87568,-5.77387 14.33034,-10.77903 1.13861,-1.64963 2.11217,-3.44809 2.5532,-5.4034 0.33597,-1.48955 0.34831,-3.08112 -0.1779,-4.51456"
         inkscape:connector-curvature="0"
         sodipodi:nodetypes="aaaasssaccaa" />
    </clipPath>
    <clipPath
       id="clipPath14822-2-4"
       clipPathUnits="userSpaceOnUse">
      <path
         style="fill:none;stroke:#ce5c00;stroke-width:1px;stroke-linecap:butt;stroke-linejoin:miter;stroke-opacity:1"
         inkscape:original-d="m 386.1875,285.32775 c -2.36571,-3.81321 -7.59294,-4.9003 -11.805,-6.41698 -2.08672,-0.75138 -4.32322,-1.04333 -6.52782,-1.27734 -2.27612,-0.2416 -4.71593,-0.91505 -6.8653,-0.1253 -3.64566,1.33955 -7.24986,3.80684 -8.75671,7.70871 -1.13743,2.94527 -1.80122,7.05909 -1.65394,10.40316 0.13075,2.96891 0.9633,5.07273 2.60877,7.33912 1.08803,1.49859 3.40096,2.67896 5.43398,3.22092 3.49923,0.93284 7.37483,0.82779 10.86038,-0.1553 5.98587,-2.2615 11.09272,-5.76885 14.33034,-10.77903 1.07459,-1.67639 2.15539,-3.45031 2.5532,-5.4034 0.30053,-1.4755 0.61519,-3.23621 -0.1779,-4.51456 z"
         id="path14824-6-5"
         d="m 386.1875,285.32775 c -0.40516,-1.10369 -1.11845,-2.08156 -1.9907,-2.86987 -0.87226,-0.78832 -1.90049,-1.39229 -2.98278,-1.85155 -2.16459,-0.91852 -4.52053,-1.26149 -6.83152,-1.69556 -2.17919,-0.40931 -4.34179,-0.90631 -6.52782,-1.27734 -2.27136,-0.38551 -4.6179,-0.63213 -6.8653,-0.1253 -1.96583,0.44333 -3.7845,1.45879 -5.27172,2.81864 -1.48723,1.35984 -2.64911,3.0564 -3.48499,4.89007 -1.47218,3.22952 -1.93451,6.86503 -1.65394,10.40316 0.20882,2.63325 0.87532,5.34594 2.60877,7.33912 1.40065,1.61052 3.38733,2.61526 5.43398,3.22092 3.52502,1.04316 7.36663,0.98822 10.86038,-0.1553 5.76689,-1.93113 10.87568,-5.77387 14.33034,-10.77903 1.13861,-1.64963 2.11217,-3.44809 2.5532,-5.4034 0.33597,-1.48955 0.34831,-3.08112 -0.1779,-4.51456"
         inkscape:connector-curvature="0"
         sodipodi:nodetypes="aaaasssaccaa" />
    </clipPath>
    <inkscape:path-effect
       is_visible="true"
       id="path-effect14972-2-2"
       effect="spiro" />
    <inkscape:path-effect
       is_visible="true"
       id="path-effect15017-9"
       effect="spiro" />
    <clipPath
       id="clipPath15031-3"
       clipPathUnits="userSpaceOnUse">
      <path
         sodipodi:nodetypes="czzzzzzzzzzzzzzzszzzzzc"
         inkscape:original-d="m 248.06066,184.61218 c 0,0 -5.10626,6.34527 -7.89695,10.24696 -2.7907,3.9017 -5.73652,6.64881 -8.58729,10.75139 -2.85076,4.10259 -7.36482,9.43164 -9.44912,13.93045 -2.08429,4.49881 -2.32047,9.0356 -4.26498,13.84932 -1.94451,4.81371 -3.70129,10.64183 -5.97071,15.33612 -2.26943,4.69429 -5.37093,9.68473 -6.93891,13.53553 -1.56799,3.8508 -3.81119,5.72384 -4.10782,10.22071 -0.29663,4.49686 -0.57747,8.31749 3.77151,16.77227 4.34898,8.45478 17.23626,22.00721 24.24176,27.92472 7.00549,5.9175 9.39133,7.22492 14.60245,8.52595 5.21112,1.30104 13.85627,2.9981 16.72874,-1.2702 2.87246,-4.26829 2.27191,-5.96483 -0.74863,-10.66616 -3.02055,-4.70132 -4.82469,-5.30209 -9.79642,-9.57343 -4.97172,-4.27133 -18.63696,-14.87266 -22.68212,-19.23996 -4.04516,-4.36729 -7.10731,-3.41164 -5.53019,-6.28412 1.57712,-2.87249 -2.20738,-4.00856 -2.65783,-7.69253 -0.76361,-6.24511 0.9436,-18.71046 1.45958,-22.13343 0.51598,-3.42296 1.22371,-2.92446 3.51815,-8.03965 2.29444,-5.11519 4.12424,-8.62435 7.04933,-13.46723 2.92509,-4.84289 8.62493,-10.12787 11.15147,-15.27803 2.52654,-5.15017 3.50393,-10.72068 4.36185,-15.31831 0.85792,-4.59763 1.74613,-12.13037 1.74613,-12.13037 z"
         inkscape:connector-curvature="0"
         id="path15033-2"
         d="m 248.06066,184.61218 c -2.60091,3.4397 -5.23338,6.85555 -7.89695,10.24696 -2.83301,3.60715 -5.70116,7.1866 -8.58729,10.75139 -3.54135,4.37407 -7.15155,8.79286 -9.44912,13.93045 -1.97407,4.41422 -2.91014,9.20748 -4.26498,13.84932 -1.53862,5.27153 -3.62627,10.37023 -5.97071,15.33612 -2.1648,4.58539 -4.54978,9.06293 -6.93891,13.53553 -1.73823,3.25407 -3.50515,6.58104 -4.10782,10.22071 -0.47627,2.87632 -0.19849,5.84423 0.53376,8.66626 0.73224,2.82202 1.90964,5.5106 3.23775,8.10601 5.66724,11.07504 14.17003,20.62168 24.24176,27.92472 4.57063,3.31418 9.46669,6.18109 14.60245,8.52595 2.78247,1.27041 5.71355,2.40436 8.77186,2.45744 1.52915,0.0265 3.0741,-0.22544 4.47434,-0.84055 1.40024,-0.6151 2.65068,-1.60373 3.48254,-2.88709 1.02278,-1.5779 1.36992,-3.53829 1.16461,-5.40743 -0.2053,-1.86914 -0.93484,-3.65294 -1.91324,-5.25873 -2.38997,-3.92251 -6.1652,-6.76055 -9.79642,-9.57343 -7.84055,-6.07358 -15.42466,-12.48038 -22.68212,-19.23996 -2.04911,-1.90854 -4.0984,-3.87759 -5.53019,-6.28412 -1.3943,-2.34352 -2.14763,-5.01375 -2.65783,-7.69253 -1.39963,-7.34872 -1.0404,-15.0827 1.45958,-22.13343 0.97802,-2.75834 2.27066,-5.39225 3.51815,-8.03965 2.1622,-4.58855 4.21133,-9.26299 7.04933,-13.46723 3.53268,-5.23334 8.24484,-9.67275 11.15147,-15.27803 2.45457,-4.7335 3.49353,-10.05742 4.36185,-15.31831 0.66531,-4.03089 1.24751,-8.07549 1.74613,-12.13037"
         style="fill:none;stroke:#729fcf;stroke-width:0.125;stroke-linecap:butt;stroke-linejoin:miter;stroke-miterlimit:4;stroke-dasharray:none;stroke-opacity:1" />
    </clipPath>
    <clipPath
       id="clipPath14186-9"
       clipPathUnits="userSpaceOnUse">
      <path
         style="fill:#402c07;fill-opacity:1;stroke:none"
         d="m 137.57703,281.0191 c 1.59929,-0.66295 3.3982,-0.78361 5.10074,-0.46963 1.70253,0.31398 3.31141,1.04948 4.74342,2.02239 2.86402,1.94583 4.98821,4.77774 7.02263,7.57952 4.67189,6.43406 9.16868,13.00227 13.24488,19.8293 3.30635,5.53766 6.34352,11.25685 10.16415,16.45304 2.49398,3.3919 5.3066,6.53947 7.813,9.92221 2.50639,3.38273 4.72794,7.05586 5.83931,11.11662 1.44411,5.27653 0.88463,11.09291 -1.62666,15.95302 -1.76663,3.41896 -4.47646,6.35228 -7.77242,8.33898 -3.29595,1.9867 -7.17064,3.01444 -11.01635,2.87021 -6.11413,-0.2293 -11.69944,-3.28515 -17.38362,-5.54906 -11.58097,-4.6125 -24.15978,-6.0594 -36.09666,-9.65174 -3.66859,-1.10404 -7.27582,-2.4107 -10.96988,-3.42629 -1.64125,-0.45122 -3.30866,-0.8482 -4.85875,-1.55144 -1.55008,-0.70325 -2.999548,-1.7491 -3.86171,-3.21675 -0.666391,-1.13439 -0.948386,-2.47002 -0.930187,-3.78554 0.0182,-1.31552 0.325889,-2.61453 0.773815,-3.85158 0.895851,-2.47409 2.343262,-4.71374 3.320162,-7.15696 1.59511,-3.98935 1.88169,-8.38839 1.66657,-12.67942 -0.21511,-4.29103 -0.91078,-8.54478 -1.20454,-12.83115 -0.13118,-1.91406 -0.18066,-3.85256 0.18479,-5.73598 0.36545,-1.88343 1.17577,-3.72459 2.55771,-5.05541 1.27406,-1.22693 2.96492,-1.95531 4.69643,-2.31651 1.73151,-0.3612 3.51533,-0.37747 5.28367,-0.33762 1.76833,0.0399 3.54067,0.13425 5.30351,-0.0106 1.76284,-0.14488 3.53347,-0.54055 5.06911,-1.41828 1.45996,-0.83447 2.65433,-2.0745 3.64374,-3.43424 0.9894,-1.35974 1.78909,-2.84573 2.60891,-4.31396 0.81983,-1.46823 1.66834,-2.93151 2.74157,-4.22611 1.07324,-1.2946 2.38923,-2.42304 3.94266,-3.06698"
         id="path14188-1"
         inkscape:connector-curvature="0"
         sodipodi:nodetypes="ssssssssssssssss"
         inkscape:original-d="m 137.57703,281.0191 c 6.32494,-1.3585 11.99755,4.87308 16.86679,9.13228 6.42572,5.62067 -8.54781,26.01622 13.24488,19.8293 5.86081,-1.66388 6.89528,11.31183 10.16415,16.45304 4.09971,6.44793 11.58575,13.6827 13.65231,21.03883 1.58383,5.63779 1.34339,10.90606 -1.62666,15.95302 -3.57124,6.06857 -11.7907,10.42929 -18.78877,11.20919 -5.73056,0.63864 -11.87822,-3.8351 -17.38362,-5.54906 -12.31617,-3.83432 -23.77946,-5.82074 -36.09666,-9.65174 -2.50091,-0.77785 -8.28361,-2.638 -10.96988,-3.42629 -4.51043,-1.3236 -6.46556,-0.99271 -8.72046,-4.76819 -2.68251,-4.49147 0.68051,-9.72669 3.16379,-14.79408 4.06995,-8.30524 1.91195,-17.82603 0.46203,-25.51057 -0.92235,-4.8884 -0.66071,-7.92707 2.7425,-10.79139 4.99476,-4.20385 14.53027,-1.53186 20.35272,-4.08305 5.82246,-2.55119 6.66365,-13.6939 12.93688,-15.04129 z" />
    </clipPath>
    <inkscape:path-effect
       effect="spiro"
       id="path-effect4669-1"
       is_visible="true" />
    <inkscape:path-effect
       effect="spiro"
       id="path-effect4669-4-3"
       is_visible="true" />
    <linearGradient
       id="linearGradient3312">
      <stop
         id="stop3314"
         offset="0"
         style="stop-color:#c7f994;stop-opacity:1;" />
      <stop
         id="stop3316"
         offset="1"
         style="stop-color:#87cf3e;stop-opacity:1;" />
    </linearGradient>
    <linearGradient
       id="linearGradient3431">
      <stop
         style="stop-color:#3d3d3d;stop-opacity:1;"
         offset="0"
         id="stop3433" />
      <stop
         style="stop-color:#000000;stop-opacity:0.11400651;"
         offset="1"
         id="stop3435" />
    </linearGradient>
    <clipPath
       id="clp82">
      <path
         id="path1826"
         d="M 1001.6,870.49 L 1036.3,870.49 L 1036.3,857.41 L 1001.6,857.41 L 1001.6,870.49 z " />
    </clipPath>
    <clipPath
       id="clp83">
      <path
         id="path1835"
         d="M 1001.6,870.49 L 1036.3,870.49 L 1036.3,857.41 L 1001.6,857.41 L 1001.6,870.49 z " />
    </clipPath>
    <clipPath
       id="clp84">
      <path
         id="path1844"
         d="M 1001.6,870.49 L 1036.3,870.49 L 1036.3,857.41 L 1001.6,857.41 L 1001.6,870.49 z " />
    </clipPath>
    <clipPath
       id="clp81">
      <path
         id="path1800"
         d="M 1000.9,934.34 L 1038.6,934.34 L 1038.6,922.24 L 1000.9,922.24 L 1000.9,934.34 z " />
    </clipPath>
    <clipPath
       id="clipPath116030">
      <path
         id="path116032"
         d="M 1001.6,870.49 L 1036.3,870.49 L 1036.3,857.41 L 1001.6,857.41 L 1001.6,870.49 z " />
    </clipPath>
    <clipPath
       id="clipPath116038">
      <path
         id="path116040"
         d="M 1001.6,870.49 L 1036.3,870.49 L 1036.3,857.41 L 1001.6,857.41 L 1001.6,870.49 z " />
    </clipPath>
    <clipPath
       id="clipPath116046">
      <path
         id="path116048"
         d="M 1001.6,870.49 L 1036.3,870.49 L 1036.3,857.41 L 1001.6,857.41 L 1001.6,870.49 z " />
    </clipPath>
    <linearGradient
       id="linearGradient5027"
       inkscape:collect="always">
      <stop
         id="stop5029"
         offset="0"
         style="stop-color:#ffffff;stop-opacity:1;" />
      <stop
         id="stop5031"
         offset="1"
         style="stop-color:#ffffff;stop-opacity:0;" />
    </linearGradient>
    <linearGradient
       gradientUnits="userSpaceOnUse"
       y2="33.272728"
       x2="32.636364"
       y1="-29.818182"
       x1="32"
       id="linearGradient5033"
       xlink:href="#linearGradient5027"
       inkscape:collect="always" />
    <inkscape:path-effect
       is_visible="true"
       id="path-effect29672-0-0"
       effect="spiro" />
    <inkscape:path-effect
       is_visible="true"
       id="path-effect29678-1-6"
       effect="spiro" />
    <inkscape:path-effect
       is_visible="true"
       id="path-effect29678-4-6-2"
       effect="spiro" />
    <inkscape:path-effect
       is_visible="true"
       id="path-effect28714-5-9"
       effect="spiro" />
    <inkscape:path-effect
       is_visible="true"
       id="path-effect29721-2-9"
       effect="spiro" />
    <inkscape:path-effect
       is_visible="true"
       id="path-effect28463-8-0-0"
       effect="spiro" />
    <inkscape:path-effect
       is_visible="true"
       id="path-effect28463-0-7-8"
       effect="spiro" />
    <inkscape:path-effect
       is_visible="true"
       id="path-effect28797-8-1-1"
       effect="spiro" />
    <inkscape:path-effect
       is_visible="true"
       id="path-effect28797-81-0"
       effect="spiro" />
    <inkscape:path-effect
       is_visible="true"
       id="path-effect28273-4-2-3"
       effect="spiro" />
    <inkscape:path-effect
       is_visible="true"
       id="path-effect28851-0-9"
       effect="spiro" />
    <inkscape:path-effect
       is_visible="true"
       id="path-effect28881-6-1"
       effect="spiro" />
    <inkscape:path-effect
       is_visible="true"
       id="path-effect28974-8-6"
       effect="spiro" />
    <clipPath
       id="clipPath29028-5-4"
       clipPathUnits="userSpaceOnUse">
      <path
         sodipodi:nodetypes="aaaaaaaa"
         inkscape:connector-curvature="0"
         inkscape:original-d="m 85.75,122.36218 c -2.54738,2.12715 -5.20812,4.59907 -6.25,7.75 -1.30914,3.95917 -1.63336,8.91703 0.5,12.5 3.91901,6.58194 12.38353,13.85135 19.75,11.75 4.87452,-1.3905 6.10748,-8.51023 7,-13.5 0.59149,-3.30679 0.59578,-7.19325 -1.25,-10 -3.61233,-5.49303 -10.4265,-9.89357 -17,-10 -1.04403,-0.0169 -1.94852,0.83074 -2.75,1.5 z"
         id="path29030-7-0"
         d="m 85.75,122.36218 c -2.780425,1.91023 -5.110569,4.57487 -6.25,7.75 -1.436029,4.00163 -0.885838,8.48071 0.5,12.5 1.419488,4.11688 3.793788,8.04098 7.37932,10.51234 1.792766,1.23567 3.868091,2.08301 6.030402,2.33859 2.162311,0.25558 4.409274,-0.0949 6.340278,-1.10093 2.35312,-1.22596 4.14782,-3.37278 5.26217,-5.78076 1.11436,-2.40798 1.5888,-5.0701 1.73783,-7.71924 0.18989,-3.37546 -0.14047,-6.80646 -1.25,-10 -1.20527,-3.46909 -3.39005,-6.67055 -6.472754,-8.6666 -1.541351,-0.99803 -3.291947,-1.68356 -5.110883,-1.93515 -1.818936,-0.25158 -3.704766,-0.0633 -5.416363,0.60175 -0.975471,0.37901 -1.887438,0.9074 -2.75,1.5"
         style="fill:url(#radialGradient29032);fill-opacity:1;stroke:none" />
    </clipPath>
    <inkscape:path-effect
       is_visible="true"
       id="path-effect29455-3-7"
       effect="spiro" />
    <inkscape:path-effect
       is_visible="true"
       id="path-effect28463-4-9"
       effect="spiro" />
    <inkscape:path-effect
       is_visible="true"
       id="path-effect28489-4-9"
       effect="spiro" />
    <inkscape:path-effect
       is_visible="true"
       id="path-effect28273-54-7-6"
       effect="spiro" />
    <inkscape:path-effect
       is_visible="true"
       id="path-effect28273-44-1"
       effect="spiro" />
    <inkscape:path-effect
       is_visible="true"
       id="path-effect28384-7-5"
       effect="spiro" />
    <inkscape:path-effect
       is_visible="true"
       id="path-effect29553-7-4"
       effect="spiro" />
    <clipPath
       id="clipPath29644-8-9"
       clipPathUnits="userSpaceOnUse">
      <path
         sodipodi:nodetypes="zzzzzzz"
         inkscape:connector-curvature="0"
         inkscape:original-d="m 54.232441,122.36218 c -3.79199,4.78949 -8.5176,11.69104 -8.19273,17.25 0.32487,5.55896 3.86025,13.93486 8.37542,16 4.51517,2.06514 5.75436,0.0125 8.32902,-2.5 2.57466,-2.51247 3.85871,-7.34762 4.00585,-12.25 0.14713,-4.90238 -3.03534,-11.91949 -5.43855,-15.25 -2.40321,-3.33051 -3.28702,-8.03949 -7.07901,-3.25 z"
         id="path29646-8-1"
         d="m 54.232441,122.36218 c -1.780966,0.097 -3.484616,0.91899 -4.787851,2.1367 -1.303235,1.21771 -2.221372,2.81176 -2.786181,4.50357 -1.129618,3.38363 -0.875481,7.05177 -0.618698,10.60973 0.23251,3.22162 0.470404,6.50533 1.676785,9.50158 0.60319,1.49813 1.450247,2.91021 2.580338,4.06395 1.130092,1.15374 2.551736,2.04189 4.118297,2.43447 1.468838,0.36809 3.038161,0.29183 4.482784,-0.16209 1.444623,-0.45391 2.763917,-1.27887 3.846236,-2.33791 1.57904,-1.54507 2.643262,-3.5662 3.253449,-5.68947 0.610186,-2.12328 0.784157,-4.35155 0.752401,-6.56053 -0.03974,-2.76435 -0.400909,-5.53851 -1.265755,-8.16439 -0.864846,-2.62588 -2.245742,-5.10327 -4.172795,-7.08561 -0.933308,-0.96009 -1.997766,-1.80513 -3.198586,-2.39747 -1.200819,-0.59233 -2.54344,-0.92535 -3.880424,-0.85253"
         style="fill:url(#radialGradient29648);fill-opacity:1;stroke:none" />
    </clipPath>
    <inkscape:path-effect
       is_visible="true"
       id="path-effect29707-7-6-0"
       effect="spiro" />
    <clipPath
       clipPathUnits="userSpaceOnUse"
       id="clipPath14656-7-7">
      <path
         sodipodi:nodetypes="aaaaassssaaaaaa"
         inkscape:connector-curvature="0"
         d="m 304.84727,225.44951 c 6.01627,4.92338 9.77707,12.317 10.94319,20.00305 1.8254,12.03148 -2.34636,24.07488 -6.44591,35.53273 -0.81749,2.28481 -1.63978,4.59033 -1.96473,6.99513 -0.32495,2.4048 -0.11897,4.94825 1.02948,7.08594 1.30279,2.42497 3.73227,4.12469 6.36677,4.92292 2.58877,0.78438 5.39365,0.76103 8.01466,0.0922 2.62101,-0.66882 5.06097,-1.96774 7.18716,-3.63996 5.48002,-4.30997 8.75799,-10.98552 10.01043,-17.84394 1.25243,-6.85841 0.63908,-13.92879 -0.551,-20.7983 -1.62313,-9.36916 -4.30898,-18.53961 -7.74003,-27.40773 -2.51766,-6.50732 -5.46794,-12.91081 -9.61753,-18.52016 -4.04611,-5.46946 -9.16208,-10.08954 -13.10336,-15.63502 -2.73209,-3.84412 -4.89983,-8.13097 -8.1917,-11.50812 -1.64594,-1.68858 -3.57654,-3.13527 -5.76975,-4.00143 -2.19321,-0.86616 -4.66356,-1.12446 -6.93254,-0.48249 -1.50468,0.42573 -2.89193,1.23739 -4.03791,2.30136 -1.14598,1.06397 -2.05268,2.37637 -2.69275,3.80312 -1.28015,2.85349 -1.47719,6.11241 -0.96512,9.1977 0.66114,3.98343 2.44407,7.69333 4.46569,11.18873 2.27396,3.93169 4.918,7.71926 8.38442,10.65407 3.5985,3.04664 7.96161,5.07413 11.61053,8.0602"
         id="path14658-9-5"
         inkscape:original-d="m 304.84727,225.44951 c 5.05628,5.63479 9.72833,12.47181 10.94319,20.00305 1.91724,11.88535 -4.97006,23.58228 -6.44591,35.53273 -0.57645,4.66766 -2.84839,9.7988 -0.93525,14.08107 1.10334,2.46967 3.76154,4.35176 6.36677,4.92292 5.08221,1.1142 11.95719,2.41291 15.20182,-3.54776 6.07775,-11.16533 10.5961,-26.78641 9.45943,-38.64224 -0.906,-9.44981 -3.86858,-18.61978 -7.74003,-27.40773 -2.817,-6.39442 -6.14704,-12.5833 -9.61753,-18.52016 -3.44146,-5.88721 -8.20051,-10.94245 -13.10336,-15.63502 -6.34842,-6.07614 -12.40311,-17.98386 -20.89399,-15.99204 -5.48499,1.28669 -7.45029,9.57719 -7.69578,15.30218 -0.17245,4.02188 2.46425,7.71677 4.46569,11.18873 2.26238,3.92465 5.10447,7.56255 8.38442,10.65407 3.43735,3.23988 8.4511,4.53927 11.61053,8.0602 z"
         style="fill:none;stroke:#c17d11;stroke-width:1px;stroke-linecap:butt;stroke-linejoin:miter;stroke-opacity:1" />
    </clipPath>
    <inkscape:path-effect
       is_visible="true"
       id="path-effect4500-7-8"
       effect="spiro" />
    <inkscape:path-effect
       is_visible="true"
       id="path-effect4582-3-7"
       effect="spiro" />
    <inkscape:path-effect
       effect="spiro"
       id="path-effect14300-7-0"
       is_visible="true" />
    <clipPath
       clipPathUnits="userSpaceOnUse"
       id="clipPath14489-3-4">
      <path
         style="fill:url(#linearGradient14493);fill-opacity:1;stroke:none"
         d="m 516.00562,331.8756 c -0.6714,1.71905 -1.62682,3.32679 -2.81579,4.73826 -2.6238,3.11482 -6.268,5.17039 -9.89648,7.01985 -6.1886,3.15437 -12.60169,5.92177 -18.41964,9.71654 -3.89802,2.54249 -7.4959,5.52671 -10.86016,8.74238 -2.87719,2.75012 -5.60582,5.68745 -8.83247,8.01771 -3.25567,2.35122 -7.01915,4.05426 -10.99061,4.6502 -4.83026,0.72481 -9.82134,-0.21289 -14.29898,-2.16416 -3.13754,-1.36728 -6.15569,-3.3229 -7.96301,-6.22931 -1.81425,-2.91754 -2.22807,-6.48813 -2.23266,-9.92375 -0.008,-6.07666 1.11824,-12.09004 2.17848,-18.07349 0.88097,-4.97177 1.71949,-9.95483 2.26013,-14.97502 0.98337,-9.13118 0.9763,-18.35278 0.3199,-27.51327 -0.10993,-1.53416 -0.23754,-3.0832 -0.008,-4.60412 0.22922,-1.52092 0.85475,-3.0367 2.02069,-4.03986 1.07696,-0.9266 2.52093,-1.33598 3.93947,-1.4145 1.41854,-0.0785 2.83404,0.14655 4.23982,0.35197 3.31254,0.48405 6.65159,0.8649 9.88917,1.71656 2.04284,0.53738 4.03315,1.25925 6.0722,1.81081 3.40258,0.92039 6.96639,1.36144 10.46739,0.95192 3.76917,-0.44089 7.42987,-1.85678 11.22363,-1.76474 1.55658,0.0378 3.1015,0.33171 4.58649,0.79985 1.51539,0.47772 3.00914,1.16182 4.12281,2.29512 0.84639,0.8613 1.43579,1.94539 1.87872,3.06879 0.65982,1.67352 1.01492,3.457 1.16703,5.24945 0.13475,1.58788 0.11343,3.19441 0.41433,4.75933 0.49503,2.57458 1.84746,4.92305 3.52848,6.93494 1.68102,2.01189 3.68982,3.72048 5.69641,5.40783 1.99908,1.68103 4.0106,3.35469 6.16708,4.82839 1.0121,0.69165 2.05642,1.33949 3.01736,2.10062 0.96094,0.76113 1.84466,1.6468 2.44543,2.71535 0.81492,1.44944 1.06377,3.2077 0.68307,4.82635 l 2e-5,0"
         id="path14491-6-8"
         inkscape:connector-curvature="0"
         sodipodi:nodetypes="aaaaaaaaaaaaaaaaaaaaaaaacscaa"
         inkscape:original-d="m 516.00562,331.8756 c 0.90859,1.59687 -1.57016,3.38773 -2.81579,4.73826 -2.74207,2.97299 -6.45099,4.90178 -9.89648,7.01985 -5.91373,3.63539 -12.61918,5.90302 -18.41964,9.71654 -3.88318,2.553 -7.32809,5.72221 -10.86016,8.74238 -3.0221,2.58411 -5.48201,5.87643 -8.83247,8.01771 -3.3519,2.1422 -7.0437,4.15414 -10.99061,4.6502 -4.78298,0.60114 -9.87221,-0.25577 -14.29898,-2.16416 -3.0947,-1.33413 -6.16113,-3.38144 -7.96301,-6.22931 -1.81288,-2.86525 -2.06093,-6.5375 -2.23266,-9.92375 -0.30734,-6.06031 1.36252,-12.0605 2.17848,-18.07349 0.67882,-5.00236 1.85312,-9.94325 2.26013,-14.97502 0.73946,-9.14185 -0.7797,-18.40771 0.3199,-27.51327 0.35468,-2.93704 -0.181,-6.65876 2.01238,-8.64398 2.0384,-1.84494 5.43058,-1.1212 8.17929,-1.06253 3.34492,0.0714 6.63224,0.95108 9.88917,1.71656 2.05612,0.48325 3.99816,1.41138 6.0722,1.81081 3.44031,0.66255 6.96573,1.06623 10.46739,0.95192 3.78516,-0.12356 7.43659,-1.79636 11.22363,-1.76474 1.55185,0.013 3.12359,0.28186 4.58649,0.79985 1.48266,0.52499 2.98786,1.20618 4.12281,2.29512 0.86547,0.83038 1.42933,1.95676 1.87872,3.06879 0.67163,1.66196 0.8942,3.4778 1.16703,5.24945 0.24238,1.57389 -0.1531,3.27141 0.41433,4.75933 1.83023,4.79924 5.57666,8.72712 9.22489,12.34277 1.74278,1.93455 4.03041,3.53404 6.16708,4.82839 2.26886,1.37444 4.3675,2.44991 5.46279,4.81597 0.65901,1.48517 -0.54371,3.76097 0.68307,4.82635 z" />
    </clipPath>
    <inkscape:path-effect
       effect="spiro"
       id="path-effect14300-2-7-0"
       is_visible="true" />
    <clipPath
       clipPathUnits="userSpaceOnUse"
       id="clipPath14481-1-4">
      <path
         style="fill:url(#linearGradient14485);fill-opacity:1;stroke:none"
         d="m 516.00562,331.8756 c -0.6714,1.71905 -1.62682,3.32679 -2.81579,4.73826 -2.6238,3.11482 -6.268,5.17039 -9.89648,7.01985 -6.1886,3.15437 -12.60169,5.92177 -18.41964,9.71654 -3.89802,2.54249 -7.4959,5.52671 -10.86016,8.74238 -2.87719,2.75012 -5.60582,5.68745 -8.83247,8.01771 -3.25567,2.35122 -7.01915,4.05426 -10.99061,4.6502 -4.83026,0.72481 -9.82134,-0.21289 -14.29898,-2.16416 -3.13754,-1.36728 -6.15569,-3.3229 -7.96301,-6.22931 -1.81425,-2.91754 -2.22807,-6.48813 -2.23266,-9.92375 -0.008,-6.07666 1.11824,-12.09004 2.17848,-18.07349 0.88097,-4.97177 1.71949,-9.95483 2.26013,-14.97502 0.98337,-9.13118 0.9763,-18.35278 0.3199,-27.51327 -0.10993,-1.53416 -0.23754,-3.0832 -0.008,-4.60412 0.22922,-1.52092 0.85475,-3.0367 2.02069,-4.03986 1.07696,-0.9266 2.52093,-1.33598 3.93947,-1.4145 1.41854,-0.0785 2.83404,0.14655 4.23982,0.35197 3.31254,0.48405 6.65159,0.8649 9.88917,1.71656 2.04284,0.53738 4.03315,1.25925 6.0722,1.81081 3.40258,0.92039 6.96639,1.36144 10.46739,0.95192 3.76917,-0.44089 7.42987,-1.85678 11.22363,-1.76474 1.55658,0.0378 3.1015,0.33171 4.58649,0.79985 1.51539,0.47772 3.00914,1.16182 4.12281,2.29512 0.84639,0.8613 1.43579,1.94539 1.87872,3.06879 0.65982,1.67352 1.01492,3.457 1.16703,5.24945 0.13475,1.58788 0.11343,3.19441 0.41433,4.75933 0.49503,2.57458 1.84746,4.92305 3.52848,6.93494 1.68102,2.01189 3.68982,3.72048 5.69641,5.40783 1.99908,1.68103 4.0106,3.35469 6.16708,4.82839 1.0121,0.69165 2.05642,1.33949 3.01736,2.10062 0.96094,0.76113 1.84466,1.6468 2.44543,2.71535 0.81492,1.44944 1.06377,3.2077 0.68307,4.82635 l 2e-5,0"
         id="path14483-3-2"
         inkscape:connector-curvature="0"
         sodipodi:nodetypes="aaaaaaaaaaaaaaaaaaaaaaaacscaa"
         inkscape:original-d="m 516.00562,331.8756 c 0.90859,1.59687 -1.57016,3.38773 -2.81579,4.73826 -2.74207,2.97299 -6.45099,4.90178 -9.89648,7.01985 -5.91373,3.63539 -12.61918,5.90302 -18.41964,9.71654 -3.88318,2.553 -7.32809,5.72221 -10.86016,8.74238 -3.0221,2.58411 -5.48201,5.87643 -8.83247,8.01771 -3.3519,2.1422 -7.0437,4.15414 -10.99061,4.6502 -4.78298,0.60114 -9.87221,-0.25577 -14.29898,-2.16416 -3.0947,-1.33413 -6.16113,-3.38144 -7.96301,-6.22931 -1.81288,-2.86525 -2.06093,-6.5375 -2.23266,-9.92375 -0.30734,-6.06031 1.36252,-12.0605 2.17848,-18.07349 0.67882,-5.00236 1.85312,-9.94325 2.26013,-14.97502 0.73946,-9.14185 -0.7797,-18.40771 0.3199,-27.51327 0.35468,-2.93704 -0.181,-6.65876 2.01238,-8.64398 2.0384,-1.84494 5.43058,-1.1212 8.17929,-1.06253 3.34492,0.0714 6.63224,0.95108 9.88917,1.71656 2.05612,0.48325 3.99816,1.41138 6.0722,1.81081 3.44031,0.66255 6.96573,1.06623 10.46739,0.95192 3.78516,-0.12356 7.43659,-1.79636 11.22363,-1.76474 1.55185,0.013 3.12359,0.28186 4.58649,0.79985 1.48266,0.52499 2.98786,1.20618 4.12281,2.29512 0.86547,0.83038 1.42933,1.95676 1.87872,3.06879 0.67163,1.66196 0.8942,3.4778 1.16703,5.24945 0.24238,1.57389 -0.1531,3.27141 0.41433,4.75933 1.83023,4.79924 5.57666,8.72712 9.22489,12.34277 1.74278,1.93455 4.03041,3.53404 6.16708,4.82839 2.26886,1.37444 4.3675,2.44991 5.46279,4.81597 0.65901,1.48517 -0.54371,3.76097 0.68307,4.82635 z" />
    </clipPath>
    <inkscape:path-effect
       effect="spiro"
       id="path-effect14300-2-2-0-9"
       is_visible="true" />
    <clipPath
       clipPathUnits="userSpaceOnUse"
       id="clipPath14473-5-6">
      <path
         style="fill:url(#linearGradient14477);fill-opacity:1;stroke:none"
         d="m 511.82669,331.89986 c -0.60617,1.40358 -1.44178,2.70776 -2.46357,3.84504 -2.32524,2.58805 -5.50706,4.22246 -8.65855,5.69652 -5.42045,2.53534 -11.00071,4.7788 -16.11556,7.88485 -3.38301,2.05437 -6.53696,4.47221 -9.50169,7.09434 -2.52461,2.23286 -4.92977,4.6271 -7.72763,6.50627 -2.88313,1.93644 -6.17534,3.29888 -9.61582,3.77358 -4.21817,0.58201 -8.55335,-0.18335 -12.51035,-1.75619 -2.7091,-1.07682 -5.36625,-2.6185 -6.96693,-5.05501 -1.53813,-2.3413 -1.9333,-5.25173 -1.95338,-8.053 -0.0354,-4.93859 0.96501,-9.81816 1.90598,-14.66641 0.78215,-4.02995 1.52682,-8.0717 1.97741,-12.15204 0.81784,-7.40607 0.66114,-14.88536 0.27989,-22.32668 -0.064,-1.24906 -0.13361,-2.5105 0.0789,-3.74301 0.21256,-1.23251 0.73646,-2.45247 1.68171,-3.27147 0.93914,-0.8137 2.20952,-1.15942 3.45104,-1.2115 1.24152,-0.0521 2.47642,0.16381 3.70512,0.34927 2.88969,0.43617 5.81087,0.7091 8.65215,1.39297 1.78651,0.43 3.53091,1.02011 5.31265,1.46945 2.98632,0.75312 6.09645,1.10709 9.15804,0.77247 3.2941,-0.36004 6.50688,-1.50957 9.81969,-1.43207 1.35838,0.0318 2.70755,0.27142 4.01277,0.64907 1.31265,0.3798 2.61744,0.9202 3.6071,1.86246 0.72535,0.69061 1.25006,1.56936 1.64371,2.49029 0.57625,1.34814 0.88626,2.79994 1.02105,4.25986 0.11897,1.28855 0.10468,2.59405 0.36251,3.86214 0.4369,2.14878 1.63966,4.08139 3.11506,5.70353 1.4754,1.62214 3.22406,2.96752 4.9559,4.31247 1.75634,1.36398 3.50975,2.7398 5.39565,3.91818 0.88228,0.55128 1.79349,1.05932 2.63473,1.67142 0.84123,0.61209 1.61878,1.33907 2.14473,2.23668 0.68386,1.16711 0.90229,2.59857 0.59763,3.91652 l 2e-5,0"
         id="path14475-9-1"
         inkscape:connector-curvature="0"
         sodipodi:nodetypes="aaaaaaaaaaaaaaaaaaaaaaaacscaa"
         inkscape:original-d="m 511.82669,331.89986 c 0.79493,1.29584 -1.37375,2.7491 -2.46357,3.84504 -2.39907,2.41255 -5.64405,3.97773 -8.65855,5.69652 -5.17399,2.95008 -11.04067,4.79023 -16.11556,7.88485 -3.39744,2.07173 -6.41144,4.64351 -9.50169,7.09434 -2.64407,2.09697 -4.79627,4.76865 -7.72763,6.50627 -2.93262,1.73837 -6.16262,3.37103 -9.61582,3.77358 -4.18468,0.48781 -8.63731,-0.20756 -12.51035,-1.75619 -2.70759,-1.08263 -5.39044,-2.744 -6.96693,-5.05501 -1.58611,-2.32511 -1.80313,-5.3051 -1.95338,-8.053 -0.2689,-4.91787 1.19208,-9.78694 1.90598,-14.66641 0.59391,-4.05935 1.62131,-8.06882 1.97741,-12.15204 0.64696,-7.4185 -0.68217,-14.93763 0.27989,-22.32668 0.31031,-2.38337 -0.15836,-5.4035 1.76065,-7.01448 1.78342,-1.49715 4.75128,-0.90984 7.15616,-0.86223 2.92651,0.0579 5.80263,0.77179 8.65215,1.39297 1.79893,0.39215 3.49804,1.14531 5.31265,1.46945 3.00996,0.53765 6.0944,0.86523 9.15804,0.77247 3.31168,-0.10027 6.50636,-1.45773 9.81969,-1.43207 1.35773,0.0105 2.73287,0.22873 4.01277,0.64907 1.2972,0.42602 2.61412,0.9788 3.6071,1.86246 0.75721,0.67384 1.25054,1.58789 1.64371,2.49029 0.58762,1.34866 0.78235,2.82219 1.02105,4.25986 0.21206,1.27719 -0.13395,2.65471 0.36251,3.86214 1.60129,3.89452 4.87908,7.08195 8.07096,10.016 1.52478,1.56986 3.52626,2.86783 5.39565,3.91818 1.98506,1.11534 3.82118,1.98807 4.77946,3.9081 0.57658,1.2052 -0.47569,3.05198 0.59763,3.91652 z" />
    </clipPath>
    <inkscape:path-effect
       is_visible="true"
       id="path-effect29716-0-0-2"
       effect="spiro" />
    <inkscape:path-effect
       is_visible="true"
       id="path-effect29716-0-8-3-2"
       effect="spiro" />
    <inkscape:path-effect
       is_visible="true"
       id="path-effect29716-6-1-0"
       effect="spiro" />
    <clipPath
       clipPathUnits="userSpaceOnUse"
       id="clipPath14822-9-5">
      <path
         sodipodi:nodetypes="aaaasssaccaa"
         inkscape:connector-curvature="0"
         d="m 386.1875,285.32775 c -0.40516,-1.10369 -1.11845,-2.08156 -1.9907,-2.86987 -0.87226,-0.78832 -1.90049,-1.39229 -2.98278,-1.85155 -2.16459,-0.91852 -4.52053,-1.26149 -6.83152,-1.69556 -2.17919,-0.40931 -4.34179,-0.90631 -6.52782,-1.27734 -2.27136,-0.38551 -4.6179,-0.63213 -6.8653,-0.1253 -1.96583,0.44333 -3.7845,1.45879 -5.27172,2.81864 -1.48723,1.35984 -2.64911,3.0564 -3.48499,4.89007 -1.47218,3.22952 -1.93451,6.86503 -1.65394,10.40316 0.20882,2.63325 0.87532,5.34594 2.60877,7.33912 1.40065,1.61052 3.38733,2.61526 5.43398,3.22092 3.52502,1.04316 7.36663,0.98822 10.86038,-0.1553 5.76689,-1.93113 10.87568,-5.77387 14.33034,-10.77903 1.13861,-1.64963 2.11217,-3.44809 2.5532,-5.4034 0.33597,-1.48955 0.34831,-3.08112 -0.1779,-4.51456"
         id="path14824-1-5"
         inkscape:original-d="m 386.1875,285.32775 c -2.36571,-3.81321 -7.59294,-4.9003 -11.805,-6.41698 -2.08672,-0.75138 -4.32322,-1.04333 -6.52782,-1.27734 -2.27612,-0.2416 -4.71593,-0.91505 -6.8653,-0.1253 -3.64566,1.33955 -7.24986,3.80684 -8.75671,7.70871 -1.13743,2.94527 -1.80122,7.05909 -1.65394,10.40316 0.13075,2.96891 0.9633,5.07273 2.60877,7.33912 1.08803,1.49859 3.40096,2.67896 5.43398,3.22092 3.49923,0.93284 7.37483,0.82779 10.86038,-0.1553 5.98587,-2.2615 11.09272,-5.76885 14.33034,-10.77903 1.07459,-1.67639 2.15539,-3.45031 2.5532,-5.4034 0.30053,-1.4755 0.61519,-3.23621 -0.1779,-4.51456 z"
         style="fill:none;stroke:#ce5c00;stroke-width:1px;stroke-linecap:butt;stroke-linejoin:miter;stroke-opacity:1" />
    </clipPath>
    <clipPath
       clipPathUnits="userSpaceOnUse"
       id="clipPath14822-2-4-2">
      <path
         sodipodi:nodetypes="aaaasssaccaa"
         inkscape:connector-curvature="0"
         d="m 386.1875,285.32775 c -0.40516,-1.10369 -1.11845,-2.08156 -1.9907,-2.86987 -0.87226,-0.78832 -1.90049,-1.39229 -2.98278,-1.85155 -2.16459,-0.91852 -4.52053,-1.26149 -6.83152,-1.69556 -2.17919,-0.40931 -4.34179,-0.90631 -6.52782,-1.27734 -2.27136,-0.38551 -4.6179,-0.63213 -6.8653,-0.1253 -1.96583,0.44333 -3.7845,1.45879 -5.27172,2.81864 -1.48723,1.35984 -2.64911,3.0564 -3.48499,4.89007 -1.47218,3.22952 -1.93451,6.86503 -1.65394,10.40316 0.20882,2.63325 0.87532,5.34594 2.60877,7.33912 1.40065,1.61052 3.38733,2.61526 5.43398,3.22092 3.52502,1.04316 7.36663,0.98822 10.86038,-0.1553 5.76689,-1.93113 10.87568,-5.77387 14.33034,-10.77903 1.13861,-1.64963 2.11217,-3.44809 2.5532,-5.4034 0.33597,-1.48955 0.34831,-3.08112 -0.1779,-4.51456"
         id="path14824-6-5-9"
         inkscape:original-d="m 386.1875,285.32775 c -2.36571,-3.81321 -7.59294,-4.9003 -11.805,-6.41698 -2.08672,-0.75138 -4.32322,-1.04333 -6.52782,-1.27734 -2.27612,-0.2416 -4.71593,-0.91505 -6.8653,-0.1253 -3.64566,1.33955 -7.24986,3.80684 -8.75671,7.70871 -1.13743,2.94527 -1.80122,7.05909 -1.65394,10.40316 0.13075,2.96891 0.9633,5.07273 2.60877,7.33912 1.08803,1.49859 3.40096,2.67896 5.43398,3.22092 3.49923,0.93284 7.37483,0.82779 10.86038,-0.1553 5.98587,-2.2615 11.09272,-5.76885 14.33034,-10.77903 1.07459,-1.67639 2.15539,-3.45031 2.5532,-5.4034 0.30053,-1.4755 0.61519,-3.23621 -0.1779,-4.51456 z"
         style="fill:none;stroke:#ce5c00;stroke-width:1px;stroke-linecap:butt;stroke-linejoin:miter;stroke-opacity:1" />
    </clipPath>
    <inkscape:path-effect
       effect="spiro"
       id="path-effect14972-2-2-0"
       is_visible="true" />
    <inkscape:path-effect
       effect="spiro"
       id="path-effect15017-9-2"
       is_visible="true" />
    <clipPath
       clipPathUnits="userSpaceOnUse"
       id="clipPath15031-3-8">
      <path
         style="fill:none;stroke:#729fcf;stroke-width:0.125;stroke-linecap:butt;stroke-linejoin:miter;stroke-miterlimit:4;stroke-dasharray:none;stroke-opacity:1"
         d="m 248.06066,184.61218 c -2.60091,3.4397 -5.23338,6.85555 -7.89695,10.24696 -2.83301,3.60715 -5.70116,7.1866 -8.58729,10.75139 -3.54135,4.37407 -7.15155,8.79286 -9.44912,13.93045 -1.97407,4.41422 -2.91014,9.20748 -4.26498,13.84932 -1.53862,5.27153 -3.62627,10.37023 -5.97071,15.33612 -2.1648,4.58539 -4.54978,9.06293 -6.93891,13.53553 -1.73823,3.25407 -3.50515,6.58104 -4.10782,10.22071 -0.47627,2.87632 -0.19849,5.84423 0.53376,8.66626 0.73224,2.82202 1.90964,5.5106 3.23775,8.10601 5.66724,11.07504 14.17003,20.62168 24.24176,27.92472 4.57063,3.31418 9.46669,6.18109 14.60245,8.52595 2.78247,1.27041 5.71355,2.40436 8.77186,2.45744 1.52915,0.0265 3.0741,-0.22544 4.47434,-0.84055 1.40024,-0.6151 2.65068,-1.60373 3.48254,-2.88709 1.02278,-1.5779 1.36992,-3.53829 1.16461,-5.40743 -0.2053,-1.86914 -0.93484,-3.65294 -1.91324,-5.25873 -2.38997,-3.92251 -6.1652,-6.76055 -9.79642,-9.57343 -7.84055,-6.07358 -15.42466,-12.48038 -22.68212,-19.23996 -2.04911,-1.90854 -4.0984,-3.87759 -5.53019,-6.28412 -1.3943,-2.34352 -2.14763,-5.01375 -2.65783,-7.69253 -1.39963,-7.34872 -1.0404,-15.0827 1.45958,-22.13343 0.97802,-2.75834 2.27066,-5.39225 3.51815,-8.03965 2.1622,-4.58855 4.21133,-9.26299 7.04933,-13.46723 3.53268,-5.23334 8.24484,-9.67275 11.15147,-15.27803 2.45457,-4.7335 3.49353,-10.05742 4.36185,-15.31831 0.66531,-4.03089 1.24751,-8.07549 1.74613,-12.13037"
         id="path15033-2-3"
         inkscape:connector-curvature="0"
         inkscape:original-d="m 248.06066,184.61218 c 0,0 -5.10626,6.34527 -7.89695,10.24696 -2.7907,3.9017 -5.73652,6.64881 -8.58729,10.75139 -2.85076,4.10259 -7.36482,9.43164 -9.44912,13.93045 -2.08429,4.49881 -2.32047,9.0356 -4.26498,13.84932 -1.94451,4.81371 -3.70129,10.64183 -5.97071,15.33612 -2.26943,4.69429 -5.37093,9.68473 -6.93891,13.53553 -1.56799,3.8508 -3.81119,5.72384 -4.10782,10.22071 -0.29663,4.49686 -0.57747,8.31749 3.77151,16.77227 4.34898,8.45478 17.23626,22.00721 24.24176,27.92472 7.00549,5.9175 9.39133,7.22492 14.60245,8.52595 5.21112,1.30104 13.85627,2.9981 16.72874,-1.2702 2.87246,-4.26829 2.27191,-5.96483 -0.74863,-10.66616 -3.02055,-4.70132 -4.82469,-5.30209 -9.79642,-9.57343 -4.97172,-4.27133 -18.63696,-14.87266 -22.68212,-19.23996 -4.04516,-4.36729 -7.10731,-3.41164 -5.53019,-6.28412 1.57712,-2.87249 -2.20738,-4.00856 -2.65783,-7.69253 -0.76361,-6.24511 0.9436,-18.71046 1.45958,-22.13343 0.51598,-3.42296 1.22371,-2.92446 3.51815,-8.03965 2.29444,-5.11519 4.12424,-8.62435 7.04933,-13.46723 2.92509,-4.84289 8.62493,-10.12787 11.15147,-15.27803 2.52654,-5.15017 3.50393,-10.72068 4.36185,-15.31831 0.85792,-4.59763 1.74613,-12.13037 1.74613,-12.13037 z"
         sodipodi:nodetypes="czzzzzzzzzzzzzzzszzzzzc" />
    </clipPath>
    <clipPath
       clipPathUnits="userSpaceOnUse"
       id="clipPath14186-9-8">
      <path
         inkscape:original-d="m 137.57703,281.0191 c 6.32494,-1.3585 11.99755,4.87308 16.86679,9.13228 6.42572,5.62067 -8.54781,26.01622 13.24488,19.8293 5.86081,-1.66388 6.89528,11.31183 10.16415,16.45304 4.09971,6.44793 11.58575,13.6827 13.65231,21.03883 1.58383,5.63779 1.34339,10.90606 -1.62666,15.95302 -3.57124,6.06857 -11.7907,10.42929 -18.78877,11.20919 -5.73056,0.63864 -11.87822,-3.8351 -17.38362,-5.54906 -12.31617,-3.83432 -23.77946,-5.82074 -36.09666,-9.65174 -2.50091,-0.77785 -8.28361,-2.638 -10.96988,-3.42629 -4.51043,-1.3236 -6.46556,-0.99271 -8.72046,-4.76819 -2.68251,-4.49147 0.68051,-9.72669 3.16379,-14.79408 4.06995,-8.30524 1.91195,-17.82603 0.46203,-25.51057 -0.92235,-4.8884 -0.66071,-7.92707 2.7425,-10.79139 4.99476,-4.20385 14.53027,-1.53186 20.35272,-4.08305 5.82246,-2.55119 6.66365,-13.6939 12.93688,-15.04129 z"
         sodipodi:nodetypes="ssssssssssssssss"
         inkscape:connector-curvature="0"
         id="path14188-1-0"
         d="m 137.57703,281.0191 c 1.59929,-0.66295 3.3982,-0.78361 5.10074,-0.46963 1.70253,0.31398 3.31141,1.04948 4.74342,2.02239 2.86402,1.94583 4.98821,4.77774 7.02263,7.57952 4.67189,6.43406 9.16868,13.00227 13.24488,19.8293 3.30635,5.53766 6.34352,11.25685 10.16415,16.45304 2.49398,3.3919 5.3066,6.53947 7.813,9.92221 2.50639,3.38273 4.72794,7.05586 5.83931,11.11662 1.44411,5.27653 0.88463,11.09291 -1.62666,15.95302 -1.76663,3.41896 -4.47646,6.35228 -7.77242,8.33898 -3.29595,1.9867 -7.17064,3.01444 -11.01635,2.87021 -6.11413,-0.2293 -11.69944,-3.28515 -17.38362,-5.54906 -11.58097,-4.6125 -24.15978,-6.0594 -36.09666,-9.65174 -3.66859,-1.10404 -7.27582,-2.4107 -10.96988,-3.42629 -1.64125,-0.45122 -3.30866,-0.8482 -4.85875,-1.55144 -1.55008,-0.70325 -2.999548,-1.7491 -3.86171,-3.21675 -0.666391,-1.13439 -0.948386,-2.47002 -0.930187,-3.78554 0.0182,-1.31552 0.325889,-2.61453 0.773815,-3.85158 0.895851,-2.47409 2.343262,-4.71374 3.320162,-7.15696 1.59511,-3.98935 1.88169,-8.38839 1.66657,-12.67942 -0.21511,-4.29103 -0.91078,-8.54478 -1.20454,-12.83115 -0.13118,-1.91406 -0.18066,-3.85256 0.18479,-5.73598 0.36545,-1.88343 1.17577,-3.72459 2.55771,-5.05541 1.27406,-1.22693 2.96492,-1.95531 4.69643,-2.31651 1.73151,-0.3612 3.51533,-0.37747 5.28367,-0.33762 1.76833,0.0399 3.54067,0.13425 5.30351,-0.0106 1.76284,-0.14488 3.53347,-0.54055 5.06911,-1.41828 1.45996,-0.83447 2.65433,-2.0745 3.64374,-3.43424 0.9894,-1.35974 1.78909,-2.84573 2.60891,-4.31396 0.81983,-1.46823 1.66834,-2.93151 2.74157,-4.22611 1.07324,-1.2946 2.38923,-2.42304 3.94266,-3.06698"
         style="fill:#402c07;fill-opacity:1;stroke:none" />
    </clipPath>
    <inkscape:path-effect
       is_visible="true"
       id="path-effect4669-1-4"
       effect="spiro" />
    <inkscape:path-effect
       is_visible="true"
       id="path-effect4669-4-3-0"
       effect="spiro" />
    <clipPath
       id="clp82-2">
      <path
         d="M 1001.6,870.49 L 1036.3,870.49 L 1036.3,857.41 L 1001.6,857.41 L 1001.6,870.49 z "
         id="path1826-5" />
    </clipPath>
    <clipPath
       id="clp83-4">
      <path
         d="M 1001.6,870.49 L 1036.3,870.49 L 1036.3,857.41 L 1001.6,857.41 L 1001.6,870.49 z "
         id="path1835-4" />
    </clipPath>
    <clipPath
       id="clp84-9">
      <path
         d="M 1001.6,870.49 L 1036.3,870.49 L 1036.3,857.41 L 1001.6,857.41 L 1001.6,870.49 z "
         id="path1844-9" />
    </clipPath>
    <clipPath
       id="clp81-3">
      <path
         d="M 1000.9,934.34 L 1038.6,934.34 L 1038.6,922.24 L 1000.9,922.24 L 1000.9,934.34 z "
         id="path1800-6" />
    </clipPath>
    <clipPath
       id="clipPath116030-0">
      <path
         d="M 1001.6,870.49 L 1036.3,870.49 L 1036.3,857.41 L 1001.6,857.41 L 1001.6,870.49 z "
         id="path116032-5" />
    </clipPath>
    <clipPath
       id="clipPath116038-0">
      <path
         d="M 1001.6,870.49 L 1036.3,870.49 L 1036.3,857.41 L 1001.6,857.41 L 1001.6,870.49 z "
         id="path116040-2" />
    </clipPath>
    <clipPath
       id="clipPath116046-9">
      <path
         d="M 1001.6,870.49 L 1036.3,870.49 L 1036.3,857.41 L 1001.6,857.41 L 1001.6,870.49 z "
         id="path116048-4" />
    </clipPath>
    <clipPath
       clipPathUnits="userSpaceOnUse"
       id="clipPath18">
      <path
         d="M 0,600 H 800 V 0 H 0 Z"
         id="path16" />
    </clipPath>
  </defs>
  <sodipodi:namedview
     id="base"
     pagecolor="#ffffff"
     bordercolor="#666666"
     borderopacity="1.0"
     inkscape:pageopacity="0.0"
     inkscape:pageshadow="2"
     inkscape:zoom="0.98994949"
     inkscape:cx="-237.08205"
     inkscape:cy="142.14254"
     inkscape:document-units="px"
     inkscape:current-layer="layer1"
     showgrid="false"
     inkscape:window-width="1920"
     inkscape:window-height="1052"
     inkscape:window-x="0"
     inkscape:window-y="0"
     inkscape:window-maximized="1"
     units="px" />
  <metadata
     id="metadata5">
    <rdf:RDF>
      <cc:Work
         rdf:about="">
        <dc:format>image/svg+xml</dc:format>
        <dc:type
           rdf:resource="http://purl.org/dc/dcmitype/StillImage" />
        <dc:title />
      </cc:Work>
    </rdf:RDF>
  </metadata>
  <g
     inkscape:label="Calque 1"
     inkscape:groupmode="layer"
     id="layer1"
     transform="translate(0,-191.16665)">
    <g
       id="g10"
       transform="matrix(0.18208306,0,0,-0.18208306,-19.916523,299.53761)"
       style="fill:#222d42;fill-opacity:1">
      <path
         style="fill:#222d42;fill-opacity:1;fill-rule:evenodd;stroke:none;stroke-width:1.33333325"
         d="M 531.67383,81.007812 C 422.27495,82.166367 336.81548,168.32444 335.70117,278.05469 c -1.10266,108.62133 87.20409,197.34115 197.21875,198.14648 105.98533,0.504 195.76043,-83.5864 198.00977,-193.28906 2.29066,-111.624 -85.48397,-200.362532 -194.0293,-201.894532 -1.74831,-0.02469 -3.49007,-0.02815 -5.22656,-0.0098 z m 69.23633,54.013668 c 0.91933,0.007 1.82933,0.062 2.72851,0.16407 0.44959,0.051 0.89626,0.1136 1.33985,0.1875 0.88718,0.14779 1.76175,0.34076 2.62109,0.57617 0.42966,0.1177 0.85561,0.24613 1.27734,0.38476 0.42175,0.13864 0.83878,0.28641 1.25196,0.44532 0.41396,0.15916 0.82184,0.32895 1.22656,0.50781 0.80794,0.35706 1.59798,0.75195 2.36523,1.18359 0.76724,0.43164 1.511,0.89939 2.23242,1.40039 4.5e-4,3.1e-4 0.002,-3.1e-4 0.002,0 1.08216,0.75151 2.10957,1.5778 3.07422,2.47071 0.32189,0.29795 0.63583,0.60362 0.94336,0.91601 0.30686,0.31172 0.60652,0.62964 0.89843,0.95508 0.87702,0.97769 1.68354,2.01564 2.41407,3.10547 0.24343,0.36315 0.47919,0.73117 0.70507,1.10547 2.9e-4,4.7e-4 -2.8e-4,10e-4 0,0.002 0.22557,0.37383 0.44297,0.75243 0.65039,1.13672 2.7e-4,5e-4 -2.6e-4,0.001 0,0.002 0.41506,0.7691 0.79427,1.55813 1.13282,2.36524 2.3e-4,5.4e-4 -2.3e-4,0.001 0,0.002 0.33848,0.80711 0.63768,1.63274 0.89453,2.47266 0.77104,2.52147 1.16247,5.17909 1.10547,7.90234 -0.039,1.86783 -0.26175,3.68565 -0.65235,5.4375 -0.48823,2.18981 -1.23858,4.27558 -2.21484,6.22461 -0.19526,0.38981 -0.39819,0.77376 -0.61133,1.15234 -0.42663,0.75799 -0.88776,1.49134 -1.38281,2.20118 -0.62535,0.89666 -1.30854,1.74838 -2.03516,2.56054 -0.13534,0.15128 -0.26757,0.30495 -0.40625,0.45313 -3.3e-4,3.5e-4 3.4e-4,0.002 0,0.002 -0.14562,0.15558 -0.29998,0.30299 -0.44922,0.45508 -0.15248,0.1554 -0.30085,0.31511 -0.45703,0.4668 -1.23602,1.20061 -2.58515,2.28331 -4.0332,3.23242 -0.72403,0.47455 -1.47365,0.91498 -2.24414,1.32031 -3.85247,2.02664 -8.25823,3.16229 -12.94531,3.14062 -1.86734,-0.009 -3.68671,-0.20563 -5.43946,-0.57226 -6.2e-4,-1.3e-4 -10e-4,1.3e-4 -0.002,0 -1.75272,-0.36675 -3.43938,-0.90465 -5.04297,-1.59375 -5.4e-4,-2.3e-4 -10e-4,2.3e-4 -0.002,0 -1.60357,-0.68923 -3.12309,-1.53152 -4.54297,-2.50781 -4.3e-4,-3e-4 -0.002,3e-4 -0.002,0 -0.70972,-0.48806 -1.39344,-1.01129 -2.05078,-1.56446 -3.8e-4,-3.1e-4 -0.002,3.2e-4 -0.002,0 -0.98654,-0.8303 -1.91116,-1.73075 -2.76758,-2.69531 -0.57094,-0.64304 -1.11143,-1.31452 -1.61914,-2.01172 -0.5077,-0.69719 -0.98172,-1.42103 -1.42187,-2.16797 -0.66022,-1.1204 -1.24222,-2.29377 -1.73828,-3.51367 -0.66142,-1.62652 -1.17044,-3.33491 -1.50977,-5.10742 -0.0848,-0.44313 -0.1593,-0.89093 -0.22265,-1.3418 -0.19006,-1.35261 -0.28254,-2.73801 -0.26954,-4.15039 0.009,-0.93691 0.0644,-1.86145 0.16407,-2.77148 0.0919,-0.83918 0.2251,-1.66374 0.39062,-2.47656 0.014,-0.0686 0.0246,-0.13869 0.0391,-0.20704 1.4e-4,-6.2e-4 -1.3e-4,-0.001 0,-0.002 0.093,-0.43944 0.19673,-0.87384 0.31055,-1.30469 0.45532,-1.72337 1.07364,-3.37497 1.83984,-4.93945 3.9e-4,-7.9e-4 0.002,-0.001 0.002,-0.002 0.19154,-0.39113 0.39196,-0.7764 0.60156,-1.15625 0.62911,-1.14001 1.3371,-2.22699 2.11914,-3.25586 0.26054,-0.34284 0.52826,-0.67838 0.80469,-1.00781 0.27645,-0.32943 0.56172,-0.65132 0.85351,-0.9668 0.29212,-0.31584 0.5915,-0.62446 0.89844,-0.92578 1.5327,-1.50462 3.24575,-2.82504 5.10742,-3.92774 1.11721,-0.66177 2.28782,-1.24638 3.50391,-1.74414 1.21613,-0.49775 2.47901,-0.90923 3.7793,-1.22851 1.30026,-0.3193 2.63808,-0.54549 4.00781,-0.67188 0.91315,-0.0842 1.84071,-0.12402 2.7793,-0.11719 z m -67.79493,28.04688 c 1.02913,-0.003 2.05814,0.0135 3.08594,0.041 0.32431,0.009 0.64849,0.0235 0.97266,0.0352 0.73868,0.0266 1.47696,0.0592 2.21484,0.10156 0.32825,0.0188 0.6563,0.0406 0.98438,0.0625 0.73555,0.0492 1.47042,0.10695 2.20507,0.17188 0.32495,0.0287 0.64986,0.0542 0.97461,0.0859 1.02359,0.10023 2.04674,0.21078 3.06836,0.34179 1.03597,0.13285 2.06976,0.28646 3.10352,0.45118 0.28537,0.0454 0.57027,0.0966 0.85547,0.14453 0.74461,0.12508 1.48907,0.25668 2.23242,0.39843 0.34978,0.0667 0.69934,0.13663 1.04883,0.20704 0.70761,0.14255 1.41473,0.29337 2.12109,0.45117 0.33073,0.0739 0.66174,0.14541 0.99219,0.22265 1.01214,0.23657 2.02384,0.48381 3.0332,0.75196 0.7695,0.2045 1.59401,0.6657 2.35742,1.26953 0.25484,0.20156 0.50122,0.41929 0.73829,0.64843 0.4731,0.4573 0.90265,0.95994 1.2539,1.47657 2.9e-4,4.2e-4 -2.8e-4,0.002 0,0.002 0.17536,0.25804 0.33262,0.51906 0.46485,0.7793 2.4e-4,4.8e-4 -2.5e-4,0.001 0,0.002 0.13208,0.26015 0.24177,0.51948 0.32226,0.77344 0.78967,2.4945 1.7629,4.83938 2.90235,7.02539 2.6e-4,5.1e-4 -2.7e-4,0.001 0,0.002 0.28461,0.54598 0.57973,1.08152 0.88476,1.60742 2.9e-4,4.9e-4 -2.8e-4,0.001 0,0.002 0.30505,0.52589 0.62236,1.04138 0.94727,1.54687 2.9e-4,4.7e-4 -3e-4,0.001 0,0.002 0.32493,0.50548 0.65968,0.99962 1.0039,1.48437 3.1e-4,4.4e-4 -3.1e-4,0.002 0,0.002 1.03336,1.45508 2.15447,2.81582 3.35157,4.07813 3.3e-4,3.5e-4 -3.4e-4,0.002 0,0.002 0.39884,0.42054 0.80676,0.83003 1.22265,1.22852 0.83246,0.7976 1.69831,1.55056 2.5957,2.25781 0.8974,0.70725 1.82537,1.36817 2.78321,1.98242 1.91567,1.2285 3.94771,2.26875 6.07812,3.10938 5.6e-4,2.2e-4 0.001,-2.2e-4 0.002,0 0.53205,0.2099 1.07119,0.40886 1.61523,0.59375 1.08924,0.37017 2.20201,0.68911 3.33594,0.95703 1.70088,0.40187 3.44951,0.68722 5.23828,0.85156 1.19251,0.10956 2.40296,0.16533 3.62891,0.16602 3.06486,0.002 6.22658,-0.34112 9.45117,-1.04883 1.89466,-0.416 4.90218,0.0218 6.10351,1.28711 1.17225,1.235 2.31378,2.48324 3.42578,3.74609 6.1e-4,6.9e-4 10e-4,0.001 0.002,0.002 2.77931,3.15648 5.37075,6.40106 7.76562,9.73438 1.24966,1.73938 2.4414,3.50655 3.58399,5.29492 0.17122,0.268 0.34682,0.53362 0.51562,0.80273 2.9e-4,4.7e-4 -2.9e-4,0.001 0,0.002 0.43151,0.68796 0.85589,1.37899 1.27149,2.07422 2.8e-4,4.7e-4 -2.9e-4,0.001 0,0.002 2.07906,3.47807 3.959,7.04671 5.63281,10.70898 0.10304,0.22545 0.1993,0.45354 0.30078,0.67969 0.55824,1.24407 1.09858,2.49619 1.60937,3.76172 1.20693,2.9901 2.28085,6.03897 3.21875,9.15039 1.8e-4,6e-4 -1.8e-4,0.001 0,0.002 0.23429,0.77727 0.46048,1.55884 0.67774,2.34375 0.43483,1.57103 0.83506,3.15789 1.20117,4.75977 0.54919,2.40283 1.01964,4.83952 1.41211,7.3125 10e-5,6.4e-4 -10e-5,10e-4 0,0.002 0.52313,3.2967 0.90703,6.65691 1.14648,10.08008 0.01,0.14033 0.004,0.28092 -0.0137,0.44141 -7e-5,7e-4 8e-5,10e-4 0,0.002 -0.0177,0.16007 -0.0481,0.33884 -0.0879,0.55469 -1.3e-4,7.4e-4 1.4e-4,10e-4 0,0.002 -0.0799,0.43304 -0.19812,1.01426 -0.33398,1.88672 -7.89067,0 -15.95482,0.0168 -24.02149,-0.006 -6.5e-4,0 -10e-4,0 -0.002,0 -1.648,-0.006 -3.45412,0.2004 -5.22266,0.34961 -1.76815,0.14887 -3.49925,0.24155 -4.99609,0.008 -0.74858,-0.1167 -1.43963,-0.3158 -2.04688,-0.6289 -0.20241,-0.10437 -0.39504,-0.2204 -0.57812,-0.35157 -0.16106,-0.11553 -0.30849,-0.24847 -0.44727,-0.39453 -0.13814,-0.14518 -0.2685,-0.30402 -0.38671,-0.47656 -3.1e-4,-4.5e-4 3e-4,-0.002 0,-0.002 -0.23652,-0.34591 -0.43591,-0.74333 -0.60547,-1.18164 -0.67933,-1.75541 -0.88962,-4.16006 -1.18555,-6.47657 -0.0738,-0.57832 -0.15318,-1.15127 -0.24609,-1.70703 -1.1e-4,-6.5e-4 10e-5,-10e-4 0,-0.002 -0.0931,-0.55574 -0.20057,-1.09523 -0.33008,-1.60547 -0.17379,-0.68467 -0.35563,-1.36384 -0.54688,-2.03906 -0.57374,-2.02568 -1.22591,-4.00946 -1.95117,-5.94727 -0.4835,-1.29187 -0.99913,-2.56325 -1.54687,-3.81445 -0.27388,-0.6256 -0.55624,-1.24614 -0.84571,-1.86133 -0.57894,-1.23037 -1.18866,-2.43919 -1.82812,-3.62695 -2.7e-4,-5e-4 2.7e-4,-0.001 0,-0.002 -0.63922,-1.18724 -1.30864,-2.35272 -2.00586,-3.49609 -0.34876,-0.57193 -0.70556,-1.13851 -1.06836,-1.69922 -0.72561,-1.12141 -1.47788,-2.22131 -2.25781,-3.29687 -1.17019,-1.61375 -2.40003,-3.17475 -3.68555,-4.68164 -0.42809,-0.50181 -0.86248,-0.99669 -1.30273,-1.48633 -3.2e-4,-3.6e-4 3.2e-4,-0.002 0,-0.002 -0.44028,-0.48964 -0.88772,-0.97192 -1.33985,-1.44922 -3.2e-4,-3.4e-4 3.2e-4,-0.002 0,-0.002 -0.45215,-0.4773 -0.9113,-0.9473 -1.375,-1.41211 -0.46369,-0.46479 -0.93326,-0.92481 -1.4082,-1.37695 -3.5e-4,-3.3e-4 -0.002,3.3e-4 -0.002,0 -0.95057,-0.9049 -1.92228,-1.78545 -2.91602,-2.63867 -5.46556,-4.69274 -11.56584,-8.59333 -18.09375,-11.5957 -2.37379,-1.09178 -4.80417,-2.06523 -7.28125,-2.91407 -2.47768,-0.84904 -5.00132,-1.57233 -7.5625,-2.16796 -0.64015,-0.14889 -1.28119,-0.29119 -1.92578,-0.42383 -0.64521,-0.13279 -1.29206,-0.2567 -1.94141,-0.37305 -0.64872,-0.11625 -1.29862,-0.22453 -1.95117,-0.32422 -0.65253,-0.0997 -1.30684,-0.19046 -1.96289,-0.27344 -1.31209,-0.16595 -2.63079,-0.29837 -3.95508,-0.39648 -1.32428,-0.0981 -2.65428,-0.16244 -3.98828,-0.19141 -1.334,-0.029 -2.67244,-0.0219 -4.01367,0.0195 -1.34123,0.0415 -2.68527,0.11726 -4.03125,0.23047 -1.34602,0.11322 -2.69467,0.26297 -4.04297,0.44922 -0.6735,0.0931 -1.34788,0.19513 -2.02148,0.30664 -2.02276,0.33487 -4.04633,0.75354 -6.06446,1.25781 -0.67208,0.16796 -1.34467,0.34614 -2.01562,0.53321 -2.01473,0.56171 -4.0245,1.21033 -6.02344,1.94726 -1.79549,0.66252 -3.56815,1.38291 -6.16211,2.39063 -6.32533,-11.35467 -12.41193,-22.27664 -18.69726,-33.55664 5e-4,-2.8e-4 10e-4,2.8e-4 0.002,0 2.12854,-1.16647 4.26951,-2.22585 6.42187,-3.18946 1.43434,-0.64215 2.87336,-1.24233 4.31836,-1.80273 0.72278,-0.28031 1.44838,-0.55139 2.17383,-0.8125 7.25395,-2.61107 14.6413,-4.28276 22.16797,-5.43359 1.21218,-0.18517 2.42503,-0.34313 3.63672,-0.48828 0.28382,-0.034 0.56778,-0.0659 0.85156,-0.0977 1.22324,-0.13705 2.44561,-0.26157 3.66797,-0.35742 1.22108,-0.0957 2.44222,-0.16445 3.66211,-0.21875 0.27674,-0.0123 0.55341,-0.023 0.83008,-0.0332 1.21695,-0.0447 2.43305,-0.0751 3.64843,-0.0781 z m -63.41406,19.14844 c 6.68667,11.12266 13.18664,21.93927 19.66797,32.72461 -1.05602,0.77455 -2.07454,1.5707 -3.07617,2.375 -1.07683,0.86467 -2.13196,1.73948 -3.14649,2.63671 -1.30546,1.15455 -2.56028,2.33611 -3.76367,3.54102 -0.29576,0.29615 -0.57949,0.59745 -0.86914,0.89648 -0.8885,0.91732 -1.75662,1.84373 -2.58789,2.78711 -0.5519,0.62631 -1.09032,1.25736 -1.61719,1.89454 -0.52629,0.63647 -1.03954,1.27701 -1.54101,1.92382 -5.6e-4,7.2e-4 -0.001,10e-4 -0.002,0.002 -0.50088,0.6461 -0.98857,1.2972 -1.46484,1.95312 -0.14228,0.19594 -0.27592,0.39501 -0.41601,0.5918 -0.32945,0.46279 -0.66114,0.92522 -0.97852,1.39258 -0.90487,1.33241 -1.76071,2.68204 -2.56836,4.04883 -0.8074,1.36633 -1.56588,2.74979 -2.27734,4.14648 -1.06718,2.09503 -2.02803,4.22098 -2.88282,6.37305 -0.85481,2.15206 -1.60343,4.32979 -2.25,6.52539 -0.64654,2.19559 -1.19037,4.40916 -1.63281,6.63476 -0.14749,0.74187 -0.28308,1.48431 -0.4082,2.22852 -1.1e-4,6.3e-4 10e-5,10e-4 0,0.002 -0.0166,0.0988 -0.0287,0.19807 -0.0449,0.29688 -0.35012,2.13399 -0.61429,4.27719 -0.78321,6.42187 -0.11783,1.49641 -0.19154,2.99349 -0.22265,4.49024 -0.0311,1.49675 -0.0192,2.99324 0.0351,4.48632 0.0544,1.49308 0.15043,2.98335 0.28907,4.46875 0.0693,0.74271 0.15009,1.48262 0.24023,2.22266 0.63104,5.18089 1.77043,10.29015 3.39258,15.24219 0.23169,0.70735 0.4733,1.41064 0.72461,2.11133 0.25131,0.70067 0.51243,1.39829 0.7832,2.09179 0.45881,1.17512 0.95078,2.33764 1.46484,3.49024 0.0925,0.20737 0.18113,0.41644 0.2754,0.62304 1.85544,4.06655 4.05256,7.98021 6.57812,11.68946 1.26261,1.85437 2.60737,3.65753 4.03125,5.40234 0.94925,1.16321 1.93373,2.30065 2.95313,3.41016 1.52909,1.66426 3.13686,3.26664 4.82031,4.79882 2.2446,2.04291 4.62435,3.96211 7.13476,5.74219 -6.56666,10.972 -12.99061,21.70691 -19.97461,33.37891 -3e-4,5e-4 3.1e-4,10e-4 0,0.002 -5.04932,-4.15333 -9.85233,-7.70796 -14.21679,-11.61523 -0.6235,-0.55818 -1.23875,-1.12389 -1.84375,-1.69922 -2.68437,-2.5516 -5.21477,-5.20085 -7.59766,-7.94531 -0.79418,-0.9147 -1.57282,-1.83965 -2.33398,-2.77539 -3.8063,-4.67914 -7.20047,-9.6191 -10.19922,-14.81055 -1.19911,-2.07589 -2.33488,-4.19247 -3.4082,-6.34766 -0.53706,-1.07838 -1.05854,-2.16572 -1.56446,-3.26367 -0.50566,-1.09737 -0.99589,-2.20359 -1.4707,-3.32031 -0.94932,-2.23278 -1.83668,-4.50538 -2.66406,-6.81445 -2.8e-4,-7.8e-4 -0.002,-10e-4 -0.002,-0.002 -0.41381,-1.15494 -0.81164,-2.31844 -1.19531,-3.49219 -0.31258,-0.95642 -0.53091,-1.84103 -0.63477,-2.68164 -0.10368,-0.83927 -0.0924,-1.6347 0.0527,-2.41015 0.0726,-0.38804 0.1777,-0.7706 0.32031,-1.15235 0.42785,-1.14524 1.18253,-2.27742 2.33203,-3.48242 0.43017,-0.45069 0.84737,-0.9079 1.25,-1.37109 3.3e-4,-3.8e-4 -3.3e-4,-0.002 0,-0.002 0.4026,-0.46318 0.79286,-0.93134 1.16797,-1.40624 3.3e-4,-4.2e-4 -3.2e-4,-0.002 0,-0.002 1.50124,-1.90077 2.78254,-3.89166 3.84571,-5.94922 2.6e-4,-5.2e-4 -2.7e-4,-10e-4 0,-0.002 1.06302,-2.05752 1.90877,-4.1811 2.5371,-6.3457 1.8e-4,-6.1e-4 -1.7e-4,-10e-4 0,-0.002 0.0414,-0.14258 0.0738,-0.28675 0.11329,-0.42968 0.22833,-0.82637 0.42808,-1.6577 0.59375,-2.49414 0.0231,-0.11676 0.0523,-0.23269 0.0742,-0.34961 1.2e-4,-6.4e-4 -1.1e-4,-0.001 0,-0.002 0.20597,-1.09943 0.35667,-2.20574 0.45508,-3.3164 6e-5,-6.5e-4 -5e-5,-0.001 0,-0.002 0.0491,-0.55501 0.0851,-1.11131 0.10742,-1.66796 3e-5,-6.6e-4 -2e-5,-0.001 0,-0.002 0.0223,-0.55665 0.0317,-1.11435 0.0274,-1.67187 -10e-6,-6.5e-4 0,-10e-4 0,-0.002 -0.0133,-1.67387 -0.14712,-3.34986 -0.40039,-5.01757 -10e-5,-6.4e-4 9e-5,-0.001 0,-0.002 -0.16888,-1.11161 -0.39104,-2.21919 -0.66602,-3.32031 -1.5e-4,-6.1e-4 1.5e-4,-10e-4 0,-0.002 -0.27505,-1.10113 -0.60364,-2.19487 -0.98437,-3.2793 -2e-4,-5.7e-4 2e-4,-0.001 0,-0.002 -0.3808,-1.08445 -0.81471,-2.15918 -1.30078,-3.22071 -2.5e-4,-5.3e-4 2.4e-4,-0.001 0,-0.002 -0.97254,-2.12365 -2.15747,-4.19478 -3.54883,-6.18945 -3e-4,-4.3e-4 3e-4,-0.002 0,-0.002 -0.34765,-0.49834 -0.70838,-0.99016 -1.08203,-1.47851 -3.1e-4,-4e-4 3e-4,-0.002 0,-0.002 -0.3737,-0.48837 -0.76246,-0.97163 -1.16211,-1.44922 -3.2e-4,-3.8e-4 3.1e-4,-0.002 0,-0.002 -0.3997,-0.4776 -0.81268,-0.948 -1.23828,-1.41406 -3.3e-4,-3.5e-4 3.2e-4,-0.002 0,-0.002 -0.17635,-0.19315 -0.35279,-0.40694 -0.52539,-0.63672 -3.2e-4,-4.2e-4 3.1e-4,-0.002 0,-0.002 -0.51873,-0.69079 -1.00523,-1.52493 -1.35743,-2.37305 -0.46983,-1.13117 -0.70222,-2.28558 -0.46289,-3.15625 0.69684,-2.53714 1.46854,-5.02145 2.31446,-7.45313 2e-4,-5.8e-4 -2.1e-4,-10e-4 0,-0.002 0.28205,-0.81074 0.57256,-1.61483 0.87109,-2.41406 0.29852,-0.7992 0.60497,-1.59307 0.91992,-2.38086 0.62993,-1.57563 1.2929,-3.1276 1.98828,-4.6582 0.69538,-1.53061 1.42314,-3.03898 2.1836,-4.52539 0.76045,-1.48642 1.55375,-2.95148 2.3789,-4.39454 0.82538,-1.4435 1.68252,-2.86466 2.57227,-4.26562 0.44474,-0.70026 0.89667,-1.3942 1.35742,-2.08399 0.46102,-0.69022 0.92925,-1.37484 1.40625,-2.05468 0.95314,-1.35841 1.9384,-2.69611 2.95508,-4.01367 3.1e-4,-4.1e-4 -3.1e-4,-0.002 0,-0.002 0.5085,-0.65898 1.02645,-1.31201 1.55078,-1.96093 1.57348,-1.9475 3.21647,-3.84826 4.93164,-5.70704 0.5712,-0.61901 1.14951,-1.23241 1.73633,-1.84179 3.2e-4,-3.4e-4 -3.2e-4,-0.002 0,-0.002 0.58716,-0.60972 1.1824,-1.21427 1.78515,-1.81445 1.20486,-1.19972 2.44212,-2.38075 3.70899,-3.54297 6.7e-4,-6.2e-4 10e-4,-0.001 0.002,-0.002 1.61365,-1.48029 3.28253,-2.92666 4.9961,-4.34766 2.9973,-2.48568 6.14159,-4.88574 9.4414,-7.19726 z m -71.01953,69.22461 c 0.47183,-1.7e-4 0.94093,0.0118 1.40625,0.0352 0.93057,0.0469 1.84673,0.13962 2.74805,0.27735 1.35206,0.20651 2.66926,0.51346 3.94336,0.91211 0.72861,0.228 1.43927,0.49228 2.13867,0.77929 0.11591,0.0476 0.23454,0.0895 0.34961,0.13867 2.42876,1.03702 4.66727,2.42272 6.6582,4.09961 0.66352,0.55883 1.29996,1.15043 1.90625,1.77149 1.21253,1.24217 2.30587,2.60366 3.26367,4.06836 0.47894,0.73232 0.92323,1.49014 1.33203,2.27148 0.20439,0.39069 0.3999,0.78734 0.58594,1.18946 0.55818,1.20629 1.03258,2.46248 1.41602,3.76171 0.1278,0.43309 0.2462,0.87214 0.35351,1.31446 0.32196,1.32691 0.54989,2.69372 0.67774,4.09375 0.0852,0.93335 0.12555,1.88146 0.11914,2.84179 -0.003,0.46938 -0.0172,0.93423 -0.043,1.39649 -4e-5,6.4e-4 4e-5,10e-4 0,0.002 -0.0257,0.46159 -0.0635,0.91905 -0.11133,1.37305 -0.19136,1.81924 -0.55684,3.5743 -1.08203,5.25195 -0.13127,0.41927 -0.27297,0.83299 -0.42383,1.24219 -0.15102,0.40978 -0.31031,0.8137 -0.48047,1.21289 -0.28196,0.66142 -0.59703,1.30306 -0.92968,1.93359 -0.0683,0.1295 -0.13078,0.26249 -0.20118,0.39063 -1.23955,2.25672 -2.80014,4.30129 -4.62695,6.08008 -0.6088,0.59279 -1.24617,1.15565 -1.91211,1.6875 -0.33297,0.26592 -0.67303,0.52349 -1.01953,0.77343 -0.693,0.4999 -1.41217,0.96736 -2.15625,1.40039 -0.74408,0.43304 -1.51356,0.83112 -2.30469,1.19336 -0.79112,0.36225 -1.60337,0.68904 -2.4375,0.97657 -5.8e-4,2e-4 -0.001,-2e-4 -0.002,0 -0.83357,0.28727 -1.68806,0.53737 -2.56055,0.74609 -0.87309,0.20886 -1.76581,0.37764 -2.67383,0.50391 -1.36202,0.1894 -2.7602,0.28289 -4.18945,0.27539 -2.32913,-0.0123 -4.58949,-0.31868 -6.74414,-0.88282 -6.1e-4,-1.5e-4 -10e-4,1.6e-4 -0.002,0 -3.01673,-0.79007 -5.82692,-2.08744 -8.33399,-3.79101 -4.4e-4,-3e-4 -0.002,3e-4 -0.002,0 -0.71598,-0.48658 -1.40616,-1.00781 -2.07031,-1.5586 -3.8e-4,-3.1e-4 -0.002,3.2e-4 -0.002,0 -0.33188,-0.27526 -0.65652,-0.55917 -0.9746,-0.8496 -3.5e-4,-3.2e-4 -0.002,3.1e-4 -0.002,0 -0.31808,-0.29047 -0.62792,-0.58946 -0.93164,-0.89454 -0.30438,-0.30574 -0.60124,-0.61765 -0.89062,-0.9375 -0.57814,-0.63898 -1.12579,-1.30428 -1.64063,-1.99609 -0.51484,-0.69181 -0.99637,-1.41033 -1.44336,-2.15039 -0.67048,-1.11009 -1.26259,-2.27081 -1.76758,-3.47656 -0.33665,-0.80384 -0.63518,-1.62813 -0.89257,-2.46875 -0.3861,-1.26094 -0.68007,-2.5598 -0.875,-3.89063 -0.19494,-1.33083 -0.29093,-2.69287 -0.2793,-4.07812 0.0115,-1.37538 0.13086,-2.73042 0.34961,-4.05664 0.5105,-3.09508 1.56178,-6.03336 3.05078,-8.71094 0.21264,-0.38246 0.43391,-0.75936 0.66406,-1.13086 4.37311,-7.05839 11.85235,-12.08284 20.33399,-12.97852 0.8928,-0.0943 1.7964,-0.14224 2.70898,-0.14257 z m 216.67969,33.52343 c 9.29333,0.34667 18.61068,0.21994 27.91601,0.19727 0.45797,-10e-4 0.88191,0.0195 1.27149,0.0625 6e-4,7e-5 0.001,-7e-5 0.002,0 0.97517,0.1079 1.73693,0.36166 2.29883,0.80078 0.22476,0.17565 0.41701,0.37971 0.57812,0.61719 2.9e-4,4.2e-4 -2.8e-4,0.002 0,0.002 0.0802,0.11835 0.15409,0.24428 0.21875,0.37891 2.5e-4,5.2e-4 -2.5e-4,0.001 0,0.002 0.25915,0.54032 0.39575,1.21351 0.41211,2.04102 2e-5,6.7e-4 -10e-6,0.001 0,0.002 0.008,0.41368 -0.014,0.86641 -0.0644,1.35937 -0.337,3.303 -0.79837,6.54648 -1.38476,9.73243 -1.2e-4,6.2e-4 1.1e-4,0.001 0,0.002 -0.0239,0.12953 -0.0519,0.25738 -0.0762,0.38672 -0.42305,2.25591 -0.90514,4.48444 -1.45312,6.68164 -0.19319,0.7746 -0.39484,1.54519 -0.60352,2.3125 -1.6e-4,6.1e-4 1.7e-4,0.001 0,0.002 -0.20852,0.7667 -0.42446,1.52963 -0.64844,2.28906 -1.7e-4,6e-4 1.8e-4,0.001 0,0.002 -0.0525,0.17803 -0.1107,0.35362 -0.16406,0.53125 -0.57039,1.89886 -1.18824,3.77562 -1.85547,5.6289 -0.0695,0.19313 -0.13645,0.38745 -0.20703,0.58008 -2.1e-4,5.8e-4 2.1e-4,10e-4 0,0.002 -1.62277,4.42873 -3.52337,8.72656 -5.69922,12.89454 -2.6e-4,5.1e-4 2.7e-4,10e-4 0,0.002 -0.72513,1.38898 -1.48129,2.76293 -2.26757,4.12305 -4.5e-4,7.6e-4 -0.002,10e-4 -0.002,0.002 -0.39286,0.67953 -0.79307,1.35697 -1.20117,2.0293 -0.6561,1.08091 -1.33776,2.14861 -2.0332,3.21093 -0.17067,0.26071 -0.33673,0.52362 -0.50977,0.78321 -3e-4,4.5e-4 3e-4,0.002 0,0.002 -0.1779,0.26689 -0.36256,0.53117 -0.54297,0.79688 -2.04548,3.01262 -4.24728,5.95156 -6.61328,8.8125 -2.06002,2.49094 -4.24113,4.92444 -6.54297,7.30078 -0.153,0.15816 -0.33336,0.30447 -0.53515,0.4375 -0.60533,0.39903 -1.40666,0.68306 -2.25391,0.85156 -1.12933,0.22447 -2.34292,0.24281 -3.28906,0.0449 -3.32333,-0.69479 -6.54319,-1.03715 -9.63672,-1.03906 -1.23741,-7.7e-4 -2.45496,0.0531 -3.65039,0.16015 -2.98859,0.26773 -5.84152,0.86994 -8.53516,1.79297 -0.53874,0.18461 -1.07183,0.38162 -1.59765,0.5918 -1.57685,0.63038 -3.09484,1.37595 -4.54883,2.23242 -0.48484,0.28559 -0.96316,0.58423 -1.4336,0.89453 -0.94086,0.6206 -1.85335,1.28967 -2.73437,2.00782 -0.44053,0.35907 -0.87382,0.73014 -1.29883,1.11328 -0.42462,0.38284 -0.84124,0.77889 -1.25,1.18554 -0.40912,0.40699 -0.81027,0.82524 -1.20312,1.25586 -0.39317,0.43096 -0.7778,0.87372 -1.1543,1.32813 -0.75239,0.90809 -1.47069,1.8628 -2.1543,2.86328 -1.0251,1.50027 -1.97192,3.10344 -2.83398,4.80664 -2.6e-4,5.2e-4 2.6e-4,10e-4 0,0.002 -0.57485,1.13586 -1.11271,2.31511 -1.61133,3.53907 -0.49862,1.22395 -0.95754,2.4924 -1.37695,3.80273 -0.30834,0.96167 -1.03043,2.09568 -1.87305,2.89648 -0.50557,0.48049 -1.05399,0.84066 -1.58398,0.97266 -1.69409,0.42183 -3.38497,0.80779 -5.07227,1.1582 -1.53847,0.3195 -3.07469,0.60546 -4.60742,0.86524 -0.14832,0.0251 -0.29705,0.0535 -0.44531,0.0781 -0.83957,0.13916 -1.67975,0.26949 -2.51758,0.39063 -5.86868,0.84851 -11.69559,1.25542 -17.47657,1.20898 -0.82661,-0.007 -1.65178,-0.0237 -2.47656,-0.0488 -1.64756,-0.0503 -3.29148,-0.13723 -4.93164,-0.26171 -6.4e-4,-5e-5 -10e-4,4e-5 -0.002,0 -0.8204,-0.0623 -1.6385,-0.13391 -2.45703,-0.21485 -4.91199,-0.48569 -9.78963,-1.30631 -14.63282,-2.4707 -0.80706,-0.19403 -1.61285,-0.39826 -2.41796,-0.61133 -6.44061,-1.70439 -12.81859,-4.02031 -19.13086,-6.95898 -5.3e-4,-2.5e-4 -10e-4,2.4e-4 -0.002,0 -0.7891,-0.36738 -1.57624,-0.74395 -2.36328,-1.13086 -0.0776,-0.0378 -0.14718,-0.0931 -0.21679,-0.16407 -0.0704,-0.0717 -0.14017,-0.15981 -0.21875,-0.26562 -0.15604,-0.21011 -0.34625,-0.48675 -0.63086,-0.83203 2.7e-4,-4.9e-4 -2.8e-4,-10e-4 0,-0.002 6.01466,-10.77466 12.11515,-21.70379 18.39648,-32.95312 5.7e-4,2.3e-4 10e-4,-2.3e-4 0.002,0 2.21043,0.89998 4.41703,1.7241 6.62696,2.46484 5.8e-4,2e-4 0.001,-1.9e-4 0.002,0 0.73624,0.24677 1.47398,0.48461 2.21094,0.71289 1.47509,0.45694 2.95135,0.87735 4.43164,1.25782 1.48029,0.38047 2.96455,0.72071 4.45312,1.02148 1.48858,0.30078 2.98052,0.56145 4.48047,0.7793 4.49986,0.65354 9.0588,0.92639 13.7168,0.77539 21.35471,-0.69111 41.11294,-10.71133 54.70312,-26.19531 3.3e-4,-3.8e-4 -3.2e-4,-0.002 0,-0.002 3.576,-4.07447 6.72663,-8.52645 9.36524,-13.28711 2.8e-4,-5e-4 -2.8e-4,-10e-4 0,-0.002 2.11072,-3.80844 3.89564,-7.81404 5.31055,-11.98047 1.9e-4,-5.9e-4 -2e-4,-10e-4 0,-0.002 0.70749,-2.08353 1.32234,-4.20571 1.83984,-6.36524 0.51735,-2.1589 0.9371,-4.35423 1.2539,-6.58007 10e-5,-6.9e-4 -9e-5,-10e-4 0,-0.002 0.0791,-0.55531 0.17162,-1.06387 0.28126,-1.52734 1.5e-4,-6.6e-4 -1.6e-4,-10e-4 0,-0.002 0.10965,-0.46328 0.2384,-0.88065 0.38671,-1.25782 2.3e-4,-5.7e-4 -2.2e-4,-0.001 0,-0.002 0.22266,-0.56581 0.49363,-1.03787 0.82618,-1.42578 3e-4,-3.6e-4 -3.1e-4,-0.002 0,-0.002 0.11099,-0.12938 0.22824,-0.24838 0.35351,-0.35938 0.20475,-0.18143 0.4352,-0.33391 0.68164,-0.46875 0.11703,-0.064 0.24002,-0.12177 0.36719,-0.17578 0.096,-0.0408 0.18904,-0.0839 0.29101,-0.11914 0.52308,-0.18096 1.12451,-0.29066 1.82227,-0.33789 0.46444,-0.0314 0.97144,-0.0363 1.52344,-0.0156 z m -14.79102,83.04297 c 0.91084,-0.001 1.81308,0.0456 2.70508,0.13867 0.446,0.0465 0.88973,0.10467 1.33008,0.17383 0.44098,0.0693 0.87781,0.1489 1.3125,0.24024 0.43407,0.0912 0.86384,0.19407 1.29101,0.30664 0.42719,0.11256 0.84988,0.2358 1.26954,0.36914 3.35788,1.06666 6.46415,2.78762 9.16015,5.00586 0.67391,0.55445 1.32137,1.13988 1.94141,1.7539 0.31001,0.30702 0.61455,0.62043 0.91015,0.94141 0.29562,0.32097 0.5827,0.64811 0.86329,0.98242 0.2809,0.33468 0.55314,0.67601 0.81836,1.02344 0.26493,0.34704 0.52283,0.69945 0.77148,1.05859 0.49762,0.7187 0.96,1.46115 1.38867,2.22461 0.42843,0.763 0.82123,1.54686 1.17578,2.34961 0.35454,0.80276 0.67161,1.62338 0.94727,2.46094 0.13783,0.41878 0.26563,0.84103 0.38281,1.26758 1.7e-4,6e-4 -1.6e-4,0.001 0,0.002 0.23413,0.85252 0.42636,1.71976 0.57422,2.59961 1.1e-4,6.3e-4 -1.1e-4,0.001 0,0.002 0.14779,0.87986 0.25206,1.77354 0.30859,2.67578 0.0283,0.45145 0.0443,0.90521 0.0488,1.36133 0.005,0.46771 -0.002,0.93238 -0.0215,1.39453 -0.0586,1.38646 -0.2248,2.74646 -0.49024,4.07227 -0.17695,0.88387 -0.39917,1.75252 -0.66211,2.60351 -0.39442,1.27652 -0.88255,2.51387 -1.45703,3.70313 -0.19149,0.39642 -0.39125,0.78633 -0.60156,1.17187 -0.42095,0.77189 -0.87833,1.51941 -1.37109,2.24415 -0.4923,0.72403 -1.01893,1.42345 -1.57813,2.0957 -5.03265,6.05005 -12.67922,9.90766 -21.19922,9.84765 -5.1645,-0.0367 -9.94066,-1.46504 -13.98242,-3.93554 -0.73486,-0.44918 -1.44666,-0.93331 -2.13086,-1.44922 -6.49996,-4.90116 -10.61897,-12.71854 -10.57227,-21.64063 0.0155,-2.80624 0.45008,-5.51109 1.24219,-8.05273 0.26404,-0.84721 0.56673,-1.67548 0.90821,-2.48438 3.92673,-9.30167 12.82794,-15.92207 23.33593,-16.4707 0.45691,-0.0238 0.91815,-0.0365 1.38086,-0.0371 z"
         transform="matrix(0.75000002,0,0,-0.75000002,0,600.00002)"
         id="path22"
         inkscape:connector-curvature="0" />
      <path
         style="fill:#222d42;fill-opacity:1;fill-rule:evenodd;stroke:none;stroke-width:1.33333325"
         d="m 318.89648,508.50977 c -8.188,1.42933 -15.58133,2.72101 -23.13867,4.04101 -0.14266,1.176 -0.35547,2.11602 -0.35547,3.05469 -0.0173,60.11066 0.0129,120.22136 -0.0937,180.33203 -0.005,3.556 1.53847,4.51334 4.5918,5.27734 16.852,4.19867 33.94358,6.54236 51.26758,5.31836 23.74666,-1.67733 42.21225,-12.17785 52.65625,-34.36718 7.52267,-15.98134 8.16027,-32.89146 5.71094,-50.07813 -5.00667,-35.164 -30.32545,-55.37056 -65.55078,-51.58789 -8.276,0.888 -16.30656,4.05584 -25.0879,6.33984 z m 415.33399,23.88085 c -6.19733,1.07734 -11.88329,2.53165 -17.64063,2.93165 -5.13466,0.35466 -6.23493,2.4743 -6.21093,7.29296 0.19866,36.23867 0.003,72.47947 0.1914,108.7168 0.0387,7.71467 0.62533,15.50981 1.86133,23.11914 2.06533,12.71733 8.00367,23.40249 20.625,28.14649 18.924,7.11333 37.564,4.63375 56,-3.40625 -1.75333,-6.58134 -3.41082,-12.81352 -5.02148,-18.85352 -5.604,1.61867 -10.51809,3.52383 -15.60743,4.42383 -23.76533,4.204 -33.99297,-4.4386 -34.07031,-28.5586 -0.064,-19.37999 -0.0194,-38.75733 0.002,-58.13867 10e-4,-1.67866 0.18583,-3.35821 0.3125,-5.43554 h 48.78515 v -19.96875 h -49.2266 z M 620.50195,570 c -15.35649,0.16056 -30.58753,2.88903 -45.70703,6.63086 v 126.78516 h 23.40039 V 592.89648 c 9.196,-0.67466 18.04695,-2.07907 26.84961,-1.8164 20.14,0.6 28.31304,7.7127 30.23438,27.7207 1.48133,15.38133 1.04004,30.9566 1.24804,46.44727 0.168,12.568 0.0332,25.14158 0.0332,38.01757 h 23.66211 c 0,-2.60666 0.002,-4.71869 0.002,-6.83203 0,-22.104 0.14801,-44.20797 -0.084,-66.30664 -0.076,-7.13866 -0.68108,-14.34148 -1.84374,-21.38281 -3.44,-20.82667 -15.80873,-33.84523 -36.7754,-37.22656 -7.03375,-1.13375 -14.0393,-1.59056 -21.01953,-1.51758 z m -464.97265,3.01953 c 0.60133,30.324 -0.43053,60.25618 2.24414,89.85352 2.61733,28.96933 20.74916,43.76331 49.92383,43.33398 16.33866,-0.24 32.62431,-3.40261 48.95898,-4.97461 4.65733,-0.44666 5.44631,-2.6755 5.43164,-6.82617 -0.13333,-38.58133 -0.0745,-77.16209 -0.0918,-115.74609 -10e-4,-1.84667 -0.19368,-3.69332 -0.29101,-5.44532 h -23.42383 v 109.40039 c -8.26533,2.80534 -25.59064,3.70595 -34.30664,2.22461 -11.14,-1.88933 -18.19317,-8.32306 -21.0625,-19.03906 -1.44,-5.38133 -2.53024,-11.02569 -2.62891,-16.56836 -0.412,-23.06 -0.38496,-46.12812 -0.51562,-69.18945 -0.0133,-2.28 -0.002,-4.55677 -0.002,-7.02344 z m 279.70508,0.0215 c 0,17.28 -0.14308,33.93979 0.0449,50.59179 0.144,12.77734 -0.0812,25.63455 1.24414,38.31055 2.768,26.452 17.19078,41.00086 43.55078,44.01953 18.64666,2.13467 37.0609,-0.78274 55.35156,-4.58008 4.48133,-0.93066 5.85017,-2.54828 5.82617,-7.12695 -0.188,-38.58267 -0.10742,-77.166 -0.10742,-115.75 v -5.30274 h -23.85742 c 0,2.668 0.002,4.96439 0.002,7.26172 -10e-4,32.37867 0.002,64.76001 -0.01,97.13868 -10e-4,2.81333 0.74357,6.10899 -3.73242,6.34765 -9.07467,0.484 -18.21299,1.91778 -27.20899,1.28711 -14.52533,-1.01733 -22.31481,-8.67893 -25.38281,-22.93359 -0.64934,-3.01867 -1.2827,-6.11036 -1.33203,-9.17969 -0.388,-24.41467 -0.63335,-48.83143 -0.91602,-73.24609 -0.028,-2.23334 -0.004,-4.46989 -0.004,-6.83789 z m 451.68164,0.10546 V 684.0957 c -10.236,0.49867 -19.9072,1.70687 -29.50586,1.26953 -15.224,-0.696 -23.40857,-8.00031 -26.47657,-22.95898 -1.432,-6.97067 -2.11679,-14.19827 -2.21679,-21.32227 -0.284,-20.55466 -0.0996,-41.11711 -0.0996,-61.67578 v -6.19726 h -23.46875 c 0,22.26933 -0.12488,44.16021 0.0644,66.04687 0.076,8.50667 0.24379,17.09814 1.45313,25.49414 3.45466,23.984 17.55595,37.93985 41.39062,40.97852 19.47333,2.484 38.60645,-0.57746 57.67578,-4.4668 4.48534,-0.916 5.41897,-2.77359 5.4043,-6.93359 -0.13733,-38.59867 -0.0798,-77.1944 -0.0918,-115.78906 0,-1.7 -0.1469,-3.3972 -0.24023,-5.39454 z M 350.56445,590.8711 c 17.9224,0.19817 29.54578,10.89287 33.66016,30.09571 2.85467,13.31466 2.85167,26.55671 -1.73633,39.49804 -5.31067,14.98534 -18.36788,24.79886 -34.31055,25.13086 -9.55466,0.19734 -19.136,-0.87825 -29.13867,-1.40625 v -23.9707 c 0,-18.208 0.11211,-36.41709 -0.0879,-54.62109 -0.0427,-3.79867 0.94118,-6.55325 4.47852,-7.78125 7.06666,-2.44667 14.09109,-5.91197 21.37109,-6.66797 1.9875,-0.20638 3.90963,-0.29785 5.76367,-0.27735 z"
         transform="matrix(0.75000002,0,0,-0.75000002,0,600.00002)"
         id="path50"
         inkscape:connector-curvature="0" />
    </g>
  </g>
  <style
     id="style2151">.st0{fill:red}</style>
  <style
     id="style2151-7">.st0{fill:red}</style>
</svg>
