<?xml version="1.0" encoding="UTF-8" standalone="no"?>
<!-- Created with Inkscape (http://www.inkscape.org/) -->

<svg
   xmlns:dc="http://purl.org/dc/elements/1.1/"
   xmlns:cc="http://creativecommons.org/ns#"
   xmlns:rdf="http://www.w3.org/1999/02/22-rdf-syntax-ns#"
   xmlns:svg="http://www.w3.org/2000/svg"
   xmlns="http://www.w3.org/2000/svg"
   xmlns:sodipodi="http://sodipodi.sourceforge.net/DTD/sodipodi-0.dtd"
   xmlns:inkscape="http://www.inkscape.org/namespaces/inkscape"
   width="400"
   height="400"
   viewBox="0 0 105.83333 105.83334"
   version="1.1"
   id="svg8"
   inkscape:version="0.92.3 (2405546, 2018-03-11)"
   sodipodi:docname="unknown-logo.svg">
  <defs
     id="defs2" />
  <sodipodi:namedview
     id="base"
     pagecolor="#ffffff"
     bordercolor="#666666"
     borderopacity="1.0"
     inkscape:pageopacity="0.0"
     inkscape:pageshadow="2"
     inkscape:zoom="0.7"
     inkscape:cx="-368.66122"
     inkscape:cy="219.4313"
     inkscape:document-units="px"
     inkscape:current-layer="layer1"
     showgrid="false"
     inkscape:window-width="1853"
     inkscape:window-height="1025"
     inkscape:window-x="67"
     inkscape:window-y="27"
     inkscape:window-maximized="1"
     units="px" />
  <metadata
     id="metadata5">
    <rdf:RDF>
      <cc:Work
         rdf:about="">
        <dc:format>image/svg+xml</dc:format>
        <dc:type
           rdf:resource="http://purl.org/dc/dcmitype/StillImage" />
        <dc:title />
      </cc:Work>
    </rdf:RDF>
  </metadata>
  <g
     inkscape:label="Calque 1"
     inkscape:groupmode="layer"
     id="layer1"
     transform="translate(0,-191.16665)">
    <g
       id="g834"
       transform="matrix(0.2167827,0,0,0.2167827,0.12447301,190.63023)"
       style="fill:#222d42;fill-opacity:1;stroke:#fafafa;stroke-width:0.99932414;stroke-miterlimit:4;stroke-dasharray:none;stroke-opacity:1">
      <path
         id="path832"
         d="m 332.62587,67.66137 c -27.5,-20.9 -58.5,-28.1 -97.8,-28.1 -29.8,0 -55.3,6.1 -75.5,19.7 -29.8,20.3 -43.8,54.4 -43.8,108.3 h 76.8 c 0,-14.4 -1.4,-29.9 7,-43.2 8.4,-13.3 20.1,-23.5 40.2,-23.5 20.4,0 30.9,5.9 40.8,18.1 8.4,10.4 11.6,22.8 11.6,36 0,11.4 -5.8,21.9 -12.7,31.4 -3.8,5.6 -8.8,10.6 -15.1,15.4 0,0 -41.5,24.7 -56.1,48.1 -10.9,17.4 -14.8,39.2 -15.7,65.3 -0.1,1.9 0.6,5.8 7.2,5.8 6.5,0 56,0 61.8,0 5.8,0 7,-4.4 7.1,-6.2 0.4,-9.5 1.6,-24.1 3.3,-29.6 3.3,-10.4 9.7,-19.5 19.7,-27.3 l 20.7,-14.3 c 18.7,-14.6 33.6,-26.5 40.2,-35.9 11.3,-15.4 19.2,-34.4 19.2,-56.9 0,-36.7 -13.5,-63.8 -38.9,-83.1 z m -103.1,293.1 c -25.9,-0.8 -47.3,17.2 -48.2,45.3 -0.8,28.2 19.5,46.7 45.5,47.5 27,0.8 47.9,-16.6 48.7,-44.7 0.8,-28.1 -19,-47.3 -46,-48.1 z"
         inkscape:connector-curvature="0"
         style="fill:#222d42;fill-opacity:1;stroke:none;stroke-width:0.99932414;stroke-miterlimit:4;stroke-dasharray:none;stroke-opacity:1" />
    </g>
  </g>
</svg>
