<?xml version="1.0" encoding="UTF-8" standalone="no"?>
<!-- Created with Inkscape (http://www.inkscape.org/) -->

<svg
   xmlns:dc="http://purl.org/dc/elements/1.1/"
   xmlns:cc="http://creativecommons.org/ns#"
   xmlns:rdf="http://www.w3.org/1999/02/22-rdf-syntax-ns#"
   xmlns:svg="http://www.w3.org/2000/svg"
   xmlns="http://www.w3.org/2000/svg"
   xmlns:sodipodi="http://sodipodi.sourceforge.net/DTD/sodipodi-0.dtd"
   xmlns:inkscape="http://www.inkscape.org/namespaces/inkscape"
   width="4195mm"
   height="1435mm"
   viewBox="0 0 14864.173 5084.6456"
   id="svg8371"
   version="1.1"
   inkscape:version="0.91 r13725"
   sodipodi:docname="logo-rudder.svg">
  <defs
     id="defs8373" />
  <sodipodi:namedview
     id="base"
     pagecolor="#ffffff"
     bordercolor="#666666"
     borderopacity="0"
     inkscape:pageopacity="0"
     inkscape:pageshadow="2"
     inkscape:zoom="0.061871843"
     inkscape:cx="5991.9337"
     inkscape:cy="-945.69284"
     inkscape:document-units="px"
     inkscape:current-layer="layer1"
     showgrid="false"
     inkscape:showpageshadow="false"
     inkscape:window-width="1865"
     inkscape:window-height="1056"
     inkscape:window-x="55"
     inkscape:window-y="24"
     inkscape:window-maximized="1" />
  <metadata
     id="metadata8376">
    <rdf:RDF>
      <cc:Work
         rdf:about="">
        <dc:format>image/svg+xml</dc:format>
        <dc:type
           rdf:resource="http://purl.org/dc/dcmitype/StillImage" />
        <dc:title></dc:title>
      </cc:Work>
    </rdf:RDF>
  </metadata>
  <g
     inkscape:label="Calque 1"
     inkscape:groupmode="layer"
     id="layer1"
     transform="translate(0,4032.2835)">
    <path
       id="path14"
       style="fill:#ffffff;fill-opacity:1;fill-rule:nonzero;stroke:none"
       d="m 4562.2563,-1370.5731 c 92.5974,0 166.298,-22.0426 221.0452,-66.3501 54.7473,-44.271 82.1771,-104.3889 82.1771,-180.2016 l 0,-4.2412 c 0,-80.1694 -26.782,-140.9236 -80.0372,-182.4178 -53.3388,-41.4153 -128.4758,-62.1061 -225.2971,-62.1061 l -376.8385,0 0,495.3168 z m -635.0862,-728.3112 654.9124,0 c 92.2872,0 174.1546,12.9912 245.5745,38.7878 71.3906,25.9459 130.8129,61.9202 178.4071,108.0669 39.1456,40.6296 69.2229,87.5281 90.2316,140.6983 21.0096,53.2097 31.5422,111.9729 31.5422,176.2954 l 0,4.2074 c 0,60.2278 -8.7867,114.3386 -26.2472,162.7015 -17.5735,48.2137 -41.7366,90.9076 -72.4895,127.969 -30.7814,37.1741 -67.5048,68.6398 -110.1144,94.5124 -42.6939,25.8726 -89.9499,45.772 -141.7123,59.7799 l 396.6648,556.25978 -304.2926,0 -362.1663,-512.21408 -324.1746,0 0,512.21408 -256.1357,0 0,-1469.27838"
       inkscape:connector-curvature="0" />
    <path
       id="path16"
       style="fill:#ffffff;fill-opacity:1;fill-rule:nonzero;stroke:none"
       d="m 6298.9347,-606.55237 c -95.0754,0 -181.1954,-13.59105 -258.1347,-40.89147 -76.9672,-27.33424 -142.7548,-68.22578 -197.2761,-122.78723 -54.6071,-54.5952 -96.5403,-122.11125 -125.9419,-202.57912 -29.373,-80.43131 -44.0173,-173.81711 -44.0173,-280.19421 l 0,-845.8799 255.9941,0 0,835.3275 c 0,137.1697 33.0629,241.4064 99.2436,312.78915 66.0685,71.34332 157.5956,107.05298 274.4127,107.05298 115.3807,0 206.0914,-34.28183 272.2721,-102.84836 66.1528,-68.52707 99.2436,-170.73897 99.2436,-306.44137 l 0,-845.8799 256.0792,0 0,833.2633 c 0,109.1566 -15.0954,205.0208 -45.1727,287.59232 -30.105,82.57161 -72.4329,151.43663 -126.955,206.67113 -54.6064,55.31058 -120.6749,96.57947 -198.3742,123.91371 -77.7,27.30042 -164.7208,40.89147 -261.3734,40.89147"
       inkscape:connector-curvature="0" />
    <path
       id="path18"
       style="fill:#ffffff;fill-opacity:1;fill-rule:nonzero;stroke:none"
       d="m 8083.0945,-862.63967 c 76.9107,0 146.9787,-12.24208 209.8649,-36.87274 62.9985,-24.55745 116.5633,-58.99142 160.6371,-103.26239 44.0737,-44.271 78.3191,-96.9906 102.8205,-158.0829 24.4727,-61.1316 36.7512,-127.4818 36.7512,-199.1631 l 0,-4.2806 c 0,-71.5714 -12.2785,-138.4087 -36.7512,-200.1769 -24.5014,-61.8442 -58.7468,-114.8286 -102.8205,-159.0996 -44.0738,-44.3836 -97.6386,-79.116 -160.6371,-104.3494 -62.8862,-25.346 -132.9542,-37.9626 -209.8649,-37.9626 l -289.6482,0 0,1003.25023 z m -545.6991,-1236.24463 547.8111,0 c 114.733,0 220.0315,18.5111 315.9241,55.5725 95.8075,37.1742 178.3792,88.5786 247.6021,154.2528 69.3351,65.787 122.7868,143.1035 160.6084,232.0566 37.7658,88.8433 56.6626,185.0453 56.6626,288.533 l 0,4.168 c 0,103.5975 -18.8968,200.1375 -56.6626,289.7327 -37.8216,89.47975 -91.2733,167.20743 -160.6084,232.91831 -69.2229,65.82634 -151.7946,117.60535 -247.6021,155.34268 -95.8926,37.77679 -201.1911,56.70179 -315.9241,56.70179 l -547.8111,0 0,-1469.27838"
       inkscape:connector-curvature="0" />
    <path
       id="path20"
       style="fill:#ffffff;fill-opacity:1;fill-rule:nonzero;stroke:none"
       d="m 9976.3827,-862.63967 c 76.9393,0 146.9233,-12.24208 209.8933,-36.87274 62.97,-24.55745 116.563,-58.99142 160.58,-103.26239 44.046,-44.271 78.32,-96.9906 102.849,-158.0829 24.472,-61.1316 36.752,-127.4818 36.752,-199.1631 l 0,-4.2806 c 0,-71.5714 -12.28,-138.4087 -36.752,-200.1769 -24.529,-61.8442 -58.803,-114.8286 -102.849,-159.0996 -44.017,-44.3836 -97.61,-79.116 -160.58,-104.3494 -62.97,-25.346 -132.954,-37.9626 -209.8933,-37.9626 l -289.6197,0 0,1003.25023 z m -545.7547,-1236.24463 547.8109,0 c 114.7891,0 220.0871,18.5111 315.9521,55.5725 95.779,37.1742 178.435,88.5786 247.714,154.2528 69.195,65.787 122.702,143.1035 160.496,232.0566 37.766,88.8433 56.663,185.0453 56.663,288.533 l 0,4.168 c 0,103.5975 -18.897,200.1375 -56.663,289.7327 -37.794,89.47975 -91.301,167.20743 -160.496,232.91831 -69.279,65.82634 -151.935,117.60535 -247.714,155.34268 -95.865,37.77679 -201.163,56.70179 -315.9521,56.70179 l -547.8109,0 0,-1469.27838"
       inkscape:connector-curvature="0" />
    <path
       id="path22"
       style="fill:#ffffff;fill-opacity:1;fill-rule:nonzero;stroke:none"
       d="m 13617.164,-1370.5731 c 92.625,0 166.326,-22.0426 221.045,-66.3501 54.775,-44.271 82.149,-104.3889 82.149,-180.2016 l 0,-4.2412 c 0,-80.1694 -26.726,-140.9236 -80.037,-182.4178 -53.339,-41.4153 -128.42,-62.1061 -225.27,-62.1061 l -376.894,0 0,495.3168 z m -635.114,-728.3112 654.968,0 c 92.288,0 174.155,12.9912 245.575,38.7878 71.307,25.9459 130.757,61.9202 178.351,108.0669 39.173,40.6296 69.223,87.5281 90.288,140.6983 20.98,53.2097 31.457,111.9729 31.457,176.2954 l 0,4.2074 c 0,60.2278 -8.759,114.3386 -26.219,162.7015 -17.517,48.2137 -41.68,90.9076 -72.49,127.969 -30.725,37.1741 -67.476,68.6398 -110.142,94.5124 -42.694,25.8726 -89.922,45.772 -141.628,59.7799 l 396.665,556.25978 -304.349,0 -362.194,-512.21408 -324.175,0 0,512.21408 -256.107,0 0,-1469.27838"
       inkscape:connector-curvature="0" />
    <path
       id="path24"
       style="fill:#ffffff;fill-opacity:1;fill-rule:nonzero;stroke:none"
       d="m 11579.966,-1865.8899 831.208,0 0,-232.9944 -1087.258,0 0,232.9944 256.05,0"
       inkscape:connector-curvature="0" />
    <path
       id="path26"
       style="fill:#ffffff;fill-opacity:1;fill-rule:nonzero;stroke:none"
       d="m 11580.023,-862.63967 0,-392.43173 736.723,0 0,-233.031 -992.83,0 0,858.49648 1097.734,0 0,-233.03375 -841.627,0"
       inkscape:connector-curvature="0" />
    <path
       id="path28"
       style="fill:#ffffff;fill-opacity:1;fill-rule:nonzero;stroke:none"
       d="m 1834.8879,-678.34625 c 62.5764,-16.59598 121.717,-41.56738 176.3235,-73.37099 -27.1202,-71.49531 -12.0534,-155.1934 45.5101,-212.72032 57.5354,-57.52414 141.2335,-72.54584 212.6528,-45.51014 31.9078,-54.5952 56.8877,-113.6993 73.3625,-176.2954 -69.7577,-31.3163 -118.4783,-101.3079 -118.4783,-182.7163 0,-81.5578 48.7206,-151.4366 118.4783,-182.7896 -16.4748,-62.5596 -41.4547,-121.6607 -73.3625,-176.2588 -19.9951,7.5841 -40.8916,11.4902 -62.0413,12.428 l -203.6972,234.1236 c 11.3212,35.5576 17.6014,73.295 17.6014,112.4968 0,203.5198 -165.5656,369.07686 -369.0657,369.07686 -203.5282,0 -369.1219,-165.55706 -369.1219,-369.07686 0,-203.6296 165.5937,-369.1502 369.1219,-369.1502 37.4275,0 73.5597,5.6719 107.6923,16.1849 l 238.8717,-208.0258 c 1.4081,-19.0743 5.5198,-38.1119 12.4759,-56.2849 -54.6065,-31.9191 -113.7471,-56.8511 -176.3235,-73.3738 -31.2882,69.8422 -101.3276,118.4698 -182.7164,118.4698 -81.5014,0 -151.4563,-48.6276 -182.6881,-118.4698 -62.6047,16.5227 -121.7452,41.4547 -176.3236,73.3738 27.0639,71.3799 11.9971,155.1906 -45.5946,212.7175 -57.4509,57.5269 -141.1771,72.5825 -212.6528,45.5101 -31.9078,54.5981 -56.6905,113.6992 -73.39065,176.2954 69.78595,31.3164 118.50655,101.1952 118.50655,182.753 0,81.5211 -48.7206,151.4 -118.50655,182.7163 16.70015,62.5961 41.51105,121.7002 73.39065,176.2954 71.4757,-27.0357 155.2301,-12.014 212.6528,45.51014 57.5917,57.52692 72.6867,141.22501 45.5946,212.72032 54.5784,31.80361 113.7189,56.77501 176.3236,73.37099 31.2318,-69.84221 101.1867,-118.50654 182.6881,-118.50654 81.3888,0 151.4282,48.66433 182.7164,118.50654"
       inkscape:connector-curvature="0" />
    <path
       id="path30"
       style="fill:#ffffff;fill-opacity:1;fill-rule:nonzero;stroke:none"
       d="m 1587.9054,-1466.0233 c -43.7077,43.7078 -43.7077,114.5638 0,158.2716 21.8257,21.8144 50.4667,32.7414 79.1358,32.7414 28.6128,0 57.3382,-10.927 79.0794,-32.7414 l 798.9053,-913.2072 c 12.1098,-12.1295 12.1098,-31.8036 0,-43.9331 -12.1661,-12.1294 -31.7669,-12.1294 -43.933,0 l 0,0 -913.1875,798.8687"
       inkscape:connector-curvature="0" />
    <path
       id="path32"
       style="fill:#ffffff;fill-opacity:1;fill-rule:nonzero;stroke:none"
       d="m 595.92003,-1543.5651 124.47695,128.721 c 25.57125,-492.464 432.90932,-883.8791 931.71822,-883.8791 211.3855,0 406.2679,70.3295 562.6808,188.7994 l 195.8399,-168.0354 c -205.6686,-171.1501 -470.0271,-274.1872 -758.5207,-274.1872 -640.3521,0 -1161.85971,507.4068 -1185.20618,1142.0336 l 129.01101,-133.4523"
       inkscape:connector-curvature="0" />
    <path
       id="path34"
       style="fill:#ffffff;fill-opacity:1;fill-rule:nonzero;stroke:none"
       d="m 1474.3272,-309.61012 128.6732,-124.47687 c -448.1733,-23.2057 -812.53585,-362.8418 -874.40824,-799.76711 L 595.92003,-1370.9871 472.119,-1242.942 c 59.92922,583.03359 542.1505,1040.57354 1135.697,1062.4274 l -133.4888,-129.09552"
       inkscape:connector-curvature="0" />
    <path
       id="path36"
       style="fill:#ffffff;fill-opacity:1;fill-rule:nonzero;stroke:none"
       d="m 2583.8053,-1316.6904 c -23.2339,448.22961 -362.8136,812.61183 -799.7783,874.45605 l -137.1218,132.62423 128.0816,123.8771 c 583.0421,-59.96575 1040.5089,-542.14208 1062.3628,-1135.68858 l -253.5443,4.7312"
       inkscape:connector-curvature="0" />
  </g>
</svg>
