<?xml version="1.0" encoding="UTF-8" standalone="no"?>
<svg
   xmlns:dc="http://purl.org/dc/elements/1.1/"
   xmlns:cc="http://creativecommons.org/ns#"
   xmlns:rdf="http://www.w3.org/1999/02/22-rdf-syntax-ns#"
   xmlns:svg="http://www.w3.org/2000/svg"
   xmlns="http://www.w3.org/2000/svg"
   height="400"
   width="400"
   xml:space="preserve"
   viewBox="0 0 400 400"
   y="0px"
   x="0px"
   id="Layer_1"
   version="1.1"><metadata
   id="metadata25"><rdf:RDF><cc:Work
       rdf:about=""><dc:format>image/svg+xml</dc:format><dc:type
         rdf:resource="http://purl.org/dc/dcmitype/StillImage" /><dc:title></dc:title></cc:Work></rdf:RDF></metadata><defs
   id="defs83" />
<style
   id="style2"
   type="text/css">
	.st0{fill:#FFFFFF;}
	.st1{fill:#86DA2F;}
	.st2{fill:#24C2FF;}
	.st3{fill:#FFCB12;}
	.st4{fill:#0069DA;}
	.st5{fill:#FF4649;}
	.st6{fill:#00245E;}
</style>





































<g
   style="stroke-width:0.1954671"
   transform="matrix(5.1159505,0,0,5.1159505,-18.482163,-823.1901)"
   id="g842"><path
     class="st1"
     d="m 75.076728,204.88808 c 3.287685,-0.2529 5.943122,1.89674 6.196021,5.18443 0.252899,3.41413 -2.14964,6.19602 -5.437324,6.44892 -3.161236,0.2529 -5.943122,-2.14965 -6.196021,-5.31087 -0.252899,-3.41414 2.02319,-5.94313 5.437324,-6.32248 z"
     id="path60"
     style="fill:#222d42;fill-opacity:1;stroke-width:0.24716815" /><path
     class="st2"
     d="m 35.118718,231.8218 c 0,-3.28769 2.528988,-5.81667 5.563773,-5.81667 3.034787,0 5.943122,2.78188 5.943122,5.94312 0,3.03479 -2.528988,5.69022 -5.437323,5.81667 -3.667033,0 -6.069572,-2.27608 -6.069572,-5.94312 z"
     id="path62"
     style="fill:#222d42;fill-opacity:1;stroke-width:0.24716815" /><path
     class="st3"
     d="m 44.096625,194.89857 c -0.505797,0.2529 -0.758696,-0.12645 -0.885146,-0.50578 -4.678627,-8.72501 -3.287684,-19.72611 4.931527,-26.30148 2.14964,-1.77029 6.196021,-2.14964 7.966312,-0.37935 0.758697,0.63225 0.885146,1.39095 1.011596,2.27608 0.252898,1.89675 0.632247,3.79349 1.89674,5.31088 1.390944,1.64385 3.161236,2.2761 5.184426,2.14965 1.770291,0 3.540583,-0.2529 4.678628,1.77028 0.632247,1.13805 0.379348,5.56378 -0.632247,6.44893 -0.505798,0.37935 -0.885146,0.12645 -1.264494,0 -2.908337,-1.13805 -5.943122,-1.13805 -8.977907,-0.63225 -1.011596,0.12645 -1.517394,-0.12645 -1.517394,-1.2645 -0.126448,-1.89674 -0.505797,-3.66703 -1.517392,-5.31088 -1.896741,-3.41413 -5.437324,-3.54058 -7.713414,-0.37935 -1.89674,2.52899 -2.402538,5.56378 -2.908336,8.59856 -0.505798,2.65544 -0.379348,5.43733 -0.252899,8.21921 0,0 -0.126449,0 0,0 z"
     id="path64"
     style="fill:#222d42;fill-opacity:1;stroke-width:0.24716815" /><path
     class="st1"
     d="m 47.25786,196.79532 c -0.252898,-0.37935 -0.126449,-0.7587 0.252899,-1.0116 7.207616,-6.57537 17.955815,-7.83986 26.301475,-1.39093 2.14964,1.77028 3.540584,5.43732 2.402539,7.58696 -0.505797,0.88515 -1.138045,1.26448 -1.896741,1.51738 -1.770292,0.7587 -3.414134,1.5174 -4.552178,3.16124 -1.138045,1.64385 -1.390944,3.54059 -0.885146,5.56377 0.379348,1.64385 1.011595,3.41414 -0.632247,4.93153 -0.885146,0.88515 -5.184425,1.64385 -6.32247,0.88515 -0.505797,-0.37935 -0.379349,-0.7587 -0.252899,-1.26449 0.379348,-3.16124 -0.379348,-6.06957 -1.517393,-8.85146 -0.379348,-1.0116 -0.252899,-1.5174 0.758696,-1.7703 1.770292,-0.50579 3.414134,-1.39094 4.678629,-2.65544 2.781886,-2.65543 2.149639,-6.06957 -1.517394,-7.58696 -2.908336,-1.2645 -5.943121,-1.0116 -8.851457,-0.7587 -2.781887,0.12645 -5.437325,0.88515 -7.966313,1.64385 0,0 0,0 0,0 z"
     id="path66"
     style="fill:#222d42;fill-opacity:1;stroke-width:0.24716815" /><path
     class="st2"
     d="m 45.614018,200.08301 c 0.379349,-0.37935 0.632248,-0.2529 1.011595,0 8.345661,5.05797 12.64494,15.04747 8.851459,24.78408 -1.011596,2.52899 -4.29928,5.05797 -6.701818,4.42572 -1.011596,-0.2529 -1.517394,-0.7587 -2.023191,-1.39093 -1.138045,-1.5174 -2.402539,-2.90834 -4.29928,-3.54059 -2.02319,-0.63225 -3.793481,-0.2529 -5.563773,0.7587 -1.517393,0.88514 -3.034786,2.02319 -4.931526,0.88514 -1.138045,-0.63225 -3.034787,-4.55218 -2.655438,-5.81668 0.252898,-0.50578 0.758696,-0.50578 1.264494,-0.50578 3.161234,-0.5058 5.690222,-2.0232 8.092762,-4.04639 0.758696,-0.63225 1.390943,-0.63225 2.023189,0.2529 1.011596,1.51739 2.27609,2.78189 3.919933,3.66704 3.287684,1.89673 6.448919,0.25288 6.828266,-3.54059 0.379349,-3.16124 -0.758696,-5.94312 -1.770291,-8.72501 -1.138044,-2.52899 -2.528988,-4.93152 -4.046381,-7.20761 0,0 0,0 0,0 z"
     id="path68"
     style="fill:#222d42;fill-opacity:1;stroke-width:0.24716815" /><path
     class="st4"
     d="m 41.567637,200.8417 c -0.505797,2.52898 -1.643842,4.93152 -3.161234,7.08117 -4.552179,6.82826 -11.127548,9.61015 -19.220309,8.85146 -2.908337,-0.2529 -5.310875,-2.65545 -5.563774,-5.05799 -0.126449,-1.01158 0.12645,-1.77028 0.758697,-2.52898 0.885145,-1.13804 1.643841,-2.14964 2.02319,-3.54058 0.758696,-2.78188 -0.252899,-5.05798 -2.276089,-7.08117 -2.781887,-2.78189 -2.402539,-5.31087 0.885146,-7.33406 0.379348,-0.2529 0.885146,-0.5058 1.390943,-0.7587 0.758696,-0.37935 1.390943,-0.37935 1.643842,0.5058 1.138045,2.90834 3.414134,5.05797 5.943122,6.82826 0.885146,0.7587 0.885146,1.2645 0.12645,2.14965 -1.517393,1.64384 -2.402539,3.66702 -2.528988,5.94311 -0.2529,2.78189 1.390943,4.55219 4.17283,4.55219 1.770291,0 3.414133,-0.63225 4.931526,-1.39095 3.919931,-2.02319 6.954717,-4.93153 9.863053,-7.96631 0.379349,-0.12645 0.505798,-0.37935 1.011595,-0.2529 z"
     id="path70"
     style="fill:#222d42;fill-opacity:1;stroke-width:0.24716815" /><path
     class="st5"
     d="m 20.829936,174.28733 c 0.252898,0 0.885146,0.12645 1.517393,0.2529 4.678627,0.88514 7.586964,-0.7587 9.104356,-5.18444 1.011596,-2.90833 3.161235,-3.79347 5.943122,-2.27608 0.12645,0 0.12645,0.12645 0.252899,0.12645 2.781887,1.64385 2.781887,1.89675 0.885146,4.42573 -1.517392,2.02319 -2.27609,4.29928 -2.655437,6.70181 -0.252899,1.39095 -0.758697,1.64385 -2.023191,1.13805 -2.02319,-0.7587 -4.17283,-0.7587 -6.32247,0 -2.402538,0.7587 -3.414133,2.90834 -2.655437,5.31088 1.011595,3.16123 3.793481,4.55217 6.196021,6.19602 2.402538,1.64384 5.184424,2.52899 7.839862,3.66702 0.379348,0.12645 1.011595,0.12645 0.885146,0.7587 -0.12645,0.37935 -0.632247,0.37935 -1.138044,0.37935 -5.690224,0.2529 -11.127548,-0.63225 -15.553277,-4.42572 -4.17283,-3.41414 -7.207615,-7.58697 -6.701818,-13.40365 0.632247,-1.89673 2.023191,-3.28767 4.425729,-3.66702 z"
     id="path72"
     style="fill:#222d42;fill-opacity:1;stroke-width:0.24716815" /><path
     class="st4"
     d="m 10.461085,209.81961 c -3.0347852,0.37935 -6.0695707,-2.14964 -6.3224695,-5.31088 -0.2528988,-3.03478 2.2760891,-6.06957 5.1844254,-6.32247 3.2876841,-0.37935 6.3224701,1.89675 6.5753691,4.93152 0.126448,2.90834 -1.770292,6.44893 -5.437325,6.70183 z"
     id="path74"
     style="fill:#222d42;fill-opacity:1;stroke-width:0.24716815" /><path
     class="st3"
     d="m 63.569833,164.80362 c 3.161235,-0.2529 6.196021,2.27609 6.448919,5.43732 0.252899,3.03479 -2.276089,5.94313 -5.310874,6.19603 -3.287684,0.2529 -6.196021,-2.14964 -6.44892,-5.31088 -0.252898,-3.16123 2.023191,-6.06957 5.310875,-6.32247 z"
     id="path76"
     style="fill:#222d42;fill-opacity:1;stroke-width:0.24716815" /><path
     class="st5"
     d="m 30.56654,167.20616 c 0.379348,3.28768 -1.896742,6.06957 -5.310875,6.57537 -2.908336,0.37935 -5.943121,-2.02319 -6.32247,-4.80507 -0.379349,-3.66704 1.643842,-6.32248 5.057976,-6.70183 3.161235,-0.37935 6.196021,2.02319 6.575369,4.93153 z"
     id="path78"
     style="fill:#222d42;fill-opacity:1;stroke-width:0.24716815" /></g>
</svg>