<?xml version="1.0" encoding="UTF-8" standalone="no"?>
<!-- Created with Inkscape (http://www.inkscape.org/) -->

<svg
   xmlns:dc="http://purl.org/dc/elements/1.1/"
   xmlns:cc="http://creativecommons.org/ns#"
   xmlns:rdf="http://www.w3.org/1999/02/22-rdf-syntax-ns#"
   xmlns:svg="http://www.w3.org/2000/svg"
   xmlns="http://www.w3.org/2000/svg"
   xmlns:sodipodi="http://sodipodi.sourceforge.net/DTD/sodipodi-0.dtd"
   xmlns:inkscape="http://www.inkscape.org/namespaces/inkscape"
   width="400"
   height="400"
   viewBox="0 0 105.83333 105.83334"
   version="1.1"
   id="svg8"
   inkscape:version="0.92.5 (2060ec1f9f, 2020-04-08)"
   sodipodi:docname="freebsd-logo-notext.svg">
  <defs
     id="defs2" />
  <sodipodi:namedview
     id="base"
     pagecolor="#ffffff"
     bordercolor="#666666"
     borderopacity="1.0"
     inkscape:pageopacity="0.0"
     inkscape:pageshadow="2"
     inkscape:zoom="7.9195959"
     inkscape:cx="350.38539"
     inkscape:cy="238.69467"
     inkscape:document-units="px"
     inkscape:current-layer="layer1"
     showgrid="false"
     inkscape:window-width="1852"
     inkscape:window-height="1016"
     inkscape:window-x="1988"
     inkscape:window-y="716"
     inkscape:window-maximized="1"
     units="px" />
  <metadata
     id="metadata5">
    <rdf:RDF>
      <cc:Work
         rdf:about="">
        <dc:format>image/svg+xml</dc:format>
        <dc:type
           rdf:resource="http://purl.org/dc/dcmitype/StillImage" />
        <dc:title />
      </cc:Work>
    </rdf:RDF>
  </metadata>
  <g
     inkscape:label="Calque 1"
     inkscape:groupmode="layer"
     id="layer1"
     transform="translate(0,-191.16665)">
    <path
       inkscape:connector-curvature="0"
       style="fill:#ffffff;stroke:none;stroke-width:0.26458335"
       d="m 133.09125,119.21411 c -4.45802,0 -8.07186,3.61393 -8.07186,8.07186 v 0.006 8.03 h 7.21249 c 1.0424,0 1.88463,-0.83249 1.88463,-1.87844 -7.9e-4,-1.04514 -0.84197,-1.87947 -1.88463,-1.87947 h -2.79777 -0.002 c -0.33277,0 -0.60151,-0.26929 -0.60151,-0.60151 v -5.3e-4 -3.68298 c 0.004,-2.35043 1.90959,-4.25349 4.25969,-4.25349 0.7967,0 0.99329,0.10387 1.53737,0.10387 1.14158,0 1.90556,-0.76454 1.90531,-1.81694 -5.3e-4,-0.87081 -0.74619,-1.61915 -1.65881,-1.85829 -0.62646,-0.16406 -1.10678,-0.23978 -1.78336,-0.23978 z"
       id="free-5" />
    <path
       id="path2153"
       d="M 48.146254,293.46153 C 26.206448,292.28196 7.5694188,276.29892 3.264014,255.00788 0.96387789,243.50718 2.9101546,231.41669 8.7489699,221.80329 c 0.4718305,-0.76672 0.884669,-1.53344 0.884669,-1.71036 0,-0.17695 -0.3538741,-0.76672 -0.7667126,-1.41547 -2.4180925,-3.59766 -5.4849543,-11.2648 -6.3106459,-15.68814 -0.7077335,-3.77459 0.1179028,-6.78247 2.1232138,-7.84407 1.4154655,-0.70776 4.1874321,-0.70776 6.6645058,0.0591 3.95153,1.23852 9.495451,4.01047 13.85982,7.01837 l 2.30015,1.59239 2.123199,-0.94364 c 10.4391,-4.83621 22.470617,-5.77984 33.735408,-2.65401 3.656635,1.00262 8.374866,2.94891 11.087854,4.60028 l 1.238543,0.76671 2.300136,-1.53343 c 4.482327,-2.94889 9.908304,-5.30802 14.803483,-6.42859 5.484943,-1.23853 8.728737,-0.47184 10.144207,2.35912 0.53079,1.06161 0.58978,1.53341 0.58978,4.12844 0,1.71036 -0.17695,3.65664 -0.47183,4.77724 -1.12058,4.95414 -3.65663,10.73399 -6.723478,15.33426 l -1.710374,2.53606 0.471831,0.88467 c 0.884668,1.71036 2.300136,6.1927 2.889927,9.25953 3.243774,15.92406 -1.710363,31.78914 -13.329028,42.93597 -8.492837,8.13897 -18.872959,12.68028 -30.845481,13.50595 -2.005256,0.11789 -3.715616,0.23592 -3.892553,0.17695 -0.117903,0.0591 -0.943648,0 -1.76934,-0.0591 z m 8.72874,-2.06424 c 2.830946,-0.35386 7.84407,-1.59239 10.616036,-2.65401 11.264791,-4.30538 20.288426,-12.50333 25.301563,-23.0014 2.477073,-5.19007 3.715601,-9.61341 4.305392,-15.5702 0.589772,-5.83881 -0.471832,-13.74185 -2.536065,-19.34476 l -0.589776,-1.47444 -0.648754,0.7667 c -1.002628,1.17955 -2.182192,1.65139 -4.482328,1.76934 -1.533423,0.0591 -2.59503,0 -4.187434,-0.41285 -6.959399,-1.76934 -12.68027,-6.78245 -14.803468,-13.03413 -0.884671,-2.59503 -1.002629,-6.13371 -0.294896,-8.02101 0.530797,-1.2975 1.828319,-2.65401 2.889926,-2.88992 1.179549,-0.23589 1.887282,-0.58979 1.71036,-0.88467 -0.235916,-0.41284 -4.600286,-2.53605 -7.431231,-3.59765 -17.398501,-6.48757 -37.509988,-2.06422 -50.0723,11.08785 -5.779837,6.07474 -9.6723886,13.32903 -11.4417284,21.35004 -1.8283186,8.31588 -1.4744444,15.8061 1.1205852,24.06301 4.7772222,14.9804 17.1036062,26.65804 32.4968642,30.66854 1.415465,0.35386 3.597658,0.8257 4.777207,1.00264 2.712988,0.41284 10.321156,0.53079 13.270047,0.17692 z m -9.495451,-5.07209 c -16.513831,-1.35651 -29.312045,-11.08787 -35.62269,-27.0709 -1.238545,-3.1848 -2.4770882,-7.7851 -2.9489057,-11.08787 -0.884669,-6.25166 1.4154667,-15.74711 5.6618927,-23.11934 2.654009,-4.65927 7.195315,-9.79035 11.32377,-12.9162 4.659249,-3.4797 10.616036,-6.25166 17.044627,-7.90305 4.187446,-1.06159 5.190059,-1.12057 2.712988,-0.11788 -7.490198,3.06686 -13.093109,6.78247 -17.929297,11.73663 -6.546562,6.84143 -9.731366,14.9804 -9.082614,23.23731 0.235917,2.77197 0.294896,2.83094 1.710361,2.24116 2.536052,-1.06159 6.66452,-1.47444 9.377494,-0.82569 5.720871,1.3565 11.500707,6.13372 16.690766,13.9188 3.597659,5.30803 7.372254,7.66714 12.444357,7.66714 10.96991,0 23.355286,-12.44434 26.422133,-26.59906 0.117903,-0.64876 0.294895,-1.29752 0.412853,-1.94628 0.117903,-0.53079 0.235901,-0.53079 1.710361,-0.41285 0.884669,0.059 1.769339,0.23592 2.005241,0.35388 0.412851,0.23591 1.179563,2.53605 1.887297,5.77983 0.294894,1.41549 0.412852,3.18482 0.412852,7.19532 0,4.60029 -0.05902,5.66189 -0.53081,7.84407 -0.825691,3.7746 -1.651381,6.19269 -3.4797,9.84933 -3.892539,7.96202 -10.4391,14.33164 -18.696009,18.22419 -4.777222,2.24116 -9.141592,3.42071 -14.567568,3.89254 -3.184805,0.35386 -3.597656,0.35386 -6.959399,0.0591 z m 43.525753,-57.79841 c 1.533425,-0.76674 2.536051,-1.82833 4.718229,-5.01314 5.956785,-8.90569 8.433855,-21.05514 4.836205,-24.18097 -2.654016,-2.30014 -8.846701,-1.47444 -16.395891,2.24116 -4.895165,2.41809 -9.672387,5.8978 -11.205811,8.19793 -3.4797,5.24904 0.766711,14.27268 8.551803,18.10625 3.302776,1.71034 6.959413,1.94627 9.495465,0.64877 z m -5.77985,-1.00265 c -3.125827,-0.7667 -6.782464,-3.06684 -7.903049,-5.0721 -1.828318,-3.18481 0,-5.30802 8.492839,-9.96728 11.382749,-6.25166 12.739232,-7.19531 13.446969,-9.25953 0.235915,-0.70775 0.589789,-1.23855 0.766711,-1.23855 0.471834,0 1.002624,2.30014 0.825694,3.65665 -0.41284,3.30276 -2.654016,10.1442 -4.600275,14.03675 -1.356501,2.713 -2.948904,5.01314 -4.482327,6.42858 -2.005256,1.82833 -3.538679,2.12323 -6.546562,1.41548 z M 11.344,217.85177 c 0.294895,-0.41285 0.530809,-0.8257 0.530809,-0.88467 0,-0.11789 -0.353872,-0.70775 -0.766711,-1.29752 -1.179564,-1.71036 -3.1258406,-5.95678 -4.1284676,-8.96465 -1.5334253,-4.60028 -1.7693398,-7.60817 -0.6487546,-7.96204 0.943648,-0.29488 6.2516662,2.88992 12.1494592,7.19532 l 2.71299,2.00525 1.946276,-1.29752 c 1.061592,-0.70773 1.946275,-1.35649 1.887296,-1.47445 -0.05902,-0.29489 -2.771966,-2.41809 -5.661891,-4.36437 -5.19006,-3.4797 -8.197944,-4.65925 -11.3237697,-4.42335 -4.2464128,0.2949 -4.9541446,4.42335 -2.1821927,12.68028 0.7077482,2.1232 3.2437988,7.4902 4.1874484,8.96466 0.471816,0.70773 0.648753,0.70773 1.297508,-0.17694 z"
       class="st0"
       inkscape:connector-curvature="0"
       style="fill:#222d42;fill-opacity:1;stroke-width:0.36271361"
       sodipodi:nodetypes="cccscccccccccccccscccccccccccccccccccccccccccccccccccccccccscccccscccccccccccccccccscccccccsccccccccccc" />
  </g>
  <style
     id="style2151">.st0{fill:red}</style>
</svg>
