<?xml version="1.0" encoding="UTF-8" standalone="no"?>
<!-- Created with Inkscape (http://www.inkscape.org/) -->

<svg
   xmlns:dc="http://purl.org/dc/elements/1.1/"
   xmlns:cc="http://creativecommons.org/ns#"
   xmlns:rdf="http://www.w3.org/1999/02/22-rdf-syntax-ns#"
   xmlns:svg="http://www.w3.org/2000/svg"
   xmlns="http://www.w3.org/2000/svg"
   xmlns:sodipodi="http://sodipodi.sourceforge.net/DTD/sodipodi-0.dtd"
   xmlns:inkscape="http://www.inkscape.org/namespaces/inkscape"
   width="200"
   height="50"
   viewBox="0 0 200 50.000001"
   id="svg8087"
   version="1.1"
   inkscape:version="0.91 r13725"
   sodipodi:docname="logo-rudder-nologo.svg">
  <defs
     id="defs8089" />
  <sodipodi:namedview
     id="base"
     pagecolor="#ffffff"
     bordercolor="#666666"
     borderopacity="1"
     inkscape:pageopacity="0"
     inkscape:pageshadow="2"
     inkscape:zoom="3.959798"
     inkscape:cx="36.993704"
     inkscape:cy="49.189136"
     inkscape:document-units="px"
     inkscape:current-layer="layer1"
     showgrid="false"
     units="px"
     inkscape:window-width="1865"
     inkscape:window-height="1056"
     inkscape:window-x="55"
     inkscape:window-y="24"
     inkscape:window-maximized="1" />
  <metadata
     id="metadata8092">
    <rdf:RDF>
      <cc:Work
         rdf:about="">
        <dc:format>image/svg+xml</dc:format>
        <dc:type
           rdf:resource="http://purl.org/dc/dcmitype/StillImage" />
        <dc:title></dc:title>
      </cc:Work>
    </rdf:RDF>
  </metadata>
  <g
     inkscape:label="Calque 1"
     inkscape:groupmode="layer"
     id="layer1"
     transform="translate(0,-1002.3622)">
    <g
       id="g12627"
       transform="matrix(0.01289725,0,0,0.01289725,68.398962,1041.0764)">
      <path
         inkscape:connector-curvature="0"
         d="m -2066.4071,-1085.3226 c 92.5974,0 166.298,-22.0426 221.0452,-66.3501 54.7473,-44.271 82.1771,-104.3889 82.1771,-180.2016 l 0,-4.2412 c 0,-80.1694 -26.782,-140.9236 -80.0372,-182.4178 -53.3388,-41.4153 -128.4758,-62.1061 -225.2971,-62.1061 l -376.8385,0 0,495.3168 z m -635.0862,-728.3112 654.9124,0 c 92.2872,0 174.1546,12.9912 245.5745,38.7878 71.3906,25.9459 130.8129,61.9202 178.4071,108.0669 39.1456,40.6296 69.2229,87.5281 90.2316,140.6983 21.0096,53.2097 31.5422,111.9729 31.5422,176.2954 l 0,4.2074 c 0,60.2278 -8.7867,114.3386 -26.2472,162.7015 -17.5735,48.2137 -41.7366,90.9076 -72.4895,127.969 -30.7814,37.1741 -67.5048,68.63983 -110.1144,94.51243 -42.6939,25.8726 -89.9499,45.772 -141.7123,59.7799 l 396.6648,556.2598 -304.2926,0 -362.1663,-512.2141 -324.1746,0 0,512.2141 -256.1357,0 0,-1469.27843"
         style="fill:#ffffff;fill-opacity:1;fill-rule:nonzero;stroke:none"
         id="path14-3" />
      <path
         inkscape:connector-curvature="0"
         d="m -329.72869,-321.30187 c -95.0754,0 -181.1954,-13.591 -258.1347,-40.8914 -76.9672,-27.3343 -142.7548,-68.2258 -197.2761,-122.7873 -54.6071,-54.5952 -96.5403,-122.1112 -125.9419,-202.5791 -29.373,-80.4313 -44.0173,-173.8171 -44.0173,-280.1942 l 0,-845.87993 255.9941,0 0,835.32753 c 0,137.1697 33.0629,241.4064 99.2436,312.7891 66.0685,71.3434 157.5956,107.053 274.4127,107.053 115.3807,0 206.0914,-34.2818 272.272101,-102.8483 66.1528,-68.5271 99.2436,-170.739 99.2436,-306.4414 l 0,-845.87993 256.079199,0 0,833.26333 c 0,109.1566 -15.0954,205.0208 -45.1727,287.5923 -30.105,82.5716 -72.4329,151.4366 -126.955,206.6712 -54.606399,55.3105 -120.6748988,96.5794 -198.374199,123.9137 -77.700001,27.3004 -164.720801,40.8914 -261.373401,40.8914"
         style="fill:#ffffff;fill-opacity:1;fill-rule:nonzero;stroke:none"
         id="path16-6" />
      <path
         inkscape:connector-curvature="0"
         d="m 1454.4311,-577.38917 c 76.9107,0 146.9787,-12.242 209.8649,-36.8727 62.9985,-24.5575 116.5633,-58.9914 160.6371,-103.2624 44.0737,-44.271 78.3191,-96.9906 102.8205,-158.0829 24.4727,-61.1316 36.7512,-127.48183 36.7512,-199.16313 l 0,-4.2806 c 0,-71.5714 -12.2785,-138.4087 -36.7512,-200.1769 -24.5014,-61.8442 -58.7468,-114.8286 -102.8205,-159.0996 -44.0738,-44.3836 -97.6386,-79.116 -160.6371,-104.3494 -62.8862,-25.346 -132.9542,-37.9626 -209.8649,-37.9626 l -289.6482,0 0,1003.25023 z m -545.69909,-1236.24463 547.81109,0 c 114.733,0 220.0315,18.5111 315.9241,55.5725 95.8075,37.1742 178.3792,88.5786 247.6021,154.2528 69.3351,65.787 122.7868,143.1035 160.6084,232.0566 37.7658,88.8433 56.6626,185.0453 56.6626,288.533 l 0,4.168 c 0,103.59753 -18.8968,200.13753 -56.6626,289.73273 -37.8216,89.4798 -91.2733,167.2074 -160.6084,232.9183 -69.2229,65.8264 -151.7946,117.6054 -247.6021,155.3427 -95.8926,37.7768 -201.1911,56.7018 -315.9241,56.7018 l -547.81109,0 0,-1469.27843"
         style="fill:#ffffff;fill-opacity:1;fill-rule:nonzero;stroke:none"
         id="path18" />
      <path
         inkscape:connector-curvature="0"
         d="m 3347.7193,-577.38917 c 76.9393,0 146.9233,-12.242 209.8933,-36.8727 62.97,-24.5575 116.563,-58.9914 160.58,-103.2624 44.046,-44.271 78.32,-96.9906 102.849,-158.0829 24.472,-61.1316 36.752,-127.48183 36.752,-199.16313 l 0,-4.2806 c 0,-71.5714 -12.28,-138.4087 -36.752,-200.1769 -24.529,-61.8442 -58.803,-114.8286 -102.849,-159.0996 -44.017,-44.3836 -97.61,-79.116 -160.58,-104.3494 -62.97,-25.346 -132.954,-37.9626 -209.8933,-37.9626 l -289.6197,0 0,1003.25023 z m -545.7547,-1236.24463 547.8109,0 c 114.7891,0 220.0871,18.5111 315.9521,55.5725 95.779,37.1742 178.435,88.5786 247.714,154.2528 69.195,65.787 122.702,143.1035 160.496,232.0566 37.766,88.8433 56.663,185.0453 56.663,288.533 l 0,4.168 c 0,103.59753 -18.897,200.13753 -56.663,289.73273 -37.794,89.4798 -91.301,167.2074 -160.496,232.9183 -69.279,65.8264 -151.935,117.6054 -247.714,155.3427 -95.865,37.7768 -201.163,56.7018 -315.9521,56.7018 l -547.8109,0 0,-1469.27843"
         style="fill:#ffffff;fill-opacity:1;fill-rule:nonzero;stroke:none"
         id="path20" />
      <path
         inkscape:connector-curvature="0"
         d="m 6988.5006,-1085.3226 c 92.625,0 166.326,-22.0426 221.045,-66.3501 54.775,-44.271 82.149,-104.3889 82.149,-180.2016 l 0,-4.2412 c 0,-80.1694 -26.726,-140.9236 -80.037,-182.4178 -53.339,-41.4153 -128.42,-62.1061 -225.27,-62.1061 l -376.894,0 0,495.3168 z m -635.114,-728.3112 654.968,0 c 92.288,0 174.155,12.9912 245.575,38.7878 71.307,25.9459 130.757,61.9202 178.351,108.0669 39.173,40.6296 69.223,87.5281 90.288,140.6983 20.98,53.2097 31.457,111.9729 31.457,176.2954 l 0,4.2074 c 0,60.2278 -8.759,114.3386 -26.219,162.7015 -17.517,48.2137 -41.68,90.9076 -72.49,127.969 -30.725,37.1741 -67.476,68.63983 -110.142,94.51243 -42.694,25.8726 -89.922,45.772 -141.628,59.7799 l 396.665,556.2598 -304.349,0 -362.194,-512.2141 -324.175,0 0,512.2141 -256.107,0 0,-1469.27843"
         style="fill:#ffffff;fill-opacity:1;fill-rule:nonzero;stroke:none"
         id="path22" />
      <path
         inkscape:connector-curvature="0"
         d="m 4951.3026,-1580.6394 831.208,0 0,-232.9944 -1087.258,0 0,232.9944 256.05,0"
         style="fill:#ffffff;fill-opacity:1;fill-rule:nonzero;stroke:none"
         id="path24" />
      <path
         inkscape:connector-curvature="0"
         d="m 4951.3596,-577.38917 0,-392.4317 736.723,0 0,-233.03103 -992.83,0 0,858.49653 1097.734,0 0,-233.0338 -841.627,0"
         style="fill:#ffffff;fill-opacity:1;fill-rule:nonzero;stroke:none"
         id="path26" />
    </g>
  </g>
</svg>
