<?xml version="1.0" encoding="UTF-8" standalone="no"?>
<!-- Created with Inkscape (http://www.inkscape.org/) -->

<svg
   xmlns:dc="http://purl.org/dc/elements/1.1/"
   xmlns:cc="http://creativecommons.org/ns#"
   xmlns:rdf="http://www.w3.org/1999/02/22-rdf-syntax-ns#"
   xmlns:svg="http://www.w3.org/2000/svg"
   xmlns="http://www.w3.org/2000/svg"
   xmlns:sodipodi="http://sodipodi.sourceforge.net/DTD/sodipodi-0.dtd"
   xmlns:inkscape="http://www.inkscape.org/namespaces/inkscape"
   version="1.1"
   id="svg2"
   xml:space="preserve"
   width="1300"
   height="300"
   viewBox="0 0 1300 300"
   sodipodi:docname="logo-rudder-white.svg"
   inkscape:version="0.92.5 (2060ec1f9f, 2020-04-08)"><metadata
     id="metadata8"><rdf:RDF><cc:Work
         rdf:about=""><dc:format>image/svg+xml</dc:format><dc:type
           rdf:resource="http://purl.org/dc/dcmitype/StillImage" /><dc:title /></cc:Work></rdf:RDF></metadata><defs
     id="defs6" /><sodipodi:namedview
     pagecolor="#ffffff"
     bordercolor="#666666"
     borderopacity="1"
     objecttolerance="10"
     gridtolerance="10"
     guidetolerance="10"
     inkscape:pageopacity="0"
     inkscape:pageshadow="2"
     inkscape:window-width="1920"
     inkscape:window-height="1043"
     id="namedview4"
     showgrid="false"
     inkscape:zoom="0.5286983"
     inkscape:cx="-269.87233"
     inkscape:cy="84.714539"
     inkscape:window-x="0"
     inkscape:window-y="0"
     inkscape:window-maximized="1"
     inkscape:current-layer="g10" /><g
     id="g10"
     inkscape:groupmode="layer"
     inkscape:label="2021-FIC-logo-rudder"
     transform="matrix(1.3333333,0,0,1.3333333,0,7.5e-6)"><g
       id="g12"><path
         d="m 141.797,18.77 c -51.836,0 -93.856,41.964 -93.859,93.726 0,24.859 9.89,48.703 27.492,66.281 17.601,17.578 41.472,27.453 66.367,27.453 24.891,-0.003 48.762,-9.878 66.363,-27.457 17.602,-17.578 27.488,-41.418 27.488,-66.277 -0.039,-23.273 -8.75,-45.699 -24.433,-62.914 l -61.246,68.184 c -1.871,1.882 -4.344,2.816 -6.809,2.816 -2.465,0 -4.941,-0.934 -6.812,-2.816 -3.766,-3.758 -3.766,-9.852 0,-13.614 L 204.617,43.004 C 187.398,27.445 165.016,18.809 141.797,18.77 Z m -15.738,34.312 c 2.691,6.012 8.718,10.199 15.742,10.199 7.011,0 13.043,-4.187 15.734,-10.199 5.395,1.43 10.485,3.574 15.199,6.313 -0.609,1.566 -0.945,3.207 -1.074,4.843 l -20.578,17.891 c -2.949,-0.91 -6.059,-1.387 -9.281,-1.387 -17.535,0 -31.801,14.238 -31.801,31.766 0,17.5 14.266,31.75 31.801,31.75 17.527,0 31.797,-14.25 31.797,-31.75 0,-3.383 -0.543,-6.629 -1.516,-9.68 l 17.547,-20.156 c 1.82,-0.074 3.613,-0.418 5.344,-1.059 2.742,4.692 4.89,9.782 6.316,15.157 -6.012,2.703 -10.203,8.722 -10.203,15.738 0,7.004 4.191,13.019 10.203,15.707 -1.426,5.39 -3.574,10.473 -6.316,15.168 -6.153,-2.321 -13.368,-1.035 -18.325,3.91 -4.96,4.961 -6.253,12.152 -3.914,18.309 -4.714,2.738 -9.804,4.886 -15.199,6.308 -2.691,-6.004 -8.723,-10.195 -15.734,-10.195 -7.024,0 -13.051,4.191 -15.742,10.195 -5.399,-1.422 -10.489,-3.57 -15.188,-6.308 2.336,-6.157 1.035,-13.348 -3.93,-18.309 -4.937,-4.945 -12.16,-6.231 -18.312,-3.91 -2.754,-4.695 -4.887,-9.778 -6.328,-15.168 6.015,-2.688 10.211,-8.703 10.211,-15.707 0,-7.016 -4.196,-13.035 -10.211,-15.723 1.441,-5.387 3.574,-10.48 6.328,-15.172 6.152,2.321 13.375,1.035 18.312,-3.929 4.965,-4.946 6.266,-12.145 3.93,-18.289 4.699,-2.739 9.789,-4.883 15.188,-6.313 z"
         style="fill:#13beb7;fill-opacity:1;fill-rule:nonzero;stroke:none"
         id="path16"
         inkscape:connector-curvature="0" /></g><path
       id="path18-2"
       d="m 594.00776,45.01845 v 51.61634 c -2.72697,-5.08595 -6.75027,-9.16447 -12.08219,-12.23841 -5.32792,-3.19596 -11.24553,-4.79012 -17.76144,-4.79012 -8.05087,0 -15.15634,2.1289 -21.31325,6.38687 -6.15992,4.25392 -11.01476,10.05159 -14.56571,17.38347 -3.55495,7.21493 -5.32774,15.37429 -5.32774,24.47913 0,6.85997 1.06162,13.2432 3.19457,19.15714 2.13298,5.91383 5.15283,11.05696 9.05878,15.43184 4.02692,4.37496 8.70308,7.80506 14.035,10.28903 5.44492,2.36397 11.36652,3.54726 17.76143,3.54726 6.27289,0 12.25428,-1.41837 17.93719,-4.25833 5.68791,-2.83497 10.18774,-7.15134 13.4997,-12.9483 l 0.53529,4.789 c 0.711,3.78494 2.54653,6.74135 5.50351,8.87037 3.08194,2.12895 7.04706,3.1923 11.90298,3.1923 3.07796,0 7.10466,-0.47256 12.07759,-1.41753 V 150.9139 c -2.12897,-0.23402 -3.66769,-0.88627 -4.61669,-1.94822 -0.94998,-1.18405 -1.4221,-3.19479 -1.4221,-6.03074 V 45.01845 Z m 116.16613,0 v 51.61634 c -2.72693,-5.08595 -6.75023,-9.16447 -12.08216,-12.23841 -5.32791,-3.19596 -11.24557,-4.79012 -17.76148,-4.79012 -8.05083,0 -15.15559,2.1289 -21.3155,6.38687 -6.15694,4.25392 -11.01251,10.05159 -14.56348,17.38347 -3.55492,7.21493 -5.32773,15.37429 -5.32773,24.47913 0,6.85997 1.06162,13.2432 3.19459,19.15714 2.13296,5.91383 5.15283,11.05696 9.05875,15.43184 4.02697,4.37496 8.70311,7.80506 14.03503,10.28903 5.44491,2.36397 11.36768,3.54726 17.7626,3.54726 6.27289,0 12.25312,-1.41837 17.93605,-4.25833 5.68792,-2.83497 10.18774,-7.15134 13.49968,-12.9483 l 0.53533,4.789 c 0.71095,3.78494 2.54648,6.74135 5.50349,8.87037 3.08191,2.12895 7.04705,3.1923 11.90293,3.1923 3.07798,0 7.1047,-0.47256 12.07762,-1.41753 V 150.9139 c -2.12897,-0.23402 -3.67172,-0.88627 -4.61669,-1.94822 -0.94997,-1.18405 -1.42212,-3.19479 -1.42212,-6.03074 V 45.01845 Z M 301.762,48.56336 v 125.94515 h 29.13256 v -40.62085 h 19.7131 l 18.66433,31.3829 c 0,0 1.10617,1.82731 1.77016,2.65923 1.398,1.76501 3.3902,4.03924 4.62817,4.92917 2.90596,2.08995 6.3982,3.07051 11.37113,3.07051 1.53899,0 3.25801,-0.11993 5.15199,-0.35495 2.01596,-0.23801 4.32525,-0.59396 6.9302,-1.06601 v -23.59002 c -2.35895,0.0939 -3.43464,0.11657 -4.85563,-0.65248 -1.69196,-0.91092 -2.92204,-2.30029 -4.04002,-3.9642 l -1.17054,-1.97693 -9.85137,-16.64835 c 4.26194,-2.36398 7.93307,-5.37821 11.01501,-9.0461 3.07796,-3.78504 5.44539,-7.98462 7.10136,-12.59453 1.65998,-4.73002 2.48812,-9.69817 2.48812,-14.90111 0,-5.20301 -1.0662,-10.34477 -3.19917,-15.43073 -2.01097,-5.08584 -4.85152,-9.63642 -8.52347,-13.65937 -3.67194,-4.13693 -8.05481,-7.39136 -13.14474,-9.75834 -4.97193,-2.47996 -10.42187,-3.72299 -16.34276,-3.72299 z m 29.13256,25.54283 h 25.75189 c 2.24998,0 4.38293,0.71177 6.39491,2.12973 2.01197,1.41806 3.6718,3.42992 4.97278,6.03192 1.42198,2.48396 2.13202,5.43696 2.13202,8.86695 0,3.42892 -0.59194,6.44421 -1.77593,9.04609 -1.18297,2.601 -2.72384,4.67214 -4.61782,6.21114 -1.77698,1.41795 -3.84758,2.12507 -6.21455,2.12507 h -26.6433 z m 474.14136,5.35534 c -10.54065,0 -19.54147,2.30898 -27.00285,6.9279 -7.4613,4.50051 -13.2063,10.48156 -17.23305,17.94291 -3.90832,7.34296 -5.86185,15.5149 -5.86185,24.51588 0,6.27701 1.12463,12.31658 3.37493,18.11983 2.25022,5.68486 5.50732,10.71895 9.77092,15.10103 4.3821,4.38206 9.65235,7.87533 15.81098,10.48085 6.15855,2.48715 13.20577,3.73107 21.14092,3.73107 7.1061,0 13.5606,-1.06625 19.36388,-3.19803 5.92162,-2.13183 11.01435,-5.0335 15.27787,-8.70497 4.38218,-3.78993 7.75733,-8.11207 10.12605,-12.96788 l -24.16102,-6.75099 c -1.4211,3.43456 -4.02593,6.15861 -7.81583,8.172 -3.6714,2.01333 -7.63935,3.01993 -11.90295,3.01993 -3.43462,0 -6.69172,-0.71077 -9.77107,-2.13202 -3.0792,-1.53963 -5.62553,-3.73052 -7.6389,-6.57296 -1.89495,-2.84236 -3.01958,-6.33564 -3.375,-10.48086 h 68.92875 c 0.11842,-1.18434 0.23655,-2.54631 0.35497,-4.08594 0.23678,-1.6581 0.3549,-3.31701 0.3549,-4.97509 0,-8.5273 -1.95352,-16.40229 -5.86192,-23.62679 -3.90833,-7.34289 -9.59355,-13.26554 -17.05493,-17.766 -7.34287,-4.50053 -16.28415,-6.74987 -26.8248,-6.74987 z m 117.39526,0.50085 c -5.5659,0.11699 -10.8933,1.94846 -15.98318,5.49543 -5.094,3.5509 -9.23775,8.45719 -12.43373,14.72307 V 81.37986 h -26.11252 v 93.12865 h 28.4214 v -55.87808 c 2.484,-4.25797 6.51173,-7.449 12.07763,-9.57801 5.56695,-2.24594 11.78032,-3.37147 18.6483,-3.37147 V 80.13812 c -0.47303,-0.11698 -1.0626,-0.17574 -1.77368,-0.17574 z m -506.4065,1.41748 v 59.60109 c 0,11.47288 2.48899,20.22179 7.46091,26.25277 4.97294,6.03187 12.19982,9.04728 21.67167,9.04728 7.81287,0 14.8606,-1.41837 21.1375,-4.25833 6.39391,-2.957 11.7223,-7.50646 15.98323,-13.65937 l 0.5353,5.6804 c 0.71098,3.78087 2.54712,6.73799 5.50808,8.86695 2.95696,2.01192 6.92545,3.01539 11.8984,3.01539 1.53896,0 3.25701,-0.11709 5.15198,-0.35611 2.01197,-0.23402 4.31963,-0.58937 6.92561,-1.06142 V 150.9139 c -2.24997,-0.23402 -3.84746,-0.88627 -4.79244,-1.94822 -0.83199,-1.18405 -1.24636,-3.19479 -1.24636,-6.03074 V 81.37986 h -28.41807 v 57.47254 c -1.77797,3.19497 -3.79281,5.79644 -6.03878,7.80435 -2.24998,2.01204 -4.5621,3.48845 -6.92905,4.43747 -2.36697,0.82399 -4.85494,1.23834 -7.46092,1.23834 -4.14392,0 -7.34066,-1.47705 -9.59062,-4.43406 -2.24997,-3.07394 -3.37492,-7.44929 -3.37492,-13.12522 V 81.37986 Z M 804.6799,99.89141 c 3.55297,0 6.81,0.82891 9.77085,2.48695 2.96092,1.53971 5.3295,3.79016 7.10602,6.75104 1.77645,2.84238 2.90228,6.21756 3.37598,10.12593 h -40.50473 c 0.47363,-3.90837 1.59953,-7.28355 3.37598,-10.12593 1.77652,-2.96088 4.08547,-5.21133 6.92797,-6.75104 2.96093,-1.65804 6.27638,-2.48695 9.94793,-2.48695 z m -231.45699,3.84015 c 2.84296,0 5.62404,0.70765 8.35,2.12859 2.83997,1.41802 5.32848,3.30884 7.45746,5.67582 2.24997,2.36298 3.96916,5.14518 5.15313,8.33621 v 19.5109 c -0.94598,1.89393 -2.1327,3.66831 -3.55066,5.32433 -1.42199,1.65598 -3.02008,3.01593 -4.79704,4.07789 -1.66,1.06701 -3.43377,1.95351 -5.32775,2.66046 -1.89497,0.59397 -3.85221,0.8868 -5.86419,0.8868 -3.19496,0 -6.15591,-0.59062 -8.88185,-1.7736 -2.72297,-1.17993 -5.09054,-2.83574 -7.10252,-4.96475 -2.01596,-2.24593 -3.61304,-4.78858 -4.79703,-7.62861 -1.06597,-2.95694 -1.59672,-6.14908 -1.59672,-9.57801 0,-3.313 0.47267,-6.44522 1.41867,-9.40222 1.06599,-2.95694 2.54595,-5.55847 4.44093,-7.80441 1.89396,-2.36391 4.085,-4.19998 6.57295,-5.50001 2.60597,-1.30097 5.44567,-1.94939 8.52462,-1.94939 z m 116.16615,0 c 2.84296,0 5.62523,0.70765 8.35115,2.12859 2.83996,1.41802 5.32733,3.30884 7.45629,5.67582 2.25,2.36298 3.96901,5.14518 5.152,8.33621 v 19.5109 c -0.94496,1.89393 -2.13153,3.66831 -3.54954,5.32433 -1.42197,1.65598 -3.02007,3.01593 -4.79702,4.07789 -1.65997,1.06701 -3.43376,1.95351 -5.32775,2.66046 -1.89498,0.59397 -3.85221,0.8868 -5.86418,0.8868 -3.19496,0 -6.15649,-0.59062 -8.87842,-1.7736 -2.72697,-1.17993 -5.09396,-2.83574 -7.10593,-4.96475 -2.01597,-2.24593 -3.6119,-4.78858 -4.79588,-7.62861 -1.06601,-2.95694 -1.59787,-6.14908 -1.59787,-9.57801 0,-3.313 0.47251,-6.44522 1.41748,-9.40222 1.06701,-2.95694 2.54712,-5.55847 4.44212,-7.80441 1.89394,-2.36391 4.08612,-4.19998 6.57407,-5.50001 2.60594,-1.30097 5.4445,-1.94939 8.52348,-1.94939 z"
       style="fill:#ffffff;fill-opacity:1;fill-rule:nonzero;stroke:none;stroke-width:0.9999851"
       inkscape:connector-curvature="0" /></g></svg>