<?xml version="1.0" encoding="UTF-8" standalone="no"?>
<!-- Created with Inkscape (http://www.inkscape.org/) -->

<svg
   xmlns:dc="http://purl.org/dc/elements/1.1/"
   xmlns:cc="http://creativecommons.org/ns#"
   xmlns:rdf="http://www.w3.org/1999/02/22-rdf-syntax-ns#"
   xmlns:svg="http://www.w3.org/2000/svg"
   xmlns="http://www.w3.org/2000/svg"
   xmlns:sodipodi="http://sodipodi.sourceforge.net/DTD/sodipodi-0.dtd"
   xmlns:inkscape="http://www.inkscape.org/namespaces/inkscape"
   width="50mm"
   height="50mm"
   viewBox="0 0 177.16535 177.16535"
   id="svg8314"
   version="1.1"
   inkscape:version="0.91 r13725"
   sodipodi:docname="logo-rudder-sm.svg">
  <defs
     id="defs8316" />
  <sodipodi:namedview
     id="base"
     pagecolor="#ffffff"
     bordercolor="#666666"
     borderopacity="1.0"
     inkscape:pageopacity="0.0"
     inkscape:pageshadow="2"
     inkscape:zoom="2.8"
     inkscape:cx="0.82534518"
     inkscape:cy="59.190038"
     inkscape:document-units="px"
     inkscape:current-layer="layer1"
     showgrid="false"
     inkscape:showpageshadow="false"
     showborder="true"
     inkscape:window-width="1865"
     inkscape:window-height="1056"
     inkscape:window-x="55"
     inkscape:window-y="24"
     inkscape:window-maximized="1" />
  <metadata
     id="metadata8319">
    <rdf:RDF>
      <cc:Work
         rdf:about="">
        <dc:format>image/svg+xml</dc:format>
        <dc:type
           rdf:resource="http://purl.org/dc/dcmitype/StillImage" />
        <dc:title></dc:title>
      </cc:Work>
    </rdf:RDF>
  </metadata>
  <g
     inkscape:label="Calque 1"
     inkscape:groupmode="layer"
     id="layer1"
     transform="translate(0,-875.19685)">
    <g
       transform="matrix(1.4743942,0,0,1.4743942,-739.71927,878.29997)"
       id="g8293"
       style="fill:#ffffff;fill-opacity:1">
      <path
         inkscape:connector-curvature="0"
         d="m 570.96265,91.641352 c 3.06267,-0.812 5.95334,-2.032 8.62667,-3.589333 -1.328,-3.494667 -0.58933,-7.589333 2.224,-10.402666 2.812,-2.814667 6.908,-3.549334 10.40133,-2.225334 1.56134,-2.672 2.78134,-5.562666 3.588,-8.623999 -3.41333,-1.530667 -5.79466,-4.953334 -5.79466,-8.937334 0,-3.986666 2.38133,-7.405333 5.79466,-8.938666 -0.80666,-3.058667 -2.02666,-5.949333 -3.588,-8.621333 -0.97733,0.372 -2.00133,0.562667 -3.03466,0.609333 l -9.96267,11.450667 c 0.55467,1.737333 0.86267,3.584 0.86267,5.499999 0,9.954667 -8.09734,18.053333 -18.05334,18.053333 -9.95333,0 -18.052,-8.098666 -18.052,-18.053333 0,-9.955999 8.09867,-18.051999 18.052,-18.051999 1.832,0 3.6,0.276 5.26534,0.790667 l 11.688,-10.174667 c 0.072,-0.934666 0.26933,-1.862666 0.60933,-2.753333 -2.67333,-1.561333 -5.564,-2.78 -8.62667,-3.589333 -1.52933,3.417333 -4.95333,5.797333 -8.936,5.797333 -3.984,0 -7.40666,-2.38 -8.93466,-5.797333 -3.06134,0.809333 -5.95334,2.028 -8.624,3.589333 1.324,3.490666 0.588,7.590666 -2.22667,10.405333 -2.812,2.812 -6.908,3.549333 -10.404,2.224 -1.56,2.672 -2.77467,5.562666 -3.588,8.624 3.416,1.530666 5.79467,4.949333 5.79467,8.935999 0,3.986667 -2.37867,7.406667 -5.79467,8.937334 0.81333,3.061333 2.02933,5.951999 3.588,8.623999 3.496,-1.324 7.59467,-0.589333 10.404,2.225334 2.81467,2.813333 3.55333,6.907999 2.22667,10.402666 2.67066,1.557333 5.56266,2.777333 8.624,3.589333 1.528,-3.417333 4.95066,-5.796 8.93466,-5.796 3.98267,0 7.40667,2.378667 8.936,5.796"
         style="fill:#ffffff;fill-opacity:1;fill-rule:nonzero;stroke:none"
         id="path52" />
      <path
         inkscape:connector-curvature="0"
         d="m 558.88665,53.117353 c -2.13866,2.137334 -2.13866,5.602667 0,7.74 1.06667,1.068 2.46534,1.601333 3.868,1.601333 1.39867,0 2.80267,-0.533333 3.868,-1.601333 l 39.07333,-44.663999 c 0.59334,-0.593333 0.59334,-1.554666 0,-2.148 -0.59333,-0.593333 -1.556,-0.593333 -2.148,0 l 0,0 -44.66133,39.071999"
         style="fill:#ffffff;fill-opacity:1;fill-rule:nonzero;stroke:none"
         id="path54" />
      <path
         inkscape:connector-curvature="0"
         d="m 510.36932,49.32402 6.088,6.296 c 1.24933,-24.086666 21.172,-43.230666 45.568,-43.230666 10.33733,0 19.868,3.441334 27.52,9.234667 l 9.57733,-8.217333 C 589.06532,5.0360212 576.13599,-0.00397872 562.02532,-0.00397872 c -31.31867,0 -56.82533,24.81466572 -57.968,55.85466572 l 6.312,-6.526667"
         style="fill:#ffffff;fill-opacity:1;fill-rule:nonzero;stroke:none"
         id="path56" />
      <path
         inkscape:connector-curvature="0"
         d="m 553.33065,109.67602 6.29467,-6.088 c -21.92267,-1.136 -39.74267,-17.745334 -42.768,-39.116 l -6.488,-6.708 -6.05867,6.264 c 2.93467,28.514666 26.51867,50.89333 55.548,51.96133 l -6.528,-6.31333"
         style="fill:#ffffff;fill-opacity:1;fill-rule:nonzero;stroke:none"
         id="path58" />
      <path
         inkscape:connector-curvature="0"
         d="m 607.59465,60.421353 c -1.13733,21.921333 -17.748,39.741337 -39.11733,42.767997 l -6.70667,6.48667 6.264,6.05867 c 28.516,-2.93334 50.89067,-26.516004 51.96,-55.545337 l -12.4,0.232"
         style="fill:#ffffff;fill-opacity:1;fill-rule:nonzero;stroke:none"
         id="path60" />
    </g>
  </g>
</svg>
