<?xml version="1.0" encoding="UTF-8" standalone="no"?>
<svg
   xmlns:dc="http://purl.org/dc/elements/1.1/"
   xmlns:cc="http://creativecommons.org/ns#"
   xmlns:rdf="http://www.w3.org/1999/02/22-rdf-syntax-ns#"
   xmlns:svg="http://www.w3.org/2000/svg"
   xmlns="http://www.w3.org/2000/svg"
   id="svg8"
   version="1.1"
   viewBox="0 0 105.83333 105.83334"
   height="400"
   width="400">
  <defs
     id="defs2" />
  <metadata
     id="metadata5">
    <rdf:RDF>
      <cc:Work
         rdf:about="">
        <dc:format>image/svg+xml</dc:format>
        <dc:type
           rdf:resource="http://purl.org/dc/dcmitype/StillImage" />
        <dc:title></dc:title>
      </cc:Work>
    </rdf:RDF>
  </metadata>
  <g
     transform="translate(0,-191.16665)"
     id="layer1">
    <path
       id="free-5"
       d="m 133.09125,119.21411 c -4.45802,0 -8.07186,3.61393 -8.07186,8.07186 v 0.006 8.03 h 7.21249 c 1.0424,0 1.88463,-0.83249 1.88463,-1.87844 -7.9e-4,-1.04514 -0.84197,-1.87947 -1.88463,-1.87947 h -2.79777 -0.002 c -0.33277,0 -0.60151,-0.26929 -0.60151,-0.60151 v -5.3e-4 -3.68298 c 0.004,-2.35043 1.90959,-4.25349 4.25969,-4.25349 0.7967,0 0.99329,0.10387 1.53737,0.10387 1.14158,0 1.90556,-0.76454 1.90531,-1.81694 -5.3e-4,-0.87081 -0.74619,-1.61915 -1.65881,-1.85829 -0.62646,-0.16406 -1.10678,-0.23978 -1.78336,-0.23978 z"
       style="fill:#ffffff;stroke:none;stroke-width:0.26458335" />
    <g
       style="stroke-width:0.58921725"
       transform="matrix(2.9560733,0,0,2.9560733,-217.81488,-116.34244)"
       id="g2067">
      <path
         style="fill:#222d42;fill-opacity:1;stroke:none;stroke-width:0.58921725"
         d="m 346.14844,-326.69141 c -35.8828,0 -64.97384,29.07765 -65,64.95508 l -0.002,-0.002 v 50.30078 l 0.002,0.002 c 0.0197,8.14606 6.62594,14.74219 14.77734,14.74219 l 0.0703,-0.002 0.004,0.002 h 50.17383 c 35.8869,-0.0151 64.97461,-29.10638 64.97461,-64.99609 0,-35.89901 -29.10163,-65.00196 -65,-65.00196 z m 19.08398,15.40625 c 2.55715,0 4.37251,0.28615 6.74024,0.90625 3.44927,0.90384 6.26753,3.73219 6.26953,7.02344 9.4e-4,3.97758 -2.88654,6.86719 -7.20117,6.86719 -2.05637,0 -2.7994,-0.39258 -5.81055,-0.39258 -8.88224,0 -16.08401,7.19266 -16.09961,16.07617 v 13.91992 0.002 c 0,1.25563 1.01573,2.27343 2.27344,2.27343 h 0.006 10.57422 c 3.94079,10e-6 7.12004,3.15339 7.12304,7.10352 0,3.9532 -3.18323,7.09961 -7.12304,7.09961 H 349.131 v 16.2168 0.0234 c 0,16.84887 -13.65861,30.50782 -30.50781,30.50782 l 0.002,-0.002 c -2.55715,0 -4.37251,-0.28618 -6.74023,-0.90625 -3.44928,-0.90383 -6.26754,-3.73218 -6.26954,-7.02343 -9.4e-4,-3.97758 2.88654,-6.86719 7.20118,-6.86719 2.05636,0 2.79939,0.39258 5.81054,0.39258 8.88227,0 16.08451,-7.19266 16.09961,-16.07617 v -13.91993 -0.002 c 0,-1.25563 -1.01571,-2.27344 -2.27344,-2.27344 h -0.008 -10.57422 c -3.94076,0 -7.12004,-3.15338 -7.12304,-7.10351 0,-3.9532 3.18326,-7.09961 7.12304,-7.09961 h 12.85352 v -16.2168 -0.0215 c 0,-16.84887 13.6586,-30.50782 30.50781,-30.50782 z"
         transform="matrix(0.26458334,0,0,0.26458334,0,191.16665)"
         id="voice" />
      <path
         d="m 105.81536,136.14848 c 0,0 0,-0.71452 0,-0.71452 l -0.32645,0.74896 c 0,0 -0.31817,-0.74896 -0.31817,-0.74896 v 0.71452 h -0.18321 v -1.12834 h 0.19201 c 0.10512,0.24018 0.20976,0.48059 0.31457,0.72089 l 0.30968,-0.72089 h 0.19448 v 1.12834 z m -1.33496,-0.93937 v 0.93937 h -0.19147 v -0.93937 h -0.32092 v -0.18897 h 0.83302 v 0.18897 h -0.32063"
         id="TM"
         style="fill:#294172;stroke:none;stroke-width:0.15589708" />
      <path
         style="opacity:1;fill:#394b6e;fill-opacity:1;stroke:none;stroke-width:5.70856428;stroke-miterlimit:4;stroke-dasharray:none;stroke-opacity:1"
         d="m 365.17773,-311.29492 c -0.14783,0.006 -0.29562,0.0132 -0.44335,0.0215 0.16635,-0.003 0.33105,-0.0117 0.49804,-0.0117 v 0.002 c 0.17436,0 0.32453,0.0126 0.49219,0.0156 -0.18221,-0.0107 -0.36451,-0.0199 -0.54688,-0.0273 z m 0.54688,0.0273 c 0.89279,0.0202 1.78427,0.0795 2.67187,0.17774 -0.83735,-0.10599 -1.71387,-0.16054 -2.67187,-0.17774 z m 3.05273,0.22266 c 1.03369,0.14909 2.04958,0.3679 3.19532,0.66797 3.44927,0.90383 6.26752,3.73218 6.26953,7.02343 9.4e-4,3.97758 -2.88655,6.86719 -7.20117,6.86719 -2.05637,0 -2.7994,-0.39258 -5.81055,-0.39258 -1.14802,0 -2.26439,0.12635 -3.34375,0.35547 v 0.0547 c 1.08164,-0.23342 2.18449,-0.3545 3.29101,-0.36133 8.8759,-4.7e-4 16.07165,7.19441 16.07227,16.07031 4.7e-4,8.87666 -7.19561,16.07274 -16.07227,16.07227 -1.10604,-0.002 -1.7196,0.1037 -3.29101,0.0801 h 0.0977 c 3.94078,0 7.12004,3.15342 7.12304,7.10351 0,3.91346 -3.12096,7.03136 -7.00586,7.09375 1.02158,0.11424 2.04828,0.17682 3.07617,0.1875 16.8655,7.7e-4 30.53788,-13.67161 30.53711,-30.53711 -0.0191,-15.45814 -11.58705,-28.46363 -26.9375,-30.28515 z m -50.09961,46.32812 c -16.86549,-7.5e-4 -30.53787,13.67161 -30.53711,30.53711 0.0189,15.45816 11.58706,28.46362 26.9375,30.28516 -1.03368,-0.14891 -2.04957,-0.36776 -3.19531,-0.66797 -3.44927,-0.90384 -6.26752,-3.73219 -6.26953,-7.02344 -9.4e-4,-3.97757 2.88655,-6.86718 7.20117,-6.86718 2.05637,0 2.7994,0.39257 5.81055,0.39257 1.14802,0 2.26439,-0.12643 3.34375,-0.35547 v -0.0547 c -1.08164,0.23357 -2.1845,0.35452 -3.29102,0.36132 -8.8759,5e-4 -16.07164,-7.19443 -16.07226,-16.07031 -4.7e-4,-8.87667 7.1956,-16.07272 16.07226,-16.07226 1.10604,0.001 1.71961,-0.10351 3.29102,-0.0801 h -0.0977 c -3.94078,0 -7.12004,-3.15342 -7.12304,-7.10352 0,-3.91347 3.12096,-7.03135 7.00586,-7.09375 -1.02158,-0.11414 -2.04828,-0.17691 -3.07618,-0.1875 z m -3.21875,60.86719 c 0.83735,0.10583 1.71388,0.16073 2.67188,0.17773 -0.89279,-0.0189 -1.78428,-0.0795 -2.67188,-0.17773 z m 2.67188,0.17578 c 0.18221,0.0113 0.36449,0.0198 0.54687,0.0274 v 0.002 c 0.14782,-0.008 0.29565,-0.0121 0.44336,-0.0234 -0.16633,0.003 -0.33105,0.0117 -0.49804,0.0117 v -0.002 c -0.17435,0 -0.32455,-0.0119 -0.49219,-0.0156 z"
         transform="matrix(0.26458334,0,0,0.26458334,0,191.16665)"
         id="path2022" />
    </g>
  </g>
</svg>
